%TF.GenerationSoftware,KiCad,Pcbnew,7.0.5-0*%
%TF.CreationDate,2023-06-28T16:51:41-07:00*%
%TF.ProjectId,SLM-VERA,534c4d2d-5645-4524-912e-6b696361645f,rev?*%
%TF.SameCoordinates,PX5f5d2a1PY5f5eba0*%
%TF.FileFunction,Soldermask,Bot*%
%TF.FilePolarity,Negative*%
%FSLAX46Y46*%
G04 Gerber Fmt 4.6, Leading zero omitted, Abs format (unit mm)*
G04 Created by KiCad (PCBNEW 7.0.5-0) date 2023-06-28 16:51:41*
%MOMM*%
%LPD*%
G01*
G04 APERTURE LIST*
%ADD10C,1.500000*%
%ADD11R,2.000000X1.200000*%
%ADD12O,2.000000X1.200000*%
G04 APERTURE END LIST*
D10*
%TO.C,~{LED3}*%
X5700000Y16600000D03*
%TD*%
%TO.C,~{LASER2}*%
X24396141Y23946417D03*
%TD*%
%TO.C,STROBE*%
X4699999Y41720000D03*
%TD*%
%TO.C,~{LASER1}*%
X24400000Y26500000D03*
%TD*%
%TO.C,~{LED1}*%
X5200000Y8400000D03*
%TD*%
%TO.C,TRIGGER*%
X4699999Y44420000D03*
%TD*%
%TO.C,~{LASER3}*%
X24400000Y21400000D03*
%TD*%
%TO.C,~{LED2}*%
X5500000Y12300000D03*
%TD*%
D11*
%TO.C,U4*%
X26899999Y46820000D03*
D12*
X26899999Y44280000D03*
X26899999Y41740000D03*
X26899999Y39200000D03*
X26899999Y36660000D03*
X26899999Y34120000D03*
X26899999Y31580000D03*
X26899999Y29040000D03*
X26899999Y26500000D03*
X26899999Y23960000D03*
X26899999Y21420000D03*
X26899999Y18880000D03*
X26899999Y16340000D03*
X26899999Y13800000D03*
X26899999Y11260000D03*
X26899999Y8720000D03*
X26899999Y6180000D03*
X26899999Y3640000D03*
X26899999Y1100000D03*
X1503679Y1102720D03*
X1503679Y3642720D03*
X1499999Y6180000D03*
X1499999Y8720000D03*
X1499999Y11260000D03*
X1499999Y13800000D03*
X1499999Y16340000D03*
X1499999Y18880000D03*
X1499999Y21420000D03*
X1499999Y23960000D03*
X1499999Y26500000D03*
X1499999Y29040000D03*
X1499999Y31580000D03*
X1499999Y34120000D03*
X1499999Y36660000D03*
X1499999Y39200000D03*
X1499999Y41740000D03*
X1499999Y44280000D03*
X1499999Y46820000D03*
%TD*%
M02*
