M48
; DRILL file {KiCad 7.0.5-0} date 2023 June 28, Wednesday 11:54:41
; FORMAT={2:4/ absolute / inch / keep zeros}
; #@! TF.CreationDate,2023-06-28T11:54:41-07:00
; #@! TF.GenerationSoftware,Kicad,Pcbnew,7.0.5-0
; #@! TF.FileFunction,Plated,1,2,PTH
FMAT,2
INCH
; #@! TA.AperFunction,Plated,PTH,ViaDrill
T1C0.0100
; #@! TA.AperFunction,Plated,PTH,ComponentDrill
T2C0.0276
; #@! TA.AperFunction,Plated,PTH,ComponentDrill
T3C0.0315
%
G90
G05
T1
X003031Y012764
X003031Y008906
X003268Y013000
X003268Y009102
X003504Y012764
X003504Y008906
X003740Y013000
X003740Y009102
X003976Y012764
X003976Y008906
X004213Y013000
X004213Y009142
X004449Y012764
X004449Y008906
X004685Y013000
X004685Y009142
X004921Y012764
X004921Y008906
X005157Y013000
X005157Y009142
X005394Y012764
X005394Y008906
X005630Y013000
X005630Y009142
X005866Y012764
X005866Y008906
X006102Y013000
X006102Y009142
T2
X001850Y017488
X001850Y016425
X002721Y001911
X002761Y005061
X002761Y003526
X009329Y009436
X009331Y010441
X009331Y008433
T3
X000591Y018433
X000591Y017433
X000591Y016433
X000591Y015433
X000591Y014433
X000591Y013433
X000591Y012433
X000591Y011433
X000591Y010433
X000591Y009433
X000591Y008433
X000591Y007433
X000591Y006433
X000591Y005433
X000591Y004433
X000591Y003433
X000591Y002433
X000592Y001434
X000592Y000434
X010591Y018433
X010591Y017433
X010591Y016433
X010591Y015433
X010591Y014433
X010591Y013433
X010591Y012433
X010591Y011433
X010591Y010433
X010591Y009433
X010591Y008433
X010591Y007433
X010591Y006433
X010591Y005433
X010591Y004433
X010591Y003433
X010591Y002433
X010591Y001433
X010591Y000433
T0
M30
