%TF.GenerationSoftware,KiCad,Pcbnew,7.0.5-0*%
%TF.CreationDate,2023-06-28T11:54:25-07:00*%
%TF.ProjectId,AAXA01,41415841-3031-42e6-9b69-6361645f7063,rev?*%
%TF.SameCoordinates,PX5f5d2a1PY5f5eba0*%
%TF.FileFunction,Copper,L2,Bot*%
%TF.FilePolarity,Positive*%
%FSLAX46Y46*%
G04 Gerber Fmt 4.6, Leading zero omitted, Abs format (unit mm)*
G04 Created by KiCad (PCBNEW 7.0.5-0) date 2023-06-28 11:54:25*
%MOMM*%
%LPD*%
G01*
G04 APERTURE LIST*
%TA.AperFunction,ComponentPad*%
%ADD10C,1.500000*%
%TD*%
%TA.AperFunction,ComponentPad*%
%ADD11O,2.000000X1.200000*%
%TD*%
%TA.AperFunction,ComponentPad*%
%ADD12R,2.000000X1.200000*%
%TD*%
%TA.AperFunction,ViaPad*%
%ADD13C,0.508000*%
%TD*%
%TA.AperFunction,Conductor*%
%ADD14C,0.127000*%
%TD*%
G04 APERTURE END LIST*
D10*
%TO.P,~{LED3},1,1*%
%TO.N,/~{LED3}*%
X7012499Y12855000D03*
%TD*%
%TO.P,~{LED2},1,1*%
%TO.N,/~{LED2}*%
X7012499Y8955000D03*
%TD*%
%TO.P,~{LED1},1,1*%
%TO.N,/~{LED1}*%
X6912499Y4855000D03*
%TD*%
%TO.P,~{LASER2},1,1*%
%TO.N,/~{LASER2}*%
X23696140Y23966417D03*
%TD*%
D11*
%TO.P,U4,38,GND*%
%TO.N,GND*%
X1499999Y46820000D03*
%TO.P,U4,37,GPIO23*%
%TO.N,/TRIGGER*%
X1499999Y44280000D03*
%TO.P,U4,36,GPIO22*%
%TO.N,/STROBE*%
X1499999Y41740000D03*
%TO.P,U4,35,U0TXD/GPIO1*%
%TO.N,unconnected-(U4-U0TXD{slash}GPIO1-Pad35)*%
X1499999Y39200000D03*
%TO.P,U4,34,U0RXD/GPIO3*%
%TO.N,unconnected-(U4-U0RXD{slash}GPIO3-Pad34)*%
X1499999Y36660000D03*
%TO.P,U4,33,GPIO21*%
%TO.N,/~{LED3}*%
X1499999Y34120000D03*
%TO.P,U4,32,GND*%
%TO.N,GND*%
X1499999Y31580000D03*
%TO.P,U4,31,GPIO19*%
%TO.N,/~{LED2}*%
X1499999Y29040000D03*
%TO.P,U4,30,GPIO18*%
%TO.N,/~{LED1}*%
X1499999Y26500000D03*
%TO.P,U4,29,GPIO5*%
%TO.N,unconnected-(U4-GPIO5-Pad29)*%
X1499999Y23960000D03*
%TO.P,U4,28,GPIO17*%
%TO.N,unconnected-(U4-GPIO17-Pad28)*%
X1499999Y21420000D03*
%TO.P,U4,27,GPIO16*%
%TO.N,unconnected-(U4-GPIO16-Pad27)*%
X1499999Y18880000D03*
%TO.P,U4,26,ADC2_CH0/GPIO4*%
%TO.N,unconnected-(U4-ADC2_CH0{slash}GPIO4-Pad26)*%
X1499999Y16340000D03*
%TO.P,U4,25,GPIO0/BOOT/ADC2_CH1*%
%TO.N,unconnected-(U4-GPIO0{slash}BOOT{slash}ADC2_CH1-Pad25)*%
X1499999Y13800000D03*
%TO.P,U4,24,ADC2_CH2/GPIO2*%
%TO.N,unconnected-(U4-ADC2_CH2{slash}GPIO2-Pad24)*%
X1499999Y11260000D03*
%TO.P,U4,23,MTDO/GPIO15/ADC2_CH3*%
%TO.N,unconnected-(U4-MTDO{slash}GPIO15{slash}ADC2_CH3-Pad23)*%
X1499999Y8720000D03*
%TO.P,U4,22,SD_DATA1/GPIO8*%
%TO.N,unconnected-(U4-SD_DATA1{slash}GPIO8-Pad22)*%
X1499999Y6180000D03*
%TO.P,U4,21,SD_DATA0/GPIO7*%
%TO.N,unconnected-(U4-SD_DATA0{slash}GPIO7-Pad21)*%
X1503679Y3642720D03*
%TO.P,U4,20,SD_CLK/GPIO6*%
%TO.N,unconnected-(U4-SD_CLK{slash}GPIO6-Pad20)*%
X1503679Y1102720D03*
%TO.P,U4,19,5V*%
%TO.N,unconnected-(U4-5V-Pad19)*%
X26899999Y1100000D03*
%TO.P,U4,18,CMD*%
%TO.N,unconnected-(U4-CMD-Pad18)*%
X26899999Y3640000D03*
%TO.P,U4,17,SD_DATA3/GPIO10*%
%TO.N,unconnected-(U4-SD_DATA3{slash}GPIO10-Pad17)*%
X26899999Y6180000D03*
%TO.P,U4,16,SD_DATA2/GPIO9*%
%TO.N,unconnected-(U4-SD_DATA2{slash}GPIO9-Pad16)*%
X26899999Y8720000D03*
%TO.P,U4,15,MTCK/GPIO13/ADC2_CH4*%
%TO.N,unconnected-(U4-MTCK{slash}GPIO13{slash}ADC2_CH4-Pad15)*%
X26899999Y11260000D03*
%TO.P,U4,14,GND*%
%TO.N,GND*%
X26899999Y13800000D03*
%TO.P,U4,13,MTDI/GPIO12/ADC2_CH5*%
%TO.N,unconnected-(U4-MTDI{slash}GPIO12{slash}ADC2_CH5-Pad13)*%
X26899999Y16340000D03*
%TO.P,U4,12,MTMS/GPIO14/ADC2_CH6*%
%TO.N,unconnected-(U4-MTMS{slash}GPIO14{slash}ADC2_CH6-Pad12)*%
X26899999Y18880000D03*
%TO.P,U4,11,ADC2_CH7/GPIO27*%
%TO.N,/~{LASER3}*%
X26899999Y21420000D03*
%TO.P,U4,10,DAC_2/ADC2_CH9/GPIO26*%
%TO.N,/~{LASER2}*%
X26899999Y23960000D03*
%TO.P,U4,9,DAC_1/ADC2_CH8/GPIO25*%
%TO.N,/~{LASER1}*%
X26899999Y26500000D03*
%TO.P,U4,8,32K_XN/GPIO33/ADC1_CH5*%
%TO.N,unconnected-(U4-32K_XN{slash}GPIO33{slash}ADC1_CH5-Pad8)*%
X26899999Y29040000D03*
%TO.P,U4,7,32K_XP/GPIO32/ADC1_CH4*%
%TO.N,unconnected-(U4-32K_XP{slash}GPIO32{slash}ADC1_CH4-Pad7)*%
X26899999Y31580000D03*
%TO.P,U4,6,VDET_2/GPIO35/ADC1_CH7*%
%TO.N,unconnected-(U4-VDET_2{slash}GPIO35{slash}ADC1_CH7-Pad6)*%
X26899999Y34120000D03*
%TO.P,U4,5,VDET_1/GPIO34/ADC1_CH6*%
%TO.N,unconnected-(U4-VDET_1{slash}GPIO34{slash}ADC1_CH6-Pad5)*%
X26899999Y36660000D03*
%TO.P,U4,4,SENSOR_VN/GPIO39/ADC1_CH3*%
%TO.N,unconnected-(U4-SENSOR_VN{slash}GPIO39{slash}ADC1_CH3-Pad4)*%
X26899999Y39200000D03*
%TO.P,U4,3,SENSOR_VP/GPIO36/ADC1_CH0*%
%TO.N,unconnected-(U4-SENSOR_VP{slash}GPIO36{slash}ADC1_CH0-Pad3)*%
X26899999Y41740000D03*
%TO.P,U4,2,CHIP_PU*%
%TO.N,unconnected-(U4-CHIP_PU-Pad2)*%
X26899999Y44280000D03*
D12*
%TO.P,U4,1,3V3*%
%TO.N,+3V3*%
X26899999Y46820000D03*
%TD*%
D10*
%TO.P,STROBE,1,1*%
%TO.N,/STROBE*%
X4699999Y41720000D03*
%TD*%
%TO.P,~{LASER1},1,1*%
%TO.N,/~{LASER1}*%
X23699999Y26520000D03*
%TD*%
%TO.P,TRIGGER,1,1*%
%TO.N,/TRIGGER*%
X4699999Y44420000D03*
%TD*%
%TO.P,~{LASER3},1,1*%
%TO.N,/~{LASER3}*%
X23699999Y21420000D03*
%TD*%
D13*
%TO.N,/P4B*%
X15499999Y33020000D03*
X15499999Y23220000D03*
%TO.N,/P4A*%
X14899999Y32420000D03*
X14899999Y22620000D03*
%TO.N,/P3B*%
X14299999Y33020000D03*
X14299999Y23220000D03*
%TO.N,/P3A*%
X13699999Y22620000D03*
X13699999Y32420000D03*
%TO.N,/P2B*%
X13099999Y23220000D03*
X13099999Y33020000D03*
%TO.N,/P2A*%
X12499999Y22620000D03*
X12499999Y32420000D03*
%TO.N,/P1B*%
X11899999Y33020000D03*
X11899999Y23220000D03*
%TO.N,/P1A*%
X11299999Y22620000D03*
X11299999Y32420000D03*
%TO.N,/P0B*%
X10699999Y33020000D03*
X10699999Y23220000D03*
%TO.N,/P0A*%
X10099999Y22620000D03*
X10099999Y32420000D03*
%TO.N,/IO7*%
X9499999Y33020000D03*
X9499999Y23120000D03*
%TO.N,/IO5*%
X8899999Y22620000D03*
X8899999Y32420000D03*
%TO.N,/IO3*%
X8299999Y33020000D03*
X8299999Y23120000D03*
%TO.N,/IO1*%
X7699999Y22620000D03*
X7699999Y32420000D03*
%TD*%
D14*
%TO.N,/P4B*%
X15499999Y23220000D02*
X15499999Y33020000D01*
%TO.N,/P4A*%
X14899999Y22620000D02*
X14899999Y32420000D01*
%TO.N,/P3B*%
X14299999Y33020000D02*
X14299999Y23220000D01*
%TO.N,/P3A*%
X13699999Y22620000D02*
X13699999Y32420000D01*
%TO.N,/P2B*%
X13099999Y33020000D02*
X13099999Y23220000D01*
%TO.N,/P2A*%
X12499999Y22620000D02*
X12499999Y32420000D01*
%TO.N,/P1B*%
X11899999Y33020000D02*
X11899999Y23220000D01*
%TO.N,/P1A*%
X11299999Y22620000D02*
X11299999Y32420000D01*
%TO.N,/P0B*%
X10699999Y33020000D02*
X10699999Y23220000D01*
%TO.N,/P0A*%
X10099999Y22620000D02*
X10099999Y32420000D01*
%TO.N,/IO7*%
X9499999Y33020000D02*
X9499999Y23120000D01*
%TO.N,/IO5*%
X8899999Y22620000D02*
X8899999Y32420000D01*
%TO.N,/IO3*%
X8299999Y33020000D02*
X8299999Y23120000D01*
%TO.N,/IO1*%
X7699999Y22620000D02*
X7699999Y32420000D01*
%TD*%
%TA.AperFunction,Conductor*%
%TO.N,GND*%
G36*
X28362370Y47883313D02*
G01*
X28398334Y47833813D01*
X28403179Y47803220D01*
X28403179Y14456866D01*
X28384272Y14398675D01*
X28334772Y14362711D01*
X28273586Y14362711D01*
X28224086Y14398675D01*
X28223536Y14399440D01*
X28135106Y14523622D01*
X28135101Y14523627D01*
X27983067Y14668591D01*
X27806342Y14782166D01*
X27806329Y14782173D01*
X27611318Y14860243D01*
X27611309Y14860246D01*
X27405034Y14900000D01*
X27149999Y14900000D01*
X27149999Y14115687D01*
X27138044Y14127641D01*
X27025147Y14185165D01*
X26931480Y14200000D01*
X26868518Y14200000D01*
X26774851Y14185165D01*
X26661954Y14127641D01*
X26649998Y14115686D01*
X26649998Y14900000D01*
X26447595Y14900000D01*
X26290874Y14885035D01*
X26089306Y14825849D01*
X25902591Y14729591D01*
X25902588Y14729589D01*
X25737458Y14599730D01*
X25599888Y14440965D01*
X25494851Y14259035D01*
X25426142Y14060513D01*
X25424630Y14050002D01*
X25424632Y14050000D01*
X26584313Y14050000D01*
X26572358Y14038045D01*
X26514834Y13925148D01*
X26495013Y13800000D01*
X26514834Y13674852D01*
X26572358Y13561955D01*
X26584313Y13550000D01*
X25428741Y13550000D01*
X25455767Y13438594D01*
X25543034Y13247503D01*
X25664891Y13076379D01*
X25664896Y13076374D01*
X25816930Y12931410D01*
X25993655Y12817835D01*
X25993668Y12817828D01*
X26188679Y12739758D01*
X26188688Y12739755D01*
X26394964Y12700000D01*
X26649998Y12700000D01*
X26649998Y13484315D01*
X26661954Y13472359D01*
X26774851Y13414835D01*
X26868518Y13400000D01*
X26931480Y13400000D01*
X27025147Y13414835D01*
X27138044Y13472359D01*
X27149999Y13484314D01*
X27149999Y12700001D01*
X27150000Y12700000D01*
X27352403Y12700000D01*
X27509123Y12714966D01*
X27710691Y12774152D01*
X27897406Y12870410D01*
X27897409Y12870412D01*
X28062539Y13000271D01*
X28200109Y13159036D01*
X28218442Y13190789D01*
X28263912Y13231730D01*
X28324762Y13238126D01*
X28377750Y13207533D01*
X28402637Y13151637D01*
X28403179Y13141289D01*
X28403179Y102220D01*
X28384272Y44029D01*
X28334772Y8065D01*
X28304179Y3220D01*
X103179Y3220D01*
X44988Y22127D01*
X9024Y71627D01*
X4179Y102220D01*
X4179Y1149037D01*
X249419Y1149037D01*
X259434Y964313D01*
X308925Y786061D01*
X308926Y786059D01*
X308929Y786053D01*
X395578Y622617D01*
X395579Y622616D01*
X515340Y481622D01*
X515345Y481617D01*
X662611Y369668D01*
X662613Y369667D01*
X662614Y369667D01*
X662615Y369666D01*
X830512Y291988D01*
X1011182Y252220D01*
X1011186Y252220D01*
X1949791Y252220D01*
X1949792Y252220D01*
X2087589Y267206D01*
X2262900Y326276D01*
X2416891Y418928D01*
X2421412Y421648D01*
X2421412Y421649D01*
X2421415Y421650D01*
X2555720Y548871D01*
X2637508Y669501D01*
X2659536Y701988D01*
X2659537Y701990D01*
X2728010Y873845D01*
X2757939Y1056403D01*
X2753064Y1146317D01*
X25645739Y1146317D01*
X25655754Y961593D01*
X25704492Y786053D01*
X25705246Y783339D01*
X25705249Y783333D01*
X25791898Y619897D01*
X25791899Y619896D01*
X25911660Y478902D01*
X25911665Y478897D01*
X26058931Y366948D01*
X26058933Y366947D01*
X26058934Y366947D01*
X26058935Y366946D01*
X26226832Y289268D01*
X26407502Y249500D01*
X26407506Y249500D01*
X27346111Y249500D01*
X27346112Y249500D01*
X27483909Y264486D01*
X27659220Y323556D01*
X27817735Y418930D01*
X27952040Y546151D01*
X28055857Y699270D01*
X28124330Y871125D01*
X28154259Y1053683D01*
X28144244Y1238407D01*
X28094753Y1416659D01*
X28008099Y1580104D01*
X27888336Y1721100D01*
X27888332Y1721104D01*
X27741066Y1833053D01*
X27741064Y1833054D01*
X27573169Y1910731D01*
X27573167Y1910732D01*
X27537031Y1918686D01*
X27392496Y1950500D01*
X26453886Y1950500D01*
X26316089Y1935514D01*
X26257020Y1915612D01*
X26140779Y1876445D01*
X26140776Y1876444D01*
X25982265Y1781073D01*
X25982261Y1781069D01*
X25847959Y1653851D01*
X25744141Y1500733D01*
X25675668Y1328876D01*
X25675668Y1328875D01*
X25645739Y1146317D01*
X2753064Y1146317D01*
X2747924Y1241127D01*
X2698433Y1419379D01*
X2611779Y1582824D01*
X2494327Y1721099D01*
X2492017Y1723819D01*
X2492012Y1723824D01*
X2344746Y1835773D01*
X2344744Y1835774D01*
X2176849Y1913451D01*
X2176847Y1913452D01*
X2140711Y1921406D01*
X1996176Y1953220D01*
X1057566Y1953220D01*
X919769Y1938234D01*
X860699Y1918332D01*
X744459Y1879165D01*
X744456Y1879164D01*
X585945Y1783793D01*
X585941Y1783789D01*
X451639Y1656571D01*
X347821Y1503453D01*
X279348Y1331596D01*
X264071Y1238407D01*
X249419Y1149037D01*
X4179Y1149037D01*
X4179Y3689037D01*
X249419Y3689037D01*
X259434Y3504313D01*
X308925Y3326061D01*
X308926Y3326059D01*
X308929Y3326053D01*
X395578Y3162617D01*
X395579Y3162616D01*
X515340Y3021622D01*
X515345Y3021617D01*
X662611Y2909668D01*
X662613Y2909667D01*
X662614Y2909667D01*
X662615Y2909666D01*
X830512Y2831988D01*
X1011182Y2792220D01*
X1011186Y2792220D01*
X1949791Y2792220D01*
X1949792Y2792220D01*
X2087589Y2807206D01*
X2262900Y2866276D01*
X2416891Y2958928D01*
X2421412Y2961648D01*
X2421412Y2961649D01*
X2421415Y2961650D01*
X2555720Y3088871D01*
X2637508Y3209501D01*
X2659536Y3241988D01*
X2659537Y3241990D01*
X2728010Y3413845D01*
X2757939Y3596403D01*
X2753064Y3686317D01*
X25645739Y3686317D01*
X25655754Y3501593D01*
X25704492Y3326053D01*
X25705246Y3323339D01*
X25705249Y3323333D01*
X25791898Y3159897D01*
X25791899Y3159896D01*
X25911660Y3018902D01*
X25911665Y3018897D01*
X26058931Y2906948D01*
X26058933Y2906947D01*
X26058934Y2906947D01*
X26058935Y2906946D01*
X26226832Y2829268D01*
X26407502Y2789500D01*
X26407506Y2789500D01*
X27346111Y2789500D01*
X27346112Y2789500D01*
X27483909Y2804486D01*
X27659220Y2863556D01*
X27817735Y2958930D01*
X27952040Y3086151D01*
X28055857Y3239270D01*
X28124330Y3411125D01*
X28154259Y3593683D01*
X28144244Y3778407D01*
X28094753Y3956659D01*
X28008099Y4120104D01*
X27888336Y4261100D01*
X27888332Y4261104D01*
X27741066Y4373053D01*
X27741064Y4373054D01*
X27573169Y4450731D01*
X27573167Y4450732D01*
X27537031Y4458686D01*
X27392496Y4490500D01*
X26453886Y4490500D01*
X26316089Y4475514D01*
X26300526Y4470270D01*
X26140779Y4416445D01*
X26140776Y4416444D01*
X25982265Y4321073D01*
X25982261Y4321069D01*
X25847959Y4193851D01*
X25744141Y4040733D01*
X25675668Y3868876D01*
X25675668Y3868875D01*
X25645739Y3686317D01*
X2753064Y3686317D01*
X2747924Y3781127D01*
X2698433Y3959379D01*
X2611779Y4122824D01*
X2494327Y4261099D01*
X2492017Y4263819D01*
X2492012Y4263824D01*
X2344746Y4375773D01*
X2344744Y4375774D01*
X2176849Y4453451D01*
X2176847Y4453452D01*
X2140711Y4461406D01*
X1996176Y4493220D01*
X1057566Y4493220D01*
X919769Y4478234D01*
X860699Y4458332D01*
X744459Y4419165D01*
X744456Y4419164D01*
X585945Y4323793D01*
X585941Y4323789D01*
X451639Y4196571D01*
X347821Y4043453D01*
X279348Y3871596D01*
X264071Y3778407D01*
X249419Y3689037D01*
X4179Y3689037D01*
X4179Y4854997D01*
X5907158Y4854997D01*
X5926473Y4658874D01*
X5926474Y4658871D01*
X5983686Y4470270D01*
X5983687Y4470268D01*
X6012457Y4416444D01*
X6076589Y4296462D01*
X6076591Y4296460D01*
X6076592Y4296458D01*
X6201611Y4144122D01*
X6201620Y4144113D01*
X6353956Y4019094D01*
X6353961Y4019090D01*
X6527772Y3926186D01*
X6716367Y3868976D01*
X6716369Y3868976D01*
X6716372Y3868975D01*
X6912496Y3849659D01*
X6912499Y3849659D01*
X6912502Y3849659D01*
X7108625Y3868975D01*
X7108626Y3868976D01*
X7108631Y3868976D01*
X7297226Y3926186D01*
X7471037Y4019090D01*
X7623382Y4144117D01*
X7748409Y4296462D01*
X7841313Y4470273D01*
X7898523Y4658868D01*
X7917840Y4855000D01*
X7917840Y4855004D01*
X7898524Y5051127D01*
X7898523Y5051130D01*
X7898523Y5051132D01*
X7841313Y5239727D01*
X7748409Y5413538D01*
X7678331Y5498928D01*
X7623386Y5565879D01*
X7623377Y5565888D01*
X7471041Y5690907D01*
X7471039Y5690908D01*
X7471037Y5690910D01*
X7430117Y5712782D01*
X7297231Y5783812D01*
X7297229Y5783813D01*
X7108628Y5841025D01*
X7108625Y5841026D01*
X6912502Y5860341D01*
X6912496Y5860341D01*
X6716372Y5841026D01*
X6716369Y5841025D01*
X6527768Y5783813D01*
X6527766Y5783812D01*
X6353966Y5690913D01*
X6353956Y5690907D01*
X6201620Y5565888D01*
X6201611Y5565879D01*
X6076592Y5413543D01*
X6076586Y5413533D01*
X5983687Y5239733D01*
X5983686Y5239731D01*
X5926474Y5051130D01*
X5926473Y5051127D01*
X5907158Y4855004D01*
X5907158Y4854997D01*
X4179Y4854997D01*
X4179Y6226317D01*
X245739Y6226317D01*
X255754Y6041593D01*
X305245Y5863341D01*
X305246Y5863339D01*
X305249Y5863333D01*
X391898Y5699897D01*
X391899Y5699896D01*
X511660Y5558902D01*
X511665Y5558897D01*
X658931Y5446948D01*
X658933Y5446947D01*
X658934Y5446947D01*
X658935Y5446946D01*
X826832Y5369268D01*
X1007502Y5329500D01*
X1007506Y5329500D01*
X1946111Y5329500D01*
X1946112Y5329500D01*
X2083909Y5344486D01*
X2259220Y5403556D01*
X2417735Y5498930D01*
X2552040Y5626151D01*
X2655857Y5779270D01*
X2724330Y5951125D01*
X2754259Y6133683D01*
X2749237Y6226317D01*
X25645739Y6226317D01*
X25655754Y6041593D01*
X25705245Y5863341D01*
X25705246Y5863339D01*
X25705249Y5863333D01*
X25791898Y5699897D01*
X25791899Y5699896D01*
X25911660Y5558902D01*
X25911665Y5558897D01*
X26058931Y5446948D01*
X26058933Y5446947D01*
X26058934Y5446947D01*
X26058935Y5446946D01*
X26226832Y5369268D01*
X26407502Y5329500D01*
X26407506Y5329500D01*
X27346111Y5329500D01*
X27346112Y5329500D01*
X27483909Y5344486D01*
X27659220Y5403556D01*
X27817735Y5498930D01*
X27952040Y5626151D01*
X28055857Y5779270D01*
X28124330Y5951125D01*
X28154259Y6133683D01*
X28144244Y6318407D01*
X28094753Y6496659D01*
X28008099Y6660104D01*
X27888336Y6801100D01*
X27888332Y6801104D01*
X27741066Y6913053D01*
X27741064Y6913054D01*
X27573169Y6990731D01*
X27573167Y6990732D01*
X27537032Y6998686D01*
X27392496Y7030500D01*
X26453886Y7030500D01*
X26316089Y7015514D01*
X26257019Y6995612D01*
X26140779Y6956445D01*
X26140776Y6956444D01*
X25982265Y6861073D01*
X25982261Y6861069D01*
X25847959Y6733851D01*
X25744141Y6580733D01*
X25675668Y6408876D01*
X25675668Y6408875D01*
X25645739Y6226317D01*
X2749237Y6226317D01*
X2744244Y6318407D01*
X2694753Y6496659D01*
X2608099Y6660104D01*
X2488336Y6801100D01*
X2488332Y6801104D01*
X2341066Y6913053D01*
X2341064Y6913054D01*
X2173169Y6990731D01*
X2173167Y6990732D01*
X2137032Y6998686D01*
X1992496Y7030500D01*
X1053886Y7030500D01*
X916089Y7015514D01*
X857020Y6995612D01*
X740779Y6956445D01*
X740776Y6956444D01*
X582265Y6861073D01*
X582261Y6861069D01*
X447959Y6733851D01*
X344141Y6580733D01*
X275668Y6408876D01*
X275668Y6408875D01*
X245739Y6226317D01*
X4179Y6226317D01*
X4179Y8766317D01*
X245739Y8766317D01*
X255754Y8581593D01*
X305245Y8403341D01*
X305246Y8403339D01*
X305249Y8403333D01*
X391898Y8239897D01*
X391899Y8239896D01*
X511660Y8098902D01*
X511665Y8098897D01*
X658931Y7986948D01*
X658933Y7986947D01*
X658934Y7986947D01*
X658935Y7986946D01*
X826832Y7909268D01*
X1007502Y7869500D01*
X1007506Y7869500D01*
X1946111Y7869500D01*
X1946112Y7869500D01*
X2083909Y7884486D01*
X2259220Y7943556D01*
X2396554Y8026186D01*
X2417732Y8038928D01*
X2417732Y8038929D01*
X2417735Y8038930D01*
X2552040Y8166151D01*
X2655857Y8319270D01*
X2724330Y8491125D01*
X2754259Y8673683D01*
X2744244Y8858407D01*
X2717426Y8954997D01*
X6007158Y8954997D01*
X6026473Y8758874D01*
X6026474Y8758871D01*
X6026475Y8758868D01*
X6080250Y8581595D01*
X6083686Y8570270D01*
X6083687Y8570268D01*
X6154717Y8437382D01*
X6176589Y8396462D01*
X6176591Y8396460D01*
X6176592Y8396458D01*
X6301611Y8244122D01*
X6301620Y8244113D01*
X6453956Y8119094D01*
X6453961Y8119090D01*
X6627772Y8026186D01*
X6816367Y7968976D01*
X6816369Y7968976D01*
X6816372Y7968975D01*
X7012496Y7949659D01*
X7012499Y7949659D01*
X7012502Y7949659D01*
X7208625Y7968975D01*
X7208626Y7968976D01*
X7208631Y7968976D01*
X7397226Y8026186D01*
X7571037Y8119090D01*
X7723382Y8244117D01*
X7848409Y8396462D01*
X7941313Y8570273D01*
X7998523Y8758868D01*
X7999257Y8766317D01*
X25645739Y8766317D01*
X25655754Y8581593D01*
X25705245Y8403341D01*
X25705246Y8403339D01*
X25705249Y8403333D01*
X25791898Y8239897D01*
X25791899Y8239896D01*
X25911660Y8098902D01*
X25911665Y8098897D01*
X26058931Y7986948D01*
X26058933Y7986947D01*
X26058934Y7986947D01*
X26058935Y7986946D01*
X26226832Y7909268D01*
X26407502Y7869500D01*
X26407506Y7869500D01*
X27346111Y7869500D01*
X27346112Y7869500D01*
X27483909Y7884486D01*
X27659220Y7943556D01*
X27796554Y8026186D01*
X27817732Y8038928D01*
X27817732Y8038929D01*
X27817735Y8038930D01*
X27952040Y8166151D01*
X28055857Y8319270D01*
X28124330Y8491125D01*
X28154259Y8673683D01*
X28144244Y8858407D01*
X28094753Y9036659D01*
X28008099Y9200104D01*
X27888336Y9341100D01*
X27888332Y9341104D01*
X27741066Y9453053D01*
X27741064Y9453054D01*
X27573169Y9530731D01*
X27573167Y9530732D01*
X27537032Y9538686D01*
X27392496Y9570500D01*
X26453886Y9570500D01*
X26316089Y9555514D01*
X26257019Y9535612D01*
X26140779Y9496445D01*
X26140776Y9496444D01*
X25982265Y9401073D01*
X25982261Y9401069D01*
X25847959Y9273851D01*
X25744141Y9120733D01*
X25678110Y8955004D01*
X25675668Y8948875D01*
X25645739Y8766317D01*
X7999257Y8766317D01*
X8008327Y8858404D01*
X8017840Y8954997D01*
X8017840Y8955004D01*
X7998524Y9151127D01*
X7998523Y9151130D01*
X7998523Y9151132D01*
X7941313Y9339727D01*
X7848409Y9513538D01*
X7813960Y9555514D01*
X7723386Y9665879D01*
X7723377Y9665888D01*
X7571041Y9790907D01*
X7571039Y9790908D01*
X7571037Y9790910D01*
X7530117Y9812782D01*
X7397231Y9883812D01*
X7397229Y9883813D01*
X7208628Y9941025D01*
X7208625Y9941026D01*
X7012502Y9960341D01*
X7012496Y9960341D01*
X6816372Y9941026D01*
X6816369Y9941025D01*
X6627768Y9883813D01*
X6627766Y9883812D01*
X6453966Y9790913D01*
X6453956Y9790907D01*
X6301620Y9665888D01*
X6301611Y9665879D01*
X6176592Y9513543D01*
X6176586Y9513533D01*
X6083687Y9339733D01*
X6083686Y9339731D01*
X6026474Y9151130D01*
X6026473Y9151127D01*
X6007158Y8955004D01*
X6007158Y8954997D01*
X2717426Y8954997D01*
X2694753Y9036659D01*
X2608099Y9200104D01*
X2488336Y9341100D01*
X2488332Y9341104D01*
X2341066Y9453053D01*
X2341064Y9453054D01*
X2173169Y9530731D01*
X2173167Y9530732D01*
X2137032Y9538686D01*
X1992496Y9570500D01*
X1053886Y9570500D01*
X916089Y9555514D01*
X857020Y9535612D01*
X740779Y9496445D01*
X740776Y9496444D01*
X582265Y9401073D01*
X582261Y9401069D01*
X447959Y9273851D01*
X344141Y9120733D01*
X278110Y8955004D01*
X275668Y8948875D01*
X245739Y8766317D01*
X4179Y8766317D01*
X4179Y11306317D01*
X245739Y11306317D01*
X255754Y11121593D01*
X305245Y10943341D01*
X305246Y10943339D01*
X305249Y10943333D01*
X391898Y10779897D01*
X391899Y10779896D01*
X511660Y10638902D01*
X511665Y10638897D01*
X658931Y10526948D01*
X658933Y10526947D01*
X658934Y10526947D01*
X658935Y10526946D01*
X826832Y10449268D01*
X1007502Y10409500D01*
X1007506Y10409500D01*
X1946111Y10409500D01*
X1946112Y10409500D01*
X2083909Y10424486D01*
X2259220Y10483556D01*
X2417735Y10578930D01*
X2552040Y10706151D01*
X2655857Y10859270D01*
X2724330Y11031125D01*
X2754259Y11213683D01*
X2749237Y11306317D01*
X25645739Y11306317D01*
X25655754Y11121593D01*
X25705245Y10943341D01*
X25705246Y10943339D01*
X25705249Y10943333D01*
X25791898Y10779897D01*
X25791899Y10779896D01*
X25911660Y10638902D01*
X25911665Y10638897D01*
X26058931Y10526948D01*
X26058933Y10526947D01*
X26058934Y10526947D01*
X26058935Y10526946D01*
X26226832Y10449268D01*
X26407502Y10409500D01*
X26407506Y10409500D01*
X27346111Y10409500D01*
X27346112Y10409500D01*
X27483909Y10424486D01*
X27659220Y10483556D01*
X27817735Y10578930D01*
X27952040Y10706151D01*
X28055857Y10859270D01*
X28124330Y11031125D01*
X28154259Y11213683D01*
X28144244Y11398407D01*
X28094753Y11576659D01*
X28008099Y11740104D01*
X27888336Y11881100D01*
X27888332Y11881104D01*
X27741066Y11993053D01*
X27741064Y11993054D01*
X27573169Y12070731D01*
X27573167Y12070732D01*
X27537031Y12078686D01*
X27392496Y12110500D01*
X26453886Y12110500D01*
X26316089Y12095514D01*
X26257019Y12075612D01*
X26140779Y12036445D01*
X26140776Y12036444D01*
X25982265Y11941073D01*
X25982261Y11941069D01*
X25847959Y11813851D01*
X25744141Y11660733D01*
X25675668Y11488876D01*
X25675668Y11488875D01*
X25645739Y11306317D01*
X2749237Y11306317D01*
X2744244Y11398407D01*
X2694753Y11576659D01*
X2608099Y11740104D01*
X2488336Y11881100D01*
X2488332Y11881104D01*
X2341066Y11993053D01*
X2341064Y11993054D01*
X2173169Y12070731D01*
X2173167Y12070732D01*
X2137031Y12078686D01*
X1992496Y12110500D01*
X1053886Y12110500D01*
X916089Y12095514D01*
X857019Y12075612D01*
X740779Y12036445D01*
X740776Y12036444D01*
X582265Y11941073D01*
X582261Y11941069D01*
X447959Y11813851D01*
X344141Y11660733D01*
X275668Y11488876D01*
X275668Y11488875D01*
X245739Y11306317D01*
X4179Y11306317D01*
X4179Y12854997D01*
X6007158Y12854997D01*
X6026473Y12658874D01*
X6026474Y12658871D01*
X6083686Y12470270D01*
X6083687Y12470268D01*
X6154717Y12337382D01*
X6176589Y12296462D01*
X6176591Y12296460D01*
X6176592Y12296458D01*
X6301611Y12144122D01*
X6301620Y12144113D01*
X6432814Y12036445D01*
X6453961Y12019090D01*
X6627772Y11926186D01*
X6816367Y11868976D01*
X6816369Y11868976D01*
X6816372Y11868975D01*
X7012496Y11849659D01*
X7012499Y11849659D01*
X7012502Y11849659D01*
X7208625Y11868975D01*
X7208626Y11868976D01*
X7208631Y11868976D01*
X7397226Y11926186D01*
X7571037Y12019090D01*
X7723382Y12144117D01*
X7848409Y12296462D01*
X7941313Y12470273D01*
X7998523Y12658868D01*
X8002575Y12700001D01*
X8017840Y12854997D01*
X8017840Y12855004D01*
X7998524Y13051127D01*
X7998523Y13051130D01*
X7998523Y13051132D01*
X7941313Y13239727D01*
X7848409Y13413538D01*
X7800136Y13472359D01*
X7723386Y13565879D01*
X7723377Y13565888D01*
X7571041Y13690907D01*
X7571039Y13690908D01*
X7571037Y13690910D01*
X7530117Y13712782D01*
X7397231Y13783812D01*
X7397229Y13783813D01*
X7208628Y13841025D01*
X7208625Y13841026D01*
X7012502Y13860341D01*
X7012496Y13860341D01*
X6816372Y13841026D01*
X6816369Y13841025D01*
X6627768Y13783813D01*
X6627766Y13783812D01*
X6453966Y13690913D01*
X6453956Y13690907D01*
X6301620Y13565888D01*
X6301611Y13565879D01*
X6176592Y13413543D01*
X6176586Y13413533D01*
X6083687Y13239733D01*
X6083686Y13239731D01*
X6026474Y13051130D01*
X6026473Y13051127D01*
X6007158Y12855004D01*
X6007158Y12854997D01*
X4179Y12854997D01*
X4179Y13846317D01*
X245739Y13846317D01*
X255754Y13661593D01*
X305245Y13483341D01*
X305246Y13483339D01*
X305249Y13483333D01*
X391898Y13319897D01*
X391899Y13319896D01*
X511660Y13178902D01*
X511665Y13178897D01*
X658931Y13066948D01*
X658933Y13066947D01*
X658934Y13066947D01*
X658935Y13066946D01*
X826832Y12989268D01*
X1007502Y12949500D01*
X1007506Y12949500D01*
X1946111Y12949500D01*
X1946112Y12949500D01*
X2083909Y12964486D01*
X2259220Y13023556D01*
X2417735Y13118930D01*
X2552040Y13246151D01*
X2655857Y13399270D01*
X2724330Y13571125D01*
X2754259Y13753683D01*
X2744244Y13938407D01*
X2694753Y14116659D01*
X2608099Y14280104D01*
X2488336Y14421100D01*
X2488332Y14421104D01*
X2341066Y14533053D01*
X2341064Y14533054D01*
X2173169Y14610731D01*
X2173167Y14610732D01*
X2137031Y14618686D01*
X1992496Y14650500D01*
X1053886Y14650500D01*
X916089Y14635514D01*
X857019Y14615612D01*
X740779Y14576445D01*
X740776Y14576444D01*
X582265Y14481073D01*
X582261Y14481069D01*
X447959Y14353851D01*
X344141Y14200733D01*
X275668Y14028876D01*
X275668Y14028875D01*
X245739Y13846317D01*
X4179Y13846317D01*
X4179Y16386317D01*
X245739Y16386317D01*
X255754Y16201593D01*
X305245Y16023341D01*
X305246Y16023339D01*
X305249Y16023333D01*
X391898Y15859897D01*
X391899Y15859896D01*
X511660Y15718902D01*
X511665Y15718897D01*
X658931Y15606948D01*
X658933Y15606947D01*
X658934Y15606947D01*
X658935Y15606946D01*
X826832Y15529268D01*
X1007502Y15489500D01*
X1007506Y15489500D01*
X1946111Y15489500D01*
X1946112Y15489500D01*
X2083909Y15504486D01*
X2259220Y15563556D01*
X2417735Y15658930D01*
X2552040Y15786151D01*
X2655857Y15939270D01*
X2724330Y16111125D01*
X2754259Y16293683D01*
X2749237Y16386317D01*
X25645739Y16386317D01*
X25655754Y16201593D01*
X25705245Y16023341D01*
X25705246Y16023339D01*
X25705249Y16023333D01*
X25791898Y15859897D01*
X25791899Y15859896D01*
X25911660Y15718902D01*
X25911665Y15718897D01*
X26058931Y15606948D01*
X26058933Y15606947D01*
X26058934Y15606947D01*
X26058935Y15606946D01*
X26226832Y15529268D01*
X26407502Y15489500D01*
X26407506Y15489500D01*
X27346111Y15489500D01*
X27346112Y15489500D01*
X27483909Y15504486D01*
X27659220Y15563556D01*
X27817735Y15658930D01*
X27952040Y15786151D01*
X28055857Y15939270D01*
X28124330Y16111125D01*
X28154259Y16293683D01*
X28144244Y16478407D01*
X28094753Y16656659D01*
X28008099Y16820104D01*
X27888336Y16961100D01*
X27888332Y16961104D01*
X27741066Y17073053D01*
X27741064Y17073054D01*
X27573169Y17150731D01*
X27573167Y17150732D01*
X27537032Y17158686D01*
X27392496Y17190500D01*
X26453886Y17190500D01*
X26316089Y17175514D01*
X26257019Y17155612D01*
X26140779Y17116445D01*
X26140776Y17116444D01*
X25982265Y17021073D01*
X25982261Y17021069D01*
X25847959Y16893851D01*
X25744141Y16740733D01*
X25675668Y16568876D01*
X25675668Y16568875D01*
X25645739Y16386317D01*
X2749237Y16386317D01*
X2744244Y16478407D01*
X2694753Y16656659D01*
X2608099Y16820104D01*
X2488336Y16961100D01*
X2488332Y16961104D01*
X2341066Y17073053D01*
X2341064Y17073054D01*
X2173169Y17150731D01*
X2173167Y17150732D01*
X2137032Y17158686D01*
X1992496Y17190500D01*
X1053886Y17190500D01*
X916089Y17175514D01*
X857019Y17155612D01*
X740779Y17116445D01*
X740776Y17116444D01*
X582265Y17021073D01*
X582261Y17021069D01*
X447959Y16893851D01*
X344141Y16740733D01*
X275668Y16568876D01*
X275668Y16568875D01*
X245739Y16386317D01*
X4179Y16386317D01*
X4179Y18926317D01*
X245739Y18926317D01*
X255754Y18741593D01*
X305245Y18563341D01*
X305246Y18563339D01*
X305249Y18563333D01*
X391898Y18399897D01*
X391899Y18399896D01*
X511660Y18258902D01*
X511665Y18258897D01*
X658931Y18146948D01*
X658933Y18146947D01*
X658934Y18146947D01*
X658935Y18146946D01*
X826832Y18069268D01*
X1007502Y18029500D01*
X1007506Y18029500D01*
X1946111Y18029500D01*
X1946112Y18029500D01*
X2083909Y18044486D01*
X2259220Y18103556D01*
X2417735Y18198930D01*
X2552040Y18326151D01*
X2655857Y18479270D01*
X2724330Y18651125D01*
X2754259Y18833683D01*
X2749237Y18926317D01*
X25645739Y18926317D01*
X25655754Y18741593D01*
X25705245Y18563341D01*
X25705246Y18563339D01*
X25705249Y18563333D01*
X25791898Y18399897D01*
X25791899Y18399896D01*
X25911660Y18258902D01*
X25911665Y18258897D01*
X26058931Y18146948D01*
X26058933Y18146947D01*
X26058934Y18146947D01*
X26058935Y18146946D01*
X26226832Y18069268D01*
X26407502Y18029500D01*
X26407506Y18029500D01*
X27346111Y18029500D01*
X27346112Y18029500D01*
X27483909Y18044486D01*
X27659220Y18103556D01*
X27817735Y18198930D01*
X27952040Y18326151D01*
X28055857Y18479270D01*
X28124330Y18651125D01*
X28154259Y18833683D01*
X28144244Y19018407D01*
X28094753Y19196659D01*
X28008099Y19360104D01*
X27888336Y19501100D01*
X27888332Y19501104D01*
X27741066Y19613053D01*
X27741064Y19613054D01*
X27573169Y19690731D01*
X27573167Y19690732D01*
X27537032Y19698686D01*
X27392496Y19730500D01*
X26453886Y19730500D01*
X26316089Y19715514D01*
X26257019Y19695612D01*
X26140779Y19656445D01*
X26140776Y19656444D01*
X25982265Y19561073D01*
X25982261Y19561069D01*
X25847959Y19433851D01*
X25744141Y19280733D01*
X25675668Y19108876D01*
X25675668Y19108875D01*
X25645739Y18926317D01*
X2749237Y18926317D01*
X2744244Y19018407D01*
X2694753Y19196659D01*
X2608099Y19360104D01*
X2488336Y19501100D01*
X2488332Y19501104D01*
X2341066Y19613053D01*
X2341064Y19613054D01*
X2173169Y19690731D01*
X2173167Y19690732D01*
X2137032Y19698686D01*
X1992496Y19730500D01*
X1053886Y19730500D01*
X916089Y19715514D01*
X857019Y19695612D01*
X740779Y19656445D01*
X740776Y19656444D01*
X582265Y19561073D01*
X582261Y19561069D01*
X447959Y19433851D01*
X344141Y19280733D01*
X275668Y19108876D01*
X275668Y19108875D01*
X245739Y18926317D01*
X4179Y18926317D01*
X4179Y21466317D01*
X245739Y21466317D01*
X255754Y21281593D01*
X305245Y21103341D01*
X305246Y21103339D01*
X305249Y21103333D01*
X391898Y20939897D01*
X391899Y20939896D01*
X511660Y20798902D01*
X511665Y20798897D01*
X658931Y20686948D01*
X658933Y20686947D01*
X658934Y20686947D01*
X658935Y20686946D01*
X826832Y20609268D01*
X1007502Y20569500D01*
X1007506Y20569500D01*
X1946111Y20569500D01*
X1946112Y20569500D01*
X2083909Y20584486D01*
X2259220Y20643556D01*
X2417735Y20738930D01*
X2552040Y20866151D01*
X2655857Y21019270D01*
X2724330Y21191125D01*
X2754259Y21373683D01*
X2751748Y21419997D01*
X22694658Y21419997D01*
X22713973Y21223874D01*
X22713974Y21223871D01*
X22771186Y21035270D01*
X22771187Y21035268D01*
X22822165Y20939896D01*
X22864089Y20861462D01*
X22864091Y20861460D01*
X22864092Y20861458D01*
X22989111Y20709122D01*
X22989120Y20709113D01*
X23140977Y20584487D01*
X23141461Y20584090D01*
X23315272Y20491186D01*
X23503867Y20433976D01*
X23503869Y20433976D01*
X23503872Y20433975D01*
X23699996Y20414659D01*
X23699999Y20414659D01*
X23700002Y20414659D01*
X23896125Y20433975D01*
X23896126Y20433976D01*
X23896131Y20433976D01*
X24084726Y20491186D01*
X24258537Y20584090D01*
X24410882Y20709117D01*
X24535909Y20861462D01*
X24628813Y21035273D01*
X24686023Y21223868D01*
X24691709Y21281593D01*
X24705340Y21419997D01*
X24705340Y21420004D01*
X24700779Y21466317D01*
X25645739Y21466317D01*
X25655754Y21281593D01*
X25705245Y21103341D01*
X25705246Y21103339D01*
X25705249Y21103333D01*
X25791898Y20939897D01*
X25791899Y20939896D01*
X25911660Y20798902D01*
X25911665Y20798897D01*
X26058931Y20686948D01*
X26058933Y20686947D01*
X26058934Y20686947D01*
X26058935Y20686946D01*
X26226832Y20609268D01*
X26407502Y20569500D01*
X26407506Y20569500D01*
X27346111Y20569500D01*
X27346112Y20569500D01*
X27483909Y20584486D01*
X27659220Y20643556D01*
X27817735Y20738930D01*
X27952040Y20866151D01*
X28055857Y21019270D01*
X28124330Y21191125D01*
X28154259Y21373683D01*
X28144244Y21558407D01*
X28094753Y21736659D01*
X28008099Y21900104D01*
X27888336Y22041100D01*
X27888332Y22041104D01*
X27741066Y22153053D01*
X27741064Y22153054D01*
X27573169Y22230731D01*
X27573167Y22230732D01*
X27537031Y22238686D01*
X27392496Y22270500D01*
X26453886Y22270500D01*
X26316089Y22255514D01*
X26257019Y22235612D01*
X26140779Y22196445D01*
X26140776Y22196444D01*
X25982265Y22101073D01*
X25982261Y22101069D01*
X25847959Y21973851D01*
X25744141Y21820733D01*
X25675668Y21648876D01*
X25675668Y21648875D01*
X25645739Y21466317D01*
X24700779Y21466317D01*
X24686024Y21616127D01*
X24686023Y21616130D01*
X24686023Y21616132D01*
X24628813Y21804727D01*
X24535909Y21978538D01*
X24535905Y21978543D01*
X24410886Y22130879D01*
X24410877Y22130888D01*
X24258541Y22255907D01*
X24258539Y22255908D01*
X24258537Y22255910D01*
X24217617Y22277782D01*
X24084731Y22348812D01*
X24084729Y22348813D01*
X23896128Y22406025D01*
X23896125Y22406026D01*
X23700002Y22425341D01*
X23699996Y22425341D01*
X23503872Y22406026D01*
X23503869Y22406025D01*
X23315268Y22348813D01*
X23315266Y22348812D01*
X23141466Y22255913D01*
X23141456Y22255907D01*
X22989120Y22130888D01*
X22989111Y22130879D01*
X22864092Y21978543D01*
X22864086Y21978533D01*
X22771187Y21804733D01*
X22771186Y21804731D01*
X22713974Y21616130D01*
X22713973Y21616127D01*
X22694658Y21420004D01*
X22694658Y21419997D01*
X2751748Y21419997D01*
X2744244Y21558407D01*
X2694753Y21736659D01*
X2608099Y21900104D01*
X2488336Y22041100D01*
X2488332Y22041104D01*
X2341066Y22153053D01*
X2341064Y22153054D01*
X2173169Y22230731D01*
X2173167Y22230732D01*
X2137031Y22238686D01*
X1992496Y22270500D01*
X1053886Y22270500D01*
X916089Y22255514D01*
X857019Y22235612D01*
X740779Y22196445D01*
X740776Y22196444D01*
X582265Y22101073D01*
X582261Y22101069D01*
X447959Y21973851D01*
X344141Y21820733D01*
X275668Y21648876D01*
X275668Y21648875D01*
X245739Y21466317D01*
X4179Y21466317D01*
X4179Y22619998D01*
X7190311Y22619998D01*
X7210955Y22476410D01*
X7210956Y22476407D01*
X7210956Y22476406D01*
X7210957Y22476404D01*
X7271222Y22344442D01*
X7366224Y22234804D01*
X7488267Y22156371D01*
X7595575Y22124863D01*
X7627459Y22115501D01*
X7627460Y22115501D01*
X7627463Y22115500D01*
X7627465Y22115500D01*
X7772533Y22115500D01*
X7772535Y22115500D01*
X7911731Y22156371D01*
X8033774Y22234804D01*
X8128776Y22344442D01*
X8189041Y22476404D01*
X8196832Y22530589D01*
X8223828Y22585496D01*
X8277942Y22614050D01*
X8294824Y22615500D01*
X8305174Y22615500D01*
X8363365Y22596593D01*
X8399329Y22547093D01*
X8403166Y22530589D01*
X8410955Y22476409D01*
X8410956Y22476407D01*
X8410956Y22476406D01*
X8410957Y22476404D01*
X8471222Y22344442D01*
X8566224Y22234804D01*
X8688267Y22156371D01*
X8795575Y22124863D01*
X8827459Y22115501D01*
X8827460Y22115501D01*
X8827463Y22115500D01*
X8827465Y22115500D01*
X8972533Y22115500D01*
X8972535Y22115500D01*
X9111731Y22156371D01*
X9233774Y22234804D01*
X9328776Y22344442D01*
X9389041Y22476404D01*
X9396832Y22530589D01*
X9423828Y22585496D01*
X9477942Y22614050D01*
X9494824Y22615500D01*
X9505174Y22615500D01*
X9563365Y22596593D01*
X9599329Y22547093D01*
X9603166Y22530589D01*
X9610955Y22476409D01*
X9610956Y22476407D01*
X9610956Y22476406D01*
X9610957Y22476404D01*
X9671222Y22344442D01*
X9766224Y22234804D01*
X9888267Y22156371D01*
X9995575Y22124863D01*
X10027459Y22115501D01*
X10027460Y22115501D01*
X10027463Y22115500D01*
X10027465Y22115500D01*
X10172533Y22115500D01*
X10172535Y22115500D01*
X10311731Y22156371D01*
X10433774Y22234804D01*
X10528776Y22344442D01*
X10589041Y22476404D01*
X10602007Y22566581D01*
X10629003Y22621489D01*
X10683117Y22650042D01*
X10743680Y22641335D01*
X10787558Y22598692D01*
X10797991Y22566581D01*
X10810955Y22476410D01*
X10810956Y22476407D01*
X10810956Y22476406D01*
X10810957Y22476404D01*
X10871222Y22344442D01*
X10966224Y22234804D01*
X11088267Y22156371D01*
X11195575Y22124863D01*
X11227459Y22115501D01*
X11227460Y22115501D01*
X11227463Y22115500D01*
X11227465Y22115500D01*
X11372533Y22115500D01*
X11372535Y22115500D01*
X11511731Y22156371D01*
X11633774Y22234804D01*
X11728776Y22344442D01*
X11789041Y22476404D01*
X11802007Y22566581D01*
X11829003Y22621489D01*
X11883117Y22650042D01*
X11943680Y22641335D01*
X11987558Y22598692D01*
X11997991Y22566581D01*
X12010955Y22476410D01*
X12010956Y22476407D01*
X12010956Y22476406D01*
X12010957Y22476404D01*
X12071222Y22344442D01*
X12166224Y22234804D01*
X12288267Y22156371D01*
X12395575Y22124863D01*
X12427459Y22115501D01*
X12427460Y22115501D01*
X12427463Y22115500D01*
X12427465Y22115500D01*
X12572533Y22115500D01*
X12572535Y22115500D01*
X12711731Y22156371D01*
X12833774Y22234804D01*
X12928776Y22344442D01*
X12989041Y22476404D01*
X13002007Y22566581D01*
X13029003Y22621489D01*
X13083117Y22650042D01*
X13143680Y22641335D01*
X13187558Y22598692D01*
X13197991Y22566581D01*
X13210955Y22476410D01*
X13210956Y22476407D01*
X13210956Y22476406D01*
X13210957Y22476404D01*
X13271222Y22344442D01*
X13366224Y22234804D01*
X13488267Y22156371D01*
X13595575Y22124863D01*
X13627459Y22115501D01*
X13627460Y22115501D01*
X13627463Y22115500D01*
X13627465Y22115500D01*
X13772533Y22115500D01*
X13772535Y22115500D01*
X13911731Y22156371D01*
X14033774Y22234804D01*
X14128776Y22344442D01*
X14189041Y22476404D01*
X14202007Y22566581D01*
X14229003Y22621489D01*
X14283117Y22650042D01*
X14343680Y22641335D01*
X14387558Y22598692D01*
X14397991Y22566581D01*
X14410955Y22476410D01*
X14410956Y22476407D01*
X14410956Y22476406D01*
X14410957Y22476404D01*
X14471222Y22344442D01*
X14566224Y22234804D01*
X14688267Y22156371D01*
X14795575Y22124863D01*
X14827459Y22115501D01*
X14827460Y22115501D01*
X14827463Y22115500D01*
X14827465Y22115500D01*
X14972533Y22115500D01*
X14972535Y22115500D01*
X15111731Y22156371D01*
X15233774Y22234804D01*
X15328776Y22344442D01*
X15389041Y22476404D01*
X15406322Y22596593D01*
X15410695Y22627008D01*
X15412993Y22626678D01*
X15428594Y22674691D01*
X15478094Y22710655D01*
X15508687Y22715500D01*
X15572533Y22715500D01*
X15572535Y22715500D01*
X15711731Y22756371D01*
X15833774Y22834804D01*
X15928776Y22944442D01*
X15989041Y23076404D01*
X15989042Y23076410D01*
X16009687Y23219998D01*
X16009687Y23220003D01*
X15989042Y23363591D01*
X15989041Y23363594D01*
X15989041Y23363596D01*
X15928776Y23495558D01*
X15928774Y23495560D01*
X15928774Y23495561D01*
X15838180Y23600112D01*
X15814362Y23656471D01*
X15813999Y23664943D01*
X15813999Y23966414D01*
X22690799Y23966414D01*
X22710114Y23770291D01*
X22710115Y23770288D01*
X22710116Y23770285D01*
X22760195Y23605196D01*
X22767327Y23581687D01*
X22767328Y23581685D01*
X22821736Y23479896D01*
X22860230Y23407879D01*
X22860232Y23407877D01*
X22860233Y23407875D01*
X22985252Y23255539D01*
X22985261Y23255530D01*
X23114742Y23149268D01*
X23137602Y23130507D01*
X23311413Y23037603D01*
X23500008Y22980393D01*
X23500010Y22980393D01*
X23500013Y22980392D01*
X23696137Y22961076D01*
X23696140Y22961076D01*
X23696143Y22961076D01*
X23892266Y22980392D01*
X23892267Y22980393D01*
X23892272Y22980393D01*
X24080867Y23037603D01*
X24254678Y23130507D01*
X24407023Y23255534D01*
X24532050Y23407879D01*
X24624954Y23581690D01*
X24682164Y23770285D01*
X24687218Y23821593D01*
X24701481Y23966414D01*
X24701481Y23966421D01*
X24697552Y24006317D01*
X25645739Y24006317D01*
X25655754Y23821593D01*
X25701600Y23656471D01*
X25705246Y23643339D01*
X25705249Y23643333D01*
X25791898Y23479897D01*
X25791899Y23479896D01*
X25911660Y23338902D01*
X25911665Y23338897D01*
X26058931Y23226948D01*
X26058933Y23226947D01*
X26058934Y23226947D01*
X26058935Y23226946D01*
X26226832Y23149268D01*
X26407502Y23109500D01*
X26407506Y23109500D01*
X27346111Y23109500D01*
X27346112Y23109500D01*
X27483909Y23124486D01*
X27659220Y23183556D01*
X27817735Y23278930D01*
X27952040Y23406151D01*
X28055857Y23559270D01*
X28124330Y23731125D01*
X28154259Y23913683D01*
X28144244Y24098407D01*
X28094753Y24276659D01*
X28008099Y24440104D01*
X27888336Y24581100D01*
X27888332Y24581104D01*
X27741066Y24693053D01*
X27741064Y24693054D01*
X27573169Y24770731D01*
X27573167Y24770732D01*
X27537031Y24778686D01*
X27392496Y24810500D01*
X26453886Y24810500D01*
X26316089Y24795514D01*
X26257019Y24775612D01*
X26140779Y24736445D01*
X26140776Y24736444D01*
X25982265Y24641073D01*
X25982261Y24641069D01*
X25847959Y24513851D01*
X25744141Y24360733D01*
X25675668Y24188876D01*
X25675668Y24188875D01*
X25645739Y24006317D01*
X24697552Y24006317D01*
X24682165Y24162544D01*
X24682164Y24162547D01*
X24682164Y24162549D01*
X24624954Y24351144D01*
X24532050Y24524955D01*
X24485973Y24581100D01*
X24407027Y24677296D01*
X24407018Y24677305D01*
X24254682Y24802324D01*
X24254680Y24802325D01*
X24254678Y24802327D01*
X24213758Y24824199D01*
X24080872Y24895229D01*
X24080870Y24895230D01*
X23892269Y24952442D01*
X23892266Y24952443D01*
X23696143Y24971758D01*
X23696137Y24971758D01*
X23500013Y24952443D01*
X23500010Y24952442D01*
X23311409Y24895230D01*
X23311407Y24895229D01*
X23137607Y24802330D01*
X23137597Y24802324D01*
X22985261Y24677305D01*
X22985252Y24677296D01*
X22860233Y24524960D01*
X22860227Y24524950D01*
X22767328Y24351150D01*
X22767327Y24351148D01*
X22710115Y24162547D01*
X22710114Y24162544D01*
X22690799Y23966421D01*
X22690799Y23966414D01*
X15813999Y23966414D01*
X15813999Y26519997D01*
X22694658Y26519997D01*
X22713973Y26323874D01*
X22713974Y26323871D01*
X22771186Y26135270D01*
X22771187Y26135268D01*
X22790429Y26099270D01*
X22864089Y25961462D01*
X22864091Y25961460D01*
X22864092Y25961458D01*
X22989111Y25809122D01*
X22989120Y25809113D01*
X23141456Y25684094D01*
X23141461Y25684090D01*
X23315272Y25591186D01*
X23503867Y25533976D01*
X23503869Y25533976D01*
X23503872Y25533975D01*
X23699996Y25514659D01*
X23699999Y25514659D01*
X23700002Y25514659D01*
X23896125Y25533975D01*
X23896126Y25533976D01*
X23896131Y25533976D01*
X24084726Y25591186D01*
X24258537Y25684090D01*
X24410882Y25809117D01*
X24535909Y25961462D01*
X24628813Y26135273D01*
X24686023Y26323868D01*
X24698809Y26453683D01*
X24705340Y26519997D01*
X24705340Y26520004D01*
X24702748Y26546317D01*
X25645739Y26546317D01*
X25655754Y26361593D01*
X25705245Y26183341D01*
X25705246Y26183339D01*
X25705249Y26183333D01*
X25791898Y26019897D01*
X25791899Y26019896D01*
X25911660Y25878902D01*
X25911665Y25878897D01*
X26058931Y25766948D01*
X26058933Y25766947D01*
X26058934Y25766947D01*
X26058935Y25766946D01*
X26226832Y25689268D01*
X26407502Y25649500D01*
X26407506Y25649500D01*
X27346111Y25649500D01*
X27346112Y25649500D01*
X27483909Y25664486D01*
X27659220Y25723556D01*
X27801419Y25809113D01*
X27817732Y25818928D01*
X27817732Y25818929D01*
X27817735Y25818930D01*
X27952040Y25946151D01*
X28055857Y26099270D01*
X28124330Y26271125D01*
X28154259Y26453683D01*
X28144244Y26638407D01*
X28094753Y26816659D01*
X28008099Y26980104D01*
X27924493Y27078533D01*
X27888337Y27121099D01*
X27888332Y27121104D01*
X27741066Y27233053D01*
X27741064Y27233054D01*
X27573169Y27310731D01*
X27573167Y27310732D01*
X27537032Y27318686D01*
X27392496Y27350500D01*
X26453886Y27350500D01*
X26316089Y27335514D01*
X26257019Y27315612D01*
X26140779Y27276445D01*
X26140776Y27276444D01*
X25982265Y27181073D01*
X25982261Y27181069D01*
X25847959Y27053851D01*
X25744141Y26900733D01*
X25675668Y26728876D01*
X25673579Y26716130D01*
X25645739Y26546317D01*
X24702748Y26546317D01*
X24686024Y26716127D01*
X24686023Y26716130D01*
X24686023Y26716132D01*
X24628813Y26904727D01*
X24535909Y27078538D01*
X24451763Y27181070D01*
X24410886Y27230879D01*
X24410877Y27230888D01*
X24258541Y27355907D01*
X24258539Y27355908D01*
X24258537Y27355910D01*
X24217617Y27377782D01*
X24084731Y27448812D01*
X24084729Y27448813D01*
X23896128Y27506025D01*
X23896125Y27506026D01*
X23700002Y27525341D01*
X23699996Y27525341D01*
X23503872Y27506026D01*
X23503869Y27506025D01*
X23315268Y27448813D01*
X23315266Y27448812D01*
X23141466Y27355913D01*
X23141456Y27355907D01*
X22989120Y27230888D01*
X22989111Y27230879D01*
X22864092Y27078543D01*
X22864086Y27078533D01*
X22771187Y26904733D01*
X22771186Y26904731D01*
X22713974Y26716130D01*
X22713973Y26716127D01*
X22694658Y26520004D01*
X22694658Y26519997D01*
X15813999Y26519997D01*
X15813999Y29086317D01*
X25645739Y29086317D01*
X25655754Y28901593D01*
X25705245Y28723341D01*
X25705246Y28723339D01*
X25705249Y28723333D01*
X25791898Y28559897D01*
X25791899Y28559896D01*
X25911660Y28418902D01*
X25911665Y28418897D01*
X26058931Y28306948D01*
X26058933Y28306947D01*
X26058934Y28306947D01*
X26058935Y28306946D01*
X26226832Y28229268D01*
X26407502Y28189500D01*
X26407506Y28189500D01*
X27346111Y28189500D01*
X27346112Y28189500D01*
X27483909Y28204486D01*
X27659220Y28263556D01*
X27817735Y28358930D01*
X27952040Y28486151D01*
X28055857Y28639270D01*
X28124330Y28811125D01*
X28154259Y28993683D01*
X28144244Y29178407D01*
X28094753Y29356659D01*
X28008099Y29520104D01*
X27888336Y29661100D01*
X27888332Y29661104D01*
X27741066Y29773053D01*
X27741064Y29773054D01*
X27573169Y29850731D01*
X27573167Y29850732D01*
X27537032Y29858686D01*
X27392496Y29890500D01*
X26453886Y29890500D01*
X26316089Y29875514D01*
X26257019Y29855612D01*
X26140779Y29816445D01*
X26140776Y29816444D01*
X25982265Y29721073D01*
X25982261Y29721069D01*
X25847959Y29593851D01*
X25744141Y29440733D01*
X25675668Y29268876D01*
X25675668Y29268875D01*
X25645739Y29086317D01*
X15813999Y29086317D01*
X15813999Y31626317D01*
X25645739Y31626317D01*
X25655754Y31441593D01*
X25686738Y31329999D01*
X25705246Y31263339D01*
X25705249Y31263333D01*
X25791898Y31099897D01*
X25791899Y31099896D01*
X25911660Y30958902D01*
X25911665Y30958897D01*
X26058931Y30846948D01*
X26058933Y30846947D01*
X26058934Y30846947D01*
X26058935Y30846946D01*
X26226832Y30769268D01*
X26407502Y30729500D01*
X26407506Y30729500D01*
X27346111Y30729500D01*
X27346112Y30729500D01*
X27483909Y30744486D01*
X27659220Y30803556D01*
X27817735Y30898930D01*
X27952040Y31026151D01*
X28055857Y31179270D01*
X28124330Y31351125D01*
X28154259Y31533683D01*
X28144244Y31718407D01*
X28094753Y31896659D01*
X28008099Y32060104D01*
X27888336Y32201100D01*
X27888332Y32201104D01*
X27741066Y32313053D01*
X27741064Y32313054D01*
X27573169Y32390731D01*
X27573167Y32390732D01*
X27537031Y32398686D01*
X27392496Y32430500D01*
X26453886Y32430500D01*
X26316089Y32415514D01*
X26257019Y32395612D01*
X26140779Y32356445D01*
X26140776Y32356444D01*
X25982265Y32261073D01*
X25982261Y32261069D01*
X25847959Y32133851D01*
X25744141Y31980733D01*
X25675668Y31808876D01*
X25675668Y31808875D01*
X25645739Y31626317D01*
X15813999Y31626317D01*
X15813999Y32575058D01*
X15832906Y32633249D01*
X15838180Y32639889D01*
X15838487Y32640243D01*
X15928776Y32744442D01*
X15989041Y32876404D01*
X16006620Y32998666D01*
X16009687Y33019998D01*
X16009687Y33020003D01*
X15989042Y33163591D01*
X15989041Y33163594D01*
X15989041Y33163596D01*
X15928776Y33295558D01*
X15833774Y33405196D01*
X15711731Y33483629D01*
X15711728Y33483630D01*
X15572538Y33524500D01*
X15572535Y33524500D01*
X15427463Y33524500D01*
X15427459Y33524500D01*
X15288269Y33483630D01*
X15288266Y33483629D01*
X15166225Y33405197D01*
X15166223Y33405195D01*
X15071223Y33295560D01*
X15010956Y33163594D01*
X15010955Y33163592D01*
X14997990Y33073418D01*
X14970994Y33018511D01*
X14916879Y32989958D01*
X14856316Y32998666D01*
X14812439Y33041309D01*
X14802006Y33073420D01*
X14789042Y33163591D01*
X14789041Y33163594D01*
X14789041Y33163596D01*
X14728776Y33295558D01*
X14633774Y33405196D01*
X14511731Y33483629D01*
X14511728Y33483630D01*
X14372538Y33524500D01*
X14372535Y33524500D01*
X14227463Y33524500D01*
X14227459Y33524500D01*
X14088269Y33483630D01*
X14088266Y33483629D01*
X13966225Y33405197D01*
X13966223Y33405195D01*
X13871223Y33295560D01*
X13810956Y33163594D01*
X13810955Y33163592D01*
X13797990Y33073418D01*
X13770994Y33018511D01*
X13716879Y32989958D01*
X13656316Y32998666D01*
X13612439Y33041309D01*
X13602006Y33073420D01*
X13589042Y33163591D01*
X13589041Y33163594D01*
X13589041Y33163596D01*
X13528776Y33295558D01*
X13433774Y33405196D01*
X13311731Y33483629D01*
X13311728Y33483630D01*
X13172538Y33524500D01*
X13172535Y33524500D01*
X13027463Y33524500D01*
X13027459Y33524500D01*
X12888269Y33483630D01*
X12888266Y33483629D01*
X12766225Y33405197D01*
X12766223Y33405195D01*
X12671223Y33295560D01*
X12610956Y33163594D01*
X12610955Y33163592D01*
X12597990Y33073418D01*
X12570994Y33018511D01*
X12516879Y32989958D01*
X12456316Y32998666D01*
X12412439Y33041309D01*
X12402006Y33073420D01*
X12389042Y33163591D01*
X12389041Y33163594D01*
X12389041Y33163596D01*
X12328776Y33295558D01*
X12233774Y33405196D01*
X12111731Y33483629D01*
X12111728Y33483630D01*
X11972538Y33524500D01*
X11972535Y33524500D01*
X11827463Y33524500D01*
X11827459Y33524500D01*
X11688269Y33483630D01*
X11688266Y33483629D01*
X11566225Y33405197D01*
X11566223Y33405195D01*
X11471223Y33295560D01*
X11410956Y33163594D01*
X11410955Y33163592D01*
X11397990Y33073418D01*
X11370994Y33018511D01*
X11316879Y32989958D01*
X11256316Y32998666D01*
X11212439Y33041309D01*
X11202006Y33073420D01*
X11189042Y33163591D01*
X11189041Y33163594D01*
X11189041Y33163596D01*
X11128776Y33295558D01*
X11033774Y33405196D01*
X10911731Y33483629D01*
X10911728Y33483630D01*
X10772538Y33524500D01*
X10772535Y33524500D01*
X10627463Y33524500D01*
X10627459Y33524500D01*
X10488269Y33483630D01*
X10488266Y33483629D01*
X10366225Y33405197D01*
X10366223Y33405195D01*
X10271223Y33295560D01*
X10210956Y33163594D01*
X10210955Y33163592D01*
X10197990Y33073418D01*
X10170994Y33018511D01*
X10116879Y32989958D01*
X10056316Y32998666D01*
X10012439Y33041309D01*
X10002006Y33073420D01*
X9989042Y33163591D01*
X9989041Y33163594D01*
X9989041Y33163596D01*
X9928776Y33295558D01*
X9833774Y33405196D01*
X9711731Y33483629D01*
X9711728Y33483630D01*
X9572538Y33524500D01*
X9572535Y33524500D01*
X9427463Y33524500D01*
X9427459Y33524500D01*
X9288269Y33483630D01*
X9288266Y33483629D01*
X9166225Y33405197D01*
X9166223Y33405195D01*
X9071223Y33295560D01*
X9010956Y33163594D01*
X9010955Y33163592D01*
X8997990Y33073418D01*
X8970994Y33018511D01*
X8916879Y32989958D01*
X8856316Y32998666D01*
X8812439Y33041309D01*
X8802006Y33073420D01*
X8789042Y33163591D01*
X8789041Y33163594D01*
X8789041Y33163596D01*
X8728776Y33295558D01*
X8633774Y33405196D01*
X8511731Y33483629D01*
X8511728Y33483630D01*
X8372538Y33524500D01*
X8372535Y33524500D01*
X8227463Y33524500D01*
X8227459Y33524500D01*
X8088269Y33483630D01*
X8088266Y33483629D01*
X7966225Y33405197D01*
X7966223Y33405195D01*
X7871223Y33295560D01*
X7810956Y33163594D01*
X7810955Y33163591D01*
X7789303Y33012992D01*
X7787004Y33013323D01*
X7771404Y32965309D01*
X7721904Y32929345D01*
X7691311Y32924500D01*
X7627459Y32924500D01*
X7488269Y32883630D01*
X7488266Y32883629D01*
X7366225Y32805197D01*
X7366223Y32805195D01*
X7271223Y32695560D01*
X7271222Y32695559D01*
X7271222Y32695558D01*
X7245799Y32639889D01*
X7210956Y32563594D01*
X7210955Y32563591D01*
X7190311Y32420003D01*
X7190311Y32419998D01*
X7210955Y32276410D01*
X7210956Y32276407D01*
X7210956Y32276406D01*
X7210957Y32276404D01*
X7271222Y32144442D01*
X7344301Y32060104D01*
X7361818Y32039889D01*
X7385636Y31983530D01*
X7385999Y31975058D01*
X7385999Y23064943D01*
X7367092Y23006752D01*
X7361818Y23000112D01*
X7271223Y22895561D01*
X7210956Y22763594D01*
X7210955Y22763591D01*
X7190311Y22620003D01*
X7190311Y22619998D01*
X4179Y22619998D01*
X4179Y24006317D01*
X245739Y24006317D01*
X255754Y23821593D01*
X301600Y23656471D01*
X305246Y23643339D01*
X305249Y23643333D01*
X391898Y23479897D01*
X391899Y23479896D01*
X511660Y23338902D01*
X511665Y23338897D01*
X658931Y23226948D01*
X658933Y23226947D01*
X658934Y23226947D01*
X658935Y23226946D01*
X826832Y23149268D01*
X1007502Y23109500D01*
X1007506Y23109500D01*
X1946111Y23109500D01*
X1946112Y23109500D01*
X2083909Y23124486D01*
X2259220Y23183556D01*
X2417735Y23278930D01*
X2552040Y23406151D01*
X2655857Y23559270D01*
X2724330Y23731125D01*
X2754259Y23913683D01*
X2744244Y24098407D01*
X2694753Y24276659D01*
X2608099Y24440104D01*
X2488336Y24581100D01*
X2488332Y24581104D01*
X2341066Y24693053D01*
X2341064Y24693054D01*
X2173169Y24770731D01*
X2173167Y24770732D01*
X2137031Y24778686D01*
X1992496Y24810500D01*
X1053886Y24810500D01*
X916089Y24795514D01*
X857019Y24775612D01*
X740779Y24736445D01*
X740776Y24736444D01*
X582265Y24641073D01*
X582261Y24641069D01*
X447959Y24513851D01*
X344141Y24360733D01*
X275668Y24188876D01*
X275668Y24188875D01*
X245739Y24006317D01*
X4179Y24006317D01*
X4179Y26546317D01*
X245739Y26546317D01*
X255754Y26361593D01*
X305245Y26183341D01*
X305246Y26183339D01*
X305249Y26183333D01*
X391898Y26019897D01*
X391899Y26019896D01*
X511660Y25878902D01*
X511665Y25878897D01*
X658931Y25766948D01*
X658933Y25766947D01*
X658934Y25766947D01*
X658935Y25766946D01*
X826832Y25689268D01*
X1007502Y25649500D01*
X1007506Y25649500D01*
X1946111Y25649500D01*
X1946112Y25649500D01*
X2083909Y25664486D01*
X2259220Y25723556D01*
X2401419Y25809113D01*
X2417732Y25818928D01*
X2417732Y25818929D01*
X2417735Y25818930D01*
X2552040Y25946151D01*
X2655857Y26099270D01*
X2724330Y26271125D01*
X2754259Y26453683D01*
X2744244Y26638407D01*
X2694753Y26816659D01*
X2608099Y26980104D01*
X2524493Y27078533D01*
X2488337Y27121099D01*
X2488332Y27121104D01*
X2341066Y27233053D01*
X2341064Y27233054D01*
X2173169Y27310731D01*
X2173167Y27310732D01*
X2137032Y27318686D01*
X1992496Y27350500D01*
X1053886Y27350500D01*
X916089Y27335514D01*
X857019Y27315612D01*
X740779Y27276445D01*
X740776Y27276444D01*
X582265Y27181073D01*
X582261Y27181069D01*
X447959Y27053851D01*
X344141Y26900733D01*
X275668Y26728876D01*
X273579Y26716130D01*
X245739Y26546317D01*
X4179Y26546317D01*
X4179Y29086317D01*
X245739Y29086317D01*
X255754Y28901593D01*
X305245Y28723341D01*
X305246Y28723339D01*
X305249Y28723333D01*
X391898Y28559897D01*
X391899Y28559896D01*
X511660Y28418902D01*
X511665Y28418897D01*
X658931Y28306948D01*
X658933Y28306947D01*
X658934Y28306947D01*
X658935Y28306946D01*
X826832Y28229268D01*
X1007502Y28189500D01*
X1007506Y28189500D01*
X1946111Y28189500D01*
X1946112Y28189500D01*
X2083909Y28204486D01*
X2259220Y28263556D01*
X2417735Y28358930D01*
X2552040Y28486151D01*
X2655857Y28639270D01*
X2724330Y28811125D01*
X2754259Y28993683D01*
X2744244Y29178407D01*
X2694753Y29356659D01*
X2608099Y29520104D01*
X2488336Y29661100D01*
X2488332Y29661104D01*
X2341066Y29773053D01*
X2341064Y29773054D01*
X2173169Y29850731D01*
X2173167Y29850732D01*
X2137032Y29858686D01*
X1992496Y29890500D01*
X1053886Y29890500D01*
X916089Y29875514D01*
X857020Y29855612D01*
X740779Y29816445D01*
X740776Y29816444D01*
X582265Y29721073D01*
X582261Y29721069D01*
X447959Y29593851D01*
X344141Y29440733D01*
X275668Y29268876D01*
X275668Y29268875D01*
X245739Y29086317D01*
X4179Y29086317D01*
X4179Y30912799D01*
X23086Y30970990D01*
X72586Y31006954D01*
X133772Y31006954D01*
X183272Y30970990D01*
X183822Y30970225D01*
X264891Y30856379D01*
X264896Y30856374D01*
X416930Y30711410D01*
X593655Y30597835D01*
X593668Y30597828D01*
X788679Y30519758D01*
X788688Y30519755D01*
X994964Y30480000D01*
X1249998Y30480000D01*
X1249999Y30480002D01*
X1249999Y31264314D01*
X1261954Y31252359D01*
X1374851Y31194835D01*
X1468518Y31180000D01*
X1531480Y31180000D01*
X1625147Y31194835D01*
X1738044Y31252359D01*
X1749999Y31264314D01*
X1749999Y30480001D01*
X1750000Y30480000D01*
X1952403Y30480000D01*
X2109123Y30494966D01*
X2310691Y30554152D01*
X2497406Y30650410D01*
X2497409Y30650412D01*
X2662539Y30780271D01*
X2800109Y30939036D01*
X2905146Y31120966D01*
X2973855Y31319488D01*
X2975367Y31329999D01*
X2975366Y31330000D01*
X1815685Y31330000D01*
X1827640Y31341955D01*
X1885164Y31454852D01*
X1904985Y31580000D01*
X1885164Y31705148D01*
X1827640Y31818045D01*
X1815685Y31830000D01*
X2971257Y31830000D01*
X2944230Y31941407D01*
X2856963Y32132498D01*
X2735106Y32303622D01*
X2735101Y32303627D01*
X2583067Y32448591D01*
X2406342Y32562166D01*
X2406329Y32562173D01*
X2211318Y32640243D01*
X2211309Y32640246D01*
X2005034Y32680000D01*
X1750000Y32680000D01*
X1749999Y32679999D01*
X1749999Y31895686D01*
X1738044Y31907641D01*
X1625147Y31965165D01*
X1531480Y31980000D01*
X1468518Y31980000D01*
X1374851Y31965165D01*
X1261954Y31907641D01*
X1249999Y31895686D01*
X1249999Y32679999D01*
X1249998Y32680000D01*
X1047595Y32680000D01*
X890874Y32665035D01*
X689306Y32605849D01*
X502591Y32509591D01*
X502588Y32509589D01*
X337458Y32379730D01*
X199889Y32220965D01*
X188915Y32201958D01*
X143444Y32161018D01*
X82594Y32154624D01*
X29606Y32185217D01*
X4721Y32241113D01*
X4179Y32251460D01*
X4179Y34166317D01*
X245739Y34166317D01*
X255754Y33981593D01*
X305245Y33803341D01*
X305246Y33803339D01*
X305249Y33803333D01*
X391898Y33639897D01*
X391899Y33639896D01*
X511660Y33498902D01*
X511665Y33498897D01*
X658931Y33386948D01*
X658933Y33386947D01*
X658934Y33386947D01*
X658935Y33386946D01*
X826832Y33309268D01*
X1007502Y33269500D01*
X1007506Y33269500D01*
X1946111Y33269500D01*
X1946112Y33269500D01*
X2083909Y33284486D01*
X2259220Y33343556D01*
X2417735Y33438930D01*
X2552040Y33566151D01*
X2655857Y33719270D01*
X2724330Y33891125D01*
X2754259Y34073683D01*
X2749237Y34166317D01*
X25645739Y34166317D01*
X25655754Y33981593D01*
X25705245Y33803341D01*
X25705246Y33803339D01*
X25705249Y33803333D01*
X25791898Y33639897D01*
X25791899Y33639896D01*
X25911660Y33498902D01*
X25911665Y33498897D01*
X26058931Y33386948D01*
X26058933Y33386947D01*
X26058934Y33386947D01*
X26058935Y33386946D01*
X26226832Y33309268D01*
X26407502Y33269500D01*
X26407506Y33269500D01*
X27346111Y33269500D01*
X27346112Y33269500D01*
X27483909Y33284486D01*
X27659220Y33343556D01*
X27817735Y33438930D01*
X27952040Y33566151D01*
X28055857Y33719270D01*
X28124330Y33891125D01*
X28154259Y34073683D01*
X28144244Y34258407D01*
X28094753Y34436659D01*
X28008099Y34600104D01*
X27888336Y34741100D01*
X27888332Y34741104D01*
X27741066Y34853053D01*
X27741064Y34853054D01*
X27573169Y34930731D01*
X27573167Y34930732D01*
X27537031Y34938686D01*
X27392496Y34970500D01*
X26453886Y34970500D01*
X26316089Y34955514D01*
X26257019Y34935612D01*
X26140779Y34896445D01*
X26140776Y34896444D01*
X25982265Y34801073D01*
X25982261Y34801069D01*
X25847959Y34673851D01*
X25744141Y34520733D01*
X25675668Y34348876D01*
X25675668Y34348875D01*
X25645739Y34166317D01*
X2749237Y34166317D01*
X2744244Y34258407D01*
X2694753Y34436659D01*
X2608099Y34600104D01*
X2488336Y34741100D01*
X2488332Y34741104D01*
X2341066Y34853053D01*
X2341064Y34853054D01*
X2173169Y34930731D01*
X2173167Y34930732D01*
X2137031Y34938686D01*
X1992496Y34970500D01*
X1053886Y34970500D01*
X916089Y34955514D01*
X857020Y34935612D01*
X740779Y34896445D01*
X740776Y34896444D01*
X582265Y34801073D01*
X582261Y34801069D01*
X447959Y34673851D01*
X344141Y34520733D01*
X275668Y34348876D01*
X275668Y34348875D01*
X245739Y34166317D01*
X4179Y34166317D01*
X4179Y36706317D01*
X245739Y36706317D01*
X255754Y36521593D01*
X305245Y36343341D01*
X305246Y36343339D01*
X305249Y36343333D01*
X391898Y36179897D01*
X391899Y36179896D01*
X511660Y36038902D01*
X511665Y36038897D01*
X658931Y35926948D01*
X658933Y35926947D01*
X658934Y35926947D01*
X658935Y35926946D01*
X826832Y35849268D01*
X1007502Y35809500D01*
X1007506Y35809500D01*
X1946111Y35809500D01*
X1946112Y35809500D01*
X2083909Y35824486D01*
X2259220Y35883556D01*
X2417735Y35978930D01*
X2552040Y36106151D01*
X2655857Y36259270D01*
X2724330Y36431125D01*
X2754259Y36613683D01*
X2749237Y36706317D01*
X25645739Y36706317D01*
X25655754Y36521593D01*
X25705245Y36343341D01*
X25705246Y36343339D01*
X25705249Y36343333D01*
X25791898Y36179897D01*
X25791899Y36179896D01*
X25911660Y36038902D01*
X25911665Y36038897D01*
X26058931Y35926948D01*
X26058933Y35926947D01*
X26058934Y35926947D01*
X26058935Y35926946D01*
X26226832Y35849268D01*
X26407502Y35809500D01*
X26407506Y35809500D01*
X27346111Y35809500D01*
X27346112Y35809500D01*
X27483909Y35824486D01*
X27659220Y35883556D01*
X27817735Y35978930D01*
X27952040Y36106151D01*
X28055857Y36259270D01*
X28124330Y36431125D01*
X28154259Y36613683D01*
X28144244Y36798407D01*
X28094753Y36976659D01*
X28008099Y37140104D01*
X27888336Y37281100D01*
X27888332Y37281104D01*
X27741066Y37393053D01*
X27741064Y37393054D01*
X27573169Y37470731D01*
X27573167Y37470732D01*
X27537032Y37478686D01*
X27392496Y37510500D01*
X26453886Y37510500D01*
X26316089Y37495514D01*
X26257019Y37475612D01*
X26140779Y37436445D01*
X26140776Y37436444D01*
X25982265Y37341073D01*
X25982261Y37341069D01*
X25847959Y37213851D01*
X25744141Y37060733D01*
X25675668Y36888876D01*
X25675668Y36888875D01*
X25645739Y36706317D01*
X2749237Y36706317D01*
X2744244Y36798407D01*
X2694753Y36976659D01*
X2608099Y37140104D01*
X2488336Y37281100D01*
X2488332Y37281104D01*
X2341066Y37393053D01*
X2341064Y37393054D01*
X2173169Y37470731D01*
X2173167Y37470732D01*
X2137032Y37478686D01*
X1992496Y37510500D01*
X1053886Y37510500D01*
X916089Y37495514D01*
X857020Y37475612D01*
X740779Y37436445D01*
X740776Y37436444D01*
X582265Y37341073D01*
X582261Y37341069D01*
X447959Y37213851D01*
X344141Y37060733D01*
X275668Y36888876D01*
X275668Y36888875D01*
X245739Y36706317D01*
X4179Y36706317D01*
X4179Y39246317D01*
X245739Y39246317D01*
X255754Y39061593D01*
X305245Y38883341D01*
X305246Y38883339D01*
X305249Y38883333D01*
X391898Y38719897D01*
X391899Y38719896D01*
X511660Y38578902D01*
X511665Y38578897D01*
X658931Y38466948D01*
X658933Y38466947D01*
X658934Y38466947D01*
X658935Y38466946D01*
X826832Y38389268D01*
X1007502Y38349500D01*
X1007506Y38349500D01*
X1946111Y38349500D01*
X1946112Y38349500D01*
X2083909Y38364486D01*
X2259220Y38423556D01*
X2417735Y38518930D01*
X2552040Y38646151D01*
X2655857Y38799270D01*
X2724330Y38971125D01*
X2754259Y39153683D01*
X2749237Y39246317D01*
X25645739Y39246317D01*
X25655754Y39061593D01*
X25705245Y38883341D01*
X25705246Y38883339D01*
X25705249Y38883333D01*
X25791898Y38719897D01*
X25791899Y38719896D01*
X25911660Y38578902D01*
X25911665Y38578897D01*
X26058931Y38466948D01*
X26058933Y38466947D01*
X26058934Y38466947D01*
X26058935Y38466946D01*
X26226832Y38389268D01*
X26407502Y38349500D01*
X26407506Y38349500D01*
X27346111Y38349500D01*
X27346112Y38349500D01*
X27483909Y38364486D01*
X27659220Y38423556D01*
X27817735Y38518930D01*
X27952040Y38646151D01*
X28055857Y38799270D01*
X28124330Y38971125D01*
X28154259Y39153683D01*
X28144244Y39338407D01*
X28094753Y39516659D01*
X28008099Y39680104D01*
X27888336Y39821100D01*
X27888332Y39821104D01*
X27741066Y39933053D01*
X27741064Y39933054D01*
X27573169Y40010731D01*
X27573167Y40010732D01*
X27537032Y40018686D01*
X27392496Y40050500D01*
X26453886Y40050500D01*
X26316089Y40035514D01*
X26257020Y40015612D01*
X26140779Y39976445D01*
X26140776Y39976444D01*
X25982265Y39881073D01*
X25982261Y39881069D01*
X25847959Y39753851D01*
X25744141Y39600733D01*
X25675668Y39428876D01*
X25675668Y39428875D01*
X25645739Y39246317D01*
X2749237Y39246317D01*
X2744244Y39338407D01*
X2694753Y39516659D01*
X2608099Y39680104D01*
X2488336Y39821100D01*
X2488332Y39821104D01*
X2341066Y39933053D01*
X2341064Y39933054D01*
X2173169Y40010731D01*
X2173167Y40010732D01*
X2137032Y40018686D01*
X1992496Y40050500D01*
X1053886Y40050500D01*
X916089Y40035514D01*
X857020Y40015612D01*
X740779Y39976445D01*
X740776Y39976444D01*
X582265Y39881073D01*
X582261Y39881069D01*
X447959Y39753851D01*
X344141Y39600733D01*
X275668Y39428876D01*
X275668Y39428875D01*
X245739Y39246317D01*
X4179Y39246317D01*
X4179Y41786317D01*
X245739Y41786317D01*
X255754Y41601593D01*
X305245Y41423341D01*
X305246Y41423339D01*
X305249Y41423333D01*
X391898Y41259897D01*
X391899Y41259896D01*
X511660Y41118902D01*
X511665Y41118897D01*
X658931Y41006948D01*
X658933Y41006947D01*
X658934Y41006947D01*
X658935Y41006946D01*
X826832Y40929268D01*
X1007502Y40889500D01*
X1007506Y40889500D01*
X1946111Y40889500D01*
X1946112Y40889500D01*
X2083909Y40904486D01*
X2259220Y40963556D01*
X2417735Y41058930D01*
X2552040Y41186151D01*
X2655857Y41339270D01*
X2724330Y41511125D01*
X2754259Y41693683D01*
X2752832Y41719997D01*
X3694658Y41719997D01*
X3713973Y41523874D01*
X3713974Y41523871D01*
X3771186Y41335270D01*
X3771187Y41335268D01*
X3811474Y41259897D01*
X3864089Y41161462D01*
X3864091Y41161460D01*
X3864092Y41161458D01*
X3989111Y41009122D01*
X3989120Y41009113D01*
X4134869Y40889500D01*
X4141461Y40884090D01*
X4315272Y40791186D01*
X4503867Y40733976D01*
X4503869Y40733976D01*
X4503872Y40733975D01*
X4699996Y40714659D01*
X4699999Y40714659D01*
X4700002Y40714659D01*
X4896125Y40733975D01*
X4896126Y40733976D01*
X4896131Y40733976D01*
X5084726Y40791186D01*
X5258537Y40884090D01*
X5410882Y41009117D01*
X5535909Y41161462D01*
X5628813Y41335273D01*
X5686023Y41523868D01*
X5693679Y41601595D01*
X5705340Y41719997D01*
X5705340Y41720004D01*
X5698809Y41786317D01*
X25645739Y41786317D01*
X25655754Y41601593D01*
X25705245Y41423341D01*
X25705246Y41423339D01*
X25705249Y41423333D01*
X25791898Y41259897D01*
X25791899Y41259896D01*
X25911660Y41118902D01*
X25911665Y41118897D01*
X26058931Y41006948D01*
X26058933Y41006947D01*
X26058934Y41006947D01*
X26058935Y41006946D01*
X26226832Y40929268D01*
X26407502Y40889500D01*
X26407506Y40889500D01*
X27346111Y40889500D01*
X27346112Y40889500D01*
X27483909Y40904486D01*
X27659220Y40963556D01*
X27817735Y41058930D01*
X27952040Y41186151D01*
X28055857Y41339270D01*
X28124330Y41511125D01*
X28154259Y41693683D01*
X28144244Y41878407D01*
X28094753Y42056659D01*
X28008099Y42220104D01*
X27888336Y42361100D01*
X27888332Y42361104D01*
X27741066Y42473053D01*
X27741064Y42473054D01*
X27573169Y42550731D01*
X27573167Y42550732D01*
X27537032Y42558686D01*
X27392496Y42590500D01*
X26453886Y42590500D01*
X26316089Y42575514D01*
X26257916Y42555913D01*
X26140779Y42516445D01*
X26140776Y42516444D01*
X25982265Y42421073D01*
X25982261Y42421069D01*
X25847959Y42293851D01*
X25744141Y42140733D01*
X25675668Y41968876D01*
X25675668Y41968875D01*
X25645739Y41786317D01*
X5698809Y41786317D01*
X5686024Y41916127D01*
X5686023Y41916130D01*
X5686023Y41916132D01*
X5628813Y42104727D01*
X5535909Y42278538D01*
X5468152Y42361100D01*
X5410886Y42430879D01*
X5410877Y42430888D01*
X5258541Y42555907D01*
X5258539Y42555908D01*
X5258537Y42555910D01*
X5193824Y42590500D01*
X5084731Y42648812D01*
X5084729Y42648813D01*
X4896128Y42706025D01*
X4896125Y42706026D01*
X4700002Y42725341D01*
X4699996Y42725341D01*
X4503872Y42706026D01*
X4503869Y42706025D01*
X4315268Y42648813D01*
X4315266Y42648812D01*
X4141466Y42555913D01*
X4141456Y42555907D01*
X3989120Y42430888D01*
X3989111Y42430879D01*
X3864092Y42278543D01*
X3864086Y42278533D01*
X3771187Y42104733D01*
X3771186Y42104731D01*
X3713974Y41916130D01*
X3713973Y41916127D01*
X3694658Y41720004D01*
X3694658Y41719997D01*
X2752832Y41719997D01*
X2744244Y41878407D01*
X2694753Y42056659D01*
X2608099Y42220104D01*
X2488336Y42361100D01*
X2488332Y42361104D01*
X2341066Y42473053D01*
X2341064Y42473054D01*
X2173169Y42550731D01*
X2173167Y42550732D01*
X2137032Y42558686D01*
X1992496Y42590500D01*
X1053886Y42590500D01*
X916089Y42575514D01*
X857916Y42555913D01*
X740779Y42516445D01*
X740776Y42516444D01*
X582265Y42421073D01*
X582261Y42421069D01*
X447959Y42293851D01*
X344141Y42140733D01*
X275668Y41968876D01*
X275668Y41968875D01*
X245739Y41786317D01*
X4179Y41786317D01*
X4179Y44326317D01*
X245739Y44326317D01*
X255754Y44141593D01*
X285275Y44035268D01*
X305246Y43963339D01*
X305249Y43963333D01*
X391898Y43799897D01*
X391899Y43799896D01*
X511660Y43658902D01*
X511665Y43658897D01*
X658931Y43546948D01*
X658933Y43546947D01*
X658934Y43546947D01*
X658935Y43546946D01*
X826832Y43469268D01*
X1007502Y43429500D01*
X1007506Y43429500D01*
X1946111Y43429500D01*
X1946112Y43429500D01*
X2083909Y43444486D01*
X2259220Y43503556D01*
X2393067Y43584088D01*
X2417732Y43598928D01*
X2417732Y43598929D01*
X2417735Y43598930D01*
X2552040Y43726151D01*
X2655857Y43879270D01*
X2724330Y44051125D01*
X2754259Y44233683D01*
X2744244Y44418407D01*
X2743803Y44419997D01*
X3694658Y44419997D01*
X3713973Y44223874D01*
X3713974Y44223871D01*
X3771186Y44035270D01*
X3771187Y44035268D01*
X3842217Y43902382D01*
X3864089Y43861462D01*
X3864091Y43861460D01*
X3864092Y43861458D01*
X3989111Y43709122D01*
X3989120Y43709113D01*
X4123381Y43598928D01*
X4141461Y43584090D01*
X4274352Y43513058D01*
X4292127Y43503557D01*
X4315272Y43491186D01*
X4503867Y43433976D01*
X4503869Y43433976D01*
X4503872Y43433975D01*
X4699996Y43414659D01*
X4699999Y43414659D01*
X4700002Y43414659D01*
X4896125Y43433975D01*
X4896126Y43433976D01*
X4896131Y43433976D01*
X5084726Y43491186D01*
X5258537Y43584090D01*
X5410882Y43709117D01*
X5535909Y43861462D01*
X5628813Y44035273D01*
X5686023Y44223868D01*
X5696114Y44326317D01*
X25645739Y44326317D01*
X25655754Y44141593D01*
X25685275Y44035268D01*
X25705246Y43963339D01*
X25705249Y43963333D01*
X25791898Y43799897D01*
X25791899Y43799896D01*
X25911660Y43658902D01*
X25911665Y43658897D01*
X26058931Y43546948D01*
X26058933Y43546947D01*
X26058934Y43546947D01*
X26058935Y43546946D01*
X26226832Y43469268D01*
X26407502Y43429500D01*
X26407506Y43429500D01*
X27346111Y43429500D01*
X27346112Y43429500D01*
X27483909Y43444486D01*
X27659220Y43503556D01*
X27793067Y43584088D01*
X27817732Y43598928D01*
X27817732Y43598929D01*
X27817735Y43598930D01*
X27952040Y43726151D01*
X28055857Y43879270D01*
X28124330Y44051125D01*
X28154259Y44233683D01*
X28144244Y44418407D01*
X28094753Y44596659D01*
X28008099Y44760104D01*
X27888336Y44901100D01*
X27888332Y44901104D01*
X27741066Y45013053D01*
X27741064Y45013054D01*
X27573169Y45090731D01*
X27573167Y45090732D01*
X27537032Y45098686D01*
X27392496Y45130500D01*
X26453886Y45130500D01*
X26316089Y45115514D01*
X26257020Y45095612D01*
X26140779Y45056445D01*
X26140776Y45056444D01*
X25982265Y44961073D01*
X25982261Y44961069D01*
X25847959Y44833851D01*
X25744141Y44680733D01*
X25675668Y44508876D01*
X25661098Y44420000D01*
X25645739Y44326317D01*
X5696114Y44326317D01*
X5705340Y44419997D01*
X5705340Y44420004D01*
X5686024Y44616127D01*
X5686023Y44616130D01*
X5686023Y44616132D01*
X5628813Y44804727D01*
X5535909Y44978538D01*
X5507583Y45013053D01*
X5410886Y45130879D01*
X5410877Y45130888D01*
X5258541Y45255907D01*
X5258539Y45255908D01*
X5258537Y45255910D01*
X5217617Y45277782D01*
X5084731Y45348812D01*
X5084729Y45348813D01*
X4896128Y45406025D01*
X4896125Y45406026D01*
X4700002Y45425341D01*
X4699996Y45425341D01*
X4503872Y45406026D01*
X4503869Y45406025D01*
X4315268Y45348813D01*
X4315266Y45348812D01*
X4141466Y45255913D01*
X4141456Y45255907D01*
X3989120Y45130888D01*
X3989111Y45130879D01*
X3864092Y44978543D01*
X3864086Y44978533D01*
X3771187Y44804733D01*
X3771186Y44804731D01*
X3713974Y44616130D01*
X3713973Y44616127D01*
X3694658Y44420004D01*
X3694658Y44419997D01*
X2743803Y44419997D01*
X2694753Y44596659D01*
X2608099Y44760104D01*
X2488336Y44901100D01*
X2488332Y44901104D01*
X2341066Y45013053D01*
X2341064Y45013054D01*
X2173169Y45090731D01*
X2173167Y45090732D01*
X2137032Y45098686D01*
X1992496Y45130500D01*
X1053886Y45130500D01*
X916089Y45115514D01*
X857020Y45095612D01*
X740779Y45056445D01*
X740776Y45056444D01*
X582265Y44961073D01*
X582261Y44961069D01*
X447959Y44833851D01*
X344141Y44680733D01*
X275668Y44508876D01*
X261098Y44420000D01*
X245739Y44326317D01*
X4179Y44326317D01*
X4179Y46152799D01*
X23086Y46210990D01*
X72586Y46246954D01*
X133772Y46246954D01*
X183272Y46210990D01*
X183822Y46210225D01*
X264891Y46096379D01*
X264896Y46096374D01*
X416930Y45951410D01*
X593655Y45837835D01*
X593668Y45837828D01*
X788679Y45759758D01*
X788688Y45759755D01*
X994964Y45720000D01*
X1249998Y45720000D01*
X1249999Y45720002D01*
X1249999Y46504314D01*
X1261954Y46492359D01*
X1374851Y46434835D01*
X1468518Y46420000D01*
X1531480Y46420000D01*
X1625147Y46434835D01*
X1738044Y46492359D01*
X1749999Y46504315D01*
X1749999Y45720002D01*
X1750000Y45720000D01*
X1952403Y45720000D01*
X2109123Y45734966D01*
X2310691Y45794152D01*
X2497406Y45890410D01*
X2497409Y45890412D01*
X2662539Y46020271D01*
X2800109Y46179036D01*
X2809515Y46195328D01*
X25649499Y46195328D01*
X25649500Y46195316D01*
X25664032Y46122264D01*
X25664034Y46122258D01*
X25719396Y46039401D01*
X25719399Y46039398D01*
X25802256Y45984036D01*
X25802259Y45984034D01*
X25857807Y45972985D01*
X25875314Y45969502D01*
X25875319Y45969502D01*
X25875325Y45969500D01*
X25875326Y45969500D01*
X27924672Y45969500D01*
X27924673Y45969500D01*
X27997739Y45984034D01*
X28080600Y46039399D01*
X28135965Y46122260D01*
X28150499Y46195326D01*
X28150499Y47444674D01*
X28135965Y47517740D01*
X28135963Y47517743D01*
X28080601Y47600600D01*
X28080598Y47600603D01*
X27997741Y47655965D01*
X27997739Y47655966D01*
X27997736Y47655967D01*
X27997735Y47655967D01*
X27924683Y47670499D01*
X27924673Y47670500D01*
X25875325Y47670500D01*
X25875324Y47670500D01*
X25875314Y47670499D01*
X25802262Y47655967D01*
X25802256Y47655965D01*
X25719399Y47600603D01*
X25719396Y47600600D01*
X25664034Y47517743D01*
X25664032Y47517737D01*
X25649500Y47444685D01*
X25649499Y47444673D01*
X25649499Y46195328D01*
X2809515Y46195328D01*
X2905146Y46360966D01*
X2973855Y46559488D01*
X2975367Y46569999D01*
X2975366Y46570000D01*
X1815685Y46570000D01*
X1827640Y46581955D01*
X1885164Y46694852D01*
X1904985Y46820000D01*
X1885164Y46945148D01*
X1827640Y47058045D01*
X1815685Y47070000D01*
X2971257Y47070000D01*
X2944230Y47181407D01*
X2856963Y47372498D01*
X2735106Y47543622D01*
X2735101Y47543627D01*
X2583067Y47688591D01*
X2534294Y47719936D01*
X2495563Y47767302D01*
X2492070Y47828388D01*
X2525150Y47879860D01*
X2582166Y47902059D01*
X2587818Y47902220D01*
X28304179Y47902220D01*
X28362370Y47883313D01*
G37*
%TD.AperFunction*%
%TD*%
M02*
