%TF.GenerationSoftware,KiCad,Pcbnew,7.0.5-0*%
%TF.CreationDate,2023-06-28T11:54:25-07:00*%
%TF.ProjectId,AAXA01,41415841-3031-42e6-9b69-6361645f7063,rev?*%
%TF.SameCoordinates,PX5f5d2a1PY5f5eba0*%
%TF.FileFunction,Soldermask,Bot*%
%TF.FilePolarity,Negative*%
%FSLAX46Y46*%
G04 Gerber Fmt 4.6, Leading zero omitted, Abs format (unit mm)*
G04 Created by KiCad (PCBNEW 7.0.5-0) date 2023-06-28 11:54:25*
%MOMM*%
%LPD*%
G01*
G04 APERTURE LIST*
%ADD10C,1.500000*%
%ADD11O,2.000000X1.200000*%
%ADD12R,2.000000X1.200000*%
G04 APERTURE END LIST*
D10*
%TO.C,~{LED3}*%
X7012499Y12855000D03*
%TD*%
%TO.C,~{LED2}*%
X7012499Y8955000D03*
%TD*%
%TO.C,~{LED1}*%
X6912499Y4855000D03*
%TD*%
%TO.C,~{LASER2}*%
X23696140Y23966417D03*
%TD*%
D11*
%TO.C,U4*%
X1499999Y46820000D03*
X1499999Y44280000D03*
X1499999Y41740000D03*
X1499999Y39200000D03*
X1499999Y36660000D03*
X1499999Y34120000D03*
X1499999Y31580000D03*
X1499999Y29040000D03*
X1499999Y26500000D03*
X1499999Y23960000D03*
X1499999Y21420000D03*
X1499999Y18880000D03*
X1499999Y16340000D03*
X1499999Y13800000D03*
X1499999Y11260000D03*
X1499999Y8720000D03*
X1499999Y6180000D03*
X1503679Y3642720D03*
X1503679Y1102720D03*
X26899999Y1100000D03*
X26899999Y3640000D03*
X26899999Y6180000D03*
X26899999Y8720000D03*
X26899999Y11260000D03*
X26899999Y13800000D03*
X26899999Y16340000D03*
X26899999Y18880000D03*
X26899999Y21420000D03*
X26899999Y23960000D03*
X26899999Y26500000D03*
X26899999Y29040000D03*
X26899999Y31580000D03*
X26899999Y34120000D03*
X26899999Y36660000D03*
X26899999Y39200000D03*
X26899999Y41740000D03*
X26899999Y44280000D03*
D12*
X26899999Y46820000D03*
%TD*%
D10*
%TO.C,STROBE*%
X4699999Y41720000D03*
%TD*%
%TO.C,~{LASER1}*%
X23699999Y26520000D03*
%TD*%
%TO.C,TRIGGER*%
X4699999Y44420000D03*
%TD*%
%TO.C,~{LASER3}*%
X23699999Y21420000D03*
%TD*%
M02*
