%TF.GenerationSoftware,KiCad,Pcbnew,7.0.5-0*%
%TF.CreationDate,2023-06-28T16:40:04-07:00*%
%TF.ProjectId,SLM-VERA,534c4d2d-5645-4524-912e-6b696361645f,rev?*%
%TF.SameCoordinates,PX5f5d2a1PY5f5eba0*%
%TF.FileFunction,Copper,L2,Bot*%
%TF.FilePolarity,Positive*%
%FSLAX46Y46*%
G04 Gerber Fmt 4.6, Leading zero omitted, Abs format (unit mm)*
G04 Created by KiCad (PCBNEW 7.0.5-0) date 2023-06-28 16:40:04*
%MOMM*%
%LPD*%
G01*
G04 APERTURE LIST*
%TA.AperFunction,ComponentPad*%
%ADD10C,1.500000*%
%TD*%
%TA.AperFunction,ComponentPad*%
%ADD11R,2.000000X1.200000*%
%TD*%
%TA.AperFunction,ComponentPad*%
%ADD12O,2.000000X1.200000*%
%TD*%
G04 APERTURE END LIST*
D10*
%TO.P,~{LED3},1,1*%
%TO.N,/~{LED3}*%
X5700000Y16600000D03*
%TD*%
%TO.P,~{LASER2},1,1*%
%TO.N,/~{LASER2}*%
X24396141Y23946417D03*
%TD*%
%TO.P,STROBE,1,1*%
%TO.N,/STROBE*%
X4699999Y41720000D03*
%TD*%
%TO.P,~{LASER1},1,1*%
%TO.N,/~{LASER1}*%
X24400000Y26500000D03*
%TD*%
%TO.P,~{LED1},1,1*%
%TO.N,/~{LED1}*%
X5200000Y8400000D03*
%TD*%
%TO.P,TRIGGER,1,1*%
%TO.N,/TRIGGER*%
X4699999Y44420000D03*
%TD*%
%TO.P,~{LASER3},1,1*%
%TO.N,/~{LASER3}*%
X24400000Y21400000D03*
%TD*%
%TO.P,~{LED2},1,1*%
%TO.N,/~{LED2}*%
X5500000Y12300000D03*
%TD*%
D11*
%TO.P,U4,1,3V3*%
%TO.N,+3V3*%
X26899999Y46820000D03*
D12*
%TO.P,U4,2,CHIP_PU*%
%TO.N,unconnected-(U4-CHIP_PU-Pad2)*%
X26899999Y44280000D03*
%TO.P,U4,3,SENSOR_VP/GPIO36/ADC1_CH0*%
%TO.N,unconnected-(U4-SENSOR_VP{slash}GPIO36{slash}ADC1_CH0-Pad3)*%
X26899999Y41740000D03*
%TO.P,U4,4,SENSOR_VN/GPIO39/ADC1_CH3*%
%TO.N,unconnected-(U4-SENSOR_VN{slash}GPIO39{slash}ADC1_CH3-Pad4)*%
X26899999Y39200000D03*
%TO.P,U4,5,VDET_1/GPIO34/ADC1_CH6*%
%TO.N,unconnected-(U4-VDET_1{slash}GPIO34{slash}ADC1_CH6-Pad5)*%
X26899999Y36660000D03*
%TO.P,U4,6,VDET_2/GPIO35/ADC1_CH7*%
%TO.N,unconnected-(U4-VDET_2{slash}GPIO35{slash}ADC1_CH7-Pad6)*%
X26899999Y34120000D03*
%TO.P,U4,7,32K_XP/GPIO32/ADC1_CH4*%
%TO.N,unconnected-(U4-32K_XP{slash}GPIO32{slash}ADC1_CH4-Pad7)*%
X26899999Y31580000D03*
%TO.P,U4,8,32K_XN/GPIO33/ADC1_CH5*%
%TO.N,unconnected-(U4-32K_XN{slash}GPIO33{slash}ADC1_CH5-Pad8)*%
X26899999Y29040000D03*
%TO.P,U4,9,DAC_1/ADC2_CH8/GPIO25*%
%TO.N,/~{LASER1}*%
X26899999Y26500000D03*
%TO.P,U4,10,DAC_2/ADC2_CH9/GPIO26*%
%TO.N,/~{LASER2}*%
X26899999Y23960000D03*
%TO.P,U4,11,ADC2_CH7/GPIO27*%
%TO.N,/~{LASER3}*%
X26899999Y21420000D03*
%TO.P,U4,12,MTMS/GPIO14/ADC2_CH6*%
%TO.N,unconnected-(U4-MTMS{slash}GPIO14{slash}ADC2_CH6-Pad12)*%
X26899999Y18880000D03*
%TO.P,U4,13,MTDI/GPIO12/ADC2_CH5*%
%TO.N,unconnected-(U4-MTDI{slash}GPIO12{slash}ADC2_CH5-Pad13)*%
X26899999Y16340000D03*
%TO.P,U4,14,GND*%
%TO.N,GND*%
X26899999Y13800000D03*
%TO.P,U4,15,MTCK/GPIO13/ADC2_CH4*%
%TO.N,unconnected-(U4-MTCK{slash}GPIO13{slash}ADC2_CH4-Pad15)*%
X26899999Y11260000D03*
%TO.P,U4,16,SD_DATA2/GPIO9*%
%TO.N,unconnected-(U4-SD_DATA2{slash}GPIO9-Pad16)*%
X26899999Y8720000D03*
%TO.P,U4,17,SD_DATA3/GPIO10*%
%TO.N,unconnected-(U4-SD_DATA3{slash}GPIO10-Pad17)*%
X26899999Y6180000D03*
%TO.P,U4,18,CMD*%
%TO.N,unconnected-(U4-CMD-Pad18)*%
X26899999Y3640000D03*
%TO.P,U4,19,5V*%
%TO.N,unconnected-(U4-5V-Pad19)*%
X26899999Y1100000D03*
%TO.P,U4,20,SD_CLK/GPIO6*%
%TO.N,unconnected-(U4-SD_CLK{slash}GPIO6-Pad20)*%
X1503679Y1102720D03*
%TO.P,U4,21,SD_DATA0/GPIO7*%
%TO.N,unconnected-(U4-SD_DATA0{slash}GPIO7-Pad21)*%
X1503679Y3642720D03*
%TO.P,U4,22,SD_DATA1/GPIO8*%
%TO.N,unconnected-(U4-SD_DATA1{slash}GPIO8-Pad22)*%
X1499999Y6180000D03*
%TO.P,U4,23,MTDO/GPIO15/ADC2_CH3*%
%TO.N,unconnected-(U4-MTDO{slash}GPIO15{slash}ADC2_CH3-Pad23)*%
X1499999Y8720000D03*
%TO.P,U4,24,ADC2_CH2/GPIO2*%
%TO.N,unconnected-(U4-ADC2_CH2{slash}GPIO2-Pad24)*%
X1499999Y11260000D03*
%TO.P,U4,25,GPIO0/BOOT/ADC2_CH1*%
%TO.N,unconnected-(U4-GPIO0{slash}BOOT{slash}ADC2_CH1-Pad25)*%
X1499999Y13800000D03*
%TO.P,U4,26,ADC2_CH0/GPIO4*%
%TO.N,unconnected-(U4-ADC2_CH0{slash}GPIO4-Pad26)*%
X1499999Y16340000D03*
%TO.P,U4,27,GPIO16*%
%TO.N,unconnected-(U4-GPIO16-Pad27)*%
X1499999Y18880000D03*
%TO.P,U4,28,GPIO17*%
%TO.N,unconnected-(U4-GPIO17-Pad28)*%
X1499999Y21420000D03*
%TO.P,U4,29,GPIO5*%
%TO.N,unconnected-(U4-GPIO5-Pad29)*%
X1499999Y23960000D03*
%TO.P,U4,30,GPIO18*%
%TO.N,/~{LED1}*%
X1499999Y26500000D03*
%TO.P,U4,31,GPIO19*%
%TO.N,/~{LED2}*%
X1499999Y29040000D03*
%TO.P,U4,32,GND*%
%TO.N,GND*%
X1499999Y31580000D03*
%TO.P,U4,33,GPIO21*%
%TO.N,/~{LED3}*%
X1499999Y34120000D03*
%TO.P,U4,34,U0RXD/GPIO3*%
%TO.N,unconnected-(U4-U0RXD{slash}GPIO3-Pad34)*%
X1499999Y36660000D03*
%TO.P,U4,35,U0TXD/GPIO1*%
%TO.N,unconnected-(U4-U0TXD{slash}GPIO1-Pad35)*%
X1499999Y39200000D03*
%TO.P,U4,36,GPIO22*%
%TO.N,/STROBE*%
X1499999Y41740000D03*
%TO.P,U4,37,GPIO23*%
%TO.N,/TRIGGER*%
X1499999Y44280000D03*
%TO.P,U4,38,GND*%
%TO.N,GND*%
X1499999Y46820000D03*
%TD*%
M02*
