%TF.GenerationSoftware,KiCad,Pcbnew,7.0.5-0*%
%TF.CreationDate,2023-06-27T18:34:17-07:00*%
%TF.ProjectId,AAXA01,41415841-3031-42e6-9b69-6361645f7063,rev?*%
%TF.SameCoordinates,Original*%
%TF.FileFunction,Drillmap*%
%TF.FilePolarity,Positive*%
%FSLAX45Y45*%
G04 Gerber Fmt 4.5, Leading zero omitted, Abs format (unit mm)*
G04 Created by KiCad (PCBNEW 7.0.5-0) date 2023-06-27 18:34:17*
%MOMM*%
%LPD*%
G01*
G04 APERTURE LIST*
%ADD10C,0.100000*%
%ADD11C,0.200000*%
%ADD12C,0.025400*%
%ADD13C,0.070000*%
%ADD14C,0.080000*%
G04 APERTURE END LIST*
D10*
X10000000Y-5210000D02*
X12840000Y-5210000D01*
X12840000Y-10000000D01*
X10000000Y-10000000D01*
X10000000Y-5210000D01*
D11*
D12*
X10756932Y-6745572D02*
X10782332Y-6770972D01*
X10782332Y-6745572D02*
X10756932Y-6770972D01*
X10756932Y-7725572D02*
X10782332Y-7750972D01*
X10782332Y-7725572D02*
X10756932Y-7750972D01*
X10816932Y-6685572D02*
X10842332Y-6710972D01*
X10842332Y-6685572D02*
X10816932Y-6710972D01*
X10816932Y-7675572D02*
X10842332Y-7700972D01*
X10842332Y-7675572D02*
X10816932Y-7700972D01*
X10876932Y-6745572D02*
X10902332Y-6770972D01*
X10902332Y-6745572D02*
X10876932Y-6770972D01*
X10876932Y-7725572D02*
X10902332Y-7750972D01*
X10902332Y-7725572D02*
X10876932Y-7750972D01*
X10936932Y-6685572D02*
X10962332Y-6710972D01*
X10962332Y-6685572D02*
X10936932Y-6710972D01*
X10936932Y-7675572D02*
X10962332Y-7700972D01*
X10962332Y-7675572D02*
X10936932Y-7700972D01*
X10996932Y-6745572D02*
X11022332Y-6770972D01*
X11022332Y-6745572D02*
X10996932Y-6770972D01*
X10996932Y-7725572D02*
X11022332Y-7750972D01*
X11022332Y-7725572D02*
X10996932Y-7750972D01*
X11056932Y-6685572D02*
X11082332Y-6710972D01*
X11082332Y-6685572D02*
X11056932Y-6710972D01*
X11056932Y-7665572D02*
X11082332Y-7690972D01*
X11082332Y-7665572D02*
X11056932Y-7690972D01*
X11116932Y-6745572D02*
X11142332Y-6770972D01*
X11142332Y-6745572D02*
X11116932Y-6770972D01*
X11116932Y-7725572D02*
X11142332Y-7750972D01*
X11142332Y-7725572D02*
X11116932Y-7750972D01*
X11176932Y-6685572D02*
X11202332Y-6710972D01*
X11202332Y-6685572D02*
X11176932Y-6710972D01*
X11176932Y-7665572D02*
X11202332Y-7690972D01*
X11202332Y-7665572D02*
X11176932Y-7690972D01*
X11236932Y-6745572D02*
X11262332Y-6770972D01*
X11262332Y-6745572D02*
X11236932Y-6770972D01*
X11236932Y-7725572D02*
X11262332Y-7750972D01*
X11262332Y-7725572D02*
X11236932Y-7750972D01*
X11296932Y-6685572D02*
X11322332Y-6710972D01*
X11322332Y-6685572D02*
X11296932Y-6710972D01*
X11296932Y-7665572D02*
X11322332Y-7690972D01*
X11322332Y-7665572D02*
X11296932Y-7690972D01*
X11356932Y-6745572D02*
X11382332Y-6770972D01*
X11382332Y-6745572D02*
X11356932Y-6770972D01*
X11356932Y-7725572D02*
X11382332Y-7750972D01*
X11382332Y-7725572D02*
X11356932Y-7750972D01*
X11416932Y-6685572D02*
X11442332Y-6710972D01*
X11442332Y-6685572D02*
X11416932Y-6710972D01*
X11416932Y-7665572D02*
X11442332Y-7690972D01*
X11442332Y-7665572D02*
X11416932Y-7690972D01*
X11476932Y-6745572D02*
X11502332Y-6770972D01*
X11502332Y-6745572D02*
X11476932Y-6770972D01*
X11476932Y-7725572D02*
X11502332Y-7750972D01*
X11502332Y-7725572D02*
X11476932Y-7750972D01*
X11536932Y-6685572D02*
X11562332Y-6710972D01*
X11562332Y-6685572D02*
X11536932Y-6710972D01*
X11536932Y-7665572D02*
X11562332Y-7690972D01*
X11562332Y-7665572D02*
X11536932Y-7690972D01*
D13*
X10504632Y-5558272D02*
G75*
G03*
X10504632Y-5558272I-35000J0D01*
G01*
X10504632Y-5828272D02*
G75*
G03*
X10504632Y-5828272I-35000J0D01*
G01*
X10725882Y-9514772D02*
G75*
G03*
X10725882Y-9514772I-35000J0D01*
G01*
X10735882Y-8714772D02*
G75*
G03*
X10735882Y-8714772I-35000J0D01*
G01*
X10735882Y-9104772D02*
G75*
G03*
X10735882Y-9104772I-35000J0D01*
G01*
X12404246Y-7603630D02*
G75*
G03*
X12404246Y-7603630I-35000J0D01*
G01*
X12404632Y-7348272D02*
G75*
G03*
X12404632Y-7348272I-35000J0D01*
G01*
X12404632Y-7858272D02*
G75*
G03*
X12404632Y-7858272I-35000J0D01*
G01*
D14*
X10149632Y-5278272D02*
X10149632Y-5358272D01*
X10109632Y-5318272D02*
X10189632Y-5318272D01*
X10149632Y-5532272D02*
X10149632Y-5612272D01*
X10109632Y-5572272D02*
X10189632Y-5572272D01*
X10149632Y-5786272D02*
X10149632Y-5866272D01*
X10109632Y-5826272D02*
X10189632Y-5826272D01*
X10149632Y-6040272D02*
X10149632Y-6120272D01*
X10109632Y-6080272D02*
X10189632Y-6080272D01*
X10149632Y-6294272D02*
X10149632Y-6374272D01*
X10109632Y-6334272D02*
X10189632Y-6334272D01*
X10149632Y-6548272D02*
X10149632Y-6628272D01*
X10109632Y-6588272D02*
X10189632Y-6588272D01*
X10149632Y-6802272D02*
X10149632Y-6882272D01*
X10109632Y-6842272D02*
X10189632Y-6842272D01*
X10149632Y-7056272D02*
X10149632Y-7136272D01*
X10109632Y-7096272D02*
X10189632Y-7096272D01*
X10149632Y-7310272D02*
X10149632Y-7390272D01*
X10109632Y-7350272D02*
X10189632Y-7350272D01*
X10149632Y-7564272D02*
X10149632Y-7644272D01*
X10109632Y-7604272D02*
X10189632Y-7604272D01*
X10149632Y-7818272D02*
X10149632Y-7898272D01*
X10109632Y-7858272D02*
X10189632Y-7858272D01*
X10149632Y-8072272D02*
X10149632Y-8152272D01*
X10109632Y-8112272D02*
X10189632Y-8112272D01*
X10149632Y-8326272D02*
X10149632Y-8406272D01*
X10109632Y-8366272D02*
X10189632Y-8366272D01*
X10149632Y-8580272D02*
X10149632Y-8660272D01*
X10109632Y-8620272D02*
X10189632Y-8620272D01*
X10149632Y-8834272D02*
X10149632Y-8914272D01*
X10109632Y-8874272D02*
X10189632Y-8874272D01*
X10149632Y-9088272D02*
X10149632Y-9168272D01*
X10109632Y-9128272D02*
X10189632Y-9128272D01*
X10149632Y-9342272D02*
X10149632Y-9422272D01*
X10109632Y-9382272D02*
X10189632Y-9382272D01*
X10150000Y-9596000D02*
X10150000Y-9676000D01*
X10110000Y-9636000D02*
X10190000Y-9636000D01*
X10150000Y-9850000D02*
X10150000Y-9930000D01*
X10110000Y-9890000D02*
X10190000Y-9890000D01*
X12689632Y-5278272D02*
X12689632Y-5358272D01*
X12649632Y-5318272D02*
X12729632Y-5318272D01*
X12689632Y-5532272D02*
X12689632Y-5612272D01*
X12649632Y-5572272D02*
X12729632Y-5572272D01*
X12689632Y-5786272D02*
X12689632Y-5866272D01*
X12649632Y-5826272D02*
X12729632Y-5826272D01*
X12689632Y-6040272D02*
X12689632Y-6120272D01*
X12649632Y-6080272D02*
X12729632Y-6080272D01*
X12689632Y-6294272D02*
X12689632Y-6374272D01*
X12649632Y-6334272D02*
X12729632Y-6334272D01*
X12689632Y-6548272D02*
X12689632Y-6628272D01*
X12649632Y-6588272D02*
X12729632Y-6588272D01*
X12689632Y-6802272D02*
X12689632Y-6882272D01*
X12649632Y-6842272D02*
X12729632Y-6842272D01*
X12689632Y-7056272D02*
X12689632Y-7136272D01*
X12649632Y-7096272D02*
X12729632Y-7096272D01*
X12689632Y-7310272D02*
X12689632Y-7390272D01*
X12649632Y-7350272D02*
X12729632Y-7350272D01*
X12689632Y-7564272D02*
X12689632Y-7644272D01*
X12649632Y-7604272D02*
X12729632Y-7604272D01*
X12689632Y-7818272D02*
X12689632Y-7898272D01*
X12649632Y-7858272D02*
X12729632Y-7858272D01*
X12689632Y-8072272D02*
X12689632Y-8152272D01*
X12649632Y-8112272D02*
X12729632Y-8112272D01*
X12689632Y-8326272D02*
X12689632Y-8406272D01*
X12649632Y-8366272D02*
X12729632Y-8366272D01*
X12689632Y-8580272D02*
X12689632Y-8660272D01*
X12649632Y-8620272D02*
X12729632Y-8620272D01*
X12689632Y-8834272D02*
X12689632Y-8914272D01*
X12649632Y-8874272D02*
X12729632Y-8874272D01*
X12689632Y-9088272D02*
X12689632Y-9168272D01*
X12649632Y-9128272D02*
X12729632Y-9128272D01*
X12689632Y-9342272D02*
X12689632Y-9422272D01*
X12649632Y-9382272D02*
X12729632Y-9382272D01*
X12689632Y-9596272D02*
X12689632Y-9676272D01*
X12649632Y-9636272D02*
X12729632Y-9636272D01*
X12689632Y-9850272D02*
X12689632Y-9930272D01*
X12649632Y-9890272D02*
X12729632Y-9890272D01*
D11*
X10255777Y-10316484D02*
X10255777Y-10116484D01*
X10255777Y-10116484D02*
X10303396Y-10116484D01*
X10303396Y-10116484D02*
X10331967Y-10126008D01*
X10331967Y-10126008D02*
X10351015Y-10145055D01*
X10351015Y-10145055D02*
X10360539Y-10164103D01*
X10360539Y-10164103D02*
X10370063Y-10202198D01*
X10370063Y-10202198D02*
X10370063Y-10230770D01*
X10370063Y-10230770D02*
X10360539Y-10268865D01*
X10360539Y-10268865D02*
X10351015Y-10287912D01*
X10351015Y-10287912D02*
X10331967Y-10306960D01*
X10331967Y-10306960D02*
X10303396Y-10316484D01*
X10303396Y-10316484D02*
X10255777Y-10316484D01*
X10455777Y-10316484D02*
X10455777Y-10183150D01*
X10455777Y-10221246D02*
X10465301Y-10202198D01*
X10465301Y-10202198D02*
X10474824Y-10192674D01*
X10474824Y-10192674D02*
X10493872Y-10183150D01*
X10493872Y-10183150D02*
X10512920Y-10183150D01*
X10579586Y-10316484D02*
X10579586Y-10183150D01*
X10579586Y-10116484D02*
X10570063Y-10126008D01*
X10570063Y-10126008D02*
X10579586Y-10135531D01*
X10579586Y-10135531D02*
X10589110Y-10126008D01*
X10589110Y-10126008D02*
X10579586Y-10116484D01*
X10579586Y-10116484D02*
X10579586Y-10135531D01*
X10703396Y-10316484D02*
X10684348Y-10306960D01*
X10684348Y-10306960D02*
X10674824Y-10287912D01*
X10674824Y-10287912D02*
X10674824Y-10116484D01*
X10808158Y-10316484D02*
X10789110Y-10306960D01*
X10789110Y-10306960D02*
X10779586Y-10287912D01*
X10779586Y-10287912D02*
X10779586Y-10116484D01*
X11036729Y-10316484D02*
X11036729Y-10116484D01*
X11036729Y-10116484D02*
X11103396Y-10259341D01*
X11103396Y-10259341D02*
X11170063Y-10116484D01*
X11170063Y-10116484D02*
X11170063Y-10316484D01*
X11351015Y-10316484D02*
X11351015Y-10211722D01*
X11351015Y-10211722D02*
X11341491Y-10192674D01*
X11341491Y-10192674D02*
X11322443Y-10183150D01*
X11322443Y-10183150D02*
X11284348Y-10183150D01*
X11284348Y-10183150D02*
X11265301Y-10192674D01*
X11351015Y-10306960D02*
X11331967Y-10316484D01*
X11331967Y-10316484D02*
X11284348Y-10316484D01*
X11284348Y-10316484D02*
X11265301Y-10306960D01*
X11265301Y-10306960D02*
X11255777Y-10287912D01*
X11255777Y-10287912D02*
X11255777Y-10268865D01*
X11255777Y-10268865D02*
X11265301Y-10249817D01*
X11265301Y-10249817D02*
X11284348Y-10240293D01*
X11284348Y-10240293D02*
X11331967Y-10240293D01*
X11331967Y-10240293D02*
X11351015Y-10230770D01*
X11446253Y-10183150D02*
X11446253Y-10383150D01*
X11446253Y-10192674D02*
X11465301Y-10183150D01*
X11465301Y-10183150D02*
X11503396Y-10183150D01*
X11503396Y-10183150D02*
X11522443Y-10192674D01*
X11522443Y-10192674D02*
X11531967Y-10202198D01*
X11531967Y-10202198D02*
X11541491Y-10221246D01*
X11541491Y-10221246D02*
X11541491Y-10278389D01*
X11541491Y-10278389D02*
X11531967Y-10297436D01*
X11531967Y-10297436D02*
X11522443Y-10306960D01*
X11522443Y-10306960D02*
X11503396Y-10316484D01*
X11503396Y-10316484D02*
X11465301Y-10316484D01*
X11465301Y-10316484D02*
X11446253Y-10306960D01*
X11627205Y-10297436D02*
X11636729Y-10306960D01*
X11636729Y-10306960D02*
X11627205Y-10316484D01*
X11627205Y-10316484D02*
X11617682Y-10306960D01*
X11617682Y-10306960D02*
X11627205Y-10297436D01*
X11627205Y-10297436D02*
X11627205Y-10316484D01*
X11627205Y-10192674D02*
X11636729Y-10202198D01*
X11636729Y-10202198D02*
X11627205Y-10211722D01*
X11627205Y-10211722D02*
X11617682Y-10202198D01*
X11617682Y-10202198D02*
X11627205Y-10192674D01*
X11627205Y-10192674D02*
X11627205Y-10211722D01*
D12*
X9969600Y-10632300D02*
X9995000Y-10657700D01*
X9995000Y-10632300D02*
X9969600Y-10657700D01*
D11*
X10293872Y-10536484D02*
X10312920Y-10536484D01*
X10312920Y-10536484D02*
X10331967Y-10546008D01*
X10331967Y-10546008D02*
X10341491Y-10555531D01*
X10341491Y-10555531D02*
X10351015Y-10574579D01*
X10351015Y-10574579D02*
X10360539Y-10612674D01*
X10360539Y-10612674D02*
X10360539Y-10660293D01*
X10360539Y-10660293D02*
X10351015Y-10698389D01*
X10351015Y-10698389D02*
X10341491Y-10717436D01*
X10341491Y-10717436D02*
X10331967Y-10726960D01*
X10331967Y-10726960D02*
X10312920Y-10736484D01*
X10312920Y-10736484D02*
X10293872Y-10736484D01*
X10293872Y-10736484D02*
X10274824Y-10726960D01*
X10274824Y-10726960D02*
X10265301Y-10717436D01*
X10265301Y-10717436D02*
X10255777Y-10698389D01*
X10255777Y-10698389D02*
X10246253Y-10660293D01*
X10246253Y-10660293D02*
X10246253Y-10612674D01*
X10246253Y-10612674D02*
X10255777Y-10574579D01*
X10255777Y-10574579D02*
X10265301Y-10555531D01*
X10265301Y-10555531D02*
X10274824Y-10546008D01*
X10274824Y-10546008D02*
X10293872Y-10536484D01*
X10446253Y-10717436D02*
X10455777Y-10726960D01*
X10455777Y-10726960D02*
X10446253Y-10736484D01*
X10446253Y-10736484D02*
X10436729Y-10726960D01*
X10436729Y-10726960D02*
X10446253Y-10717436D01*
X10446253Y-10717436D02*
X10446253Y-10736484D01*
X10531967Y-10555531D02*
X10541491Y-10546008D01*
X10541491Y-10546008D02*
X10560539Y-10536484D01*
X10560539Y-10536484D02*
X10608158Y-10536484D01*
X10608158Y-10536484D02*
X10627205Y-10546008D01*
X10627205Y-10546008D02*
X10636729Y-10555531D01*
X10636729Y-10555531D02*
X10646253Y-10574579D01*
X10646253Y-10574579D02*
X10646253Y-10593627D01*
X10646253Y-10593627D02*
X10636729Y-10622198D01*
X10636729Y-10622198D02*
X10522444Y-10736484D01*
X10522444Y-10736484D02*
X10646253Y-10736484D01*
X10827205Y-10536484D02*
X10731967Y-10536484D01*
X10731967Y-10536484D02*
X10722444Y-10631722D01*
X10722444Y-10631722D02*
X10731967Y-10622198D01*
X10731967Y-10622198D02*
X10751015Y-10612674D01*
X10751015Y-10612674D02*
X10798634Y-10612674D01*
X10798634Y-10612674D02*
X10817682Y-10622198D01*
X10817682Y-10622198D02*
X10827205Y-10631722D01*
X10827205Y-10631722D02*
X10836729Y-10650770D01*
X10836729Y-10650770D02*
X10836729Y-10698389D01*
X10836729Y-10698389D02*
X10827205Y-10717436D01*
X10827205Y-10717436D02*
X10817682Y-10726960D01*
X10817682Y-10726960D02*
X10798634Y-10736484D01*
X10798634Y-10736484D02*
X10751015Y-10736484D01*
X10751015Y-10736484D02*
X10731967Y-10726960D01*
X10731967Y-10726960D02*
X10722444Y-10717436D01*
X11008158Y-10603150D02*
X11008158Y-10736484D01*
X10960539Y-10526960D02*
X10912920Y-10669817D01*
X10912920Y-10669817D02*
X11036729Y-10669817D01*
X11112920Y-10736484D02*
X11112920Y-10603150D01*
X11112920Y-10622198D02*
X11122444Y-10612674D01*
X11122444Y-10612674D02*
X11141491Y-10603150D01*
X11141491Y-10603150D02*
X11170063Y-10603150D01*
X11170063Y-10603150D02*
X11189110Y-10612674D01*
X11189110Y-10612674D02*
X11198634Y-10631722D01*
X11198634Y-10631722D02*
X11198634Y-10736484D01*
X11198634Y-10631722D02*
X11208158Y-10612674D01*
X11208158Y-10612674D02*
X11227205Y-10603150D01*
X11227205Y-10603150D02*
X11255777Y-10603150D01*
X11255777Y-10603150D02*
X11274824Y-10612674D01*
X11274824Y-10612674D02*
X11284348Y-10631722D01*
X11284348Y-10631722D02*
X11284348Y-10736484D01*
X11379586Y-10736484D02*
X11379586Y-10603150D01*
X11379586Y-10622198D02*
X11389110Y-10612674D01*
X11389110Y-10612674D02*
X11408158Y-10603150D01*
X11408158Y-10603150D02*
X11436729Y-10603150D01*
X11436729Y-10603150D02*
X11455777Y-10612674D01*
X11455777Y-10612674D02*
X11465301Y-10631722D01*
X11465301Y-10631722D02*
X11465301Y-10736484D01*
X11465301Y-10631722D02*
X11474824Y-10612674D01*
X11474824Y-10612674D02*
X11493872Y-10603150D01*
X11493872Y-10603150D02*
X11522443Y-10603150D01*
X11522443Y-10603150D02*
X11541491Y-10612674D01*
X11541491Y-10612674D02*
X11551015Y-10631722D01*
X11551015Y-10631722D02*
X11551015Y-10736484D01*
X11941491Y-10526960D02*
X11770063Y-10784103D01*
X12198634Y-10536484D02*
X12217682Y-10536484D01*
X12217682Y-10536484D02*
X12236729Y-10546008D01*
X12236729Y-10546008D02*
X12246253Y-10555531D01*
X12246253Y-10555531D02*
X12255777Y-10574579D01*
X12255777Y-10574579D02*
X12265301Y-10612674D01*
X12265301Y-10612674D02*
X12265301Y-10660293D01*
X12265301Y-10660293D02*
X12255777Y-10698389D01*
X12255777Y-10698389D02*
X12246253Y-10717436D01*
X12246253Y-10717436D02*
X12236729Y-10726960D01*
X12236729Y-10726960D02*
X12217682Y-10736484D01*
X12217682Y-10736484D02*
X12198634Y-10736484D01*
X12198634Y-10736484D02*
X12179586Y-10726960D01*
X12179586Y-10726960D02*
X12170063Y-10717436D01*
X12170063Y-10717436D02*
X12160539Y-10698389D01*
X12160539Y-10698389D02*
X12151015Y-10660293D01*
X12151015Y-10660293D02*
X12151015Y-10612674D01*
X12151015Y-10612674D02*
X12160539Y-10574579D01*
X12160539Y-10574579D02*
X12170063Y-10555531D01*
X12170063Y-10555531D02*
X12179586Y-10546008D01*
X12179586Y-10546008D02*
X12198634Y-10536484D01*
X12351015Y-10717436D02*
X12360539Y-10726960D01*
X12360539Y-10726960D02*
X12351015Y-10736484D01*
X12351015Y-10736484D02*
X12341491Y-10726960D01*
X12341491Y-10726960D02*
X12351015Y-10717436D01*
X12351015Y-10717436D02*
X12351015Y-10736484D01*
X12484348Y-10536484D02*
X12503396Y-10536484D01*
X12503396Y-10536484D02*
X12522444Y-10546008D01*
X12522444Y-10546008D02*
X12531967Y-10555531D01*
X12531967Y-10555531D02*
X12541491Y-10574579D01*
X12541491Y-10574579D02*
X12551015Y-10612674D01*
X12551015Y-10612674D02*
X12551015Y-10660293D01*
X12551015Y-10660293D02*
X12541491Y-10698389D01*
X12541491Y-10698389D02*
X12531967Y-10717436D01*
X12531967Y-10717436D02*
X12522444Y-10726960D01*
X12522444Y-10726960D02*
X12503396Y-10736484D01*
X12503396Y-10736484D02*
X12484348Y-10736484D01*
X12484348Y-10736484D02*
X12465301Y-10726960D01*
X12465301Y-10726960D02*
X12455777Y-10717436D01*
X12455777Y-10717436D02*
X12446253Y-10698389D01*
X12446253Y-10698389D02*
X12436729Y-10660293D01*
X12436729Y-10660293D02*
X12436729Y-10612674D01*
X12436729Y-10612674D02*
X12446253Y-10574579D01*
X12446253Y-10574579D02*
X12455777Y-10555531D01*
X12455777Y-10555531D02*
X12465301Y-10546008D01*
X12465301Y-10546008D02*
X12484348Y-10536484D01*
X12741491Y-10736484D02*
X12627206Y-10736484D01*
X12684348Y-10736484D02*
X12684348Y-10536484D01*
X12684348Y-10536484D02*
X12665301Y-10565055D01*
X12665301Y-10565055D02*
X12646253Y-10584103D01*
X12646253Y-10584103D02*
X12627206Y-10593627D01*
X12865301Y-10536484D02*
X12884348Y-10536484D01*
X12884348Y-10536484D02*
X12903396Y-10546008D01*
X12903396Y-10546008D02*
X12912920Y-10555531D01*
X12912920Y-10555531D02*
X12922444Y-10574579D01*
X12922444Y-10574579D02*
X12931967Y-10612674D01*
X12931967Y-10612674D02*
X12931967Y-10660293D01*
X12931967Y-10660293D02*
X12922444Y-10698389D01*
X12922444Y-10698389D02*
X12912920Y-10717436D01*
X12912920Y-10717436D02*
X12903396Y-10726960D01*
X12903396Y-10726960D02*
X12884348Y-10736484D01*
X12884348Y-10736484D02*
X12865301Y-10736484D01*
X12865301Y-10736484D02*
X12846253Y-10726960D01*
X12846253Y-10726960D02*
X12836729Y-10717436D01*
X12836729Y-10717436D02*
X12827206Y-10698389D01*
X12827206Y-10698389D02*
X12817682Y-10660293D01*
X12817682Y-10660293D02*
X12817682Y-10612674D01*
X12817682Y-10612674D02*
X12827206Y-10574579D01*
X12827206Y-10574579D02*
X12836729Y-10555531D01*
X12836729Y-10555531D02*
X12846253Y-10546008D01*
X12846253Y-10546008D02*
X12865301Y-10536484D01*
X13055777Y-10536484D02*
X13074825Y-10536484D01*
X13074825Y-10536484D02*
X13093872Y-10546008D01*
X13093872Y-10546008D02*
X13103396Y-10555531D01*
X13103396Y-10555531D02*
X13112920Y-10574579D01*
X13112920Y-10574579D02*
X13122444Y-10612674D01*
X13122444Y-10612674D02*
X13122444Y-10660293D01*
X13122444Y-10660293D02*
X13112920Y-10698389D01*
X13112920Y-10698389D02*
X13103396Y-10717436D01*
X13103396Y-10717436D02*
X13093872Y-10726960D01*
X13093872Y-10726960D02*
X13074825Y-10736484D01*
X13074825Y-10736484D02*
X13055777Y-10736484D01*
X13055777Y-10736484D02*
X13036729Y-10726960D01*
X13036729Y-10726960D02*
X13027206Y-10717436D01*
X13027206Y-10717436D02*
X13017682Y-10698389D01*
X13017682Y-10698389D02*
X13008158Y-10660293D01*
X13008158Y-10660293D02*
X13008158Y-10612674D01*
X13008158Y-10612674D02*
X13017682Y-10574579D01*
X13017682Y-10574579D02*
X13027206Y-10555531D01*
X13027206Y-10555531D02*
X13036729Y-10546008D01*
X13036729Y-10546008D02*
X13055777Y-10536484D01*
X13198634Y-10536484D02*
X13198634Y-10574579D01*
X13274825Y-10536484D02*
X13274825Y-10574579D01*
X13570063Y-10812674D02*
X13560539Y-10803150D01*
X13560539Y-10803150D02*
X13541491Y-10774579D01*
X13541491Y-10774579D02*
X13531968Y-10755531D01*
X13531968Y-10755531D02*
X13522444Y-10726960D01*
X13522444Y-10726960D02*
X13512920Y-10679341D01*
X13512920Y-10679341D02*
X13512920Y-10641246D01*
X13512920Y-10641246D02*
X13522444Y-10593627D01*
X13522444Y-10593627D02*
X13531968Y-10565055D01*
X13531968Y-10565055D02*
X13541491Y-10546008D01*
X13541491Y-10546008D02*
X13560539Y-10517436D01*
X13560539Y-10517436D02*
X13570063Y-10507912D01*
X13636729Y-10555531D02*
X13646253Y-10546008D01*
X13646253Y-10546008D02*
X13665301Y-10536484D01*
X13665301Y-10536484D02*
X13712920Y-10536484D01*
X13712920Y-10536484D02*
X13731968Y-10546008D01*
X13731968Y-10546008D02*
X13741491Y-10555531D01*
X13741491Y-10555531D02*
X13751015Y-10574579D01*
X13751015Y-10574579D02*
X13751015Y-10593627D01*
X13751015Y-10593627D02*
X13741491Y-10622198D01*
X13741491Y-10622198D02*
X13627206Y-10736484D01*
X13627206Y-10736484D02*
X13751015Y-10736484D01*
X13865301Y-10622198D02*
X13846253Y-10612674D01*
X13846253Y-10612674D02*
X13836729Y-10603150D01*
X13836729Y-10603150D02*
X13827206Y-10584103D01*
X13827206Y-10584103D02*
X13827206Y-10574579D01*
X13827206Y-10574579D02*
X13836729Y-10555531D01*
X13836729Y-10555531D02*
X13846253Y-10546008D01*
X13846253Y-10546008D02*
X13865301Y-10536484D01*
X13865301Y-10536484D02*
X13903396Y-10536484D01*
X13903396Y-10536484D02*
X13922444Y-10546008D01*
X13922444Y-10546008D02*
X13931968Y-10555531D01*
X13931968Y-10555531D02*
X13941491Y-10574579D01*
X13941491Y-10574579D02*
X13941491Y-10584103D01*
X13941491Y-10584103D02*
X13931968Y-10603150D01*
X13931968Y-10603150D02*
X13922444Y-10612674D01*
X13922444Y-10612674D02*
X13903396Y-10622198D01*
X13903396Y-10622198D02*
X13865301Y-10622198D01*
X13865301Y-10622198D02*
X13846253Y-10631722D01*
X13846253Y-10631722D02*
X13836729Y-10641246D01*
X13836729Y-10641246D02*
X13827206Y-10660293D01*
X13827206Y-10660293D02*
X13827206Y-10698389D01*
X13827206Y-10698389D02*
X13836729Y-10717436D01*
X13836729Y-10717436D02*
X13846253Y-10726960D01*
X13846253Y-10726960D02*
X13865301Y-10736484D01*
X13865301Y-10736484D02*
X13903396Y-10736484D01*
X13903396Y-10736484D02*
X13922444Y-10726960D01*
X13922444Y-10726960D02*
X13931968Y-10717436D01*
X13931968Y-10717436D02*
X13941491Y-10698389D01*
X13941491Y-10698389D02*
X13941491Y-10660293D01*
X13941491Y-10660293D02*
X13931968Y-10641246D01*
X13931968Y-10641246D02*
X13922444Y-10631722D01*
X13922444Y-10631722D02*
X13903396Y-10622198D01*
X14179587Y-10736484D02*
X14179587Y-10536484D01*
X14265301Y-10736484D02*
X14265301Y-10631722D01*
X14265301Y-10631722D02*
X14255777Y-10612674D01*
X14255777Y-10612674D02*
X14236730Y-10603150D01*
X14236730Y-10603150D02*
X14208158Y-10603150D01*
X14208158Y-10603150D02*
X14189110Y-10612674D01*
X14189110Y-10612674D02*
X14179587Y-10622198D01*
X14389110Y-10736484D02*
X14370063Y-10726960D01*
X14370063Y-10726960D02*
X14360539Y-10717436D01*
X14360539Y-10717436D02*
X14351015Y-10698389D01*
X14351015Y-10698389D02*
X14351015Y-10641246D01*
X14351015Y-10641246D02*
X14360539Y-10622198D01*
X14360539Y-10622198D02*
X14370063Y-10612674D01*
X14370063Y-10612674D02*
X14389110Y-10603150D01*
X14389110Y-10603150D02*
X14417682Y-10603150D01*
X14417682Y-10603150D02*
X14436730Y-10612674D01*
X14436730Y-10612674D02*
X14446253Y-10622198D01*
X14446253Y-10622198D02*
X14455777Y-10641246D01*
X14455777Y-10641246D02*
X14455777Y-10698389D01*
X14455777Y-10698389D02*
X14446253Y-10717436D01*
X14446253Y-10717436D02*
X14436730Y-10726960D01*
X14436730Y-10726960D02*
X14417682Y-10736484D01*
X14417682Y-10736484D02*
X14389110Y-10736484D01*
X14570063Y-10736484D02*
X14551015Y-10726960D01*
X14551015Y-10726960D02*
X14541491Y-10707912D01*
X14541491Y-10707912D02*
X14541491Y-10536484D01*
X14722444Y-10726960D02*
X14703396Y-10736484D01*
X14703396Y-10736484D02*
X14665301Y-10736484D01*
X14665301Y-10736484D02*
X14646253Y-10726960D01*
X14646253Y-10726960D02*
X14636730Y-10707912D01*
X14636730Y-10707912D02*
X14636730Y-10631722D01*
X14636730Y-10631722D02*
X14646253Y-10612674D01*
X14646253Y-10612674D02*
X14665301Y-10603150D01*
X14665301Y-10603150D02*
X14703396Y-10603150D01*
X14703396Y-10603150D02*
X14722444Y-10612674D01*
X14722444Y-10612674D02*
X14731968Y-10631722D01*
X14731968Y-10631722D02*
X14731968Y-10650770D01*
X14731968Y-10650770D02*
X14636730Y-10669817D01*
X14808158Y-10726960D02*
X14827206Y-10736484D01*
X14827206Y-10736484D02*
X14865301Y-10736484D01*
X14865301Y-10736484D02*
X14884349Y-10726960D01*
X14884349Y-10726960D02*
X14893872Y-10707912D01*
X14893872Y-10707912D02*
X14893872Y-10698389D01*
X14893872Y-10698389D02*
X14884349Y-10679341D01*
X14884349Y-10679341D02*
X14865301Y-10669817D01*
X14865301Y-10669817D02*
X14836730Y-10669817D01*
X14836730Y-10669817D02*
X14817682Y-10660293D01*
X14817682Y-10660293D02*
X14808158Y-10641246D01*
X14808158Y-10641246D02*
X14808158Y-10631722D01*
X14808158Y-10631722D02*
X14817682Y-10612674D01*
X14817682Y-10612674D02*
X14836730Y-10603150D01*
X14836730Y-10603150D02*
X14865301Y-10603150D01*
X14865301Y-10603150D02*
X14884349Y-10612674D01*
X14960539Y-10812674D02*
X14970063Y-10803150D01*
X14970063Y-10803150D02*
X14989111Y-10774579D01*
X14989111Y-10774579D02*
X14998634Y-10755531D01*
X14998634Y-10755531D02*
X15008158Y-10726960D01*
X15008158Y-10726960D02*
X15017682Y-10679341D01*
X15017682Y-10679341D02*
X15017682Y-10641246D01*
X15017682Y-10641246D02*
X15008158Y-10593627D01*
X15008158Y-10593627D02*
X14998634Y-10565055D01*
X14998634Y-10565055D02*
X14989111Y-10546008D01*
X14989111Y-10546008D02*
X14970063Y-10517436D01*
X14970063Y-10517436D02*
X14960539Y-10507912D01*
D13*
X9995000Y-10909000D02*
G75*
G03*
X9995000Y-10909000I-35000J0D01*
G01*
D11*
X10293872Y-10800484D02*
X10312920Y-10800484D01*
X10312920Y-10800484D02*
X10331967Y-10810008D01*
X10331967Y-10810008D02*
X10341491Y-10819531D01*
X10341491Y-10819531D02*
X10351015Y-10838579D01*
X10351015Y-10838579D02*
X10360539Y-10876674D01*
X10360539Y-10876674D02*
X10360539Y-10924293D01*
X10360539Y-10924293D02*
X10351015Y-10962389D01*
X10351015Y-10962389D02*
X10341491Y-10981436D01*
X10341491Y-10981436D02*
X10331967Y-10990960D01*
X10331967Y-10990960D02*
X10312920Y-11000484D01*
X10312920Y-11000484D02*
X10293872Y-11000484D01*
X10293872Y-11000484D02*
X10274824Y-10990960D01*
X10274824Y-10990960D02*
X10265301Y-10981436D01*
X10265301Y-10981436D02*
X10255777Y-10962389D01*
X10255777Y-10962389D02*
X10246253Y-10924293D01*
X10246253Y-10924293D02*
X10246253Y-10876674D01*
X10246253Y-10876674D02*
X10255777Y-10838579D01*
X10255777Y-10838579D02*
X10265301Y-10819531D01*
X10265301Y-10819531D02*
X10274824Y-10810008D01*
X10274824Y-10810008D02*
X10293872Y-10800484D01*
X10446253Y-10981436D02*
X10455777Y-10990960D01*
X10455777Y-10990960D02*
X10446253Y-11000484D01*
X10446253Y-11000484D02*
X10436729Y-10990960D01*
X10436729Y-10990960D02*
X10446253Y-10981436D01*
X10446253Y-10981436D02*
X10446253Y-11000484D01*
X10522444Y-10800484D02*
X10655777Y-10800484D01*
X10655777Y-10800484D02*
X10570063Y-11000484D01*
X10770063Y-10800484D02*
X10789110Y-10800484D01*
X10789110Y-10800484D02*
X10808158Y-10810008D01*
X10808158Y-10810008D02*
X10817682Y-10819531D01*
X10817682Y-10819531D02*
X10827205Y-10838579D01*
X10827205Y-10838579D02*
X10836729Y-10876674D01*
X10836729Y-10876674D02*
X10836729Y-10924293D01*
X10836729Y-10924293D02*
X10827205Y-10962389D01*
X10827205Y-10962389D02*
X10817682Y-10981436D01*
X10817682Y-10981436D02*
X10808158Y-10990960D01*
X10808158Y-10990960D02*
X10789110Y-11000484D01*
X10789110Y-11000484D02*
X10770063Y-11000484D01*
X10770063Y-11000484D02*
X10751015Y-10990960D01*
X10751015Y-10990960D02*
X10741491Y-10981436D01*
X10741491Y-10981436D02*
X10731967Y-10962389D01*
X10731967Y-10962389D02*
X10722444Y-10924293D01*
X10722444Y-10924293D02*
X10722444Y-10876674D01*
X10722444Y-10876674D02*
X10731967Y-10838579D01*
X10731967Y-10838579D02*
X10741491Y-10819531D01*
X10741491Y-10819531D02*
X10751015Y-10810008D01*
X10751015Y-10810008D02*
X10770063Y-10800484D01*
X10960539Y-10800484D02*
X10979586Y-10800484D01*
X10979586Y-10800484D02*
X10998634Y-10810008D01*
X10998634Y-10810008D02*
X11008158Y-10819531D01*
X11008158Y-10819531D02*
X11017682Y-10838579D01*
X11017682Y-10838579D02*
X11027205Y-10876674D01*
X11027205Y-10876674D02*
X11027205Y-10924293D01*
X11027205Y-10924293D02*
X11017682Y-10962389D01*
X11017682Y-10962389D02*
X11008158Y-10981436D01*
X11008158Y-10981436D02*
X10998634Y-10990960D01*
X10998634Y-10990960D02*
X10979586Y-11000484D01*
X10979586Y-11000484D02*
X10960539Y-11000484D01*
X10960539Y-11000484D02*
X10941491Y-10990960D01*
X10941491Y-10990960D02*
X10931967Y-10981436D01*
X10931967Y-10981436D02*
X10922444Y-10962389D01*
X10922444Y-10962389D02*
X10912920Y-10924293D01*
X10912920Y-10924293D02*
X10912920Y-10876674D01*
X10912920Y-10876674D02*
X10922444Y-10838579D01*
X10922444Y-10838579D02*
X10931967Y-10819531D01*
X10931967Y-10819531D02*
X10941491Y-10810008D01*
X10941491Y-10810008D02*
X10960539Y-10800484D01*
X11112920Y-11000484D02*
X11112920Y-10867150D01*
X11112920Y-10886198D02*
X11122444Y-10876674D01*
X11122444Y-10876674D02*
X11141491Y-10867150D01*
X11141491Y-10867150D02*
X11170063Y-10867150D01*
X11170063Y-10867150D02*
X11189110Y-10876674D01*
X11189110Y-10876674D02*
X11198634Y-10895722D01*
X11198634Y-10895722D02*
X11198634Y-11000484D01*
X11198634Y-10895722D02*
X11208158Y-10876674D01*
X11208158Y-10876674D02*
X11227205Y-10867150D01*
X11227205Y-10867150D02*
X11255777Y-10867150D01*
X11255777Y-10867150D02*
X11274824Y-10876674D01*
X11274824Y-10876674D02*
X11284348Y-10895722D01*
X11284348Y-10895722D02*
X11284348Y-11000484D01*
X11379586Y-11000484D02*
X11379586Y-10867150D01*
X11379586Y-10886198D02*
X11389110Y-10876674D01*
X11389110Y-10876674D02*
X11408158Y-10867150D01*
X11408158Y-10867150D02*
X11436729Y-10867150D01*
X11436729Y-10867150D02*
X11455777Y-10876674D01*
X11455777Y-10876674D02*
X11465301Y-10895722D01*
X11465301Y-10895722D02*
X11465301Y-11000484D01*
X11465301Y-10895722D02*
X11474824Y-10876674D01*
X11474824Y-10876674D02*
X11493872Y-10867150D01*
X11493872Y-10867150D02*
X11522443Y-10867150D01*
X11522443Y-10867150D02*
X11541491Y-10876674D01*
X11541491Y-10876674D02*
X11551015Y-10895722D01*
X11551015Y-10895722D02*
X11551015Y-11000484D01*
X11941491Y-10790960D02*
X11770063Y-11048103D01*
X12198634Y-10800484D02*
X12217682Y-10800484D01*
X12217682Y-10800484D02*
X12236729Y-10810008D01*
X12236729Y-10810008D02*
X12246253Y-10819531D01*
X12246253Y-10819531D02*
X12255777Y-10838579D01*
X12255777Y-10838579D02*
X12265301Y-10876674D01*
X12265301Y-10876674D02*
X12265301Y-10924293D01*
X12265301Y-10924293D02*
X12255777Y-10962389D01*
X12255777Y-10962389D02*
X12246253Y-10981436D01*
X12246253Y-10981436D02*
X12236729Y-10990960D01*
X12236729Y-10990960D02*
X12217682Y-11000484D01*
X12217682Y-11000484D02*
X12198634Y-11000484D01*
X12198634Y-11000484D02*
X12179586Y-10990960D01*
X12179586Y-10990960D02*
X12170063Y-10981436D01*
X12170063Y-10981436D02*
X12160539Y-10962389D01*
X12160539Y-10962389D02*
X12151015Y-10924293D01*
X12151015Y-10924293D02*
X12151015Y-10876674D01*
X12151015Y-10876674D02*
X12160539Y-10838579D01*
X12160539Y-10838579D02*
X12170063Y-10819531D01*
X12170063Y-10819531D02*
X12179586Y-10810008D01*
X12179586Y-10810008D02*
X12198634Y-10800484D01*
X12351015Y-10981436D02*
X12360539Y-10990960D01*
X12360539Y-10990960D02*
X12351015Y-11000484D01*
X12351015Y-11000484D02*
X12341491Y-10990960D01*
X12341491Y-10990960D02*
X12351015Y-10981436D01*
X12351015Y-10981436D02*
X12351015Y-11000484D01*
X12484348Y-10800484D02*
X12503396Y-10800484D01*
X12503396Y-10800484D02*
X12522444Y-10810008D01*
X12522444Y-10810008D02*
X12531967Y-10819531D01*
X12531967Y-10819531D02*
X12541491Y-10838579D01*
X12541491Y-10838579D02*
X12551015Y-10876674D01*
X12551015Y-10876674D02*
X12551015Y-10924293D01*
X12551015Y-10924293D02*
X12541491Y-10962389D01*
X12541491Y-10962389D02*
X12531967Y-10981436D01*
X12531967Y-10981436D02*
X12522444Y-10990960D01*
X12522444Y-10990960D02*
X12503396Y-11000484D01*
X12503396Y-11000484D02*
X12484348Y-11000484D01*
X12484348Y-11000484D02*
X12465301Y-10990960D01*
X12465301Y-10990960D02*
X12455777Y-10981436D01*
X12455777Y-10981436D02*
X12446253Y-10962389D01*
X12446253Y-10962389D02*
X12436729Y-10924293D01*
X12436729Y-10924293D02*
X12436729Y-10876674D01*
X12436729Y-10876674D02*
X12446253Y-10838579D01*
X12446253Y-10838579D02*
X12455777Y-10819531D01*
X12455777Y-10819531D02*
X12465301Y-10810008D01*
X12465301Y-10810008D02*
X12484348Y-10800484D01*
X12627206Y-10819531D02*
X12636729Y-10810008D01*
X12636729Y-10810008D02*
X12655777Y-10800484D01*
X12655777Y-10800484D02*
X12703396Y-10800484D01*
X12703396Y-10800484D02*
X12722444Y-10810008D01*
X12722444Y-10810008D02*
X12731967Y-10819531D01*
X12731967Y-10819531D02*
X12741491Y-10838579D01*
X12741491Y-10838579D02*
X12741491Y-10857627D01*
X12741491Y-10857627D02*
X12731967Y-10886198D01*
X12731967Y-10886198D02*
X12617682Y-11000484D01*
X12617682Y-11000484D02*
X12741491Y-11000484D01*
X12808158Y-10800484D02*
X12941491Y-10800484D01*
X12941491Y-10800484D02*
X12855777Y-11000484D01*
X13103396Y-10800484D02*
X13065301Y-10800484D01*
X13065301Y-10800484D02*
X13046253Y-10810008D01*
X13046253Y-10810008D02*
X13036729Y-10819531D01*
X13036729Y-10819531D02*
X13017682Y-10848103D01*
X13017682Y-10848103D02*
X13008158Y-10886198D01*
X13008158Y-10886198D02*
X13008158Y-10962389D01*
X13008158Y-10962389D02*
X13017682Y-10981436D01*
X13017682Y-10981436D02*
X13027206Y-10990960D01*
X13027206Y-10990960D02*
X13046253Y-11000484D01*
X13046253Y-11000484D02*
X13084348Y-11000484D01*
X13084348Y-11000484D02*
X13103396Y-10990960D01*
X13103396Y-10990960D02*
X13112920Y-10981436D01*
X13112920Y-10981436D02*
X13122444Y-10962389D01*
X13122444Y-10962389D02*
X13122444Y-10914770D01*
X13122444Y-10914770D02*
X13112920Y-10895722D01*
X13112920Y-10895722D02*
X13103396Y-10886198D01*
X13103396Y-10886198D02*
X13084348Y-10876674D01*
X13084348Y-10876674D02*
X13046253Y-10876674D01*
X13046253Y-10876674D02*
X13027206Y-10886198D01*
X13027206Y-10886198D02*
X13017682Y-10895722D01*
X13017682Y-10895722D02*
X13008158Y-10914770D01*
X13198634Y-10800484D02*
X13198634Y-10838579D01*
X13274825Y-10800484D02*
X13274825Y-10838579D01*
X13570063Y-11076674D02*
X13560539Y-11067150D01*
X13560539Y-11067150D02*
X13541491Y-11038579D01*
X13541491Y-11038579D02*
X13531968Y-11019531D01*
X13531968Y-11019531D02*
X13522444Y-10990960D01*
X13522444Y-10990960D02*
X13512920Y-10943341D01*
X13512920Y-10943341D02*
X13512920Y-10905246D01*
X13512920Y-10905246D02*
X13522444Y-10857627D01*
X13522444Y-10857627D02*
X13531968Y-10829055D01*
X13531968Y-10829055D02*
X13541491Y-10810008D01*
X13541491Y-10810008D02*
X13560539Y-10781436D01*
X13560539Y-10781436D02*
X13570063Y-10771912D01*
X13674825Y-10886198D02*
X13655777Y-10876674D01*
X13655777Y-10876674D02*
X13646253Y-10867150D01*
X13646253Y-10867150D02*
X13636729Y-10848103D01*
X13636729Y-10848103D02*
X13636729Y-10838579D01*
X13636729Y-10838579D02*
X13646253Y-10819531D01*
X13646253Y-10819531D02*
X13655777Y-10810008D01*
X13655777Y-10810008D02*
X13674825Y-10800484D01*
X13674825Y-10800484D02*
X13712920Y-10800484D01*
X13712920Y-10800484D02*
X13731968Y-10810008D01*
X13731968Y-10810008D02*
X13741491Y-10819531D01*
X13741491Y-10819531D02*
X13751015Y-10838579D01*
X13751015Y-10838579D02*
X13751015Y-10848103D01*
X13751015Y-10848103D02*
X13741491Y-10867150D01*
X13741491Y-10867150D02*
X13731968Y-10876674D01*
X13731968Y-10876674D02*
X13712920Y-10886198D01*
X13712920Y-10886198D02*
X13674825Y-10886198D01*
X13674825Y-10886198D02*
X13655777Y-10895722D01*
X13655777Y-10895722D02*
X13646253Y-10905246D01*
X13646253Y-10905246D02*
X13636729Y-10924293D01*
X13636729Y-10924293D02*
X13636729Y-10962389D01*
X13636729Y-10962389D02*
X13646253Y-10981436D01*
X13646253Y-10981436D02*
X13655777Y-10990960D01*
X13655777Y-10990960D02*
X13674825Y-11000484D01*
X13674825Y-11000484D02*
X13712920Y-11000484D01*
X13712920Y-11000484D02*
X13731968Y-10990960D01*
X13731968Y-10990960D02*
X13741491Y-10981436D01*
X13741491Y-10981436D02*
X13751015Y-10962389D01*
X13751015Y-10962389D02*
X13751015Y-10924293D01*
X13751015Y-10924293D02*
X13741491Y-10905246D01*
X13741491Y-10905246D02*
X13731968Y-10895722D01*
X13731968Y-10895722D02*
X13712920Y-10886198D01*
X13989110Y-11000484D02*
X13989110Y-10800484D01*
X14074825Y-11000484D02*
X14074825Y-10895722D01*
X14074825Y-10895722D02*
X14065301Y-10876674D01*
X14065301Y-10876674D02*
X14046253Y-10867150D01*
X14046253Y-10867150D02*
X14017682Y-10867150D01*
X14017682Y-10867150D02*
X13998634Y-10876674D01*
X13998634Y-10876674D02*
X13989110Y-10886198D01*
X14198634Y-11000484D02*
X14179587Y-10990960D01*
X14179587Y-10990960D02*
X14170063Y-10981436D01*
X14170063Y-10981436D02*
X14160539Y-10962389D01*
X14160539Y-10962389D02*
X14160539Y-10905246D01*
X14160539Y-10905246D02*
X14170063Y-10886198D01*
X14170063Y-10886198D02*
X14179587Y-10876674D01*
X14179587Y-10876674D02*
X14198634Y-10867150D01*
X14198634Y-10867150D02*
X14227206Y-10867150D01*
X14227206Y-10867150D02*
X14246253Y-10876674D01*
X14246253Y-10876674D02*
X14255777Y-10886198D01*
X14255777Y-10886198D02*
X14265301Y-10905246D01*
X14265301Y-10905246D02*
X14265301Y-10962389D01*
X14265301Y-10962389D02*
X14255777Y-10981436D01*
X14255777Y-10981436D02*
X14246253Y-10990960D01*
X14246253Y-10990960D02*
X14227206Y-11000484D01*
X14227206Y-11000484D02*
X14198634Y-11000484D01*
X14379587Y-11000484D02*
X14360539Y-10990960D01*
X14360539Y-10990960D02*
X14351015Y-10971912D01*
X14351015Y-10971912D02*
X14351015Y-10800484D01*
X14531968Y-10990960D02*
X14512920Y-11000484D01*
X14512920Y-11000484D02*
X14474825Y-11000484D01*
X14474825Y-11000484D02*
X14455777Y-10990960D01*
X14455777Y-10990960D02*
X14446253Y-10971912D01*
X14446253Y-10971912D02*
X14446253Y-10895722D01*
X14446253Y-10895722D02*
X14455777Y-10876674D01*
X14455777Y-10876674D02*
X14474825Y-10867150D01*
X14474825Y-10867150D02*
X14512920Y-10867150D01*
X14512920Y-10867150D02*
X14531968Y-10876674D01*
X14531968Y-10876674D02*
X14541491Y-10895722D01*
X14541491Y-10895722D02*
X14541491Y-10914770D01*
X14541491Y-10914770D02*
X14446253Y-10933817D01*
X14617682Y-10990960D02*
X14636730Y-11000484D01*
X14636730Y-11000484D02*
X14674825Y-11000484D01*
X14674825Y-11000484D02*
X14693872Y-10990960D01*
X14693872Y-10990960D02*
X14703396Y-10971912D01*
X14703396Y-10971912D02*
X14703396Y-10962389D01*
X14703396Y-10962389D02*
X14693872Y-10943341D01*
X14693872Y-10943341D02*
X14674825Y-10933817D01*
X14674825Y-10933817D02*
X14646253Y-10933817D01*
X14646253Y-10933817D02*
X14627206Y-10924293D01*
X14627206Y-10924293D02*
X14617682Y-10905246D01*
X14617682Y-10905246D02*
X14617682Y-10895722D01*
X14617682Y-10895722D02*
X14627206Y-10876674D01*
X14627206Y-10876674D02*
X14646253Y-10867150D01*
X14646253Y-10867150D02*
X14674825Y-10867150D01*
X14674825Y-10867150D02*
X14693872Y-10876674D01*
X14770063Y-11076674D02*
X14779587Y-11067150D01*
X14779587Y-11067150D02*
X14798634Y-11038579D01*
X14798634Y-11038579D02*
X14808158Y-11019531D01*
X14808158Y-11019531D02*
X14817682Y-10990960D01*
X14817682Y-10990960D02*
X14827206Y-10943341D01*
X14827206Y-10943341D02*
X14827206Y-10905246D01*
X14827206Y-10905246D02*
X14817682Y-10857627D01*
X14817682Y-10857627D02*
X14808158Y-10829055D01*
X14808158Y-10829055D02*
X14798634Y-10810008D01*
X14798634Y-10810008D02*
X14779587Y-10781436D01*
X14779587Y-10781436D02*
X14770063Y-10771912D01*
D14*
X9955000Y-11133000D02*
X9955000Y-11213000D01*
X9915000Y-11173000D02*
X9995000Y-11173000D01*
D11*
X10293872Y-11064484D02*
X10312920Y-11064484D01*
X10312920Y-11064484D02*
X10331967Y-11074008D01*
X10331967Y-11074008D02*
X10341491Y-11083531D01*
X10341491Y-11083531D02*
X10351015Y-11102579D01*
X10351015Y-11102579D02*
X10360539Y-11140674D01*
X10360539Y-11140674D02*
X10360539Y-11188293D01*
X10360539Y-11188293D02*
X10351015Y-11226388D01*
X10351015Y-11226388D02*
X10341491Y-11245436D01*
X10341491Y-11245436D02*
X10331967Y-11254960D01*
X10331967Y-11254960D02*
X10312920Y-11264484D01*
X10312920Y-11264484D02*
X10293872Y-11264484D01*
X10293872Y-11264484D02*
X10274824Y-11254960D01*
X10274824Y-11254960D02*
X10265301Y-11245436D01*
X10265301Y-11245436D02*
X10255777Y-11226388D01*
X10255777Y-11226388D02*
X10246253Y-11188293D01*
X10246253Y-11188293D02*
X10246253Y-11140674D01*
X10246253Y-11140674D02*
X10255777Y-11102579D01*
X10255777Y-11102579D02*
X10265301Y-11083531D01*
X10265301Y-11083531D02*
X10274824Y-11074008D01*
X10274824Y-11074008D02*
X10293872Y-11064484D01*
X10446253Y-11245436D02*
X10455777Y-11254960D01*
X10455777Y-11254960D02*
X10446253Y-11264484D01*
X10446253Y-11264484D02*
X10436729Y-11254960D01*
X10436729Y-11254960D02*
X10446253Y-11245436D01*
X10446253Y-11245436D02*
X10446253Y-11264484D01*
X10570063Y-11150198D02*
X10551015Y-11140674D01*
X10551015Y-11140674D02*
X10541491Y-11131150D01*
X10541491Y-11131150D02*
X10531967Y-11112103D01*
X10531967Y-11112103D02*
X10531967Y-11102579D01*
X10531967Y-11102579D02*
X10541491Y-11083531D01*
X10541491Y-11083531D02*
X10551015Y-11074008D01*
X10551015Y-11074008D02*
X10570063Y-11064484D01*
X10570063Y-11064484D02*
X10608158Y-11064484D01*
X10608158Y-11064484D02*
X10627205Y-11074008D01*
X10627205Y-11074008D02*
X10636729Y-11083531D01*
X10636729Y-11083531D02*
X10646253Y-11102579D01*
X10646253Y-11102579D02*
X10646253Y-11112103D01*
X10646253Y-11112103D02*
X10636729Y-11131150D01*
X10636729Y-11131150D02*
X10627205Y-11140674D01*
X10627205Y-11140674D02*
X10608158Y-11150198D01*
X10608158Y-11150198D02*
X10570063Y-11150198D01*
X10570063Y-11150198D02*
X10551015Y-11159722D01*
X10551015Y-11159722D02*
X10541491Y-11169246D01*
X10541491Y-11169246D02*
X10531967Y-11188293D01*
X10531967Y-11188293D02*
X10531967Y-11226388D01*
X10531967Y-11226388D02*
X10541491Y-11245436D01*
X10541491Y-11245436D02*
X10551015Y-11254960D01*
X10551015Y-11254960D02*
X10570063Y-11264484D01*
X10570063Y-11264484D02*
X10608158Y-11264484D01*
X10608158Y-11264484D02*
X10627205Y-11254960D01*
X10627205Y-11254960D02*
X10636729Y-11245436D01*
X10636729Y-11245436D02*
X10646253Y-11226388D01*
X10646253Y-11226388D02*
X10646253Y-11188293D01*
X10646253Y-11188293D02*
X10636729Y-11169246D01*
X10636729Y-11169246D02*
X10627205Y-11159722D01*
X10627205Y-11159722D02*
X10608158Y-11150198D01*
X10770063Y-11064484D02*
X10789110Y-11064484D01*
X10789110Y-11064484D02*
X10808158Y-11074008D01*
X10808158Y-11074008D02*
X10817682Y-11083531D01*
X10817682Y-11083531D02*
X10827205Y-11102579D01*
X10827205Y-11102579D02*
X10836729Y-11140674D01*
X10836729Y-11140674D02*
X10836729Y-11188293D01*
X10836729Y-11188293D02*
X10827205Y-11226388D01*
X10827205Y-11226388D02*
X10817682Y-11245436D01*
X10817682Y-11245436D02*
X10808158Y-11254960D01*
X10808158Y-11254960D02*
X10789110Y-11264484D01*
X10789110Y-11264484D02*
X10770063Y-11264484D01*
X10770063Y-11264484D02*
X10751015Y-11254960D01*
X10751015Y-11254960D02*
X10741491Y-11245436D01*
X10741491Y-11245436D02*
X10731967Y-11226388D01*
X10731967Y-11226388D02*
X10722444Y-11188293D01*
X10722444Y-11188293D02*
X10722444Y-11140674D01*
X10722444Y-11140674D02*
X10731967Y-11102579D01*
X10731967Y-11102579D02*
X10741491Y-11083531D01*
X10741491Y-11083531D02*
X10751015Y-11074008D01*
X10751015Y-11074008D02*
X10770063Y-11064484D01*
X10960539Y-11064484D02*
X10979586Y-11064484D01*
X10979586Y-11064484D02*
X10998634Y-11074008D01*
X10998634Y-11074008D02*
X11008158Y-11083531D01*
X11008158Y-11083531D02*
X11017682Y-11102579D01*
X11017682Y-11102579D02*
X11027205Y-11140674D01*
X11027205Y-11140674D02*
X11027205Y-11188293D01*
X11027205Y-11188293D02*
X11017682Y-11226388D01*
X11017682Y-11226388D02*
X11008158Y-11245436D01*
X11008158Y-11245436D02*
X10998634Y-11254960D01*
X10998634Y-11254960D02*
X10979586Y-11264484D01*
X10979586Y-11264484D02*
X10960539Y-11264484D01*
X10960539Y-11264484D02*
X10941491Y-11254960D01*
X10941491Y-11254960D02*
X10931967Y-11245436D01*
X10931967Y-11245436D02*
X10922444Y-11226388D01*
X10922444Y-11226388D02*
X10912920Y-11188293D01*
X10912920Y-11188293D02*
X10912920Y-11140674D01*
X10912920Y-11140674D02*
X10922444Y-11102579D01*
X10922444Y-11102579D02*
X10931967Y-11083531D01*
X10931967Y-11083531D02*
X10941491Y-11074008D01*
X10941491Y-11074008D02*
X10960539Y-11064484D01*
X11112920Y-11264484D02*
X11112920Y-11131150D01*
X11112920Y-11150198D02*
X11122444Y-11140674D01*
X11122444Y-11140674D02*
X11141491Y-11131150D01*
X11141491Y-11131150D02*
X11170063Y-11131150D01*
X11170063Y-11131150D02*
X11189110Y-11140674D01*
X11189110Y-11140674D02*
X11198634Y-11159722D01*
X11198634Y-11159722D02*
X11198634Y-11264484D01*
X11198634Y-11159722D02*
X11208158Y-11140674D01*
X11208158Y-11140674D02*
X11227205Y-11131150D01*
X11227205Y-11131150D02*
X11255777Y-11131150D01*
X11255777Y-11131150D02*
X11274824Y-11140674D01*
X11274824Y-11140674D02*
X11284348Y-11159722D01*
X11284348Y-11159722D02*
X11284348Y-11264484D01*
X11379586Y-11264484D02*
X11379586Y-11131150D01*
X11379586Y-11150198D02*
X11389110Y-11140674D01*
X11389110Y-11140674D02*
X11408158Y-11131150D01*
X11408158Y-11131150D02*
X11436729Y-11131150D01*
X11436729Y-11131150D02*
X11455777Y-11140674D01*
X11455777Y-11140674D02*
X11465301Y-11159722D01*
X11465301Y-11159722D02*
X11465301Y-11264484D01*
X11465301Y-11159722D02*
X11474824Y-11140674D01*
X11474824Y-11140674D02*
X11493872Y-11131150D01*
X11493872Y-11131150D02*
X11522443Y-11131150D01*
X11522443Y-11131150D02*
X11541491Y-11140674D01*
X11541491Y-11140674D02*
X11551015Y-11159722D01*
X11551015Y-11159722D02*
X11551015Y-11264484D01*
X11941491Y-11054960D02*
X11770063Y-11312103D01*
X12198634Y-11064484D02*
X12217682Y-11064484D01*
X12217682Y-11064484D02*
X12236729Y-11074008D01*
X12236729Y-11074008D02*
X12246253Y-11083531D01*
X12246253Y-11083531D02*
X12255777Y-11102579D01*
X12255777Y-11102579D02*
X12265301Y-11140674D01*
X12265301Y-11140674D02*
X12265301Y-11188293D01*
X12265301Y-11188293D02*
X12255777Y-11226388D01*
X12255777Y-11226388D02*
X12246253Y-11245436D01*
X12246253Y-11245436D02*
X12236729Y-11254960D01*
X12236729Y-11254960D02*
X12217682Y-11264484D01*
X12217682Y-11264484D02*
X12198634Y-11264484D01*
X12198634Y-11264484D02*
X12179586Y-11254960D01*
X12179586Y-11254960D02*
X12170063Y-11245436D01*
X12170063Y-11245436D02*
X12160539Y-11226388D01*
X12160539Y-11226388D02*
X12151015Y-11188293D01*
X12151015Y-11188293D02*
X12151015Y-11140674D01*
X12151015Y-11140674D02*
X12160539Y-11102579D01*
X12160539Y-11102579D02*
X12170063Y-11083531D01*
X12170063Y-11083531D02*
X12179586Y-11074008D01*
X12179586Y-11074008D02*
X12198634Y-11064484D01*
X12351015Y-11245436D02*
X12360539Y-11254960D01*
X12360539Y-11254960D02*
X12351015Y-11264484D01*
X12351015Y-11264484D02*
X12341491Y-11254960D01*
X12341491Y-11254960D02*
X12351015Y-11245436D01*
X12351015Y-11245436D02*
X12351015Y-11264484D01*
X12484348Y-11064484D02*
X12503396Y-11064484D01*
X12503396Y-11064484D02*
X12522444Y-11074008D01*
X12522444Y-11074008D02*
X12531967Y-11083531D01*
X12531967Y-11083531D02*
X12541491Y-11102579D01*
X12541491Y-11102579D02*
X12551015Y-11140674D01*
X12551015Y-11140674D02*
X12551015Y-11188293D01*
X12551015Y-11188293D02*
X12541491Y-11226388D01*
X12541491Y-11226388D02*
X12531967Y-11245436D01*
X12531967Y-11245436D02*
X12522444Y-11254960D01*
X12522444Y-11254960D02*
X12503396Y-11264484D01*
X12503396Y-11264484D02*
X12484348Y-11264484D01*
X12484348Y-11264484D02*
X12465301Y-11254960D01*
X12465301Y-11254960D02*
X12455777Y-11245436D01*
X12455777Y-11245436D02*
X12446253Y-11226388D01*
X12446253Y-11226388D02*
X12436729Y-11188293D01*
X12436729Y-11188293D02*
X12436729Y-11140674D01*
X12436729Y-11140674D02*
X12446253Y-11102579D01*
X12446253Y-11102579D02*
X12455777Y-11083531D01*
X12455777Y-11083531D02*
X12465301Y-11074008D01*
X12465301Y-11074008D02*
X12484348Y-11064484D01*
X12617682Y-11064484D02*
X12741491Y-11064484D01*
X12741491Y-11064484D02*
X12674825Y-11140674D01*
X12674825Y-11140674D02*
X12703396Y-11140674D01*
X12703396Y-11140674D02*
X12722444Y-11150198D01*
X12722444Y-11150198D02*
X12731967Y-11159722D01*
X12731967Y-11159722D02*
X12741491Y-11178770D01*
X12741491Y-11178770D02*
X12741491Y-11226388D01*
X12741491Y-11226388D02*
X12731967Y-11245436D01*
X12731967Y-11245436D02*
X12722444Y-11254960D01*
X12722444Y-11254960D02*
X12703396Y-11264484D01*
X12703396Y-11264484D02*
X12646253Y-11264484D01*
X12646253Y-11264484D02*
X12627206Y-11254960D01*
X12627206Y-11254960D02*
X12617682Y-11245436D01*
X12931967Y-11264484D02*
X12817682Y-11264484D01*
X12874825Y-11264484D02*
X12874825Y-11064484D01*
X12874825Y-11064484D02*
X12855777Y-11093055D01*
X12855777Y-11093055D02*
X12836729Y-11112103D01*
X12836729Y-11112103D02*
X12817682Y-11121627D01*
X13112920Y-11064484D02*
X13017682Y-11064484D01*
X13017682Y-11064484D02*
X13008158Y-11159722D01*
X13008158Y-11159722D02*
X13017682Y-11150198D01*
X13017682Y-11150198D02*
X13036729Y-11140674D01*
X13036729Y-11140674D02*
X13084348Y-11140674D01*
X13084348Y-11140674D02*
X13103396Y-11150198D01*
X13103396Y-11150198D02*
X13112920Y-11159722D01*
X13112920Y-11159722D02*
X13122444Y-11178770D01*
X13122444Y-11178770D02*
X13122444Y-11226388D01*
X13122444Y-11226388D02*
X13112920Y-11245436D01*
X13112920Y-11245436D02*
X13103396Y-11254960D01*
X13103396Y-11254960D02*
X13084348Y-11264484D01*
X13084348Y-11264484D02*
X13036729Y-11264484D01*
X13036729Y-11264484D02*
X13017682Y-11254960D01*
X13017682Y-11254960D02*
X13008158Y-11245436D01*
X13198634Y-11064484D02*
X13198634Y-11102579D01*
X13274825Y-11064484D02*
X13274825Y-11102579D01*
X13570063Y-11340674D02*
X13560539Y-11331150D01*
X13560539Y-11331150D02*
X13541491Y-11302579D01*
X13541491Y-11302579D02*
X13531968Y-11283531D01*
X13531968Y-11283531D02*
X13522444Y-11254960D01*
X13522444Y-11254960D02*
X13512920Y-11207341D01*
X13512920Y-11207341D02*
X13512920Y-11169246D01*
X13512920Y-11169246D02*
X13522444Y-11121627D01*
X13522444Y-11121627D02*
X13531968Y-11093055D01*
X13531968Y-11093055D02*
X13541491Y-11074008D01*
X13541491Y-11074008D02*
X13560539Y-11045436D01*
X13560539Y-11045436D02*
X13570063Y-11035912D01*
X13627206Y-11064484D02*
X13751015Y-11064484D01*
X13751015Y-11064484D02*
X13684348Y-11140674D01*
X13684348Y-11140674D02*
X13712920Y-11140674D01*
X13712920Y-11140674D02*
X13731968Y-11150198D01*
X13731968Y-11150198D02*
X13741491Y-11159722D01*
X13741491Y-11159722D02*
X13751015Y-11178770D01*
X13751015Y-11178770D02*
X13751015Y-11226388D01*
X13751015Y-11226388D02*
X13741491Y-11245436D01*
X13741491Y-11245436D02*
X13731968Y-11254960D01*
X13731968Y-11254960D02*
X13712920Y-11264484D01*
X13712920Y-11264484D02*
X13655777Y-11264484D01*
X13655777Y-11264484D02*
X13636729Y-11254960D01*
X13636729Y-11254960D02*
X13627206Y-11245436D01*
X13865301Y-11150198D02*
X13846253Y-11140674D01*
X13846253Y-11140674D02*
X13836729Y-11131150D01*
X13836729Y-11131150D02*
X13827206Y-11112103D01*
X13827206Y-11112103D02*
X13827206Y-11102579D01*
X13827206Y-11102579D02*
X13836729Y-11083531D01*
X13836729Y-11083531D02*
X13846253Y-11074008D01*
X13846253Y-11074008D02*
X13865301Y-11064484D01*
X13865301Y-11064484D02*
X13903396Y-11064484D01*
X13903396Y-11064484D02*
X13922444Y-11074008D01*
X13922444Y-11074008D02*
X13931968Y-11083531D01*
X13931968Y-11083531D02*
X13941491Y-11102579D01*
X13941491Y-11102579D02*
X13941491Y-11112103D01*
X13941491Y-11112103D02*
X13931968Y-11131150D01*
X13931968Y-11131150D02*
X13922444Y-11140674D01*
X13922444Y-11140674D02*
X13903396Y-11150198D01*
X13903396Y-11150198D02*
X13865301Y-11150198D01*
X13865301Y-11150198D02*
X13846253Y-11159722D01*
X13846253Y-11159722D02*
X13836729Y-11169246D01*
X13836729Y-11169246D02*
X13827206Y-11188293D01*
X13827206Y-11188293D02*
X13827206Y-11226388D01*
X13827206Y-11226388D02*
X13836729Y-11245436D01*
X13836729Y-11245436D02*
X13846253Y-11254960D01*
X13846253Y-11254960D02*
X13865301Y-11264484D01*
X13865301Y-11264484D02*
X13903396Y-11264484D01*
X13903396Y-11264484D02*
X13922444Y-11254960D01*
X13922444Y-11254960D02*
X13931968Y-11245436D01*
X13931968Y-11245436D02*
X13941491Y-11226388D01*
X13941491Y-11226388D02*
X13941491Y-11188293D01*
X13941491Y-11188293D02*
X13931968Y-11169246D01*
X13931968Y-11169246D02*
X13922444Y-11159722D01*
X13922444Y-11159722D02*
X13903396Y-11150198D01*
X14179587Y-11264484D02*
X14179587Y-11064484D01*
X14265301Y-11264484D02*
X14265301Y-11159722D01*
X14265301Y-11159722D02*
X14255777Y-11140674D01*
X14255777Y-11140674D02*
X14236730Y-11131150D01*
X14236730Y-11131150D02*
X14208158Y-11131150D01*
X14208158Y-11131150D02*
X14189110Y-11140674D01*
X14189110Y-11140674D02*
X14179587Y-11150198D01*
X14389110Y-11264484D02*
X14370063Y-11254960D01*
X14370063Y-11254960D02*
X14360539Y-11245436D01*
X14360539Y-11245436D02*
X14351015Y-11226388D01*
X14351015Y-11226388D02*
X14351015Y-11169246D01*
X14351015Y-11169246D02*
X14360539Y-11150198D01*
X14360539Y-11150198D02*
X14370063Y-11140674D01*
X14370063Y-11140674D02*
X14389110Y-11131150D01*
X14389110Y-11131150D02*
X14417682Y-11131150D01*
X14417682Y-11131150D02*
X14436730Y-11140674D01*
X14436730Y-11140674D02*
X14446253Y-11150198D01*
X14446253Y-11150198D02*
X14455777Y-11169246D01*
X14455777Y-11169246D02*
X14455777Y-11226388D01*
X14455777Y-11226388D02*
X14446253Y-11245436D01*
X14446253Y-11245436D02*
X14436730Y-11254960D01*
X14436730Y-11254960D02*
X14417682Y-11264484D01*
X14417682Y-11264484D02*
X14389110Y-11264484D01*
X14570063Y-11264484D02*
X14551015Y-11254960D01*
X14551015Y-11254960D02*
X14541491Y-11235912D01*
X14541491Y-11235912D02*
X14541491Y-11064484D01*
X14722444Y-11254960D02*
X14703396Y-11264484D01*
X14703396Y-11264484D02*
X14665301Y-11264484D01*
X14665301Y-11264484D02*
X14646253Y-11254960D01*
X14646253Y-11254960D02*
X14636730Y-11235912D01*
X14636730Y-11235912D02*
X14636730Y-11159722D01*
X14636730Y-11159722D02*
X14646253Y-11140674D01*
X14646253Y-11140674D02*
X14665301Y-11131150D01*
X14665301Y-11131150D02*
X14703396Y-11131150D01*
X14703396Y-11131150D02*
X14722444Y-11140674D01*
X14722444Y-11140674D02*
X14731968Y-11159722D01*
X14731968Y-11159722D02*
X14731968Y-11178770D01*
X14731968Y-11178770D02*
X14636730Y-11197817D01*
X14808158Y-11254960D02*
X14827206Y-11264484D01*
X14827206Y-11264484D02*
X14865301Y-11264484D01*
X14865301Y-11264484D02*
X14884349Y-11254960D01*
X14884349Y-11254960D02*
X14893872Y-11235912D01*
X14893872Y-11235912D02*
X14893872Y-11226388D01*
X14893872Y-11226388D02*
X14884349Y-11207341D01*
X14884349Y-11207341D02*
X14865301Y-11197817D01*
X14865301Y-11197817D02*
X14836730Y-11197817D01*
X14836730Y-11197817D02*
X14817682Y-11188293D01*
X14817682Y-11188293D02*
X14808158Y-11169246D01*
X14808158Y-11169246D02*
X14808158Y-11159722D01*
X14808158Y-11159722D02*
X14817682Y-11140674D01*
X14817682Y-11140674D02*
X14836730Y-11131150D01*
X14836730Y-11131150D02*
X14865301Y-11131150D01*
X14865301Y-11131150D02*
X14884349Y-11140674D01*
X14960539Y-11340674D02*
X14970063Y-11331150D01*
X14970063Y-11331150D02*
X14989111Y-11302579D01*
X14989111Y-11302579D02*
X14998634Y-11283531D01*
X14998634Y-11283531D02*
X15008158Y-11254960D01*
X15008158Y-11254960D02*
X15017682Y-11207341D01*
X15017682Y-11207341D02*
X15017682Y-11169246D01*
X15017682Y-11169246D02*
X15008158Y-11121627D01*
X15008158Y-11121627D02*
X14998634Y-11093055D01*
X14998634Y-11093055D02*
X14989111Y-11074008D01*
X14989111Y-11074008D02*
X14970063Y-11045436D01*
X14970063Y-11045436D02*
X14960539Y-11035912D01*
M02*
