%TF.GenerationSoftware,KiCad,Pcbnew,7.0.5-0*%
%TF.CreationDate,2023-06-28T11:54:25-07:00*%
%TF.ProjectId,AAXA01,41415841-3031-42e6-9b69-6361645f7063,rev?*%
%TF.SameCoordinates,PX5f5d2a1PY5f5eba0*%
%TF.FileFunction,Copper,L1,Top*%
%TF.FilePolarity,Positive*%
%FSLAX46Y46*%
G04 Gerber Fmt 4.6, Leading zero omitted, Abs format (unit mm)*
G04 Created by KiCad (PCBNEW 7.0.5-0) date 2023-06-28 11:54:25*
%MOMM*%
%LPD*%
G01*
G04 APERTURE LIST*
G04 Aperture macros list*
%AMRoundRect*
0 Rectangle with rounded corners*
0 $1 Rounding radius*
0 $2 $3 $4 $5 $6 $7 $8 $9 X,Y pos of 4 corners*
0 Add a 4 corners polygon primitive as box body*
4,1,4,$2,$3,$4,$5,$6,$7,$8,$9,$2,$3,0*
0 Add four circle primitives for the rounded corners*
1,1,$1+$1,$2,$3*
1,1,$1+$1,$4,$5*
1,1,$1+$1,$6,$7*
1,1,$1+$1,$8,$9*
0 Add four rect primitives between the rounded corners*
20,1,$1+$1,$2,$3,$4,$5,0*
20,1,$1+$1,$4,$5,$6,$7,0*
20,1,$1+$1,$6,$7,$8,$9,0*
20,1,$1+$1,$8,$9,$2,$3,0*%
G04 Aperture macros list end*
%TA.AperFunction,SMDPad,CuDef*%
%ADD10RoundRect,0.200000X0.275000X-0.200000X0.275000X0.200000X-0.275000X0.200000X-0.275000X-0.200000X0*%
%TD*%
%TA.AperFunction,SMDPad,CuDef*%
%ADD11RoundRect,0.200000X-0.200000X-0.275000X0.200000X-0.275000X0.200000X0.275000X-0.200000X0.275000X0*%
%TD*%
%TA.AperFunction,ComponentPad*%
%ADD12C,1.500000*%
%TD*%
%TA.AperFunction,SMDPad,CuDef*%
%ADD13RoundRect,0.237500X-0.237500X0.287500X-0.237500X-0.287500X0.237500X-0.287500X0.237500X0.287500X0*%
%TD*%
%TA.AperFunction,SMDPad,CuDef*%
%ADD14RoundRect,0.150000X0.662500X0.150000X-0.662500X0.150000X-0.662500X-0.150000X0.662500X-0.150000X0*%
%TD*%
%TA.AperFunction,ComponentPad*%
%ADD15O,2.000000X1.200000*%
%TD*%
%TA.AperFunction,ComponentPad*%
%ADD16R,2.000000X1.200000*%
%TD*%
%TA.AperFunction,SMDPad,CuDef*%
%ADD17R,0.300000X0.800000*%
%TD*%
%TA.AperFunction,SMDPad,CuDef*%
%ADD18R,0.300000X0.650000*%
%TD*%
%TA.AperFunction,SMDPad,CuDef*%
%ADD19R,0.400000X0.950000*%
%TD*%
%TA.AperFunction,ViaPad*%
%ADD20C,0.508000*%
%TD*%
%TA.AperFunction,Conductor*%
%ADD21C,0.254000*%
%TD*%
%TA.AperFunction,Conductor*%
%ADD22C,0.152400*%
%TD*%
%TA.AperFunction,Conductor*%
%ADD23C,0.127000*%
%TD*%
G04 APERTURE END LIST*
D10*
%TO.P,R4,1*%
%TO.N,/LED-_IN*%
X17099999Y27095000D03*
%TO.P,R4,2*%
%TO.N,/LED-_OUT*%
X17099999Y28745000D03*
%TD*%
%TO.P,R8,2*%
%TO.N,/LED1_OUT*%
X21899999Y28745000D03*
%TO.P,R8,1*%
%TO.N,/LED1_IN*%
X21899999Y27095000D03*
%TD*%
%TO.P,R7,1*%
%TO.N,/LED2_IN*%
X20699999Y27095000D03*
%TO.P,R7,2*%
%TO.N,/LED2_OUT*%
X20699999Y28745000D03*
%TD*%
%TO.P,R6,1*%
%TO.N,/LED3_IN*%
X19499999Y27095000D03*
%TO.P,R6,2*%
%TO.N,/LED3_OUT*%
X19499999Y28745000D03*
%TD*%
%TO.P,R5,1*%
%TO.N,/LED+_IN*%
X18299999Y27095000D03*
%TO.P,R5,2*%
%TO.N,/LED+_OUT*%
X18299999Y28745000D03*
%TD*%
D11*
%TO.P,R3,1*%
%TO.N,/~{LED3}*%
X3674999Y34120000D03*
%TO.P,R3,2*%
%TO.N,+3V3*%
X5324999Y34120000D03*
%TD*%
%TO.P,R2,1*%
%TO.N,/~{LED2}*%
X3674999Y29020000D03*
%TO.P,R2,2*%
%TO.N,+3V3*%
X5324999Y29020000D03*
%TD*%
%TO.P,R1,1*%
%TO.N,/~{LED1}*%
X3671399Y26520000D03*
%TO.P,R1,2*%
%TO.N,+3V3*%
X5321399Y26520000D03*
%TD*%
D12*
%TO.P,~{LED3},1,1*%
%TO.N,/~{LED3}*%
X7012499Y12855000D03*
%TD*%
%TO.P,~{LED2},1,1*%
%TO.N,/~{LED2}*%
X7012499Y8955000D03*
%TD*%
%TO.P,~{LED1},1,1*%
%TO.N,/~{LED1}*%
X6912499Y4855000D03*
%TD*%
D13*
%TO.P,D3,1,K*%
%TO.N,/LED3_IN*%
X18399999Y15530000D03*
%TO.P,D3,2,A*%
%TO.N,Net-(D3-A)*%
X18399999Y13780000D03*
%TD*%
D14*
%TO.P,U2,4*%
%TO.N,/~{LED2}*%
X9824999Y8920000D03*
%TO.P,U2,3*%
%TO.N,GND*%
X9824999Y10190000D03*
%TO.P,U2,2*%
%TO.N,Net-(D2-A)*%
X16199999Y10190000D03*
%TO.P,U2,1*%
%TO.N,/LED+_IN*%
X16199999Y8920000D03*
%TD*%
D13*
%TO.P,D1,1,K*%
%TO.N,/LED1_IN*%
X18399999Y7730000D03*
%TO.P,D1,2,A*%
%TO.N,Net-(D1-A)*%
X18399999Y5980000D03*
%TD*%
D14*
%TO.P,U3,4*%
%TO.N,/~{LED3}*%
X9824999Y12920000D03*
%TO.P,U3,3*%
%TO.N,GND*%
X9824999Y14190000D03*
%TO.P,U3,2*%
%TO.N,Net-(D3-A)*%
X16199999Y14190000D03*
%TO.P,U3,1*%
%TO.N,/LED+_IN*%
X16199999Y12920000D03*
%TD*%
D12*
%TO.P,~{LASER2},1,1*%
%TO.N,/~{LASER2}*%
X23696140Y23966417D03*
%TD*%
D15*
%TO.P,U4,38,GND*%
%TO.N,GND*%
X1499999Y46820000D03*
%TO.P,U4,37,GPIO23*%
%TO.N,/TRIGGER*%
X1499999Y44280000D03*
%TO.P,U4,36,GPIO22*%
%TO.N,/STROBE*%
X1499999Y41740000D03*
%TO.P,U4,35,U0TXD/GPIO1*%
%TO.N,unconnected-(U4-U0TXD{slash}GPIO1-Pad35)*%
X1499999Y39200000D03*
%TO.P,U4,34,U0RXD/GPIO3*%
%TO.N,unconnected-(U4-U0RXD{slash}GPIO3-Pad34)*%
X1499999Y36660000D03*
%TO.P,U4,33,GPIO21*%
%TO.N,/~{LED3}*%
X1499999Y34120000D03*
%TO.P,U4,32,GND*%
%TO.N,GND*%
X1499999Y31580000D03*
%TO.P,U4,31,GPIO19*%
%TO.N,/~{LED2}*%
X1499999Y29040000D03*
%TO.P,U4,30,GPIO18*%
%TO.N,/~{LED1}*%
X1499999Y26500000D03*
%TO.P,U4,29,GPIO5*%
%TO.N,unconnected-(U4-GPIO5-Pad29)*%
X1499999Y23960000D03*
%TO.P,U4,28,GPIO17*%
%TO.N,unconnected-(U4-GPIO17-Pad28)*%
X1499999Y21420000D03*
%TO.P,U4,27,GPIO16*%
%TO.N,unconnected-(U4-GPIO16-Pad27)*%
X1499999Y18880000D03*
%TO.P,U4,26,ADC2_CH0/GPIO4*%
%TO.N,unconnected-(U4-ADC2_CH0{slash}GPIO4-Pad26)*%
X1499999Y16340000D03*
%TO.P,U4,25,GPIO0/BOOT/ADC2_CH1*%
%TO.N,unconnected-(U4-GPIO0{slash}BOOT{slash}ADC2_CH1-Pad25)*%
X1499999Y13800000D03*
%TO.P,U4,24,ADC2_CH2/GPIO2*%
%TO.N,unconnected-(U4-ADC2_CH2{slash}GPIO2-Pad24)*%
X1499999Y11260000D03*
%TO.P,U4,23,MTDO/GPIO15/ADC2_CH3*%
%TO.N,unconnected-(U4-MTDO{slash}GPIO15{slash}ADC2_CH3-Pad23)*%
X1499999Y8720000D03*
%TO.P,U4,22,SD_DATA1/GPIO8*%
%TO.N,unconnected-(U4-SD_DATA1{slash}GPIO8-Pad22)*%
X1499999Y6180000D03*
%TO.P,U4,21,SD_DATA0/GPIO7*%
%TO.N,unconnected-(U4-SD_DATA0{slash}GPIO7-Pad21)*%
X1503679Y3642720D03*
%TO.P,U4,20,SD_CLK/GPIO6*%
%TO.N,unconnected-(U4-SD_CLK{slash}GPIO6-Pad20)*%
X1503679Y1102720D03*
%TO.P,U4,19,5V*%
%TO.N,unconnected-(U4-5V-Pad19)*%
X26899999Y1100000D03*
%TO.P,U4,18,CMD*%
%TO.N,unconnected-(U4-CMD-Pad18)*%
X26899999Y3640000D03*
%TO.P,U4,17,SD_DATA3/GPIO10*%
%TO.N,unconnected-(U4-SD_DATA3{slash}GPIO10-Pad17)*%
X26899999Y6180000D03*
%TO.P,U4,16,SD_DATA2/GPIO9*%
%TO.N,unconnected-(U4-SD_DATA2{slash}GPIO9-Pad16)*%
X26899999Y8720000D03*
%TO.P,U4,15,MTCK/GPIO13/ADC2_CH4*%
%TO.N,unconnected-(U4-MTCK{slash}GPIO13{slash}ADC2_CH4-Pad15)*%
X26899999Y11260000D03*
%TO.P,U4,14,GND*%
%TO.N,GND*%
X26899999Y13800000D03*
%TO.P,U4,13,MTDI/GPIO12/ADC2_CH5*%
%TO.N,unconnected-(U4-MTDI{slash}GPIO12{slash}ADC2_CH5-Pad13)*%
X26899999Y16340000D03*
%TO.P,U4,12,MTMS/GPIO14/ADC2_CH6*%
%TO.N,unconnected-(U4-MTMS{slash}GPIO14{slash}ADC2_CH6-Pad12)*%
X26899999Y18880000D03*
%TO.P,U4,11,ADC2_CH7/GPIO27*%
%TO.N,/~{LASER3}*%
X26899999Y21420000D03*
%TO.P,U4,10,DAC_2/ADC2_CH9/GPIO26*%
%TO.N,/~{LASER2}*%
X26899999Y23960000D03*
%TO.P,U4,9,DAC_1/ADC2_CH8/GPIO25*%
%TO.N,/~{LASER1}*%
X26899999Y26500000D03*
%TO.P,U4,8,32K_XN/GPIO33/ADC1_CH5*%
%TO.N,unconnected-(U4-32K_XN{slash}GPIO33{slash}ADC1_CH5-Pad8)*%
X26899999Y29040000D03*
%TO.P,U4,7,32K_XP/GPIO32/ADC1_CH4*%
%TO.N,unconnected-(U4-32K_XP{slash}GPIO32{slash}ADC1_CH4-Pad7)*%
X26899999Y31580000D03*
%TO.P,U4,6,VDET_2/GPIO35/ADC1_CH7*%
%TO.N,unconnected-(U4-VDET_2{slash}GPIO35{slash}ADC1_CH7-Pad6)*%
X26899999Y34120000D03*
%TO.P,U4,5,VDET_1/GPIO34/ADC1_CH6*%
%TO.N,unconnected-(U4-VDET_1{slash}GPIO34{slash}ADC1_CH6-Pad5)*%
X26899999Y36660000D03*
%TO.P,U4,4,SENSOR_VN/GPIO39/ADC1_CH3*%
%TO.N,unconnected-(U4-SENSOR_VN{slash}GPIO39{slash}ADC1_CH3-Pad4)*%
X26899999Y39200000D03*
%TO.P,U4,3,SENSOR_VP/GPIO36/ADC1_CH0*%
%TO.N,unconnected-(U4-SENSOR_VP{slash}GPIO36{slash}ADC1_CH0-Pad3)*%
X26899999Y41740000D03*
%TO.P,U4,2,CHIP_PU*%
%TO.N,unconnected-(U4-CHIP_PU-Pad2)*%
X26899999Y44280000D03*
D16*
%TO.P,U4,1,3V3*%
%TO.N,+3V3*%
X26899999Y46820000D03*
%TD*%
D17*
%TO.P,J1,1,1*%
%TO.N,/IO0*%
X7399999Y24320000D03*
D18*
%TO.P,J1,2,2*%
%TO.N,/IO1*%
X7699999Y21445000D03*
D17*
%TO.P,J1,3,3*%
%TO.N,/IO2*%
X7999999Y24320000D03*
D18*
%TO.P,J1,4,4*%
%TO.N,/IO3*%
X8299999Y21445000D03*
D17*
%TO.P,J1,5,5*%
%TO.N,/IO4*%
X8599999Y24320000D03*
D18*
%TO.P,J1,6,6*%
%TO.N,/IO5*%
X8899999Y21445000D03*
D17*
%TO.P,J1,7,7*%
%TO.N,/IO6*%
X9199999Y24320000D03*
D18*
%TO.P,J1,8,8*%
%TO.N,/IO7*%
X9499999Y21445000D03*
D17*
%TO.P,J1,9,9*%
%TO.N,GND*%
X9799999Y24320000D03*
D18*
%TO.P,J1,10,10*%
%TO.N,/P0A*%
X10099999Y21445000D03*
D17*
%TO.P,J1,11,11*%
%TO.N,GND*%
X10399999Y24320000D03*
D18*
%TO.P,J1,12,12*%
%TO.N,/P0B*%
X10699999Y21445000D03*
D17*
%TO.P,J1,13,13*%
%TO.N,GND*%
X10999999Y24320000D03*
D18*
%TO.P,J1,14,14*%
%TO.N,/P1A*%
X11299999Y21445000D03*
D17*
%TO.P,J1,15,15*%
%TO.N,GND*%
X11599999Y24320000D03*
D18*
%TO.P,J1,16,16*%
%TO.N,/P1B*%
X11899999Y21445000D03*
D17*
%TO.P,J1,17,17*%
%TO.N,GND*%
X12199999Y24320000D03*
D18*
%TO.P,J1,18,18*%
%TO.N,/P2A*%
X12499999Y21445000D03*
D17*
%TO.P,J1,19,19*%
%TO.N,GND*%
X12799999Y24320000D03*
D18*
%TO.P,J1,20,20*%
%TO.N,/P2B*%
X13099999Y21445000D03*
D17*
%TO.P,J1,21,21*%
%TO.N,GND*%
X13399999Y24320000D03*
D18*
%TO.P,J1,22,22*%
%TO.N,/P3A*%
X13699999Y21445000D03*
D17*
%TO.P,J1,23,23*%
%TO.N,GND*%
X13999999Y24320000D03*
D18*
%TO.P,J1,24,24*%
%TO.N,/P3B*%
X14299999Y21445000D03*
D17*
%TO.P,J1,25,25*%
%TO.N,GND*%
X14599999Y24320000D03*
D18*
%TO.P,J1,26,26*%
%TO.N,/P4A*%
X14899999Y21445000D03*
D17*
%TO.P,J1,27,27*%
%TO.N,GND*%
X15199999Y24320000D03*
D18*
%TO.P,J1,28,28*%
%TO.N,/P4B*%
X15499999Y21445000D03*
D17*
%TO.P,J1,29,29*%
%TO.N,GND*%
X15799999Y24320000D03*
D18*
%TO.P,J1,30,30*%
%TO.N,/LED-_IN*%
X16099999Y21445000D03*
D17*
%TO.P,J1,31,31*%
X16399999Y24320000D03*
D18*
%TO.P,J1,32,32*%
%TO.N,/LED+_IN*%
X16699999Y21445000D03*
D17*
%TO.P,J1,33,33*%
X16999999Y24320000D03*
D18*
%TO.P,J1,34,34*%
X17299999Y21445000D03*
D17*
%TO.P,J1,35,35*%
X17599999Y24320000D03*
D18*
%TO.P,J1,36,36*%
X17899999Y21445000D03*
D17*
%TO.P,J1,37,37*%
%TO.N,/LED3_IN*%
X18199999Y24320000D03*
D18*
%TO.P,J1,38,38*%
X18499999Y21445000D03*
D17*
%TO.P,J1,39,39*%
X18799999Y24320000D03*
D18*
%TO.P,J1,40,40*%
%TO.N,/LED2_IN*%
X19099999Y21445000D03*
D17*
%TO.P,J1,41,41*%
X19399999Y24320000D03*
D18*
%TO.P,J1,42,42*%
X19699999Y21445000D03*
D17*
%TO.P,J1,43,43*%
%TO.N,/LED1_IN*%
X19999999Y24320000D03*
D18*
%TO.P,J1,44,44*%
X20299999Y21445000D03*
D17*
%TO.P,J1,45,45*%
X20599999Y24320000D03*
D19*
%TO.P,J1,S1*%
%TO.N,N/C*%
X6699999Y24045000D03*
%TO.P,J1,S2*%
X21299999Y24045000D03*
%TD*%
%TO.P,J2,S2*%
%TO.N,N/C*%
X6679999Y31397500D03*
%TO.P,J2,S1*%
X21279999Y31397500D03*
D17*
%TO.P,J2,45,45*%
%TO.N,/IO0*%
X7379999Y31122500D03*
D18*
%TO.P,J2,44,44*%
%TO.N,/IO1*%
X7679999Y33997500D03*
D17*
%TO.P,J2,43,43*%
%TO.N,/IO2*%
X7979999Y31122500D03*
D18*
%TO.P,J2,42,42*%
%TO.N,/IO3*%
X8279999Y33997500D03*
D17*
%TO.P,J2,41,41*%
%TO.N,/IO4*%
X8579999Y31122500D03*
D18*
%TO.P,J2,40,40*%
%TO.N,/IO5*%
X8879999Y33997500D03*
D17*
%TO.P,J2,39,39*%
%TO.N,/IO6*%
X9179999Y31122500D03*
D18*
%TO.P,J2,38,38*%
%TO.N,/IO7*%
X9479999Y33997500D03*
D17*
%TO.P,J2,37,37*%
%TO.N,GND*%
X9779999Y31122500D03*
D18*
%TO.P,J2,36,36*%
%TO.N,/P0A*%
X10079999Y33997500D03*
D17*
%TO.P,J2,35,35*%
%TO.N,GND*%
X10379999Y31122500D03*
D18*
%TO.P,J2,34,34*%
%TO.N,/P0B*%
X10679999Y33997500D03*
D17*
%TO.P,J2,33,33*%
%TO.N,GND*%
X10979999Y31122500D03*
D18*
%TO.P,J2,32,32*%
%TO.N,/P1A*%
X11279999Y33997500D03*
D17*
%TO.P,J2,31,31*%
%TO.N,GND*%
X11579999Y31122500D03*
D18*
%TO.P,J2,30,30*%
%TO.N,/P1B*%
X11879999Y33997500D03*
D17*
%TO.P,J2,29,29*%
%TO.N,GND*%
X12179999Y31122500D03*
D18*
%TO.P,J2,28,28*%
%TO.N,/P2A*%
X12479999Y33997500D03*
D17*
%TO.P,J2,27,27*%
%TO.N,GND*%
X12779999Y31122500D03*
D18*
%TO.P,J2,26,26*%
%TO.N,/P2B*%
X13079999Y33997500D03*
D17*
%TO.P,J2,25,25*%
%TO.N,GND*%
X13379999Y31122500D03*
D18*
%TO.P,J2,24,24*%
%TO.N,/P3A*%
X13679999Y33997500D03*
D17*
%TO.P,J2,23,23*%
%TO.N,GND*%
X13979999Y31122500D03*
D18*
%TO.P,J2,22,22*%
%TO.N,/P3B*%
X14279999Y33997500D03*
D17*
%TO.P,J2,21,21*%
%TO.N,GND*%
X14579999Y31122500D03*
D18*
%TO.P,J2,20,20*%
%TO.N,/P4A*%
X14879999Y33997500D03*
D17*
%TO.P,J2,19,19*%
%TO.N,GND*%
X15179999Y31122500D03*
D18*
%TO.P,J2,18,18*%
%TO.N,/P4B*%
X15479999Y33997500D03*
D17*
%TO.P,J2,17,17*%
%TO.N,GND*%
X15779999Y31122500D03*
D18*
%TO.P,J2,16,16*%
%TO.N,/LED-_OUT*%
X16079999Y33997500D03*
D17*
%TO.P,J2,15,15*%
X16379999Y31122500D03*
D18*
%TO.P,J2,14,14*%
%TO.N,/LED+_OUT*%
X16679999Y33997500D03*
D17*
%TO.P,J2,13,13*%
X16979999Y31122500D03*
D18*
%TO.P,J2,12,12*%
X17279999Y33997500D03*
D17*
%TO.P,J2,11,11*%
X17579999Y31122500D03*
D18*
%TO.P,J2,10,10*%
X17879999Y33997500D03*
D17*
%TO.P,J2,9,9*%
%TO.N,/LED3_OUT*%
X18179999Y31122500D03*
D18*
%TO.P,J2,8,8*%
X18479999Y33997500D03*
D17*
%TO.P,J2,7,7*%
X18779999Y31122500D03*
D18*
%TO.P,J2,6,6*%
%TO.N,/LED2_OUT*%
X19079999Y33997500D03*
D17*
%TO.P,J2,5,5*%
X19379999Y31122500D03*
D18*
%TO.P,J2,4,4*%
X19679999Y33997500D03*
D17*
%TO.P,J2,3,3*%
%TO.N,/LED1_OUT*%
X19979999Y31122500D03*
D18*
%TO.P,J2,2,2*%
X20279999Y33997500D03*
D17*
%TO.P,J2,1,1*%
X20579999Y31122500D03*
%TD*%
D12*
%TO.P,STROBE,1,1*%
%TO.N,/STROBE*%
X4699999Y41720000D03*
%TD*%
%TO.P,~{LASER1},1,1*%
%TO.N,/~{LASER1}*%
X23699999Y26520000D03*
%TD*%
D13*
%TO.P,D2,1,K*%
%TO.N,/LED2_IN*%
X18399999Y11730000D03*
%TO.P,D2,2,A*%
%TO.N,Net-(D2-A)*%
X18399999Y9980000D03*
%TD*%
D14*
%TO.P,U1,4*%
%TO.N,/~{LED1}*%
X9824999Y4920000D03*
%TO.P,U1,3*%
%TO.N,GND*%
X9824999Y6190000D03*
%TO.P,U1,2*%
%TO.N,Net-(D1-A)*%
X16199999Y6190000D03*
%TO.P,U1,1*%
%TO.N,/LED+_IN*%
X16199999Y4920000D03*
%TD*%
D12*
%TO.P,TRIGGER,1,1*%
%TO.N,/TRIGGER*%
X4699999Y44420000D03*
%TD*%
%TO.P,~{LASER3},1,1*%
%TO.N,/~{LASER3}*%
X23699999Y21420000D03*
%TD*%
D20*
%TO.N,/P4B*%
X15499999Y33020000D03*
X15499999Y23220000D03*
%TO.N,/P4A*%
X14899999Y32420000D03*
X14899999Y22620000D03*
%TO.N,/P3B*%
X14299999Y33020000D03*
X14299999Y23220000D03*
%TO.N,/P3A*%
X13699999Y22620000D03*
X13699999Y32420000D03*
%TO.N,/P2B*%
X13099999Y23220000D03*
X13099999Y33020000D03*
%TO.N,/P2A*%
X12499999Y22620000D03*
X12499999Y32420000D03*
%TO.N,/P1B*%
X11899999Y33020000D03*
X11899999Y23220000D03*
%TO.N,/P1A*%
X11299999Y22620000D03*
X11299999Y32420000D03*
%TO.N,/P0B*%
X10699999Y33020000D03*
X10699999Y23220000D03*
%TO.N,/P0A*%
X10099999Y22620000D03*
X10099999Y32420000D03*
%TO.N,/IO7*%
X9499999Y33020000D03*
X9499999Y23120000D03*
%TO.N,/IO5*%
X8899999Y22620000D03*
X8899999Y32420000D03*
%TO.N,/IO3*%
X8299999Y33020000D03*
X8299999Y23120000D03*
%TO.N,/IO1*%
X7699999Y22620000D03*
X7699999Y32420000D03*
%TD*%
D21*
%TO.N,+3V3*%
X5999999Y36320000D02*
X5299999Y35620000D01*
X21899999Y36320000D02*
X5999999Y36320000D01*
X22999999Y37420000D02*
X21899999Y36320000D01*
X22999999Y45220000D02*
X22999999Y37420000D01*
X24599999Y46820000D02*
X22999999Y45220000D01*
X26899999Y46820000D02*
X24599999Y46820000D01*
X5299999Y35620000D02*
X5299999Y34145000D01*
%TO.N,/LED1_IN*%
X20306399Y21438600D02*
X20306399Y9636400D01*
X20306399Y9636400D02*
X18399999Y7730000D01*
D22*
%TO.N,/~{LED1}*%
X3671399Y26520000D02*
X3671399Y25648600D01*
X3671399Y25648600D02*
X3999999Y25320000D01*
X3999999Y25320000D02*
X3999999Y7767500D01*
X3999999Y7767500D02*
X6912499Y4855000D01*
%TO.N,/~{LED2}*%
X3674999Y29020000D02*
X3674999Y28145000D01*
X3674999Y28145000D02*
X4346893Y27473106D01*
X4346893Y27473106D02*
X4346893Y11620606D01*
X4346893Y11620606D02*
X7012499Y8955000D01*
%TO.N,/~{LED3}*%
X3674999Y34120000D02*
X3674999Y33245000D01*
X3674999Y33245000D02*
X4651693Y32268306D01*
X4651693Y32268306D02*
X4651693Y15215806D01*
X4651693Y15215806D02*
X7012499Y12855000D01*
D21*
%TO.N,/LED+_IN*%
X16699999Y21445000D02*
X16699999Y16455000D01*
X16299999Y16055000D02*
X15499999Y16055000D01*
X15499999Y16055000D02*
X14499999Y15055000D01*
X14499999Y15055000D02*
X14499999Y13655000D01*
X16699999Y16455000D02*
X16299999Y16055000D01*
X14499999Y13655000D02*
X15234999Y12920000D01*
X15234999Y12920000D02*
X16199999Y12920000D01*
%TO.N,/LED3_IN*%
X18499999Y21445000D02*
X18499999Y15630000D01*
%TO.N,/LED2_IN*%
X19699999Y21445000D02*
X19699999Y16355000D01*
X19899999Y16155000D02*
X19899999Y12455000D01*
X19699999Y16355000D02*
X19899999Y16155000D01*
X19899999Y12455000D02*
X19174999Y11730000D01*
X19174999Y11730000D02*
X18399999Y11730000D01*
D22*
%TO.N,Net-(D3-A)*%
X18249999Y13780000D02*
X17974999Y13780000D01*
X17974999Y13780000D02*
X17564999Y14190000D01*
X17564999Y14190000D02*
X16864999Y14190000D01*
%TO.N,Net-(D1-A)*%
X18399999Y5980000D02*
X16874999Y5980000D01*
%TO.N,Net-(D2-A)*%
X18074999Y9980000D02*
X16974999Y9980000D01*
X16974999Y9980000D02*
X16764999Y10190000D01*
D21*
%TO.N,/LED+_IN*%
X16015236Y4955000D02*
X14899999Y4955000D01*
X14899999Y4955000D02*
X14499999Y5355000D01*
X14499999Y5355000D02*
X14499999Y8355000D01*
X14499999Y8355000D02*
X15064999Y8920000D01*
X15064999Y8920000D02*
X16199999Y8920000D01*
X16199999Y8920000D02*
X15134999Y8920000D01*
X15134999Y8920000D02*
X14499999Y9555000D01*
X15164999Y12920000D02*
X16199999Y12920000D01*
X14499999Y9555000D02*
X14499999Y12255000D01*
X14499999Y12255000D02*
X15164999Y12920000D01*
%TO.N,/LED2_IN*%
X19399999Y24320000D02*
X19399999Y25220000D01*
X19399999Y25220000D02*
X20699999Y26520000D01*
X20699999Y26520000D02*
X20699999Y27322500D01*
%TO.N,/LED2_OUT*%
X19379999Y31122500D02*
X19379999Y30640000D01*
X19379999Y30640000D02*
X20699999Y29320000D01*
X20699999Y29320000D02*
X20699999Y28517500D01*
%TO.N,/LED1_OUT*%
X20579999Y31122500D02*
X20579999Y30640000D01*
X20579999Y30640000D02*
X21899999Y29320000D01*
X21899999Y29320000D02*
X21899999Y28517500D01*
%TO.N,/LED-_IN*%
X16399999Y24320000D02*
X16399999Y25120000D01*
%TO.N,/LED-_OUT*%
X16379999Y31122500D02*
X16379999Y30440000D01*
%TO.N,/LED-_IN*%
X16399999Y25120000D02*
X17099999Y25820000D01*
X17099999Y25820000D02*
X17099999Y27322500D01*
%TO.N,/LED-_OUT*%
X16379999Y30440000D02*
X17099999Y29720000D01*
X17099999Y29720000D02*
X17099999Y28517500D01*
%TO.N,/LED+_IN*%
X17599999Y24320000D02*
X17599999Y25570000D01*
%TO.N,/LED+_OUT*%
X17579999Y30140000D02*
X18299999Y29420000D01*
X18299999Y29420000D02*
X18299999Y28517500D01*
%TO.N,/LED+_IN*%
X17599999Y25570000D02*
X18299999Y26270000D01*
X18299999Y26270000D02*
X18299999Y27322500D01*
%TO.N,/LED+_OUT*%
X17579999Y31122500D02*
X17579999Y30140000D01*
%TO.N,/LED3_IN*%
X19499999Y26520000D02*
X18799999Y25820000D01*
X19499999Y27322500D02*
X19499999Y26520000D01*
X18799999Y25820000D02*
X18799999Y24320000D01*
%TO.N,/LED3_OUT*%
X18779999Y29940000D02*
X19499999Y29220000D01*
X18779999Y31122500D02*
X18779999Y29940000D01*
X19499999Y29220000D02*
X19499999Y28517500D01*
%TO.N,/LED1_IN*%
X21899999Y26720000D02*
X21899999Y27322500D01*
X20599999Y25420000D02*
X21899999Y26720000D01*
X20599999Y24320000D02*
X20599999Y25420000D01*
D22*
%TO.N,/STROBE*%
X1499999Y41740000D02*
X4679999Y41740000D01*
%TO.N,/TRIGGER*%
X1499999Y44280000D02*
X4659999Y44280000D01*
%TO.N,/~{LASER1}*%
X23699999Y26520000D02*
X26879999Y26520000D01*
%TO.N,/~{LASER2}*%
X23696140Y23966417D02*
X26893582Y23966417D01*
%TO.N,/~{LASER3}*%
X23699999Y21420000D02*
X26899999Y21420000D01*
D21*
%TO.N,+3V3*%
X5324999Y34120000D02*
X5324999Y29020000D01*
X5321399Y26520000D02*
X5321399Y28720000D01*
D22*
%TO.N,/~{LED1}*%
X3651399Y26500000D02*
X1196399Y26500000D01*
%TO.N,/~{LED2}*%
X3654999Y29040000D02*
X1499999Y29040000D01*
%TO.N,/~{LED3}*%
X3674999Y34120000D02*
X1499999Y34120000D01*
%TO.N,/~{LED1}*%
X6912499Y4855000D02*
X9759999Y4855000D01*
%TO.N,/~{LED2}*%
X7012499Y8955000D02*
X9789999Y8955000D01*
%TO.N,/~{LED3}*%
X7012499Y12855000D02*
X9759999Y12855000D01*
D21*
%TO.N,/LED2_IN*%
X19099999Y21445000D02*
X19699999Y21445000D01*
%TO.N,/LED-_OUT*%
X16079999Y33997500D02*
X16079999Y33040000D01*
X16079999Y33040000D02*
X16379999Y32740000D01*
X16379999Y32740000D02*
X16379999Y31122500D01*
%TO.N,/LED+_OUT*%
X17279999Y33997500D02*
X17279999Y33040000D01*
X17579999Y32740000D02*
X17579999Y31122500D01*
X17279999Y33040000D02*
X17579999Y32740000D01*
%TO.N,/LED3_OUT*%
X18479999Y33997500D02*
X18479999Y33040000D01*
X18479999Y33040000D02*
X18779999Y32740000D01*
X18779999Y32740000D02*
X18779999Y31122500D01*
%TO.N,/LED2_OUT*%
X19079999Y33997500D02*
X19079999Y33140000D01*
X19079999Y33140000D02*
X19399999Y32820000D01*
X19399999Y32820000D02*
X19399999Y31142500D01*
D23*
%TO.N,/IO6*%
X9199999Y24320000D02*
X9199999Y31102500D01*
%TO.N,/IO4*%
X8579999Y31122500D02*
X8579999Y24340000D01*
%TO.N,/IO2*%
X7999999Y24320000D02*
X7999999Y31102500D01*
D21*
%TO.N,/LED+_IN*%
X17299999Y21445000D02*
X17299999Y22920000D01*
X17299999Y22920000D02*
X17599999Y23220000D01*
X17599999Y23220000D02*
X17599999Y24320000D01*
%TO.N,/LED3_IN*%
X18499999Y21445000D02*
X18499999Y22820000D01*
X18499999Y22820000D02*
X18799999Y23120000D01*
X18799999Y23120000D02*
X18799999Y24320000D01*
%TO.N,/LED2_IN*%
X19099999Y21445000D02*
X19099999Y22820000D01*
X19099999Y22820000D02*
X19399999Y23120000D01*
X19399999Y23120000D02*
X19399999Y24320000D01*
%TO.N,/LED1_IN*%
X20299999Y21445000D02*
X20299999Y22720000D01*
X20299999Y22720000D02*
X20599999Y23020000D01*
X20599999Y23020000D02*
X20599999Y24320000D01*
X19999999Y24320000D02*
X20599999Y24320000D01*
%TO.N,/LED3_IN*%
X18199999Y24320000D02*
X18799999Y24320000D01*
%TO.N,/LED+_IN*%
X16999999Y24320000D02*
X17599999Y24320000D01*
X17299999Y21445000D02*
X17899999Y21445000D01*
X16699999Y21445000D02*
X17299999Y21445000D01*
%TO.N,/LED-_IN*%
X16399999Y24320000D02*
X16399999Y23120000D01*
X16399999Y23120000D02*
X16099999Y22820000D01*
X16099999Y22820000D02*
X16099999Y21445000D01*
%TO.N,/LED1_OUT*%
X20279999Y33997500D02*
X20279999Y33140000D01*
X20279999Y33140000D02*
X20579999Y32840000D01*
X20579999Y32840000D02*
X20579999Y31122500D01*
X19979999Y31122500D02*
X20579999Y31122500D01*
%TO.N,/LED2_OUT*%
X19079999Y33997500D02*
X19679999Y33997500D01*
%TO.N,/LED3_OUT*%
X18179999Y31122500D02*
X18779999Y31122500D01*
%TO.N,/LED+_OUT*%
X17279999Y33997500D02*
X17879999Y33997500D01*
X16679999Y33997500D02*
X17279999Y33997500D01*
X16979999Y31122500D02*
X17579999Y31122500D01*
D23*
%TO.N,/P4B*%
X15479999Y33997500D02*
X15479999Y33040000D01*
X15479999Y33040000D02*
X15499999Y33020000D01*
X15499999Y21445000D02*
X15499999Y23220000D01*
%TO.N,/P4A*%
X14879999Y33997500D02*
X14879999Y32440000D01*
X14879999Y32440000D02*
X14899999Y32420000D01*
X14899999Y21445000D02*
X14899999Y22620000D01*
%TO.N,/P3B*%
X14279999Y33040000D02*
X14299999Y33020000D01*
X14279999Y33997500D02*
X14279999Y33040000D01*
X14299999Y23220000D02*
X14299999Y21445000D01*
%TO.N,/P3A*%
X13699999Y32420000D02*
X13679999Y32440000D01*
X13679999Y32440000D02*
X13679999Y33997500D01*
X13699999Y21445000D02*
X13699999Y22620000D01*
%TO.N,/P2B*%
X13099999Y21445000D02*
X13099999Y23220000D01*
X13079999Y33997500D02*
X13079999Y33040000D01*
X13079999Y33040000D02*
X13099999Y33020000D01*
%TO.N,/P2A*%
X12499999Y21445000D02*
X12499999Y22620000D01*
X12499999Y32420000D02*
X12479999Y32440000D01*
X12479999Y32440000D02*
X12479999Y33997500D01*
%TO.N,/P1B*%
X11879999Y33997500D02*
X11879999Y33040000D01*
X11879999Y33040000D02*
X11899999Y33020000D01*
X11899999Y23220000D02*
X11899999Y21445000D01*
%TO.N,/P1A*%
X11299999Y21445000D02*
X11299999Y22620000D01*
X11299999Y32420000D02*
X11279999Y32440000D01*
X11279999Y32440000D02*
X11279999Y33997500D01*
%TO.N,/P0B*%
X10679999Y33997500D02*
X10679999Y33040000D01*
X10679999Y33040000D02*
X10699999Y33020000D01*
X10699999Y23220000D02*
X10699999Y21445000D01*
%TO.N,/P0A*%
X10099999Y21445000D02*
X10099999Y22620000D01*
X10099999Y32420000D02*
X10079999Y32440000D01*
X10079999Y32440000D02*
X10079999Y33997500D01*
%TO.N,/IO7*%
X9479999Y33040000D02*
X9499999Y33020000D01*
X9499999Y23120000D02*
X9499999Y21445000D01*
X9479999Y33997500D02*
X9479999Y33040000D01*
%TO.N,/IO5*%
X8899999Y21445000D02*
X8899999Y22620000D01*
X8899999Y32420000D02*
X8879999Y32440000D01*
X8879999Y32440000D02*
X8879999Y33997500D01*
%TO.N,/IO3*%
X8299999Y23120000D02*
X8299999Y21445000D01*
%TO.N,/IO1*%
X7699999Y21445000D02*
X7699999Y22620000D01*
%TO.N,/IO3*%
X8279999Y33040000D02*
X8299999Y33020000D01*
X8279999Y33997500D02*
X8279999Y33040000D01*
%TO.N,/IO1*%
X7699999Y32420000D02*
X7679999Y32740000D01*
X7679999Y32740000D02*
X7679999Y33997500D01*
%TO.N,/IO0*%
X7379999Y31122500D02*
X7379999Y24340000D01*
%TD*%
%TA.AperFunction,Conductor*%
%TO.N,GND*%
G36*
X28362370Y47883313D02*
G01*
X28398334Y47833813D01*
X28403179Y47803220D01*
X28403179Y14456866D01*
X28384272Y14398675D01*
X28334772Y14362711D01*
X28273586Y14362711D01*
X28224086Y14398675D01*
X28223536Y14399440D01*
X28135106Y14523622D01*
X28135101Y14523627D01*
X27983067Y14668591D01*
X27806342Y14782166D01*
X27806329Y14782173D01*
X27611318Y14860243D01*
X27611309Y14860246D01*
X27405034Y14900000D01*
X27149999Y14900000D01*
X27149999Y14115687D01*
X27138044Y14127641D01*
X27025147Y14185165D01*
X26931480Y14200000D01*
X26868518Y14200000D01*
X26774851Y14185165D01*
X26661954Y14127641D01*
X26649998Y14115686D01*
X26649998Y14900000D01*
X26447595Y14900000D01*
X26290874Y14885035D01*
X26089306Y14825849D01*
X25902591Y14729591D01*
X25902588Y14729589D01*
X25737458Y14599730D01*
X25599888Y14440965D01*
X25494851Y14259035D01*
X25426142Y14060513D01*
X25424630Y14050002D01*
X25424632Y14050000D01*
X26584313Y14050000D01*
X26572358Y14038045D01*
X26514834Y13925148D01*
X26495013Y13800000D01*
X26514834Y13674852D01*
X26572358Y13561955D01*
X26584313Y13550000D01*
X25428741Y13550000D01*
X25455767Y13438594D01*
X25543034Y13247503D01*
X25664891Y13076379D01*
X25664896Y13076374D01*
X25816930Y12931410D01*
X25993655Y12817835D01*
X25993668Y12817828D01*
X26188679Y12739758D01*
X26188688Y12739755D01*
X26394964Y12700000D01*
X26649998Y12700000D01*
X26649998Y13484315D01*
X26661954Y13472359D01*
X26774851Y13414835D01*
X26868518Y13400000D01*
X26931480Y13400000D01*
X27025147Y13414835D01*
X27138044Y13472359D01*
X27149999Y13484314D01*
X27149999Y12700001D01*
X27150000Y12700000D01*
X27352403Y12700000D01*
X27509123Y12714966D01*
X27710691Y12774152D01*
X27897406Y12870410D01*
X27897409Y12870412D01*
X28062539Y13000271D01*
X28200109Y13159036D01*
X28218442Y13190789D01*
X28263912Y13231730D01*
X28324762Y13238126D01*
X28377750Y13207533D01*
X28402637Y13151637D01*
X28403179Y13141289D01*
X28403179Y102220D01*
X28384272Y44029D01*
X28334772Y8065D01*
X28304179Y3220D01*
X103179Y3220D01*
X44988Y22127D01*
X9024Y71627D01*
X4179Y102220D01*
X4179Y1149037D01*
X249419Y1149037D01*
X259434Y964313D01*
X308925Y786061D01*
X308926Y786059D01*
X308929Y786053D01*
X395578Y622617D01*
X395579Y622616D01*
X515340Y481622D01*
X515345Y481617D01*
X662611Y369668D01*
X662613Y369667D01*
X662614Y369667D01*
X662615Y369666D01*
X830512Y291988D01*
X1011182Y252220D01*
X1011186Y252220D01*
X1949791Y252220D01*
X1949792Y252220D01*
X2087589Y267206D01*
X2262900Y326276D01*
X2416891Y418928D01*
X2421412Y421648D01*
X2421412Y421649D01*
X2421415Y421650D01*
X2555720Y548871D01*
X2637508Y669501D01*
X2659536Y701988D01*
X2659537Y701990D01*
X2728010Y873845D01*
X2757939Y1056403D01*
X2753064Y1146317D01*
X25645739Y1146317D01*
X25655754Y961593D01*
X25704492Y786053D01*
X25705246Y783339D01*
X25705249Y783333D01*
X25791898Y619897D01*
X25791899Y619896D01*
X25911660Y478902D01*
X25911665Y478897D01*
X26058931Y366948D01*
X26058933Y366947D01*
X26058934Y366947D01*
X26058935Y366946D01*
X26226832Y289268D01*
X26407502Y249500D01*
X26407506Y249500D01*
X27346111Y249500D01*
X27346112Y249500D01*
X27483909Y264486D01*
X27659220Y323556D01*
X27817735Y418930D01*
X27952040Y546151D01*
X28055857Y699270D01*
X28124330Y871125D01*
X28154259Y1053683D01*
X28144244Y1238407D01*
X28094753Y1416659D01*
X28008099Y1580104D01*
X27888336Y1721100D01*
X27888332Y1721104D01*
X27741066Y1833053D01*
X27741064Y1833054D01*
X27573169Y1910731D01*
X27573167Y1910732D01*
X27537031Y1918686D01*
X27392496Y1950500D01*
X26453886Y1950500D01*
X26316089Y1935514D01*
X26257020Y1915612D01*
X26140779Y1876445D01*
X26140776Y1876444D01*
X25982265Y1781073D01*
X25982261Y1781069D01*
X25847959Y1653851D01*
X25744141Y1500733D01*
X25675668Y1328876D01*
X25675668Y1328875D01*
X25645739Y1146317D01*
X2753064Y1146317D01*
X2747924Y1241127D01*
X2698433Y1419379D01*
X2611779Y1582824D01*
X2494327Y1721099D01*
X2492017Y1723819D01*
X2492012Y1723824D01*
X2344746Y1835773D01*
X2344744Y1835774D01*
X2176849Y1913451D01*
X2176847Y1913452D01*
X2140711Y1921406D01*
X1996176Y1953220D01*
X1057566Y1953220D01*
X919769Y1938234D01*
X860699Y1918332D01*
X744459Y1879165D01*
X744456Y1879164D01*
X585945Y1783793D01*
X585941Y1783789D01*
X451639Y1656571D01*
X347821Y1503453D01*
X279348Y1331596D01*
X264071Y1238407D01*
X249419Y1149037D01*
X4179Y1149037D01*
X4179Y3689037D01*
X249419Y3689037D01*
X259434Y3504313D01*
X308925Y3326061D01*
X308926Y3326059D01*
X308929Y3326053D01*
X395578Y3162617D01*
X395579Y3162616D01*
X515340Y3021622D01*
X515345Y3021617D01*
X662611Y2909668D01*
X662613Y2909667D01*
X662614Y2909667D01*
X662615Y2909666D01*
X830512Y2831988D01*
X1011182Y2792220D01*
X1011186Y2792220D01*
X1949791Y2792220D01*
X1949792Y2792220D01*
X2087589Y2807206D01*
X2262900Y2866276D01*
X2416891Y2958928D01*
X2421412Y2961648D01*
X2421412Y2961649D01*
X2421415Y2961650D01*
X2555720Y3088871D01*
X2637508Y3209501D01*
X2659536Y3241988D01*
X2659537Y3241990D01*
X2728010Y3413845D01*
X2757939Y3596403D01*
X2753064Y3686317D01*
X25645739Y3686317D01*
X25655754Y3501593D01*
X25704492Y3326053D01*
X25705246Y3323339D01*
X25705249Y3323333D01*
X25791898Y3159897D01*
X25791899Y3159896D01*
X25911660Y3018902D01*
X25911665Y3018897D01*
X26058931Y2906948D01*
X26058933Y2906947D01*
X26058934Y2906947D01*
X26058935Y2906946D01*
X26226832Y2829268D01*
X26407502Y2789500D01*
X26407506Y2789500D01*
X27346111Y2789500D01*
X27346112Y2789500D01*
X27483909Y2804486D01*
X27659220Y2863556D01*
X27817735Y2958930D01*
X27952040Y3086151D01*
X28055857Y3239270D01*
X28124330Y3411125D01*
X28154259Y3593683D01*
X28144244Y3778407D01*
X28094753Y3956659D01*
X28008099Y4120104D01*
X27888336Y4261100D01*
X27888332Y4261104D01*
X27741066Y4373053D01*
X27741064Y4373054D01*
X27573169Y4450731D01*
X27573167Y4450732D01*
X27537031Y4458686D01*
X27392496Y4490500D01*
X26453886Y4490500D01*
X26316089Y4475514D01*
X26300526Y4470270D01*
X26140779Y4416445D01*
X26140776Y4416444D01*
X25982265Y4321073D01*
X25982261Y4321069D01*
X25847959Y4193851D01*
X25744141Y4040733D01*
X25675668Y3868876D01*
X25675668Y3868875D01*
X25645739Y3686317D01*
X2753064Y3686317D01*
X2747924Y3781127D01*
X2698433Y3959379D01*
X2611779Y4122824D01*
X2494327Y4261099D01*
X2492017Y4263819D01*
X2492012Y4263824D01*
X2344746Y4375773D01*
X2344744Y4375774D01*
X2176849Y4453451D01*
X2176847Y4453452D01*
X2140711Y4461406D01*
X1996176Y4493220D01*
X1057566Y4493220D01*
X919769Y4478234D01*
X860699Y4458332D01*
X744459Y4419165D01*
X744456Y4419164D01*
X585945Y4323793D01*
X585941Y4323789D01*
X451639Y4196571D01*
X347821Y4043453D01*
X279348Y3871596D01*
X264071Y3778407D01*
X249419Y3689037D01*
X4179Y3689037D01*
X4179Y6226317D01*
X245739Y6226317D01*
X255754Y6041593D01*
X305245Y5863341D01*
X305246Y5863339D01*
X305249Y5863333D01*
X391898Y5699897D01*
X391899Y5699896D01*
X511660Y5558902D01*
X511665Y5558897D01*
X658931Y5446948D01*
X658933Y5446947D01*
X658934Y5446947D01*
X658935Y5446946D01*
X826832Y5369268D01*
X1007502Y5329500D01*
X1007506Y5329500D01*
X1946111Y5329500D01*
X1946112Y5329500D01*
X2083909Y5344486D01*
X2259220Y5403556D01*
X2390212Y5482370D01*
X2417732Y5498928D01*
X2417732Y5498929D01*
X2417735Y5498930D01*
X2552040Y5626151D01*
X2655857Y5779270D01*
X2724330Y5951125D01*
X2754259Y6133683D01*
X2744244Y6318407D01*
X2694753Y6496659D01*
X2608099Y6660104D01*
X2488336Y6801100D01*
X2488332Y6801104D01*
X2341066Y6913053D01*
X2341064Y6913054D01*
X2173169Y6990731D01*
X2173167Y6990732D01*
X2137032Y6998686D01*
X1992496Y7030500D01*
X1053886Y7030500D01*
X916089Y7015514D01*
X857020Y6995612D01*
X740779Y6956445D01*
X740776Y6956444D01*
X582265Y6861073D01*
X582261Y6861069D01*
X447959Y6733851D01*
X344141Y6580733D01*
X275668Y6408876D01*
X269476Y6371103D01*
X245739Y6226317D01*
X4179Y6226317D01*
X4179Y8766317D01*
X245739Y8766317D01*
X255754Y8581593D01*
X301177Y8417994D01*
X305246Y8403339D01*
X305249Y8403333D01*
X391898Y8239897D01*
X391899Y8239896D01*
X511660Y8098902D01*
X511665Y8098897D01*
X658931Y7986948D01*
X658933Y7986947D01*
X658934Y7986947D01*
X658935Y7986946D01*
X826832Y7909268D01*
X1007502Y7869500D01*
X1007506Y7869500D01*
X1946111Y7869500D01*
X1946112Y7869500D01*
X2083909Y7884486D01*
X2259220Y7943556D01*
X2396554Y8026186D01*
X2417732Y8038928D01*
X2417732Y8038929D01*
X2417735Y8038930D01*
X2552040Y8166151D01*
X2655857Y8319270D01*
X2724330Y8491125D01*
X2754259Y8673683D01*
X2744244Y8858407D01*
X2694753Y9036659D01*
X2608099Y9200104D01*
X2514159Y9310699D01*
X2488337Y9341099D01*
X2488332Y9341104D01*
X2341066Y9453053D01*
X2341064Y9453054D01*
X2173169Y9530731D01*
X2173167Y9530732D01*
X2136453Y9538813D01*
X1992496Y9570500D01*
X1053886Y9570500D01*
X916089Y9555514D01*
X866523Y9538813D01*
X740779Y9496445D01*
X740776Y9496444D01*
X582265Y9401073D01*
X582261Y9401069D01*
X447959Y9273851D01*
X344141Y9120733D01*
X278108Y8955000D01*
X275668Y8948875D01*
X245739Y8766317D01*
X4179Y8766317D01*
X4179Y11306317D01*
X245739Y11306317D01*
X255754Y11121593D01*
X300412Y10960749D01*
X305246Y10943339D01*
X305249Y10943333D01*
X391898Y10779897D01*
X391899Y10779896D01*
X511660Y10638902D01*
X511665Y10638897D01*
X658931Y10526948D01*
X658933Y10526947D01*
X658934Y10526947D01*
X658935Y10526946D01*
X826832Y10449268D01*
X1007502Y10409500D01*
X1007506Y10409500D01*
X1946111Y10409500D01*
X1946112Y10409500D01*
X2083909Y10424486D01*
X2259220Y10483556D01*
X2417735Y10578930D01*
X2552040Y10706151D01*
X2655857Y10859270D01*
X2724330Y11031125D01*
X2754259Y11213683D01*
X2744244Y11398407D01*
X2694753Y11576659D01*
X2608099Y11740104D01*
X2488336Y11881100D01*
X2488332Y11881104D01*
X2341066Y11993053D01*
X2341064Y11993054D01*
X2173169Y12070731D01*
X2173167Y12070732D01*
X2137031Y12078686D01*
X1992496Y12110500D01*
X1053886Y12110500D01*
X916089Y12095514D01*
X857019Y12075612D01*
X740779Y12036445D01*
X740776Y12036444D01*
X582265Y11941073D01*
X582261Y11941069D01*
X447959Y11813851D01*
X344141Y11660733D01*
X275668Y11488876D01*
X253944Y11356363D01*
X245739Y11306317D01*
X4179Y11306317D01*
X4179Y13846317D01*
X245739Y13846317D01*
X255754Y13661593D01*
X294424Y13522316D01*
X305246Y13483339D01*
X305249Y13483333D01*
X391898Y13319897D01*
X391899Y13319896D01*
X511660Y13178902D01*
X511665Y13178897D01*
X658931Y13066948D01*
X658933Y13066947D01*
X658934Y13066947D01*
X658935Y13066946D01*
X826832Y12989268D01*
X1007502Y12949500D01*
X1007506Y12949500D01*
X1946111Y12949500D01*
X1946112Y12949500D01*
X2083909Y12964486D01*
X2259220Y13023556D01*
X2417735Y13118930D01*
X2552040Y13246151D01*
X2642624Y13379752D01*
X2655856Y13399268D01*
X2661544Y13413543D01*
X2724330Y13571125D01*
X2754259Y13753683D01*
X2744244Y13938407D01*
X2694753Y14116659D01*
X2608099Y14280104D01*
X2492573Y14416112D01*
X2488337Y14421099D01*
X2488332Y14421104D01*
X2341066Y14533053D01*
X2341064Y14533054D01*
X2173169Y14610731D01*
X2173167Y14610732D01*
X2137031Y14618686D01*
X1992496Y14650500D01*
X1053886Y14650500D01*
X916089Y14635514D01*
X857019Y14615612D01*
X740779Y14576445D01*
X740776Y14576444D01*
X582265Y14481073D01*
X582261Y14481069D01*
X447959Y14353851D01*
X344141Y14200733D01*
X275668Y14028876D01*
X261098Y13940000D01*
X245739Y13846317D01*
X4179Y13846317D01*
X4179Y16386317D01*
X245739Y16386317D01*
X255754Y16201593D01*
X296795Y16053777D01*
X305246Y16023339D01*
X305249Y16023333D01*
X391898Y15859897D01*
X391899Y15859896D01*
X511660Y15718902D01*
X511665Y15718897D01*
X658931Y15606948D01*
X658933Y15606947D01*
X658934Y15606947D01*
X658935Y15606946D01*
X826832Y15529268D01*
X1007502Y15489500D01*
X1007506Y15489500D01*
X1946111Y15489500D01*
X1946112Y15489500D01*
X2083909Y15504486D01*
X2259220Y15563556D01*
X2417735Y15658930D01*
X2552040Y15786151D01*
X2644347Y15922294D01*
X2655856Y15939268D01*
X2663171Y15957627D01*
X2724330Y16111125D01*
X2754259Y16293683D01*
X2744244Y16478407D01*
X2694753Y16656659D01*
X2608099Y16820104D01*
X2488336Y16961100D01*
X2488332Y16961104D01*
X2341066Y17073053D01*
X2341064Y17073054D01*
X2173169Y17150731D01*
X2173167Y17150732D01*
X2137032Y17158686D01*
X1992496Y17190500D01*
X1053886Y17190500D01*
X916089Y17175514D01*
X857019Y17155612D01*
X740779Y17116445D01*
X740776Y17116444D01*
X582265Y17021073D01*
X582261Y17021069D01*
X447959Y16893851D01*
X344141Y16740733D01*
X275668Y16568876D01*
X247024Y16394153D01*
X245739Y16386317D01*
X4179Y16386317D01*
X4179Y18926317D01*
X245739Y18926317D01*
X255754Y18741593D01*
X305245Y18563341D01*
X305246Y18563339D01*
X305249Y18563333D01*
X391898Y18399897D01*
X391899Y18399896D01*
X511660Y18258902D01*
X511665Y18258897D01*
X658931Y18146948D01*
X658933Y18146947D01*
X658934Y18146947D01*
X658935Y18146946D01*
X826832Y18069268D01*
X1007502Y18029500D01*
X1007506Y18029500D01*
X1946111Y18029500D01*
X1946112Y18029500D01*
X2083909Y18044486D01*
X2259220Y18103556D01*
X2417735Y18198930D01*
X2552040Y18326151D01*
X2655857Y18479270D01*
X2724330Y18651125D01*
X2754259Y18833683D01*
X2744244Y19018407D01*
X2694753Y19196659D01*
X2608099Y19360104D01*
X2488336Y19501100D01*
X2488332Y19501104D01*
X2341066Y19613053D01*
X2341064Y19613054D01*
X2173169Y19690731D01*
X2173167Y19690732D01*
X2137032Y19698686D01*
X1992496Y19730500D01*
X1053886Y19730500D01*
X916089Y19715514D01*
X857019Y19695612D01*
X740779Y19656445D01*
X740776Y19656444D01*
X582265Y19561073D01*
X582261Y19561069D01*
X447959Y19433851D01*
X344141Y19280733D01*
X275668Y19108876D01*
X275668Y19108875D01*
X245739Y18926317D01*
X4179Y18926317D01*
X4179Y21466317D01*
X245739Y21466317D01*
X255754Y21281593D01*
X305245Y21103341D01*
X305246Y21103339D01*
X305249Y21103333D01*
X391898Y20939897D01*
X391899Y20939896D01*
X511660Y20798902D01*
X511665Y20798897D01*
X658931Y20686948D01*
X658933Y20686947D01*
X658934Y20686947D01*
X658935Y20686946D01*
X826832Y20609268D01*
X1007502Y20569500D01*
X1007506Y20569500D01*
X1946111Y20569500D01*
X1946112Y20569500D01*
X2083909Y20584486D01*
X2259220Y20643556D01*
X2417735Y20738930D01*
X2552040Y20866151D01*
X2633828Y20986781D01*
X2655856Y21019268D01*
X2656722Y21021441D01*
X2724330Y21191125D01*
X2754259Y21373683D01*
X2744244Y21558407D01*
X2694753Y21736659D01*
X2608099Y21900104D01*
X2505834Y22020500D01*
X2488337Y22041099D01*
X2488332Y22041104D01*
X2341066Y22153053D01*
X2341064Y22153054D01*
X2173169Y22230731D01*
X2173167Y22230732D01*
X2131565Y22239889D01*
X1992496Y22270500D01*
X1053886Y22270500D01*
X916089Y22255514D01*
X857019Y22235612D01*
X740779Y22196445D01*
X740776Y22196444D01*
X582265Y22101073D01*
X582261Y22101069D01*
X447959Y21973851D01*
X344141Y21820733D01*
X275668Y21648876D01*
X275668Y21648875D01*
X245739Y21466317D01*
X4179Y21466317D01*
X4179Y24006317D01*
X245739Y24006317D01*
X255754Y23821593D01*
X303232Y23650593D01*
X305246Y23643339D01*
X305249Y23643333D01*
X391898Y23479897D01*
X391899Y23479896D01*
X511660Y23338902D01*
X511665Y23338897D01*
X658931Y23226948D01*
X658933Y23226947D01*
X658934Y23226947D01*
X658935Y23226946D01*
X826832Y23149268D01*
X1007502Y23109500D01*
X1007506Y23109500D01*
X1946111Y23109500D01*
X1946112Y23109500D01*
X2083909Y23124486D01*
X2259220Y23183556D01*
X2392246Y23263594D01*
X2417732Y23278928D01*
X2417732Y23278929D01*
X2417735Y23278930D01*
X2552040Y23406151D01*
X2655857Y23559270D01*
X2724330Y23731125D01*
X2754259Y23913683D01*
X2744244Y24098407D01*
X2694753Y24276659D01*
X2608099Y24440104D01*
X2488336Y24581100D01*
X2488332Y24581104D01*
X2341066Y24693053D01*
X2341064Y24693054D01*
X2173169Y24770731D01*
X2173167Y24770732D01*
X2137031Y24778686D01*
X1992496Y24810500D01*
X1053886Y24810500D01*
X916089Y24795514D01*
X857019Y24775612D01*
X740779Y24736445D01*
X740776Y24736444D01*
X582265Y24641073D01*
X582261Y24641069D01*
X447959Y24513851D01*
X344141Y24360733D01*
X275668Y24188876D01*
X272574Y24170000D01*
X245739Y24006317D01*
X4179Y24006317D01*
X4179Y26546317D01*
X245739Y26546317D01*
X255754Y26361593D01*
X303195Y26190726D01*
X305246Y26183339D01*
X305249Y26183333D01*
X391898Y26019897D01*
X391899Y26019896D01*
X511660Y25878902D01*
X511665Y25878897D01*
X658931Y25766948D01*
X658933Y25766947D01*
X658934Y25766947D01*
X658935Y25766946D01*
X826832Y25689268D01*
X1007502Y25649500D01*
X1007506Y25649500D01*
X1946111Y25649500D01*
X1946112Y25649500D01*
X2083909Y25664486D01*
X2259220Y25723556D01*
X2369079Y25789655D01*
X2417732Y25818928D01*
X2417732Y25818929D01*
X2417735Y25818930D01*
X2552040Y25946151D01*
X2655857Y26099270D01*
X2660508Y26110945D01*
X2699612Y26158003D01*
X2752477Y26173300D01*
X2948960Y26173300D01*
X3007151Y26154393D01*
X3042404Y26106998D01*
X3068606Y26032117D01*
X3149244Y25922856D01*
X3149246Y25922854D01*
X3149249Y25922850D01*
X3149252Y25922848D01*
X3149254Y25922846D01*
X3238756Y25856791D01*
X3258517Y25842207D01*
X3278396Y25835252D01*
X3327076Y25798187D01*
X3344699Y25741807D01*
X3344699Y25665028D01*
X3344511Y25660726D01*
X3340921Y25619686D01*
X3348557Y25591189D01*
X3351580Y25579906D01*
X3352515Y25575688D01*
X3359664Y25535139D01*
X3359665Y25535138D01*
X3360336Y25533975D01*
X3360447Y25533784D01*
X3370334Y25509916D01*
X3370740Y25508401D01*
X3370741Y25508400D01*
X3394362Y25474665D01*
X3396682Y25471022D01*
X3417270Y25435363D01*
X3448813Y25408895D01*
X3451998Y25405976D01*
X3644303Y25213672D01*
X3672080Y25159155D01*
X3673299Y25143668D01*
X3673299Y7783928D01*
X3673111Y7779626D01*
X3669956Y7743568D01*
X3669521Y7738587D01*
X3680180Y7698806D01*
X3681115Y7694588D01*
X3688264Y7654039D01*
X3689047Y7652684D01*
X3698934Y7628816D01*
X3699340Y7627301D01*
X3699341Y7627300D01*
X3722962Y7593565D01*
X3725282Y7589922D01*
X3745870Y7554263D01*
X3777413Y7527795D01*
X3780598Y7524876D01*
X5960946Y5344529D01*
X5988723Y5290012D01*
X5983388Y5244899D01*
X5985097Y5244380D01*
X5983686Y5239730D01*
X5983685Y5239727D01*
X5970208Y5195300D01*
X5926474Y5051130D01*
X5926473Y5051127D01*
X5907158Y4855004D01*
X5907158Y4854997D01*
X5926473Y4658874D01*
X5926474Y4658871D01*
X5926475Y4658868D01*
X5974878Y4499304D01*
X5983686Y4470270D01*
X5983687Y4470268D01*
X6029610Y4384353D01*
X6076589Y4296462D01*
X6076591Y4296460D01*
X6076592Y4296458D01*
X6201611Y4144122D01*
X6201620Y4144113D01*
X6353956Y4019094D01*
X6353961Y4019090D01*
X6527772Y3926186D01*
X6716367Y3868976D01*
X6716369Y3868976D01*
X6716372Y3868975D01*
X6912496Y3849659D01*
X6912499Y3849659D01*
X6912502Y3849659D01*
X7108625Y3868975D01*
X7108626Y3868976D01*
X7108631Y3868976D01*
X7297226Y3926186D01*
X7471037Y4019090D01*
X7623382Y4144117D01*
X7748409Y4296462D01*
X7830868Y4450732D01*
X7843606Y4474562D01*
X7845483Y4473559D01*
X7879751Y4513699D01*
X7931498Y4528300D01*
X8796799Y4528300D01*
X8854990Y4509393D01*
X8866802Y4499304D01*
X8895834Y4470273D01*
X8924157Y4441950D01*
X9037195Y4384354D01*
X9130980Y4369500D01*
X10519017Y4369501D01*
X10519020Y4369501D01*
X10519021Y4369502D01*
X10565910Y4376928D01*
X10612798Y4384353D01*
X10612798Y4384354D01*
X10612803Y4384354D01*
X10725841Y4441950D01*
X10815549Y4531658D01*
X10873145Y4644696D01*
X10887999Y4738481D01*
X10887998Y5101518D01*
X10875369Y5181260D01*
X10873146Y5195300D01*
X10873145Y5195302D01*
X10873145Y5195304D01*
X10815549Y5308342D01*
X10798653Y5325238D01*
X10770878Y5379752D01*
X10780449Y5440184D01*
X10818265Y5480453D01*
X10889052Y5522316D01*
X11005184Y5638448D01*
X11088779Y5779799D01*
X11088779Y5779800D01*
X11134597Y5937507D01*
X11134599Y5937514D01*
X11134795Y5940000D01*
X8515203Y5940000D01*
X8515398Y5937514D01*
X8515400Y5937507D01*
X8561218Y5779800D01*
X8561218Y5779799D01*
X8644813Y5638448D01*
X8760944Y5522317D01*
X8831733Y5480453D01*
X8872195Y5434557D01*
X8877954Y5373643D01*
X8851343Y5325237D01*
X8834451Y5308345D01*
X8834449Y5308342D01*
X8797463Y5235754D01*
X8754198Y5192490D01*
X8709254Y5181700D01*
X7931498Y5181700D01*
X7873307Y5200607D01*
X7845188Y5236285D01*
X7843606Y5235438D01*
X7785318Y5344486D01*
X7748409Y5413538D01*
X7713378Y5456223D01*
X7623386Y5565879D01*
X7623377Y5565888D01*
X7471041Y5690907D01*
X7471039Y5690908D01*
X7471037Y5690910D01*
X7430117Y5712782D01*
X7297231Y5783812D01*
X7297229Y5783813D01*
X7238402Y5801658D01*
X7108631Y5841024D01*
X7108628Y5841025D01*
X7108625Y5841026D01*
X6912502Y5860341D01*
X6912496Y5860341D01*
X6716372Y5841026D01*
X6716369Y5841025D01*
X6633119Y5815771D01*
X6527772Y5783814D01*
X6527769Y5783813D01*
X6523119Y5782402D01*
X6522503Y5784431D01*
X6469840Y5780298D01*
X6422970Y5806553D01*
X5789523Y6440000D01*
X8515203Y6440000D01*
X9574998Y6440000D01*
X9574999Y6440001D01*
X10074999Y6440001D01*
X10075000Y6440000D01*
X11134794Y6440000D01*
X11134599Y6442487D01*
X11134597Y6442494D01*
X11088779Y6600201D01*
X11088779Y6600202D01*
X11005184Y6741553D01*
X10889051Y6857686D01*
X10747699Y6941281D01*
X10589988Y6987101D01*
X10553136Y6990000D01*
X10075000Y6990000D01*
X10074999Y6989999D01*
X10074999Y6440001D01*
X9574999Y6440001D01*
X9574999Y6989999D01*
X9574998Y6990000D01*
X9096862Y6990000D01*
X9060009Y6987101D01*
X8902298Y6941281D01*
X8902297Y6941281D01*
X8760946Y6857686D01*
X8644813Y6741553D01*
X8561218Y6600202D01*
X8561218Y6600201D01*
X8515400Y6442494D01*
X8515398Y6442487D01*
X8515203Y6440000D01*
X5789523Y6440000D01*
X4355694Y7873829D01*
X4327917Y7928346D01*
X4326698Y7943833D01*
X4326698Y9538813D01*
X4326698Y10939772D01*
X4345605Y10997960D01*
X4395105Y11033924D01*
X4456291Y11033924D01*
X4495702Y11009773D01*
X6060946Y9444529D01*
X6088723Y9390012D01*
X6083388Y9344899D01*
X6085097Y9344380D01*
X6083686Y9339730D01*
X6083685Y9339727D01*
X6066339Y9282545D01*
X6026474Y9151130D01*
X6026473Y9151127D01*
X6007158Y8955004D01*
X6007158Y8954997D01*
X6026473Y8758874D01*
X6026474Y8758871D01*
X6026475Y8758868D01*
X6080250Y8581595D01*
X6083686Y8570270D01*
X6083687Y8570268D01*
X6142029Y8461119D01*
X6176589Y8396462D01*
X6176591Y8396460D01*
X6176592Y8396458D01*
X6301611Y8244122D01*
X6301620Y8244113D01*
X6450051Y8122299D01*
X6453961Y8119090D01*
X6627772Y8026186D01*
X6816367Y7968976D01*
X6816369Y7968976D01*
X6816372Y7968975D01*
X7012496Y7949659D01*
X7012499Y7949659D01*
X7012502Y7949659D01*
X7208625Y7968975D01*
X7208626Y7968976D01*
X7208631Y7968976D01*
X7397226Y8026186D01*
X7571037Y8119090D01*
X7723382Y8244117D01*
X7848409Y8396462D01*
X7920674Y8531660D01*
X7943606Y8574562D01*
X7945483Y8573559D01*
X7979751Y8613699D01*
X8031498Y8628300D01*
X8724540Y8628300D01*
X8782731Y8609393D01*
X8812749Y8574245D01*
X8834446Y8531663D01*
X8834449Y8531658D01*
X8924157Y8441950D01*
X9037195Y8384354D01*
X9130980Y8369500D01*
X10519017Y8369501D01*
X10519020Y8369501D01*
X10519021Y8369502D01*
X10565910Y8376928D01*
X10612798Y8384353D01*
X10612798Y8384354D01*
X10612803Y8384354D01*
X10725841Y8441950D01*
X10815549Y8531658D01*
X10873145Y8644696D01*
X10887999Y8738481D01*
X10887998Y9101518D01*
X10884955Y9120733D01*
X10873146Y9195300D01*
X10873145Y9195302D01*
X10873145Y9195304D01*
X10815549Y9308342D01*
X10798653Y9325238D01*
X10770878Y9379752D01*
X10780449Y9440184D01*
X10818265Y9480453D01*
X10889052Y9522316D01*
X11005184Y9638448D01*
X11088779Y9779799D01*
X11088779Y9779800D01*
X11134597Y9937507D01*
X11134599Y9937514D01*
X11134795Y9940000D01*
X8515203Y9940000D01*
X8515398Y9937514D01*
X8515400Y9937507D01*
X8561218Y9779800D01*
X8561218Y9779799D01*
X8644813Y9638448D01*
X8760944Y9522317D01*
X8831733Y9480453D01*
X8872195Y9434557D01*
X8877954Y9373643D01*
X8851344Y9325238D01*
X8836806Y9310699D01*
X8782290Y9282919D01*
X8766800Y9281700D01*
X8031498Y9281700D01*
X7973307Y9300607D01*
X7945188Y9336285D01*
X7943606Y9335438D01*
X7888456Y9438615D01*
X7848409Y9513538D01*
X7848405Y9513543D01*
X7723386Y9665879D01*
X7723377Y9665888D01*
X7571041Y9790907D01*
X7571039Y9790908D01*
X7571037Y9790910D01*
X7530117Y9812782D01*
X7397231Y9883812D01*
X7397229Y9883813D01*
X7208628Y9941025D01*
X7208625Y9941026D01*
X7012502Y9960341D01*
X7012496Y9960341D01*
X6816372Y9941026D01*
X6816369Y9941025D01*
X6733119Y9915771D01*
X6627772Y9883814D01*
X6627769Y9883813D01*
X6623119Y9882402D01*
X6622503Y9884431D01*
X6569840Y9880298D01*
X6522970Y9906553D01*
X5989523Y10440000D01*
X8515203Y10440000D01*
X9574998Y10440000D01*
X9574999Y10440001D01*
X10074999Y10440001D01*
X10075000Y10440000D01*
X11134794Y10440000D01*
X11134599Y10442487D01*
X11134597Y10442494D01*
X11088779Y10600201D01*
X11088779Y10600202D01*
X11005184Y10741553D01*
X10889051Y10857686D01*
X10747699Y10941281D01*
X10589988Y10987101D01*
X10553136Y10990000D01*
X10075000Y10990000D01*
X10074999Y10989999D01*
X10074999Y10440001D01*
X9574999Y10440001D01*
X9574999Y10989999D01*
X9574998Y10990000D01*
X9096862Y10990000D01*
X9060009Y10987101D01*
X8902298Y10941281D01*
X8902297Y10941281D01*
X8760946Y10857686D01*
X8644813Y10741553D01*
X8561218Y10600202D01*
X8561218Y10600201D01*
X8515400Y10442494D01*
X8515398Y10442487D01*
X8515203Y10440000D01*
X5989523Y10440000D01*
X4702589Y11726934D01*
X4674812Y11781451D01*
X4673593Y11796938D01*
X4673593Y14492875D01*
X4692500Y14551066D01*
X4742000Y14587030D01*
X4803186Y14587030D01*
X4842596Y14562880D01*
X5465475Y13940000D01*
X6060946Y13344529D01*
X6088723Y13290012D01*
X6083388Y13244899D01*
X6085097Y13244380D01*
X6083686Y13239730D01*
X6083685Y13239727D01*
X6059208Y13159036D01*
X6026474Y13051130D01*
X6026473Y13051127D01*
X6007158Y12855004D01*
X6007158Y12854997D01*
X6026473Y12658874D01*
X6026474Y12658871D01*
X6026475Y12658868D01*
X6074878Y12499304D01*
X6083686Y12470270D01*
X6083687Y12470268D01*
X6139356Y12366120D01*
X6176589Y12296462D01*
X6176591Y12296460D01*
X6176592Y12296458D01*
X6301611Y12144122D01*
X6301620Y12144113D01*
X6399026Y12064174D01*
X6453961Y12019090D01*
X6627772Y11926186D01*
X6816367Y11868976D01*
X6816369Y11868976D01*
X6816372Y11868975D01*
X7012496Y11849659D01*
X7012499Y11849659D01*
X7012502Y11849659D01*
X7208625Y11868975D01*
X7208626Y11868976D01*
X7208631Y11868976D01*
X7397226Y11926186D01*
X7571037Y12019090D01*
X7723382Y12144117D01*
X7848409Y12296462D01*
X7930591Y12450214D01*
X7943606Y12474562D01*
X7945483Y12473559D01*
X7979751Y12513699D01*
X8031498Y12528300D01*
X8796799Y12528300D01*
X8854990Y12509393D01*
X8866802Y12499304D01*
X8895834Y12470273D01*
X8924157Y12441950D01*
X9037195Y12384354D01*
X9130980Y12369500D01*
X10519017Y12369501D01*
X10519020Y12369501D01*
X10519021Y12369502D01*
X10565910Y12376928D01*
X10612798Y12384353D01*
X10612798Y12384354D01*
X10612803Y12384354D01*
X10725841Y12441950D01*
X10815549Y12531658D01*
X10873145Y12644696D01*
X10887999Y12738481D01*
X10887998Y13101518D01*
X10885240Y13118932D01*
X10873146Y13195300D01*
X10873145Y13195302D01*
X10873145Y13195304D01*
X10815549Y13308342D01*
X10798653Y13325238D01*
X10770878Y13379752D01*
X10780449Y13440184D01*
X10818265Y13480453D01*
X10889052Y13522316D01*
X11005184Y13638448D01*
X11088779Y13779799D01*
X11088779Y13779800D01*
X11134597Y13937507D01*
X11134599Y13937514D01*
X11134795Y13940000D01*
X8515203Y13940000D01*
X8515398Y13937514D01*
X8515400Y13937507D01*
X8561218Y13779800D01*
X8561218Y13779799D01*
X8644813Y13638448D01*
X8760944Y13522317D01*
X8831733Y13480453D01*
X8872195Y13434557D01*
X8877954Y13373643D01*
X8851343Y13325237D01*
X8834451Y13308345D01*
X8834449Y13308342D01*
X8797463Y13235754D01*
X8754198Y13192490D01*
X8709254Y13181700D01*
X8031498Y13181700D01*
X7973307Y13200607D01*
X7945188Y13236285D01*
X7943606Y13235438D01*
X7866468Y13379752D01*
X7848409Y13413538D01*
X7843163Y13419930D01*
X7723386Y13565879D01*
X7723377Y13565888D01*
X7571041Y13690907D01*
X7571039Y13690908D01*
X7571037Y13690910D01*
X7530117Y13712782D01*
X7397231Y13783812D01*
X7397229Y13783813D01*
X7338402Y13801658D01*
X7208631Y13841024D01*
X7208628Y13841025D01*
X7208625Y13841026D01*
X7012502Y13860341D01*
X7012496Y13860341D01*
X6816372Y13841026D01*
X6816369Y13841025D01*
X6733119Y13815771D01*
X6627772Y13783814D01*
X6627769Y13783813D01*
X6623119Y13782402D01*
X6622503Y13784431D01*
X6569840Y13780298D01*
X6522970Y13806553D01*
X5889523Y14440000D01*
X8515203Y14440000D01*
X9574998Y14440000D01*
X9574999Y14440001D01*
X10074999Y14440001D01*
X10075000Y14440000D01*
X11134794Y14440000D01*
X11134599Y14442487D01*
X11134597Y14442494D01*
X11088779Y14600201D01*
X11088779Y14600202D01*
X11005184Y14741553D01*
X10889051Y14857686D01*
X10747699Y14941281D01*
X10589988Y14987101D01*
X10553136Y14990000D01*
X10075000Y14990000D01*
X10074999Y14989999D01*
X10074999Y14440001D01*
X9574999Y14440001D01*
X9574999Y14989999D01*
X9574998Y14990000D01*
X9096862Y14990000D01*
X9060009Y14987101D01*
X8902298Y14941281D01*
X8902297Y14941281D01*
X8760946Y14857686D01*
X8644813Y14741553D01*
X8561218Y14600202D01*
X8561218Y14600201D01*
X8515400Y14442494D01*
X8515398Y14442487D01*
X8515203Y14440000D01*
X5889523Y14440000D01*
X5007389Y15322134D01*
X4979612Y15376651D01*
X4978393Y15392138D01*
X4978393Y25695500D01*
X4997300Y25753691D01*
X5046800Y25789655D01*
X5077393Y25794500D01*
X5575672Y25794500D01*
X5575672Y25794501D01*
X5606098Y25797354D01*
X5734281Y25842207D01*
X5843549Y25922850D01*
X5924192Y26032118D01*
X5969045Y26160301D01*
X5971898Y26190727D01*
X5971899Y26190727D01*
X5971899Y26849274D01*
X5971898Y26849275D01*
X5969045Y26879699D01*
X5924192Y27007882D01*
X5924189Y27007886D01*
X5843553Y27117145D01*
X5843551Y27117147D01*
X5843549Y27117150D01*
X5843545Y27117153D01*
X5843543Y27117155D01*
X5739111Y27194229D01*
X5703518Y27243996D01*
X5698899Y27273884D01*
X5698899Y28263460D01*
X5717806Y28321651D01*
X5739106Y28343112D01*
X5847149Y28422850D01*
X5927792Y28532118D01*
X5972645Y28660301D01*
X5975498Y28690727D01*
X5975499Y28690727D01*
X5975499Y29349274D01*
X5975498Y29349275D01*
X5972645Y29379699D01*
X5927792Y29507882D01*
X5920384Y29517919D01*
X5847153Y29617145D01*
X5847151Y29617147D01*
X5847149Y29617150D01*
X5847145Y29617153D01*
X5847143Y29617155D01*
X5742711Y29694229D01*
X5707118Y29743996D01*
X5702499Y29773884D01*
X5702499Y30897828D01*
X6229499Y30897828D01*
X6229500Y30897816D01*
X6244032Y30824764D01*
X6244034Y30824758D01*
X6299396Y30741901D01*
X6299399Y30741898D01*
X6345029Y30711410D01*
X6382259Y30686534D01*
X6437807Y30675485D01*
X6455314Y30672002D01*
X6455319Y30672002D01*
X6455325Y30672000D01*
X6455326Y30672000D01*
X6909537Y30672000D01*
X6909536Y30668401D01*
X6954885Y30661012D01*
X6991866Y30628003D01*
X6994033Y30624760D01*
X7049315Y30542023D01*
X7065999Y30487023D01*
X7065999Y24925546D01*
X7049315Y24870545D01*
X7011866Y24814498D01*
X6963816Y24776618D01*
X6929537Y24771847D01*
X6929537Y24770500D01*
X6924673Y24770500D01*
X6475325Y24770500D01*
X6475324Y24770500D01*
X6475314Y24770499D01*
X6402262Y24755967D01*
X6402256Y24755965D01*
X6319399Y24700603D01*
X6319396Y24700600D01*
X6264034Y24617743D01*
X6264032Y24617737D01*
X6249500Y24544685D01*
X6249499Y24544673D01*
X6249499Y23545328D01*
X6249500Y23545316D01*
X6264032Y23472264D01*
X6264034Y23472258D01*
X6319396Y23389401D01*
X6319399Y23389398D01*
X6364620Y23359183D01*
X6402259Y23334034D01*
X6457807Y23322985D01*
X6475314Y23319502D01*
X6475319Y23319502D01*
X6475325Y23319500D01*
X6475326Y23319500D01*
X6924672Y23319500D01*
X6924673Y23319500D01*
X6997739Y23334034D01*
X7080600Y23389399D01*
X7135965Y23472260D01*
X7150499Y23545326D01*
X7150499Y23570501D01*
X7169406Y23628691D01*
X7218906Y23664655D01*
X7249499Y23669500D01*
X7574672Y23669500D01*
X7574673Y23669500D01*
X7647739Y23684034D01*
X7647745Y23684039D01*
X7656751Y23687767D01*
X7657585Y23685752D01*
X7703879Y23698811D01*
X7742609Y23686227D01*
X7743247Y23687767D01*
X7752254Y23684038D01*
X7752259Y23684034D01*
X7807807Y23672985D01*
X7825314Y23669502D01*
X7825319Y23669502D01*
X7825325Y23669500D01*
X7825326Y23669500D01*
X7891815Y23669500D01*
X7950006Y23650593D01*
X7985970Y23601093D01*
X7985970Y23539907D01*
X7966634Y23505669D01*
X7871223Y23395560D01*
X7810956Y23263594D01*
X7810955Y23263592D01*
X7803166Y23209411D01*
X7776170Y23154504D01*
X7722056Y23125950D01*
X7705174Y23124500D01*
X7627459Y23124500D01*
X7488269Y23083630D01*
X7488266Y23083629D01*
X7366225Y23005197D01*
X7366223Y23005195D01*
X7271223Y22895560D01*
X7271222Y22895559D01*
X7271222Y22895558D01*
X7267811Y22888089D01*
X7210956Y22763594D01*
X7210955Y22763591D01*
X7190311Y22620003D01*
X7190311Y22619998D01*
X7210955Y22476410D01*
X7210956Y22476407D01*
X7210956Y22476406D01*
X7210957Y22476404D01*
X7271222Y22344442D01*
X7271223Y22344441D01*
X7361818Y22239889D01*
X7385636Y22183530D01*
X7385999Y22175058D01*
X7385999Y22005478D01*
X7369315Y21950477D01*
X7314034Y21867743D01*
X7314032Y21867737D01*
X7299500Y21794685D01*
X7299499Y21794673D01*
X7299499Y21095328D01*
X7299500Y21095316D01*
X7314032Y21022264D01*
X7314034Y21022258D01*
X7369396Y20939401D01*
X7369398Y20939399D01*
X7452259Y20884034D01*
X7507807Y20872985D01*
X7525314Y20869502D01*
X7525319Y20869502D01*
X7525325Y20869500D01*
X7525326Y20869500D01*
X7874672Y20869500D01*
X7874673Y20869500D01*
X7947739Y20884034D01*
X7947745Y20884039D01*
X7956751Y20887767D01*
X7957585Y20885752D01*
X8003879Y20898811D01*
X8042609Y20886227D01*
X8043247Y20887767D01*
X8052254Y20884038D01*
X8052259Y20884034D01*
X8107807Y20872985D01*
X8125314Y20869502D01*
X8125319Y20869502D01*
X8125325Y20869500D01*
X8125326Y20869500D01*
X8474672Y20869500D01*
X8474673Y20869500D01*
X8547739Y20884034D01*
X8547745Y20884039D01*
X8556751Y20887767D01*
X8557585Y20885752D01*
X8603879Y20898811D01*
X8642609Y20886227D01*
X8643247Y20887767D01*
X8652254Y20884038D01*
X8652259Y20884034D01*
X8707807Y20872985D01*
X8725314Y20869502D01*
X8725319Y20869502D01*
X8725325Y20869500D01*
X8725326Y20869500D01*
X9074672Y20869500D01*
X9074673Y20869500D01*
X9147739Y20884034D01*
X9147745Y20884039D01*
X9156751Y20887767D01*
X9157585Y20885752D01*
X9203879Y20898811D01*
X9242609Y20886227D01*
X9243247Y20887767D01*
X9252254Y20884038D01*
X9252259Y20884034D01*
X9307807Y20872985D01*
X9325314Y20869502D01*
X9325319Y20869502D01*
X9325325Y20869500D01*
X9325326Y20869500D01*
X9674672Y20869500D01*
X9674673Y20869500D01*
X9747739Y20884034D01*
X9747745Y20884039D01*
X9756751Y20887767D01*
X9757585Y20885752D01*
X9803879Y20898811D01*
X9842609Y20886227D01*
X9843247Y20887767D01*
X9852254Y20884038D01*
X9852259Y20884034D01*
X9907807Y20872985D01*
X9925314Y20869502D01*
X9925319Y20869502D01*
X9925325Y20869500D01*
X9925326Y20869500D01*
X10274672Y20869500D01*
X10274673Y20869500D01*
X10347739Y20884034D01*
X10347745Y20884039D01*
X10356751Y20887767D01*
X10357585Y20885752D01*
X10403879Y20898811D01*
X10442609Y20886227D01*
X10443247Y20887767D01*
X10452254Y20884038D01*
X10452259Y20884034D01*
X10507807Y20872985D01*
X10525314Y20869502D01*
X10525319Y20869502D01*
X10525325Y20869500D01*
X10525326Y20869500D01*
X10874672Y20869500D01*
X10874673Y20869500D01*
X10947739Y20884034D01*
X10947745Y20884039D01*
X10956751Y20887767D01*
X10957585Y20885752D01*
X11003879Y20898811D01*
X11042609Y20886227D01*
X11043247Y20887767D01*
X11052254Y20884038D01*
X11052259Y20884034D01*
X11107807Y20872985D01*
X11125314Y20869502D01*
X11125319Y20869502D01*
X11125325Y20869500D01*
X11125326Y20869500D01*
X11474672Y20869500D01*
X11474673Y20869500D01*
X11547739Y20884034D01*
X11547745Y20884039D01*
X11556751Y20887767D01*
X11557585Y20885752D01*
X11603879Y20898811D01*
X11642609Y20886227D01*
X11643247Y20887767D01*
X11652254Y20884038D01*
X11652259Y20884034D01*
X11707807Y20872985D01*
X11725314Y20869502D01*
X11725319Y20869502D01*
X11725325Y20869500D01*
X11725326Y20869500D01*
X12074672Y20869500D01*
X12074673Y20869500D01*
X12147739Y20884034D01*
X12147745Y20884039D01*
X12156751Y20887767D01*
X12157585Y20885752D01*
X12203879Y20898811D01*
X12242609Y20886227D01*
X12243247Y20887767D01*
X12252254Y20884038D01*
X12252259Y20884034D01*
X12307807Y20872985D01*
X12325314Y20869502D01*
X12325319Y20869502D01*
X12325325Y20869500D01*
X12325326Y20869500D01*
X12674672Y20869500D01*
X12674673Y20869500D01*
X12747739Y20884034D01*
X12747745Y20884039D01*
X12756751Y20887767D01*
X12757585Y20885752D01*
X12803879Y20898811D01*
X12842609Y20886227D01*
X12843247Y20887767D01*
X12852254Y20884038D01*
X12852259Y20884034D01*
X12907807Y20872985D01*
X12925314Y20869502D01*
X12925319Y20869502D01*
X12925325Y20869500D01*
X12925326Y20869500D01*
X13274672Y20869500D01*
X13274673Y20869500D01*
X13347739Y20884034D01*
X13347745Y20884039D01*
X13356751Y20887767D01*
X13357585Y20885752D01*
X13403879Y20898811D01*
X13442609Y20886227D01*
X13443247Y20887767D01*
X13452254Y20884038D01*
X13452259Y20884034D01*
X13507807Y20872985D01*
X13525314Y20869502D01*
X13525319Y20869502D01*
X13525325Y20869500D01*
X13525326Y20869500D01*
X13874672Y20869500D01*
X13874673Y20869500D01*
X13947739Y20884034D01*
X13947745Y20884039D01*
X13956751Y20887767D01*
X13957585Y20885752D01*
X14003879Y20898811D01*
X14042609Y20886227D01*
X14043247Y20887767D01*
X14052254Y20884038D01*
X14052259Y20884034D01*
X14107807Y20872985D01*
X14125314Y20869502D01*
X14125319Y20869502D01*
X14125325Y20869500D01*
X14125326Y20869500D01*
X14474672Y20869500D01*
X14474673Y20869500D01*
X14547739Y20884034D01*
X14547745Y20884039D01*
X14556751Y20887767D01*
X14557585Y20885752D01*
X14603879Y20898811D01*
X14642609Y20886227D01*
X14643247Y20887767D01*
X14652254Y20884038D01*
X14652259Y20884034D01*
X14707807Y20872985D01*
X14725314Y20869502D01*
X14725319Y20869502D01*
X14725325Y20869500D01*
X14725326Y20869500D01*
X15074672Y20869500D01*
X15074673Y20869500D01*
X15147739Y20884034D01*
X15147745Y20884039D01*
X15156751Y20887767D01*
X15157585Y20885752D01*
X15203879Y20898811D01*
X15242609Y20886227D01*
X15243247Y20887767D01*
X15252254Y20884038D01*
X15252259Y20884034D01*
X15307807Y20872985D01*
X15325314Y20869502D01*
X15325319Y20869502D01*
X15325325Y20869500D01*
X15325326Y20869500D01*
X15674672Y20869500D01*
X15674673Y20869500D01*
X15747739Y20884034D01*
X15747745Y20884039D01*
X15756751Y20887767D01*
X15757585Y20885752D01*
X15803879Y20898811D01*
X15842609Y20886227D01*
X15843247Y20887767D01*
X15852254Y20884038D01*
X15852259Y20884034D01*
X15907807Y20872985D01*
X15925314Y20869502D01*
X15925319Y20869502D01*
X15925325Y20869500D01*
X15925326Y20869500D01*
X16223499Y20869500D01*
X16281690Y20850593D01*
X16317654Y20801093D01*
X16322499Y20770500D01*
X16322498Y16652374D01*
X16303591Y16594183D01*
X16293502Y16582371D01*
X16172629Y16461497D01*
X16118112Y16433719D01*
X16102625Y16432500D01*
X15549417Y16432500D01*
X15529102Y16434607D01*
X15515815Y16437393D01*
X15479606Y16432880D01*
X15473483Y16432500D01*
X15468713Y16432500D01*
X15446591Y16428809D01*
X15444569Y16428514D01*
X15390801Y16421811D01*
X15390798Y16421811D01*
X15390796Y16421810D01*
X15390793Y16421809D01*
X15383212Y16419552D01*
X15375730Y16416983D01*
X15328098Y16391207D01*
X15326280Y16390271D01*
X15277611Y16366478D01*
X15271170Y16361879D01*
X15264928Y16357021D01*
X15228250Y16317180D01*
X15226835Y16315704D01*
X14268005Y15356874D01*
X14252152Y15344001D01*
X14240793Y15336580D01*
X14240789Y15336576D01*
X14218380Y15307787D01*
X14214321Y15303189D01*
X14210950Y15299819D01*
X14210943Y15299810D01*
X14197894Y15281535D01*
X14196673Y15279898D01*
X14163407Y15237157D01*
X14159646Y15230207D01*
X14156167Y15223090D01*
X14140711Y15171177D01*
X14140087Y15169230D01*
X14122498Y15117996D01*
X14121197Y15110195D01*
X14120218Y15102341D01*
X14120218Y15102340D01*
X14122457Y15048196D01*
X14122499Y15046183D01*
X14122499Y13704419D01*
X14120392Y13684105D01*
X14117606Y13670816D01*
X14121509Y13639500D01*
X14122119Y13634612D01*
X14122499Y13628484D01*
X14122499Y13623721D01*
X14126191Y13601589D01*
X14126485Y13599567D01*
X14133187Y13545802D01*
X14135445Y13538217D01*
X14138016Y13530729D01*
X14163803Y13483080D01*
X14164732Y13481275D01*
X14171812Y13466793D01*
X14188521Y13432614D01*
X14193133Y13426155D01*
X14197978Y13419930D01*
X14237829Y13383243D01*
X14239305Y13381827D01*
X14596129Y13025004D01*
X14623906Y12970487D01*
X14614335Y12910055D01*
X14596128Y12884996D01*
X14268006Y12556875D01*
X14252156Y12544003D01*
X14240792Y12536578D01*
X14240789Y12536575D01*
X14218384Y12507790D01*
X14214324Y12503193D01*
X14210953Y12499822D01*
X14210943Y12499810D01*
X14197894Y12481535D01*
X14196673Y12479898D01*
X14163407Y12437157D01*
X14159646Y12430207D01*
X14156167Y12423090D01*
X14140711Y12371177D01*
X14140087Y12369230D01*
X14122498Y12317996D01*
X14121197Y12310195D01*
X14120218Y12302338D01*
X14122456Y12248228D01*
X14122498Y12246183D01*
X14122499Y9604419D01*
X14120392Y9584105D01*
X14118150Y9573410D01*
X14117606Y9570816D01*
X14119513Y9555514D01*
X14122119Y9534612D01*
X14122499Y9528484D01*
X14122499Y9523719D01*
X14122918Y9521207D01*
X14126191Y9501589D01*
X14126485Y9499567D01*
X14133187Y9445802D01*
X14135445Y9438217D01*
X14138016Y9430729D01*
X14163803Y9383080D01*
X14164732Y9381275D01*
X14174430Y9361437D01*
X14188521Y9332614D01*
X14193130Y9326159D01*
X14197980Y9319927D01*
X14237831Y9283243D01*
X14239307Y9281826D01*
X14496129Y9025005D01*
X14523906Y8970488D01*
X14514335Y8910056D01*
X14496128Y8884997D01*
X14268004Y8656874D01*
X14252152Y8644001D01*
X14240793Y8636580D01*
X14240789Y8636576D01*
X14218380Y8607787D01*
X14214321Y8603189D01*
X14210950Y8599819D01*
X14210943Y8599810D01*
X14197894Y8581535D01*
X14196673Y8579898D01*
X14163407Y8537157D01*
X14159646Y8530207D01*
X14156167Y8523090D01*
X14140711Y8471177D01*
X14140087Y8469230D01*
X14122498Y8417996D01*
X14121197Y8410195D01*
X14120218Y8402338D01*
X14122456Y8348228D01*
X14122498Y8346183D01*
X14122499Y5404419D01*
X14120392Y5384105D01*
X14118199Y5373643D01*
X14117606Y5370816D01*
X14120963Y5343881D01*
X14122119Y5334612D01*
X14122499Y5328484D01*
X14122499Y5323721D01*
X14126191Y5301589D01*
X14126485Y5299567D01*
X14133187Y5245802D01*
X14135445Y5238217D01*
X14138016Y5230729D01*
X14163803Y5183080D01*
X14164740Y5181260D01*
X14188521Y5132614D01*
X14193130Y5126159D01*
X14197977Y5119932D01*
X14197979Y5119929D01*
X14217979Y5101518D01*
X14237843Y5083232D01*
X14239319Y5081815D01*
X14598122Y4723011D01*
X14610996Y4707158D01*
X14618423Y4695791D01*
X14647212Y4673384D01*
X14651810Y4669323D01*
X14655185Y4665948D01*
X14673464Y4652897D01*
X14675102Y4651675D01*
X14717843Y4618408D01*
X14724805Y4614641D01*
X14731906Y4611170D01*
X14731908Y4611170D01*
X14731910Y4611168D01*
X14783827Y4595712D01*
X14785761Y4595092D01*
X14803596Y4588970D01*
X14837005Y4577500D01*
X14837007Y4577500D01*
X14844786Y4576202D01*
X14852653Y4575222D01*
X14852659Y4575220D01*
X14906789Y4577459D01*
X14908801Y4577500D01*
X15125700Y4577500D01*
X15183891Y4558593D01*
X15205793Y4536690D01*
X15209446Y4531662D01*
X15209447Y4531661D01*
X15209449Y4531658D01*
X15299157Y4441950D01*
X15412195Y4384354D01*
X15505980Y4369500D01*
X16894017Y4369501D01*
X16894020Y4369501D01*
X16894021Y4369502D01*
X16940909Y4376928D01*
X16987798Y4384353D01*
X16987798Y4384354D01*
X16987803Y4384354D01*
X17100841Y4441950D01*
X17190549Y4531658D01*
X17248145Y4644696D01*
X17262999Y4738481D01*
X17262998Y5101518D01*
X17250369Y5181260D01*
X17248146Y5195300D01*
X17248145Y5195302D01*
X17248145Y5195304D01*
X17190549Y5308342D01*
X17100841Y5398050D01*
X16987803Y5455646D01*
X16987804Y5455646D01*
X16982291Y5456519D01*
X16927774Y5484297D01*
X16899997Y5538813D01*
X16909569Y5599245D01*
X16952833Y5642510D01*
X16997778Y5653300D01*
X17587544Y5653300D01*
X17645735Y5634393D01*
X17680302Y5588897D01*
X17729786Y5456223D01*
X17813431Y5344487D01*
X17813883Y5343884D01*
X17813886Y5343882D01*
X17813887Y5343881D01*
X17926222Y5259787D01*
X18057694Y5210751D01*
X18057695Y5210751D01*
X18057700Y5210749D01*
X18115825Y5204500D01*
X18115829Y5204500D01*
X18684169Y5204500D01*
X18684173Y5204500D01*
X18742298Y5210749D01*
X18819991Y5239727D01*
X18873775Y5259787D01*
X18873775Y5259788D01*
X18873777Y5259788D01*
X18986115Y5343884D01*
X19070211Y5456222D01*
X19075537Y5470500D01*
X19119248Y5587696D01*
X19119247Y5587696D01*
X19119250Y5587701D01*
X19125499Y5645826D01*
X19125499Y6226317D01*
X25645739Y6226317D01*
X25655754Y6041593D01*
X25705245Y5863341D01*
X25705246Y5863339D01*
X25705249Y5863333D01*
X25791898Y5699897D01*
X25791899Y5699896D01*
X25911660Y5558902D01*
X25911665Y5558897D01*
X26058931Y5446948D01*
X26058933Y5446947D01*
X26058934Y5446947D01*
X26058935Y5446946D01*
X26226832Y5369268D01*
X26407502Y5329500D01*
X26407506Y5329500D01*
X27346111Y5329500D01*
X27346112Y5329500D01*
X27483909Y5344486D01*
X27659220Y5403556D01*
X27790212Y5482370D01*
X27817732Y5498928D01*
X27817732Y5498929D01*
X27817735Y5498930D01*
X27952040Y5626151D01*
X28055857Y5779270D01*
X28124330Y5951125D01*
X28154259Y6133683D01*
X28144244Y6318407D01*
X28094753Y6496659D01*
X28008099Y6660104D01*
X27888336Y6801100D01*
X27888332Y6801104D01*
X27741066Y6913053D01*
X27741064Y6913054D01*
X27573169Y6990731D01*
X27573167Y6990732D01*
X27537032Y6998686D01*
X27392496Y7030500D01*
X26453886Y7030500D01*
X26316089Y7015514D01*
X26257019Y6995612D01*
X26140779Y6956445D01*
X26140776Y6956444D01*
X25982265Y6861073D01*
X25982261Y6861069D01*
X25847959Y6733851D01*
X25744141Y6580733D01*
X25675668Y6408876D01*
X25669476Y6371103D01*
X25645739Y6226317D01*
X19125499Y6226317D01*
X19125499Y6314174D01*
X19119250Y6372299D01*
X19093999Y6440001D01*
X19070212Y6503777D01*
X18986118Y6616112D01*
X18986117Y6616113D01*
X18986115Y6616116D01*
X18986110Y6616120D01*
X18873775Y6700214D01*
X18742303Y6749250D01*
X18742298Y6749251D01*
X18742296Y6749252D01*
X18742292Y6749252D01*
X18716010Y6752078D01*
X18684173Y6755500D01*
X18115825Y6755500D01*
X18087822Y6752490D01*
X18057705Y6749252D01*
X18057694Y6749250D01*
X17926222Y6700214D01*
X17813887Y6616120D01*
X17813879Y6616112D01*
X17729786Y6503778D01*
X17680302Y6371103D01*
X17642252Y6323189D01*
X17587544Y6306700D01*
X17357819Y6306700D01*
X17299628Y6325607D01*
X17263664Y6375107D01*
X17260038Y6390214D01*
X17248146Y6465301D01*
X17248145Y6465303D01*
X17248145Y6465304D01*
X17190549Y6578342D01*
X17100841Y6668050D01*
X16987803Y6725646D01*
X16987804Y6725646D01*
X16894020Y6740500D01*
X15505977Y6740500D01*
X15505975Y6740499D01*
X15412199Y6725648D01*
X15412194Y6725646D01*
X15299158Y6668051D01*
X15209448Y6578341D01*
X15151853Y6465305D01*
X15136999Y6371523D01*
X15136999Y6008480D01*
X15137000Y6008477D01*
X15151851Y5914701D01*
X15151853Y5914696D01*
X15209449Y5801658D01*
X15299157Y5711950D01*
X15412195Y5654354D01*
X15422124Y5652782D01*
X15476639Y5625007D01*
X15504418Y5570491D01*
X15494848Y5510059D01*
X15451585Y5466793D01*
X15422127Y5457220D01*
X15412197Y5455647D01*
X15412194Y5455646D01*
X15299157Y5398050D01*
X15299155Y5398049D01*
X15262602Y5361496D01*
X15208085Y5333719D01*
X15192599Y5332500D01*
X15097373Y5332500D01*
X15039182Y5351407D01*
X15027369Y5361496D01*
X14906495Y5482370D01*
X14878718Y5536887D01*
X14877499Y5552374D01*
X14877499Y6801104D01*
X14877499Y8157633D01*
X14896405Y8215820D01*
X14906476Y8227614D01*
X15139984Y8461122D01*
X15194497Y8488896D01*
X15254929Y8479325D01*
X15279986Y8461120D01*
X15290893Y8450214D01*
X15299157Y8441950D01*
X15412195Y8384354D01*
X15505980Y8369500D01*
X16894017Y8369501D01*
X16894020Y8369501D01*
X16894021Y8369502D01*
X16940909Y8376928D01*
X16987798Y8384353D01*
X16987798Y8384354D01*
X16987803Y8384354D01*
X17100841Y8441950D01*
X17190549Y8531658D01*
X17248145Y8644696D01*
X17262999Y8738481D01*
X17262998Y9101518D01*
X17259955Y9120733D01*
X17248146Y9195300D01*
X17248145Y9195302D01*
X17248145Y9195304D01*
X17190549Y9308342D01*
X17100841Y9398050D01*
X16987803Y9455646D01*
X16987804Y9455646D01*
X16982291Y9456519D01*
X16927774Y9484297D01*
X16899997Y9538813D01*
X16909569Y9599245D01*
X16952833Y9642510D01*
X16997778Y9653300D01*
X17587544Y9653300D01*
X17645735Y9634393D01*
X17680302Y9588897D01*
X17729786Y9456223D01*
X17813511Y9344380D01*
X17813883Y9343884D01*
X17813886Y9343882D01*
X17813887Y9343881D01*
X17926222Y9259787D01*
X18057694Y9210751D01*
X18057695Y9210751D01*
X18057700Y9210749D01*
X18115825Y9204500D01*
X18115829Y9204500D01*
X18684169Y9204500D01*
X18684173Y9204500D01*
X18742298Y9210749D01*
X18787947Y9227776D01*
X18873775Y9259787D01*
X18873775Y9259788D01*
X18873777Y9259788D01*
X18986115Y9343884D01*
X19070211Y9456222D01*
X19075537Y9470500D01*
X19113920Y9573410D01*
X19119250Y9587701D01*
X19125499Y9645826D01*
X19125499Y10314174D01*
X19119250Y10372299D01*
X19105375Y10409500D01*
X19070212Y10503777D01*
X18986118Y10616112D01*
X18986117Y10616113D01*
X18986115Y10616116D01*
X18986110Y10616120D01*
X18873775Y10700214D01*
X18742303Y10749250D01*
X18742298Y10749251D01*
X18742296Y10749252D01*
X18742292Y10749252D01*
X18716010Y10752078D01*
X18684173Y10755500D01*
X18115825Y10755500D01*
X18087822Y10752490D01*
X18057705Y10749252D01*
X18057694Y10749250D01*
X17926222Y10700214D01*
X17813887Y10616120D01*
X17813879Y10616112D01*
X17729786Y10503778D01*
X17680302Y10371103D01*
X17642252Y10323189D01*
X17587544Y10306700D01*
X17357819Y10306700D01*
X17299628Y10325607D01*
X17263664Y10375107D01*
X17260038Y10390214D01*
X17248146Y10465301D01*
X17248145Y10465303D01*
X17248145Y10465304D01*
X17190549Y10578342D01*
X17100841Y10668050D01*
X16987803Y10725646D01*
X16987804Y10725646D01*
X16894020Y10740500D01*
X15505977Y10740500D01*
X15505975Y10740499D01*
X15412199Y10725648D01*
X15412194Y10725646D01*
X15299158Y10668051D01*
X15209448Y10578341D01*
X15151853Y10465305D01*
X15136999Y10371523D01*
X15136999Y10008480D01*
X15137000Y10008477D01*
X15151851Y9914701D01*
X15151853Y9914696D01*
X15209449Y9801658D01*
X15299157Y9711950D01*
X15412195Y9654354D01*
X15422124Y9652782D01*
X15476639Y9625007D01*
X15504418Y9570491D01*
X15494848Y9510059D01*
X15451585Y9466793D01*
X15422127Y9457220D01*
X15412197Y9455647D01*
X15412194Y9455646D01*
X15363293Y9430729D01*
X15299157Y9398050D01*
X15299156Y9398050D01*
X15292216Y9394513D01*
X15290673Y9397541D01*
X15246468Y9383252D01*
X15188307Y9402249D01*
X15176617Y9412248D01*
X14906494Y9682371D01*
X14878717Y9736888D01*
X14877499Y9752363D01*
X14877499Y12057629D01*
X14896406Y12115820D01*
X14906489Y12127626D01*
X15196398Y12417536D01*
X15250913Y12445312D01*
X15311341Y12435742D01*
X15412195Y12384354D01*
X15505980Y12369500D01*
X16894017Y12369501D01*
X16894020Y12369501D01*
X16894021Y12369502D01*
X16940909Y12376928D01*
X16987798Y12384353D01*
X16987798Y12384354D01*
X16987803Y12384354D01*
X17100841Y12441950D01*
X17190549Y12531658D01*
X17248145Y12644696D01*
X17262999Y12738481D01*
X17262998Y13101518D01*
X17260240Y13118932D01*
X17248146Y13195300D01*
X17248145Y13195302D01*
X17248145Y13195304D01*
X17190549Y13308342D01*
X17100841Y13398050D01*
X16987803Y13455646D01*
X16987805Y13455646D01*
X16977871Y13457219D01*
X16923355Y13484998D01*
X16895579Y13539515D01*
X16905151Y13599947D01*
X16948416Y13643210D01*
X16977875Y13652782D01*
X16987803Y13654354D01*
X17100841Y13711950D01*
X17190549Y13801658D01*
X17194415Y13809247D01*
X17237679Y13852510D01*
X17282624Y13863300D01*
X17388667Y13863300D01*
X17446858Y13844393D01*
X17458671Y13834304D01*
X17645502Y13647473D01*
X17673279Y13592956D01*
X17674498Y13577470D01*
X17674498Y13445830D01*
X17680747Y13387707D01*
X17680749Y13387696D01*
X17729785Y13256224D01*
X17787670Y13178900D01*
X17813883Y13143884D01*
X17813886Y13143882D01*
X17813887Y13143881D01*
X17926222Y13059787D01*
X18057694Y13010751D01*
X18057695Y13010751D01*
X18057700Y13010749D01*
X18115825Y13004500D01*
X18115829Y13004500D01*
X18684169Y13004500D01*
X18684173Y13004500D01*
X18742298Y13010749D01*
X18850564Y13051130D01*
X18873775Y13059787D01*
X18873775Y13059788D01*
X18873777Y13059788D01*
X18986115Y13143884D01*
X19070211Y13256222D01*
X19093961Y13319897D01*
X19117059Y13381827D01*
X19119250Y13387701D01*
X19125499Y13445826D01*
X19125499Y14114174D01*
X19119250Y14172299D01*
X19119248Y14172305D01*
X19070212Y14303777D01*
X18986118Y14416112D01*
X18986117Y14416113D01*
X18986115Y14416116D01*
X18979459Y14421099D01*
X18873775Y14500214D01*
X18742303Y14549250D01*
X18742298Y14549251D01*
X18742296Y14549252D01*
X18742292Y14549252D01*
X18716010Y14552078D01*
X18684173Y14555500D01*
X18115825Y14555500D01*
X18087822Y14552490D01*
X18057705Y14549252D01*
X18057694Y14549250D01*
X17926222Y14500214D01*
X17871763Y14459446D01*
X17813848Y14439710D01*
X17762937Y14452963D01*
X17742579Y14464716D01*
X17738935Y14467037D01*
X17705199Y14490658D01*
X17705200Y14490658D01*
X17705198Y14490659D01*
X17705195Y14490660D01*
X17703683Y14491065D01*
X17679815Y14500952D01*
X17678460Y14501735D01*
X17637911Y14508884D01*
X17633693Y14509819D01*
X17629927Y14510829D01*
X17593913Y14520478D01*
X17593911Y14520478D01*
X17585935Y14519780D01*
X17552873Y14516888D01*
X17548573Y14516700D01*
X17282624Y14516700D01*
X17224433Y14535607D01*
X17194415Y14570754D01*
X17191516Y14576444D01*
X17190549Y14578342D01*
X17100841Y14668050D01*
X16987803Y14725646D01*
X16987804Y14725646D01*
X16894020Y14740500D01*
X15505977Y14740500D01*
X15505975Y14740499D01*
X15412199Y14725648D01*
X15412194Y14725646D01*
X15299158Y14668051D01*
X15209448Y14578341D01*
X15151853Y14465305D01*
X15136999Y14371523D01*
X15136999Y14008480D01*
X15137000Y14008477D01*
X15151851Y13914701D01*
X15151853Y13914696D01*
X15209449Y13801658D01*
X15299157Y13711950D01*
X15412195Y13654354D01*
X15422124Y13652782D01*
X15476639Y13625007D01*
X15504418Y13570491D01*
X15494848Y13510059D01*
X15451585Y13466793D01*
X15422127Y13457220D01*
X15412197Y13455647D01*
X15412193Y13455646D01*
X15357716Y13427889D01*
X15297284Y13418318D01*
X15242770Y13446094D01*
X14906491Y13782373D01*
X14878717Y13836886D01*
X14877498Y13852361D01*
X14877498Y14857629D01*
X14896405Y14915819D01*
X14906495Y14927632D01*
X15627369Y15648504D01*
X15681885Y15676281D01*
X15697372Y15677500D01*
X16250581Y15677500D01*
X16270895Y15675394D01*
X16284183Y15672607D01*
X16320391Y15677121D01*
X16326515Y15677500D01*
X16331283Y15677500D01*
X16338369Y15678684D01*
X16353452Y15681201D01*
X16355397Y15681484D01*
X16409202Y15688190D01*
X16409206Y15688193D01*
X16416776Y15690446D01*
X16424260Y15693016D01*
X16424268Y15693017D01*
X16471965Y15718831D01*
X16473680Y15719714D01*
X16522388Y15743524D01*
X16522391Y15743528D01*
X16528831Y15748126D01*
X16535065Y15752978D01*
X16535070Y15752980D01*
X16571772Y15792852D01*
X16573162Y15794300D01*
X16931993Y16153130D01*
X16947838Y16165997D01*
X16959208Y16173424D01*
X16981620Y16202221D01*
X16985669Y16206806D01*
X16989051Y16210186D01*
X17002111Y16228479D01*
X17003307Y16230084D01*
X17036591Y16272845D01*
X17036593Y16272850D01*
X17040343Y16279779D01*
X17043831Y16286912D01*
X17046829Y16296982D01*
X17059291Y16338844D01*
X17059907Y16340765D01*
X17077499Y16392006D01*
X17077499Y16392011D01*
X17078797Y16399788D01*
X17079777Y16407655D01*
X17079779Y16407660D01*
X17077538Y16461841D01*
X17077499Y16463755D01*
X17077499Y20770500D01*
X17096406Y20828691D01*
X17145906Y20864655D01*
X17176499Y20869500D01*
X17474672Y20869500D01*
X17474673Y20869500D01*
X17547739Y20884034D01*
X17547745Y20884039D01*
X17556751Y20887767D01*
X17557585Y20885752D01*
X17603879Y20898811D01*
X17642609Y20886227D01*
X17643247Y20887767D01*
X17652254Y20884038D01*
X17652259Y20884034D01*
X17707807Y20872985D01*
X17725314Y20869502D01*
X17725319Y20869502D01*
X17725325Y20869500D01*
X17725326Y20869500D01*
X18023499Y20869500D01*
X18081690Y20850593D01*
X18117654Y20801093D01*
X18122499Y20770500D01*
X18122499Y16392157D01*
X18103592Y16333966D01*
X18058096Y16299399D01*
X17926221Y16250213D01*
X17813887Y16166120D01*
X17813879Y16166112D01*
X17729785Y16053777D01*
X17680749Y15922305D01*
X17680747Y15922294D01*
X17674499Y15864171D01*
X17674499Y15195830D01*
X17674498Y15195830D01*
X17680747Y15137707D01*
X17680749Y15137696D01*
X17729785Y15006224D01*
X17810326Y14898635D01*
X17813883Y14893884D01*
X17813886Y14893882D01*
X17813887Y14893881D01*
X17926222Y14809787D01*
X18057694Y14760751D01*
X18057695Y14760751D01*
X18057700Y14760749D01*
X18115825Y14754500D01*
X18115829Y14754500D01*
X18684169Y14754500D01*
X18684173Y14754500D01*
X18742298Y14760749D01*
X18799738Y14782173D01*
X18873775Y14809787D01*
X18873775Y14809788D01*
X18873777Y14809788D01*
X18986115Y14893884D01*
X19070211Y15006222D01*
X19119250Y15137701D01*
X19125499Y15195826D01*
X19125499Y15864174D01*
X19119250Y15922299D01*
X19112920Y15939270D01*
X19070212Y16053777D01*
X18986118Y16166112D01*
X18986117Y16166113D01*
X18986115Y16166116D01*
X18963454Y16183080D01*
X18917169Y16217729D01*
X18881916Y16267737D01*
X18877498Y16296982D01*
X18877499Y20770500D01*
X18896406Y20828691D01*
X18945906Y20864655D01*
X18976499Y20869500D01*
X19223499Y20869500D01*
X19281690Y20850593D01*
X19317654Y20801093D01*
X19322499Y20770500D01*
X19322499Y16404419D01*
X19320392Y16384105D01*
X19317606Y16370816D01*
X19321472Y16339797D01*
X19322119Y16334612D01*
X19322499Y16328484D01*
X19322499Y16323721D01*
X19326191Y16301589D01*
X19326485Y16299567D01*
X19333187Y16245802D01*
X19335445Y16238217D01*
X19338016Y16230729D01*
X19363803Y16183080D01*
X19364732Y16181275D01*
X19372141Y16166120D01*
X19388521Y16132614D01*
X19393130Y16126159D01*
X19397977Y16119932D01*
X19397979Y16119929D01*
X19437830Y16083244D01*
X19439306Y16081827D01*
X19493503Y16027631D01*
X19521280Y15973114D01*
X19522499Y15957627D01*
X19522499Y12652374D01*
X19503592Y12594183D01*
X19493502Y12582370D01*
X19191540Y12280409D01*
X19137024Y12252632D01*
X19076592Y12262203D01*
X19042284Y12291084D01*
X18986118Y12366112D01*
X18986117Y12366113D01*
X18986115Y12366116D01*
X18986110Y12366120D01*
X18873775Y12450214D01*
X18742303Y12499250D01*
X18742298Y12499251D01*
X18742296Y12499252D01*
X18742292Y12499252D01*
X18716010Y12502078D01*
X18684173Y12505500D01*
X18115825Y12505500D01*
X18087822Y12502490D01*
X18057705Y12499252D01*
X18057694Y12499250D01*
X17926222Y12450214D01*
X17813887Y12366120D01*
X17813879Y12366112D01*
X17729785Y12253777D01*
X17680749Y12122305D01*
X17680747Y12122294D01*
X17674499Y12064171D01*
X17674499Y11395830D01*
X17674498Y11395830D01*
X17680747Y11337707D01*
X17680749Y11337696D01*
X17729785Y11206224D01*
X17793140Y11121593D01*
X17813883Y11093884D01*
X17813886Y11093882D01*
X17813887Y11093881D01*
X17926222Y11009787D01*
X18057694Y10960751D01*
X18057695Y10960751D01*
X18057700Y10960749D01*
X18115825Y10954500D01*
X18115829Y10954500D01*
X18684169Y10954500D01*
X18684173Y10954500D01*
X18742298Y10960749D01*
X18812951Y10987101D01*
X18873775Y11009787D01*
X18873775Y11009788D01*
X18873777Y11009788D01*
X18986115Y11093884D01*
X19070211Y11206222D01*
X19100208Y11286649D01*
X19138258Y11334563D01*
X19180722Y11350292D01*
X19195390Y11352121D01*
X19201515Y11352500D01*
X19206283Y11352500D01*
X19213369Y11353684D01*
X19228452Y11356201D01*
X19230397Y11356484D01*
X19284202Y11363190D01*
X19284206Y11363193D01*
X19291776Y11365446D01*
X19299260Y11368016D01*
X19299268Y11368017D01*
X19346965Y11393831D01*
X19348680Y11394714D01*
X19397388Y11418524D01*
X19397391Y11418528D01*
X19403826Y11423122D01*
X19410062Y11427977D01*
X19410070Y11427980D01*
X19446762Y11467839D01*
X19448174Y11469310D01*
X19555532Y11576668D01*
X19759896Y11781033D01*
X19814411Y11808808D01*
X19874843Y11799237D01*
X19918108Y11755972D01*
X19928898Y11711027D01*
X19928899Y9833775D01*
X19909992Y9775584D01*
X19899903Y9763771D01*
X18670629Y8534496D01*
X18616112Y8506719D01*
X18600625Y8505500D01*
X18115825Y8505500D01*
X18087822Y8502490D01*
X18057705Y8499252D01*
X18057694Y8499250D01*
X17926222Y8450214D01*
X17813887Y8366120D01*
X17813879Y8366112D01*
X17729785Y8253777D01*
X17680749Y8122305D01*
X17680747Y8122294D01*
X17674499Y8064171D01*
X17674499Y7395830D01*
X17674498Y7395830D01*
X17680747Y7337707D01*
X17680749Y7337696D01*
X17729785Y7206224D01*
X17813879Y7093889D01*
X17813883Y7093884D01*
X17813886Y7093882D01*
X17813887Y7093881D01*
X17926222Y7009787D01*
X18057694Y6960751D01*
X18057695Y6960751D01*
X18057700Y6960749D01*
X18115825Y6954500D01*
X18115829Y6954500D01*
X18684169Y6954500D01*
X18684173Y6954500D01*
X18742298Y6960749D01*
X18812951Y6987101D01*
X18873775Y7009787D01*
X18873775Y7009788D01*
X18873777Y7009788D01*
X18986115Y7093884D01*
X19070211Y7206222D01*
X19119250Y7337701D01*
X19125499Y7395826D01*
X19125498Y7880629D01*
X19144405Y7938819D01*
X19154488Y7950626D01*
X19970180Y8766317D01*
X25645739Y8766317D01*
X25655754Y8581593D01*
X25701177Y8417994D01*
X25705246Y8403339D01*
X25705249Y8403333D01*
X25791898Y8239897D01*
X25791899Y8239896D01*
X25911660Y8098902D01*
X25911665Y8098897D01*
X26058931Y7986948D01*
X26058933Y7986947D01*
X26058934Y7986947D01*
X26058935Y7986946D01*
X26226832Y7909268D01*
X26407502Y7869500D01*
X26407506Y7869500D01*
X27346111Y7869500D01*
X27346112Y7869500D01*
X27483909Y7884486D01*
X27659220Y7943556D01*
X27796554Y8026186D01*
X27817732Y8038928D01*
X27817732Y8038929D01*
X27817735Y8038930D01*
X27952040Y8166151D01*
X28055857Y8319270D01*
X28124330Y8491125D01*
X28154259Y8673683D01*
X28144244Y8858407D01*
X28094753Y9036659D01*
X28008099Y9200104D01*
X27914159Y9310699D01*
X27888337Y9341099D01*
X27888332Y9341104D01*
X27741066Y9453053D01*
X27741064Y9453054D01*
X27573169Y9530731D01*
X27573167Y9530732D01*
X27536453Y9538813D01*
X27392496Y9570500D01*
X26453886Y9570500D01*
X26316089Y9555514D01*
X26266523Y9538813D01*
X26140779Y9496445D01*
X26140776Y9496444D01*
X25982265Y9401073D01*
X25982261Y9401069D01*
X25847959Y9273851D01*
X25744141Y9120733D01*
X25678108Y8955000D01*
X25675668Y8948875D01*
X25645739Y8766317D01*
X19970180Y8766317D01*
X20538395Y9334532D01*
X20554240Y9347398D01*
X20565608Y9354824D01*
X20588020Y9383622D01*
X20592070Y9388208D01*
X20595451Y9391586D01*
X20608511Y9409879D01*
X20609707Y9411484D01*
X20642991Y9454245D01*
X20642993Y9454250D01*
X20646743Y9461179D01*
X20650227Y9468307D01*
X20650231Y9468311D01*
X20665696Y9520262D01*
X20666298Y9522140D01*
X20683899Y9573406D01*
X20683899Y9573410D01*
X20685202Y9581217D01*
X20686180Y9589060D01*
X20685969Y9594153D01*
X20683939Y9643205D01*
X20683898Y9645220D01*
X20683898Y11306317D01*
X25645739Y11306317D01*
X25655754Y11121593D01*
X25700412Y10960749D01*
X25705246Y10943339D01*
X25705249Y10943333D01*
X25791898Y10779897D01*
X25791899Y10779896D01*
X25911660Y10638902D01*
X25911665Y10638897D01*
X26058931Y10526948D01*
X26058933Y10526947D01*
X26058934Y10526947D01*
X26058935Y10526946D01*
X26226832Y10449268D01*
X26407502Y10409500D01*
X26407506Y10409500D01*
X27346111Y10409500D01*
X27346112Y10409500D01*
X27483909Y10424486D01*
X27659220Y10483556D01*
X27817735Y10578930D01*
X27952040Y10706151D01*
X28055857Y10859270D01*
X28124330Y11031125D01*
X28154259Y11213683D01*
X28144244Y11398407D01*
X28094753Y11576659D01*
X28008099Y11740104D01*
X27888336Y11881100D01*
X27888332Y11881104D01*
X27741066Y11993053D01*
X27741064Y11993054D01*
X27573169Y12070731D01*
X27573167Y12070732D01*
X27537031Y12078686D01*
X27392496Y12110500D01*
X26453886Y12110500D01*
X26316089Y12095514D01*
X26257019Y12075612D01*
X26140779Y12036445D01*
X26140776Y12036444D01*
X25982265Y11941073D01*
X25982261Y11941069D01*
X25847959Y11813851D01*
X25744141Y11660733D01*
X25675668Y11488876D01*
X25653944Y11356363D01*
X25645739Y11306317D01*
X20683898Y11306317D01*
X20683898Y15322134D01*
X20683898Y16386317D01*
X25645739Y16386317D01*
X25655754Y16201593D01*
X25696795Y16053777D01*
X25705246Y16023339D01*
X25705249Y16023333D01*
X25791898Y15859897D01*
X25791899Y15859896D01*
X25911660Y15718902D01*
X25911665Y15718897D01*
X26058931Y15606948D01*
X26058933Y15606947D01*
X26058934Y15606947D01*
X26058935Y15606946D01*
X26226832Y15529268D01*
X26407502Y15489500D01*
X26407506Y15489500D01*
X27346111Y15489500D01*
X27346112Y15489500D01*
X27483909Y15504486D01*
X27659220Y15563556D01*
X27817735Y15658930D01*
X27952040Y15786151D01*
X28044347Y15922294D01*
X28055856Y15939268D01*
X28063171Y15957627D01*
X28124330Y16111125D01*
X28154259Y16293683D01*
X28144244Y16478407D01*
X28094753Y16656659D01*
X28008099Y16820104D01*
X27888336Y16961100D01*
X27888332Y16961104D01*
X27741066Y17073053D01*
X27741064Y17073054D01*
X27573169Y17150731D01*
X27573167Y17150732D01*
X27537032Y17158686D01*
X27392496Y17190500D01*
X26453886Y17190500D01*
X26316089Y17175514D01*
X26257019Y17155612D01*
X26140779Y17116445D01*
X26140776Y17116444D01*
X25982265Y17021073D01*
X25982261Y17021069D01*
X25847959Y16893851D01*
X25744141Y16740733D01*
X25675668Y16568876D01*
X25647024Y16394153D01*
X25645739Y16386317D01*
X20683898Y16386317D01*
X20683898Y18926317D01*
X25645739Y18926317D01*
X25655754Y18741593D01*
X25705245Y18563341D01*
X25705246Y18563339D01*
X25705249Y18563333D01*
X25791898Y18399897D01*
X25791899Y18399896D01*
X25911660Y18258902D01*
X25911665Y18258897D01*
X26058931Y18146948D01*
X26058933Y18146947D01*
X26058934Y18146947D01*
X26058935Y18146946D01*
X26226832Y18069268D01*
X26407502Y18029500D01*
X26407506Y18029500D01*
X27346111Y18029500D01*
X27346112Y18029500D01*
X27483909Y18044486D01*
X27659220Y18103556D01*
X27817735Y18198930D01*
X27952040Y18326151D01*
X28055857Y18479270D01*
X28124330Y18651125D01*
X28154259Y18833683D01*
X28144244Y19018407D01*
X28094753Y19196659D01*
X28008099Y19360104D01*
X27888336Y19501100D01*
X27888332Y19501104D01*
X27741066Y19613053D01*
X27741064Y19613054D01*
X27573169Y19690731D01*
X27573167Y19690732D01*
X27537032Y19698686D01*
X27392496Y19730500D01*
X26453886Y19730500D01*
X26316089Y19715514D01*
X26257019Y19695612D01*
X26140779Y19656445D01*
X26140776Y19656444D01*
X25982265Y19561073D01*
X25982261Y19561069D01*
X25847959Y19433851D01*
X25744141Y19280733D01*
X25675668Y19108876D01*
X25675668Y19108875D01*
X25645739Y18926317D01*
X20683898Y18926317D01*
X20683898Y21002136D01*
X20685801Y21021441D01*
X20685963Y21022258D01*
X20685965Y21022260D01*
X20700499Y21095326D01*
X20700499Y21419997D01*
X22694658Y21419997D01*
X22713973Y21223874D01*
X22713974Y21223871D01*
X22771186Y21035270D01*
X22771187Y21035268D01*
X22822165Y20939896D01*
X22864089Y20861462D01*
X22864091Y20861460D01*
X22864092Y20861458D01*
X22989111Y20709122D01*
X22989120Y20709113D01*
X23140977Y20584487D01*
X23141461Y20584090D01*
X23315272Y20491186D01*
X23503867Y20433976D01*
X23503869Y20433976D01*
X23503872Y20433975D01*
X23699996Y20414659D01*
X23699999Y20414659D01*
X23700002Y20414659D01*
X23896125Y20433975D01*
X23896126Y20433976D01*
X23896131Y20433976D01*
X24084726Y20491186D01*
X24258537Y20584090D01*
X24410882Y20709117D01*
X24535909Y20861462D01*
X24621420Y21021441D01*
X24631106Y21039562D01*
X24632983Y21038559D01*
X24667251Y21078699D01*
X24718998Y21093300D01*
X25651003Y21093300D01*
X25709194Y21074393D01*
X25738467Y21040678D01*
X25791899Y20939896D01*
X25791901Y20939893D01*
X25911660Y20798902D01*
X25911665Y20798897D01*
X26058931Y20686948D01*
X26058933Y20686947D01*
X26058934Y20686947D01*
X26058935Y20686946D01*
X26226832Y20609268D01*
X26407502Y20569500D01*
X26407506Y20569500D01*
X27346111Y20569500D01*
X27346112Y20569500D01*
X27483909Y20584486D01*
X27659220Y20643556D01*
X27817735Y20738930D01*
X27952040Y20866151D01*
X28033828Y20986781D01*
X28055856Y21019268D01*
X28056722Y21021441D01*
X28124330Y21191125D01*
X28154259Y21373683D01*
X28144244Y21558407D01*
X28094753Y21736659D01*
X28008099Y21900104D01*
X27905834Y22020500D01*
X27888337Y22041099D01*
X27888332Y22041104D01*
X27741066Y22153053D01*
X27741064Y22153054D01*
X27573169Y22230731D01*
X27573167Y22230732D01*
X27531565Y22239889D01*
X27392496Y22270500D01*
X26453886Y22270500D01*
X26316089Y22255514D01*
X26257019Y22235612D01*
X26140779Y22196445D01*
X26140776Y22196444D01*
X25982265Y22101073D01*
X25982261Y22101069D01*
X25847959Y21973851D01*
X25744142Y21820734D01*
X25739490Y21809056D01*
X25700386Y21761997D01*
X25647521Y21746700D01*
X24718998Y21746700D01*
X24660807Y21765607D01*
X24632688Y21801285D01*
X24631106Y21800438D01*
X24573681Y21907871D01*
X24535909Y21978538D01*
X24509279Y22010987D01*
X24410886Y22130879D01*
X24410877Y22130888D01*
X24258541Y22255907D01*
X24258539Y22255908D01*
X24258537Y22255910D01*
X24217617Y22277782D01*
X24084731Y22348812D01*
X24084729Y22348813D01*
X23896128Y22406025D01*
X23896125Y22406026D01*
X23700002Y22425341D01*
X23699996Y22425341D01*
X23503872Y22406026D01*
X23503869Y22406025D01*
X23315268Y22348813D01*
X23315266Y22348812D01*
X23141466Y22255913D01*
X23141456Y22255907D01*
X22989120Y22130888D01*
X22989111Y22130879D01*
X22864092Y21978543D01*
X22864086Y21978533D01*
X22771187Y21804733D01*
X22771186Y21804731D01*
X22713974Y21616130D01*
X22713973Y21616127D01*
X22694658Y21420004D01*
X22694658Y21419997D01*
X20700499Y21419997D01*
X20700499Y21794674D01*
X20685965Y21867740D01*
X20685962Y21867744D01*
X20685036Y21869982D01*
X20677499Y21907871D01*
X20677499Y22522628D01*
X20696406Y22580819D01*
X20706489Y22592626D01*
X20831995Y22718132D01*
X20847840Y22730998D01*
X20859208Y22738424D01*
X20881620Y22767221D01*
X20885669Y22771806D01*
X20889051Y22775186D01*
X20902111Y22793479D01*
X20903307Y22795084D01*
X20936591Y22837845D01*
X20936593Y22837850D01*
X20940343Y22844779D01*
X20943827Y22851907D01*
X20943831Y22851911D01*
X20959296Y22903862D01*
X20959898Y22905740D01*
X20977499Y22957006D01*
X20977499Y22957010D01*
X20978802Y22964813D01*
X20979778Y22972655D01*
X20979780Y22972660D01*
X20977540Y23026805D01*
X20977499Y23028819D01*
X20977499Y23220500D01*
X20996406Y23278691D01*
X21045906Y23314655D01*
X21076499Y23319500D01*
X21524672Y23319500D01*
X21524673Y23319500D01*
X21597739Y23334034D01*
X21680600Y23389399D01*
X21735965Y23472260D01*
X21750499Y23545326D01*
X21750499Y23966414D01*
X22690799Y23966414D01*
X22710114Y23770291D01*
X22710115Y23770288D01*
X22710116Y23770285D01*
X22760195Y23605196D01*
X22767327Y23581687D01*
X22767328Y23581685D01*
X22825819Y23472258D01*
X22860230Y23407879D01*
X22860232Y23407877D01*
X22860233Y23407875D01*
X22985252Y23255539D01*
X22985261Y23255530D01*
X23121883Y23143407D01*
X23137602Y23130507D01*
X23260512Y23064810D01*
X23297987Y23044779D01*
X23311413Y23037603D01*
X23500008Y22980393D01*
X23500010Y22980393D01*
X23500013Y22980392D01*
X23696137Y22961076D01*
X23696140Y22961076D01*
X23696143Y22961076D01*
X23892266Y22980392D01*
X23892267Y22980393D01*
X23892272Y22980393D01*
X24080867Y23037603D01*
X24254678Y23130507D01*
X24407023Y23255534D01*
X24532050Y23407879D01*
X24612970Y23559270D01*
X24627247Y23585979D01*
X24629124Y23584976D01*
X24663392Y23625116D01*
X24715139Y23639717D01*
X25647600Y23639717D01*
X25705791Y23620810D01*
X25735067Y23587090D01*
X25791898Y23479897D01*
X25791899Y23479896D01*
X25911660Y23338902D01*
X25911665Y23338897D01*
X26058931Y23226948D01*
X26058933Y23226947D01*
X26058934Y23226947D01*
X26058935Y23226946D01*
X26226832Y23149268D01*
X26407502Y23109500D01*
X26407506Y23109500D01*
X27346111Y23109500D01*
X27346112Y23109500D01*
X27483909Y23124486D01*
X27659220Y23183556D01*
X27792246Y23263594D01*
X27817732Y23278928D01*
X27817732Y23278929D01*
X27817735Y23278930D01*
X27952040Y23406151D01*
X28055857Y23559270D01*
X28124330Y23731125D01*
X28154259Y23913683D01*
X28144244Y24098407D01*
X28094753Y24276659D01*
X28008099Y24440104D01*
X27888336Y24581100D01*
X27888332Y24581104D01*
X27741066Y24693053D01*
X27741064Y24693054D01*
X27573169Y24770731D01*
X27573167Y24770732D01*
X27537031Y24778686D01*
X27392496Y24810500D01*
X26453886Y24810500D01*
X26316089Y24795514D01*
X26257019Y24775612D01*
X26140779Y24736445D01*
X26140776Y24736444D01*
X25982265Y24641073D01*
X25982261Y24641069D01*
X25847959Y24513851D01*
X25744141Y24360732D01*
X25744140Y24360731D01*
X25742047Y24355475D01*
X25702945Y24308415D01*
X25650078Y24293117D01*
X24715139Y24293117D01*
X24656948Y24312024D01*
X24628829Y24347702D01*
X24627247Y24346855D01*
X24561424Y24470000D01*
X24532050Y24524955D01*
X24485973Y24581100D01*
X24407027Y24677296D01*
X24407018Y24677305D01*
X24254682Y24802324D01*
X24254680Y24802325D01*
X24254678Y24802327D01*
X24186242Y24838907D01*
X24080872Y24895229D01*
X24080870Y24895230D01*
X24063164Y24900601D01*
X23892272Y24952441D01*
X23892269Y24952442D01*
X23892266Y24952443D01*
X23696143Y24971758D01*
X23696137Y24971758D01*
X23500013Y24952443D01*
X23500010Y24952442D01*
X23311409Y24895230D01*
X23311407Y24895229D01*
X23137607Y24802330D01*
X23137597Y24802324D01*
X22985261Y24677305D01*
X22985252Y24677296D01*
X22860233Y24524960D01*
X22860227Y24524950D01*
X22767328Y24351150D01*
X22767327Y24351148D01*
X22710115Y24162547D01*
X22710114Y24162544D01*
X22690799Y23966421D01*
X22690799Y23966414D01*
X21750499Y23966414D01*
X21750499Y24544674D01*
X21735965Y24617740D01*
X21696166Y24677305D01*
X21680601Y24700600D01*
X21680598Y24700603D01*
X21597741Y24755965D01*
X21597739Y24755966D01*
X21597736Y24755967D01*
X21597735Y24755967D01*
X21524683Y24770499D01*
X21524673Y24770500D01*
X21076499Y24770500D01*
X21018308Y24789407D01*
X20982344Y24838907D01*
X20977499Y24869500D01*
X20977498Y25222628D01*
X20996405Y25280819D01*
X21006488Y25292625D01*
X22129367Y26415504D01*
X22183885Y26443281D01*
X22199372Y26444500D01*
X22229272Y26444500D01*
X22229272Y26444501D01*
X22259698Y26447354D01*
X22387881Y26492207D01*
X22497149Y26572850D01*
X22517678Y26600667D01*
X22567443Y26636259D01*
X22628627Y26635803D01*
X22677857Y26599471D01*
X22696330Y26541141D01*
X22695857Y26532181D01*
X22694658Y26520001D01*
X22694658Y26519997D01*
X22713973Y26323874D01*
X22713974Y26323871D01*
X22771186Y26135270D01*
X22771187Y26135268D01*
X22826323Y26032117D01*
X22864089Y25961462D01*
X22864091Y25961460D01*
X22864092Y25961458D01*
X22989111Y25809122D01*
X22989120Y25809113D01*
X23141456Y25684094D01*
X23141461Y25684090D01*
X23315272Y25591186D01*
X23503867Y25533976D01*
X23503869Y25533976D01*
X23503872Y25533975D01*
X23699996Y25514659D01*
X23699999Y25514659D01*
X23700002Y25514659D01*
X23896125Y25533975D01*
X23896126Y25533976D01*
X23896131Y25533976D01*
X24084726Y25591186D01*
X24258537Y25684090D01*
X24410882Y25809117D01*
X24535909Y25961462D01*
X24615809Y26110944D01*
X24631106Y26139562D01*
X24632983Y26138559D01*
X24667251Y26178699D01*
X24718998Y26193300D01*
X25640399Y26193300D01*
X25698590Y26174393D01*
X25727866Y26140673D01*
X25791898Y26019897D01*
X25791899Y26019896D01*
X25911660Y25878902D01*
X25911665Y25878897D01*
X26058931Y25766948D01*
X26058933Y25766947D01*
X26058934Y25766947D01*
X26058935Y25766946D01*
X26226832Y25689268D01*
X26407502Y25649500D01*
X26407506Y25649500D01*
X27346111Y25649500D01*
X27346112Y25649500D01*
X27483909Y25664486D01*
X27659220Y25723556D01*
X27769079Y25789655D01*
X27817732Y25818928D01*
X27817732Y25818929D01*
X27817735Y25818930D01*
X27952040Y25946151D01*
X28055857Y26099270D01*
X28124330Y26271125D01*
X28154259Y26453683D01*
X28144244Y26638407D01*
X28094753Y26816659D01*
X28008099Y26980104D01*
X27924489Y27078537D01*
X27888337Y27121099D01*
X27888332Y27121104D01*
X27741066Y27233053D01*
X27741064Y27233054D01*
X27573169Y27310731D01*
X27573167Y27310732D01*
X27537032Y27318686D01*
X27392496Y27350500D01*
X26453886Y27350500D01*
X26316089Y27335514D01*
X26257019Y27315612D01*
X26140779Y27276445D01*
X26140776Y27276444D01*
X25982265Y27181073D01*
X25982261Y27181069D01*
X25847959Y27053851D01*
X25744144Y26900736D01*
X25743403Y26899337D01*
X25742800Y26898754D01*
X25741128Y26896287D01*
X25740613Y26896636D01*
X25699446Y26856777D01*
X25655930Y26846700D01*
X24718998Y26846700D01*
X24660807Y26865607D01*
X24632688Y26901285D01*
X24631106Y26900438D01*
X24563244Y27027398D01*
X24535909Y27078538D01*
X24451763Y27181070D01*
X24410886Y27230879D01*
X24410877Y27230888D01*
X24258541Y27355907D01*
X24258539Y27355908D01*
X24258537Y27355910D01*
X24214022Y27379704D01*
X24084731Y27448812D01*
X24084729Y27448813D01*
X23896128Y27506025D01*
X23896125Y27506026D01*
X23700002Y27525341D01*
X23699996Y27525341D01*
X23503872Y27506026D01*
X23503869Y27506025D01*
X23315268Y27448813D01*
X23315266Y27448812D01*
X23141466Y27355913D01*
X23141456Y27355907D01*
X22989120Y27230888D01*
X22989111Y27230879D01*
X22864092Y27078543D01*
X22864088Y27078537D01*
X22811809Y26980729D01*
X22767703Y26938323D01*
X22707095Y26929940D01*
X22653134Y26958783D01*
X22626433Y27013834D01*
X22625499Y27027398D01*
X22625499Y27349273D01*
X22625498Y27349275D01*
X22624876Y27355910D01*
X22622645Y27379699D01*
X22577792Y27507882D01*
X22497149Y27617150D01*
X22497145Y27617153D01*
X22497143Y27617155D01*
X22387882Y27697793D01*
X22259702Y27742645D01*
X22259693Y27742647D01*
X22229273Y27745500D01*
X22229265Y27745500D01*
X21570733Y27745500D01*
X21570724Y27745500D01*
X21540304Y27742647D01*
X21540295Y27742645D01*
X21412117Y27697794D01*
X21358787Y27658434D01*
X21300739Y27639093D01*
X21242408Y27657565D01*
X21241211Y27658434D01*
X21187880Y27697794D01*
X21059702Y27742645D01*
X21059693Y27742647D01*
X21029273Y27745500D01*
X21029265Y27745500D01*
X20370733Y27745500D01*
X20370724Y27745500D01*
X20340304Y27742647D01*
X20340295Y27742645D01*
X20212117Y27697794D01*
X20158787Y27658434D01*
X20100739Y27639093D01*
X20042408Y27657565D01*
X20041211Y27658434D01*
X19987880Y27697794D01*
X19859702Y27742645D01*
X19859693Y27742647D01*
X19829273Y27745500D01*
X19829265Y27745500D01*
X19170733Y27745500D01*
X19170724Y27745500D01*
X19140304Y27742647D01*
X19140295Y27742645D01*
X19012117Y27697794D01*
X18958787Y27658434D01*
X18900739Y27639093D01*
X18842408Y27657565D01*
X18841211Y27658434D01*
X18787880Y27697794D01*
X18659702Y27742645D01*
X18659693Y27742647D01*
X18629273Y27745500D01*
X18629265Y27745500D01*
X17970733Y27745500D01*
X17970724Y27745500D01*
X17940304Y27742647D01*
X17940295Y27742645D01*
X17812117Y27697794D01*
X17758787Y27658434D01*
X17700739Y27639093D01*
X17642408Y27657565D01*
X17641211Y27658434D01*
X17587880Y27697794D01*
X17459702Y27742645D01*
X17459693Y27742647D01*
X17429273Y27745500D01*
X17429265Y27745500D01*
X16770733Y27745500D01*
X16770724Y27745500D01*
X16740304Y27742647D01*
X16740295Y27742645D01*
X16612115Y27697793D01*
X16502854Y27617155D01*
X16502844Y27617145D01*
X16422206Y27507884D01*
X16377354Y27379704D01*
X16377352Y27379695D01*
X16374499Y27349275D01*
X16374499Y26840726D01*
X16377352Y26810306D01*
X16377354Y26810297D01*
X16422206Y26682117D01*
X16502844Y26572856D01*
X16502846Y26572854D01*
X16502849Y26572850D01*
X16502852Y26572848D01*
X16502854Y26572846D01*
X16612113Y26492209D01*
X16612115Y26492209D01*
X16612117Y26492207D01*
X16656197Y26476783D01*
X16704877Y26439718D01*
X16722499Y26383339D01*
X16722499Y26017375D01*
X16703592Y25959184D01*
X16693503Y25947371D01*
X16168005Y25421874D01*
X16152152Y25409001D01*
X16140793Y25401580D01*
X16140789Y25401576D01*
X16118380Y25372787D01*
X16114321Y25368189D01*
X16110950Y25364819D01*
X16110943Y25364810D01*
X16097894Y25346535D01*
X16096673Y25344898D01*
X16063407Y25302157D01*
X16059646Y25295207D01*
X16052562Y25280716D01*
X16050676Y25281638D01*
X16022231Y25240373D01*
X15964527Y25220030D01*
X15962075Y25220000D01*
X15950000Y25220000D01*
X15949999Y25219999D01*
X15949999Y24269000D01*
X15931092Y24210809D01*
X15881592Y24174845D01*
X15850999Y24170000D01*
X9748999Y24170000D01*
X9690808Y24188907D01*
X9654844Y24238407D01*
X9649999Y24269000D01*
X9649999Y25219999D01*
X9649998Y25220000D01*
X9949999Y25220000D01*
X9949999Y24470001D01*
X9950000Y24470000D01*
X10249998Y24470000D01*
X10249999Y24470001D01*
X10549999Y24470001D01*
X10550000Y24470000D01*
X10849998Y24470000D01*
X10849999Y24470001D01*
X11149999Y24470001D01*
X11150000Y24470000D01*
X11449998Y24470000D01*
X11449998Y24470002D01*
X11749998Y24470002D01*
X11750000Y24470000D01*
X12049998Y24470000D01*
X12049999Y24470002D01*
X12049999Y25219999D01*
X12049998Y25220000D01*
X12349999Y25220000D01*
X12349999Y24470001D01*
X12350000Y24470000D01*
X12649998Y24470000D01*
X12649999Y24470002D01*
X12649999Y25219999D01*
X12649998Y25220000D01*
X12949999Y25220000D01*
X12949999Y24470001D01*
X12950000Y24470000D01*
X13249998Y24470000D01*
X13249999Y24470001D01*
X13249999Y25219999D01*
X13249998Y25220000D01*
X13549999Y25220000D01*
X13549999Y24470001D01*
X13550000Y24470000D01*
X13849998Y24470000D01*
X13849999Y24470001D01*
X13849999Y25219999D01*
X13849998Y25220000D01*
X14149999Y25220000D01*
X14149999Y24470001D01*
X14150000Y24470000D01*
X14449998Y24470000D01*
X14449999Y24470001D01*
X14449999Y25220000D01*
X14749999Y25220000D01*
X14749999Y24470001D01*
X14750000Y24470000D01*
X15049998Y24470000D01*
X15049999Y24470001D01*
X15349999Y24470001D01*
X15350000Y24470000D01*
X15649998Y24470000D01*
X15649999Y24470001D01*
X15649999Y25220000D01*
X15602175Y25220000D01*
X15542623Y25213598D01*
X15542618Y25213597D01*
X15534590Y25210603D01*
X15473460Y25207986D01*
X15465404Y25210604D01*
X15457376Y25213598D01*
X15397823Y25220000D01*
X15350000Y25220000D01*
X15349999Y25219999D01*
X15349999Y24470001D01*
X15049999Y24470001D01*
X15049999Y25220000D01*
X15002175Y25220000D01*
X14942623Y25213599D01*
X14934592Y25210603D01*
X14873463Y25207986D01*
X14865406Y25210603D01*
X14857374Y25213599D01*
X14797823Y25220000D01*
X14749999Y25220000D01*
X14449999Y25220000D01*
X14402175Y25220000D01*
X14342623Y25213599D01*
X14334592Y25210603D01*
X14273463Y25207986D01*
X14265406Y25210603D01*
X14257374Y25213599D01*
X14197823Y25220000D01*
X14149999Y25220000D01*
X13849998Y25220000D01*
X13802175Y25220000D01*
X13742623Y25213598D01*
X13742618Y25213597D01*
X13734590Y25210603D01*
X13673460Y25207986D01*
X13665404Y25210604D01*
X13657376Y25213598D01*
X13597823Y25220000D01*
X13549999Y25220000D01*
X13249998Y25220000D01*
X13202175Y25220000D01*
X13142623Y25213598D01*
X13142618Y25213597D01*
X13134590Y25210603D01*
X13073460Y25207986D01*
X13065404Y25210604D01*
X13057376Y25213598D01*
X12997823Y25220000D01*
X12949999Y25220000D01*
X12649998Y25220000D01*
X12602175Y25220000D01*
X12542623Y25213599D01*
X12534592Y25210603D01*
X12473463Y25207986D01*
X12465406Y25210603D01*
X12457374Y25213599D01*
X12397823Y25220000D01*
X12349999Y25220000D01*
X12049998Y25220000D01*
X12002175Y25220000D01*
X11942623Y25213599D01*
X11934592Y25210603D01*
X11873463Y25207986D01*
X11865406Y25210603D01*
X11857374Y25213599D01*
X11797823Y25220000D01*
X11750000Y25220000D01*
X11749998Y25219999D01*
X11749998Y24470002D01*
X11449998Y24470002D01*
X11449998Y25220000D01*
X11402175Y25220000D01*
X11342623Y25213598D01*
X11342618Y25213597D01*
X11334590Y25210603D01*
X11273460Y25207986D01*
X11265404Y25210604D01*
X11257376Y25213598D01*
X11197823Y25220000D01*
X11150000Y25220000D01*
X11149999Y25219999D01*
X11149999Y24470001D01*
X10849999Y24470001D01*
X10849999Y25220000D01*
X10802175Y25220000D01*
X10742623Y25213598D01*
X10742618Y25213597D01*
X10734590Y25210603D01*
X10673460Y25207986D01*
X10665404Y25210604D01*
X10657376Y25213598D01*
X10597823Y25220000D01*
X10550000Y25220000D01*
X10549999Y25219999D01*
X10549999Y24470001D01*
X10249999Y24470001D01*
X10249999Y25220000D01*
X10202175Y25220000D01*
X10142623Y25213599D01*
X10134592Y25210603D01*
X10073463Y25207986D01*
X10065406Y25210603D01*
X10057374Y25213599D01*
X9997823Y25220000D01*
X9949999Y25220000D01*
X9649998Y25220000D01*
X9612999Y25220000D01*
X9554808Y25238907D01*
X9518844Y25288407D01*
X9513999Y25319000D01*
X9513999Y30123500D01*
X9532906Y30181691D01*
X9582406Y30217655D01*
X9612999Y30222500D01*
X9629998Y30222500D01*
X9629999Y30222501D01*
X9929999Y30222501D01*
X9930000Y30222500D01*
X9977823Y30222500D01*
X10037369Y30228902D01*
X10037371Y30228902D01*
X10045398Y30231896D01*
X10106527Y30234519D01*
X10114600Y30231896D01*
X10122627Y30228902D01*
X10182175Y30222500D01*
X10229998Y30222500D01*
X10229999Y30222501D01*
X10229999Y30222502D01*
X10529999Y30222502D01*
X10530000Y30222500D01*
X10577823Y30222500D01*
X10637369Y30228902D01*
X10637371Y30228902D01*
X10645398Y30231896D01*
X10706527Y30234519D01*
X10714600Y30231896D01*
X10722627Y30228902D01*
X10782175Y30222500D01*
X10829998Y30222500D01*
X10829999Y30222501D01*
X10829999Y30222502D01*
X11129998Y30222502D01*
X11130000Y30222500D01*
X11177823Y30222500D01*
X11237369Y30228902D01*
X11237371Y30228902D01*
X11245398Y30231896D01*
X11306527Y30234519D01*
X11314600Y30231896D01*
X11322627Y30228902D01*
X11382175Y30222500D01*
X11429998Y30222500D01*
X11429998Y30222501D01*
X11729999Y30222501D01*
X11730000Y30222500D01*
X11777823Y30222500D01*
X11837369Y30228902D01*
X11837371Y30228902D01*
X11845398Y30231896D01*
X11906527Y30234519D01*
X11914600Y30231896D01*
X11922627Y30228902D01*
X11982175Y30222500D01*
X12029998Y30222500D01*
X12029999Y30222501D01*
X12329999Y30222501D01*
X12330000Y30222500D01*
X12377823Y30222500D01*
X12437369Y30228902D01*
X12437371Y30228902D01*
X12445398Y30231896D01*
X12506527Y30234519D01*
X12514600Y30231896D01*
X12522627Y30228902D01*
X12582175Y30222500D01*
X12629998Y30222500D01*
X12629999Y30222501D01*
X12929999Y30222501D01*
X12930000Y30222500D01*
X12977823Y30222500D01*
X13037369Y30228902D01*
X13037371Y30228902D01*
X13045398Y30231896D01*
X13106527Y30234519D01*
X13114600Y30231896D01*
X13122627Y30228902D01*
X13182175Y30222500D01*
X13229998Y30222500D01*
X13229999Y30222501D01*
X13529999Y30222501D01*
X13530000Y30222500D01*
X13577823Y30222500D01*
X13637369Y30228902D01*
X13637371Y30228902D01*
X13645398Y30231896D01*
X13706527Y30234519D01*
X13714600Y30231896D01*
X13722627Y30228902D01*
X13782175Y30222500D01*
X13829998Y30222500D01*
X13829999Y30222501D01*
X14129999Y30222501D01*
X14130000Y30222500D01*
X14177823Y30222500D01*
X14237369Y30228902D01*
X14237371Y30228902D01*
X14245398Y30231896D01*
X14306527Y30234519D01*
X14314600Y30231896D01*
X14322627Y30228902D01*
X14382175Y30222500D01*
X14429998Y30222500D01*
X14429999Y30222501D01*
X14729999Y30222501D01*
X14730000Y30222500D01*
X14777823Y30222500D01*
X14837369Y30228902D01*
X14837371Y30228902D01*
X14845398Y30231896D01*
X14906527Y30234519D01*
X14914600Y30231896D01*
X14922627Y30228902D01*
X14982175Y30222500D01*
X15029998Y30222500D01*
X15029999Y30222501D01*
X15029999Y30222502D01*
X15329999Y30222502D01*
X15330000Y30222500D01*
X15377823Y30222500D01*
X15437369Y30228902D01*
X15437371Y30228902D01*
X15445398Y30231896D01*
X15506527Y30234519D01*
X15514600Y30231896D01*
X15522627Y30228902D01*
X15582175Y30222500D01*
X15629998Y30222500D01*
X15629999Y30222501D01*
X15629999Y30972499D01*
X15629998Y30972500D01*
X15330000Y30972500D01*
X15329999Y30972499D01*
X15329999Y30222502D01*
X15029999Y30222502D01*
X15029999Y30972499D01*
X15029998Y30972500D01*
X14730000Y30972500D01*
X14729999Y30972499D01*
X14729999Y30222501D01*
X14429999Y30222501D01*
X14429999Y30972499D01*
X14429998Y30972500D01*
X14130000Y30972500D01*
X14129999Y30972499D01*
X14129999Y30222501D01*
X13829999Y30222501D01*
X13829999Y30972499D01*
X13829998Y30972500D01*
X13530000Y30972500D01*
X13529999Y30972499D01*
X13529999Y30222501D01*
X13229999Y30222501D01*
X13229999Y30222502D01*
X13229999Y30972499D01*
X13229998Y30972500D01*
X12930000Y30972500D01*
X12929999Y30972499D01*
X12929999Y30222501D01*
X12629999Y30222501D01*
X12629999Y30222502D01*
X12629999Y30972499D01*
X12629998Y30972500D01*
X12330000Y30972500D01*
X12329999Y30972499D01*
X12329999Y30222501D01*
X12029999Y30222501D01*
X12029999Y30222502D01*
X12029999Y30972499D01*
X12029998Y30972500D01*
X11730000Y30972500D01*
X11729999Y30972499D01*
X11729999Y30222501D01*
X11429998Y30222501D01*
X11429998Y30972500D01*
X11130000Y30972500D01*
X11129998Y30972499D01*
X11129998Y30222502D01*
X10829999Y30222502D01*
X10829999Y30972499D01*
X10829998Y30972500D01*
X10530000Y30972500D01*
X10529999Y30972499D01*
X10529999Y30222502D01*
X10229999Y30222502D01*
X10229999Y30972499D01*
X10229998Y30972500D01*
X9930000Y30972500D01*
X9929999Y30972499D01*
X9929999Y30222501D01*
X9629999Y30222501D01*
X9629999Y31173500D01*
X9648906Y31231691D01*
X9698406Y31267655D01*
X9728999Y31272500D01*
X15629998Y31272500D01*
X15629999Y31272501D01*
X15629999Y32022499D01*
X15629998Y32022500D01*
X15582175Y32022500D01*
X15522623Y32016099D01*
X15514592Y32013103D01*
X15453463Y32010486D01*
X15445406Y32013103D01*
X15437374Y32016099D01*
X15414492Y32018558D01*
X15358656Y32043577D01*
X15328189Y32096638D01*
X15334729Y32157472D01*
X15335021Y32158117D01*
X15389040Y32276401D01*
X15389042Y32276410D01*
X15410695Y32427008D01*
X15412993Y32426678D01*
X15428594Y32474691D01*
X15478094Y32510655D01*
X15508687Y32515500D01*
X15572533Y32515500D01*
X15572535Y32515500D01*
X15711731Y32556371D01*
X15833774Y32634804D01*
X15833776Y32634808D01*
X15838222Y32637664D01*
X15897397Y32653219D01*
X15954413Y32631021D01*
X15961747Y32624388D01*
X15973501Y32612633D01*
X16001279Y32558119D01*
X16002499Y32542628D01*
X16002499Y32121500D01*
X15983592Y32063309D01*
X15936845Y32029346D01*
X15929999Y32022500D01*
X15929999Y30222501D01*
X15930000Y30222500D01*
X15977820Y30222500D01*
X16005793Y30225508D01*
X16065672Y30212930D01*
X16083430Y30199911D01*
X16117829Y30168243D01*
X16119305Y30166827D01*
X16693503Y29592631D01*
X16721280Y29538114D01*
X16722499Y29522627D01*
X16722499Y29456662D01*
X16703592Y29398471D01*
X16656197Y29363218D01*
X16612119Y29347795D01*
X16612113Y29347792D01*
X16502854Y29267155D01*
X16502844Y29267145D01*
X16422206Y29157884D01*
X16377354Y29029704D01*
X16377352Y29029695D01*
X16374499Y28999275D01*
X16374499Y28490726D01*
X16377352Y28460306D01*
X16377354Y28460297D01*
X16422206Y28332117D01*
X16502844Y28222856D01*
X16502846Y28222854D01*
X16502849Y28222850D01*
X16502852Y28222848D01*
X16502854Y28222846D01*
X16612115Y28142208D01*
X16612116Y28142208D01*
X16612117Y28142207D01*
X16740300Y28097354D01*
X16770724Y28094501D01*
X16770726Y28094500D01*
X16770733Y28094500D01*
X17429272Y28094500D01*
X17429272Y28094501D01*
X17459698Y28097354D01*
X17587881Y28142207D01*
X17641210Y28181566D01*
X17699258Y28200908D01*
X17757589Y28182437D01*
X17758787Y28181566D01*
X17812115Y28142208D01*
X17812116Y28142208D01*
X17812117Y28142207D01*
X17940300Y28097354D01*
X17970724Y28094501D01*
X17970726Y28094500D01*
X17970733Y28094500D01*
X18629272Y28094500D01*
X18629272Y28094501D01*
X18659698Y28097354D01*
X18787881Y28142207D01*
X18841210Y28181566D01*
X18899258Y28200908D01*
X18957589Y28182437D01*
X18958787Y28181566D01*
X19012115Y28142208D01*
X19012116Y28142208D01*
X19012117Y28142207D01*
X19140300Y28097354D01*
X19170724Y28094501D01*
X19170726Y28094500D01*
X19170733Y28094500D01*
X19829272Y28094500D01*
X19829272Y28094501D01*
X19859698Y28097354D01*
X19987881Y28142207D01*
X20041210Y28181566D01*
X20099258Y28200908D01*
X20157589Y28182437D01*
X20158787Y28181566D01*
X20212115Y28142208D01*
X20212116Y28142208D01*
X20212117Y28142207D01*
X20340300Y28097354D01*
X20370724Y28094501D01*
X20370726Y28094500D01*
X20370733Y28094500D01*
X21029272Y28094500D01*
X21029272Y28094501D01*
X21059698Y28097354D01*
X21187881Y28142207D01*
X21241210Y28181566D01*
X21299258Y28200908D01*
X21357589Y28182437D01*
X21358787Y28181566D01*
X21412115Y28142208D01*
X21412116Y28142208D01*
X21412117Y28142207D01*
X21540300Y28097354D01*
X21570724Y28094501D01*
X21570726Y28094500D01*
X21570733Y28094500D01*
X22229272Y28094500D01*
X22229272Y28094501D01*
X22259698Y28097354D01*
X22387881Y28142207D01*
X22497149Y28222850D01*
X22577792Y28332118D01*
X22622645Y28460301D01*
X22625498Y28490727D01*
X22625499Y28490727D01*
X22625499Y28999274D01*
X22625498Y28999275D01*
X22622645Y29029695D01*
X22622645Y29029699D01*
X22602834Y29086317D01*
X25645739Y29086317D01*
X25655754Y28901593D01*
X25705245Y28723341D01*
X25705246Y28723339D01*
X25705249Y28723333D01*
X25791898Y28559897D01*
X25791899Y28559896D01*
X25911660Y28418902D01*
X25911665Y28418897D01*
X26058931Y28306948D01*
X26058933Y28306947D01*
X26058934Y28306947D01*
X26058935Y28306946D01*
X26226832Y28229268D01*
X26407502Y28189500D01*
X26407506Y28189500D01*
X27346111Y28189500D01*
X27346112Y28189500D01*
X27483909Y28204486D01*
X27659220Y28263556D01*
X27773171Y28332117D01*
X27817732Y28358928D01*
X27817732Y28358929D01*
X27817735Y28358930D01*
X27952040Y28486151D01*
X28055857Y28639270D01*
X28124330Y28811125D01*
X28154259Y28993683D01*
X28144244Y29178407D01*
X28094753Y29356659D01*
X28008099Y29520104D01*
X27888336Y29661100D01*
X27888332Y29661104D01*
X27741066Y29773053D01*
X27741064Y29773054D01*
X27573169Y29850731D01*
X27573167Y29850732D01*
X27537032Y29858686D01*
X27392496Y29890500D01*
X26453886Y29890500D01*
X26316089Y29875514D01*
X26257019Y29855612D01*
X26140779Y29816445D01*
X26140776Y29816444D01*
X25982265Y29721073D01*
X25982261Y29721069D01*
X25847959Y29593851D01*
X25744141Y29440733D01*
X25675668Y29268876D01*
X25657472Y29157882D01*
X25645739Y29086317D01*
X22602834Y29086317D01*
X22577792Y29157882D01*
X22562646Y29178404D01*
X22497153Y29267145D01*
X22497151Y29267147D01*
X22497149Y29267150D01*
X22497145Y29267153D01*
X22497143Y29267155D01*
X22387882Y29347793D01*
X22327536Y29368909D01*
X22278856Y29405974D01*
X22271098Y29422133D01*
X22270427Y29421804D01*
X22269648Y29423396D01*
X22267954Y29428684D01*
X22265346Y29434117D01*
X22264555Y29436774D01*
X22261982Y29444269D01*
X22255275Y29456662D01*
X22236179Y29491948D01*
X22235276Y29493702D01*
X22211475Y29542389D01*
X22206872Y29548835D01*
X22202020Y29555069D01*
X22202019Y29555071D01*
X22192716Y29563635D01*
X22162164Y29591761D01*
X22160688Y29593177D01*
X21250869Y30502996D01*
X21223092Y30557513D01*
X21232663Y30617945D01*
X21275928Y30661210D01*
X21320873Y30672000D01*
X21504672Y30672000D01*
X21504673Y30672000D01*
X21577739Y30686534D01*
X21660600Y30741899D01*
X21715965Y30824760D01*
X21730499Y30897826D01*
X21730499Y31626317D01*
X25645739Y31626317D01*
X25655754Y31441593D01*
X25705245Y31263341D01*
X25705246Y31263339D01*
X25705249Y31263333D01*
X25791898Y31099897D01*
X25791899Y31099896D01*
X25911660Y30958902D01*
X25911665Y30958897D01*
X26058931Y30846948D01*
X26058933Y30846947D01*
X26058934Y30846947D01*
X26058935Y30846946D01*
X26226832Y30769268D01*
X26407502Y30729500D01*
X26407506Y30729500D01*
X27346111Y30729500D01*
X27346112Y30729500D01*
X27483909Y30744486D01*
X27659220Y30803556D01*
X27765639Y30867586D01*
X27817732Y30898928D01*
X27817732Y30898929D01*
X27817735Y30898930D01*
X27952040Y31026151D01*
X28055857Y31179270D01*
X28124330Y31351125D01*
X28154259Y31533683D01*
X28144244Y31718407D01*
X28094753Y31896659D01*
X28008099Y32060104D01*
X27888336Y32201100D01*
X27888332Y32201104D01*
X27741066Y32313053D01*
X27741064Y32313054D01*
X27573169Y32390731D01*
X27573167Y32390732D01*
X27537003Y32398692D01*
X27392496Y32430500D01*
X26453886Y32430500D01*
X26316089Y32415514D01*
X26266164Y32398692D01*
X26140779Y32356445D01*
X26140776Y32356444D01*
X25982265Y32261073D01*
X25982261Y32261069D01*
X25847959Y32133851D01*
X25744141Y31980733D01*
X25675668Y31808876D01*
X25669787Y31773000D01*
X25645739Y31626317D01*
X21730499Y31626317D01*
X21730499Y31897174D01*
X21715965Y31970240D01*
X21689074Y32010486D01*
X21660601Y32053100D01*
X21660598Y32053103D01*
X21577741Y32108465D01*
X21577739Y32108466D01*
X21577736Y32108467D01*
X21577735Y32108467D01*
X21504683Y32122999D01*
X21504673Y32123000D01*
X21056499Y32123000D01*
X20998308Y32141907D01*
X20962344Y32191407D01*
X20957499Y32222000D01*
X20957498Y32790580D01*
X20959606Y32810900D01*
X20959828Y32811960D01*
X20962392Y32824184D01*
X20960372Y32840389D01*
X20957880Y32860388D01*
X20957499Y32866517D01*
X20957499Y32871282D01*
X20953803Y32893432D01*
X20953508Y32895457D01*
X20950465Y32919858D01*
X20946808Y32949203D01*
X20946807Y32949206D01*
X20944546Y32956799D01*
X20941982Y32964270D01*
X20916195Y33011919D01*
X20915272Y33013711D01*
X20891475Y33062389D01*
X20891473Y33062391D01*
X20886872Y33068835D01*
X20882020Y33075069D01*
X20882019Y33075071D01*
X20877585Y33079153D01*
X20842153Y33111771D01*
X20840677Y33113187D01*
X20686495Y33267370D01*
X20658718Y33321886D01*
X20657499Y33337372D01*
X20657499Y33435252D01*
X20657499Y33534635D01*
X20665038Y33572524D01*
X20665962Y33574757D01*
X20665965Y33574760D01*
X20680499Y33647826D01*
X20680499Y34166317D01*
X25645739Y34166317D01*
X25655754Y33981593D01*
X25705245Y33803341D01*
X25705246Y33803339D01*
X25705249Y33803333D01*
X25791898Y33639897D01*
X25791899Y33639896D01*
X25911660Y33498902D01*
X25911665Y33498897D01*
X26058931Y33386948D01*
X26058933Y33386947D01*
X26058934Y33386947D01*
X26058935Y33386946D01*
X26226832Y33309268D01*
X26407502Y33269500D01*
X26407506Y33269500D01*
X27346111Y33269500D01*
X27346112Y33269500D01*
X27483909Y33284486D01*
X27659220Y33343556D01*
X27793433Y33424308D01*
X27817732Y33438928D01*
X27817732Y33438929D01*
X27817735Y33438930D01*
X27952040Y33566151D01*
X28055857Y33719270D01*
X28124330Y33891125D01*
X28154259Y34073683D01*
X28144244Y34258407D01*
X28094753Y34436659D01*
X28008099Y34600104D01*
X27888336Y34741100D01*
X27888332Y34741104D01*
X27741066Y34853053D01*
X27741064Y34853054D01*
X27573169Y34930731D01*
X27573167Y34930732D01*
X27537031Y34938686D01*
X27392496Y34970500D01*
X26453886Y34970500D01*
X26316089Y34955514D01*
X26257019Y34935612D01*
X26140779Y34896445D01*
X26140776Y34896444D01*
X25982265Y34801073D01*
X25982261Y34801069D01*
X25847959Y34673851D01*
X25744141Y34520733D01*
X25675668Y34348876D01*
X25675668Y34348875D01*
X25645739Y34166317D01*
X20680499Y34166317D01*
X20680499Y34347174D01*
X20680160Y34348876D01*
X20677014Y34364692D01*
X20665965Y34420240D01*
X20646571Y34449266D01*
X20610601Y34503100D01*
X20610598Y34503103D01*
X20527741Y34558465D01*
X20527739Y34558466D01*
X20527736Y34558467D01*
X20527735Y34558467D01*
X20454683Y34572999D01*
X20454673Y34573000D01*
X20105325Y34573000D01*
X20105324Y34573000D01*
X20105314Y34572999D01*
X20032262Y34558467D01*
X20032260Y34558467D01*
X20032259Y34558466D01*
X20032258Y34558466D01*
X20023250Y34554734D01*
X20022415Y34556749D01*
X19976111Y34543689D01*
X19937385Y34556273D01*
X19936748Y34554734D01*
X19927741Y34558465D01*
X19927739Y34558466D01*
X19927735Y34558467D01*
X19854683Y34572999D01*
X19854673Y34573000D01*
X19505325Y34573000D01*
X19505324Y34573000D01*
X19505314Y34572999D01*
X19432262Y34558467D01*
X19432260Y34558467D01*
X19432259Y34558466D01*
X19432258Y34558466D01*
X19423250Y34554734D01*
X19422415Y34556749D01*
X19376111Y34543689D01*
X19337385Y34556273D01*
X19336748Y34554734D01*
X19327741Y34558465D01*
X19327739Y34558466D01*
X19327735Y34558467D01*
X19254683Y34572999D01*
X19254673Y34573000D01*
X18905325Y34573000D01*
X18905324Y34573000D01*
X18905314Y34572999D01*
X18832262Y34558467D01*
X18832260Y34558467D01*
X18832259Y34558466D01*
X18832258Y34558466D01*
X18823250Y34554734D01*
X18822415Y34556749D01*
X18776111Y34543689D01*
X18737385Y34556273D01*
X18736748Y34554734D01*
X18727741Y34558465D01*
X18727739Y34558466D01*
X18727735Y34558467D01*
X18654683Y34572999D01*
X18654673Y34573000D01*
X18305325Y34573000D01*
X18305324Y34573000D01*
X18305314Y34572999D01*
X18232262Y34558467D01*
X18232260Y34558467D01*
X18232259Y34558466D01*
X18232258Y34558466D01*
X18223250Y34554734D01*
X18222415Y34556749D01*
X18176111Y34543689D01*
X18137385Y34556273D01*
X18136748Y34554734D01*
X18127741Y34558465D01*
X18127739Y34558466D01*
X18127735Y34558467D01*
X18054683Y34572999D01*
X18054673Y34573000D01*
X17705325Y34573000D01*
X17705324Y34573000D01*
X17705314Y34572999D01*
X17632262Y34558467D01*
X17632260Y34558467D01*
X17632259Y34558466D01*
X17632258Y34558466D01*
X17623250Y34554734D01*
X17622415Y34556749D01*
X17576111Y34543689D01*
X17537385Y34556273D01*
X17536748Y34554734D01*
X17527741Y34558465D01*
X17527739Y34558466D01*
X17527735Y34558467D01*
X17454683Y34572999D01*
X17454673Y34573000D01*
X17105325Y34573000D01*
X17105324Y34573000D01*
X17105314Y34572999D01*
X17032262Y34558467D01*
X17032260Y34558467D01*
X17032259Y34558466D01*
X17032258Y34558466D01*
X17023250Y34554734D01*
X17022415Y34556749D01*
X16976111Y34543689D01*
X16937385Y34556273D01*
X16936748Y34554734D01*
X16927741Y34558465D01*
X16927739Y34558466D01*
X16927735Y34558467D01*
X16854683Y34572999D01*
X16854673Y34573000D01*
X16505325Y34573000D01*
X16505324Y34573000D01*
X16505314Y34572999D01*
X16432262Y34558467D01*
X16432260Y34558467D01*
X16432259Y34558466D01*
X16432258Y34558466D01*
X16423250Y34554734D01*
X16422415Y34556749D01*
X16376111Y34543689D01*
X16337385Y34556273D01*
X16336748Y34554734D01*
X16327741Y34558465D01*
X16327739Y34558466D01*
X16327735Y34558467D01*
X16254683Y34572999D01*
X16254673Y34573000D01*
X15905325Y34573000D01*
X15905324Y34573000D01*
X15905314Y34572999D01*
X15832262Y34558467D01*
X15832260Y34558467D01*
X15832259Y34558466D01*
X15832258Y34558466D01*
X15823250Y34554734D01*
X15822415Y34556749D01*
X15776111Y34543689D01*
X15737385Y34556273D01*
X15736748Y34554734D01*
X15727741Y34558465D01*
X15727739Y34558466D01*
X15727735Y34558467D01*
X15654683Y34572999D01*
X15654673Y34573000D01*
X15305325Y34573000D01*
X15305324Y34573000D01*
X15305314Y34572999D01*
X15232262Y34558467D01*
X15232260Y34558467D01*
X15232259Y34558466D01*
X15232258Y34558466D01*
X15223250Y34554734D01*
X15222415Y34556749D01*
X15176111Y34543689D01*
X15137385Y34556273D01*
X15136748Y34554734D01*
X15127741Y34558465D01*
X15127739Y34558466D01*
X15127735Y34558467D01*
X15054683Y34572999D01*
X15054673Y34573000D01*
X14705325Y34573000D01*
X14705324Y34573000D01*
X14705314Y34572999D01*
X14632262Y34558467D01*
X14632260Y34558467D01*
X14632259Y34558466D01*
X14632258Y34558466D01*
X14623250Y34554734D01*
X14622415Y34556749D01*
X14576111Y34543689D01*
X14537385Y34556273D01*
X14536748Y34554734D01*
X14527741Y34558465D01*
X14527739Y34558466D01*
X14527735Y34558467D01*
X14454683Y34572999D01*
X14454673Y34573000D01*
X14105325Y34573000D01*
X14105324Y34573000D01*
X14105314Y34572999D01*
X14032262Y34558467D01*
X14032260Y34558467D01*
X14032259Y34558466D01*
X14032258Y34558466D01*
X14023250Y34554734D01*
X14022415Y34556749D01*
X13976111Y34543689D01*
X13937385Y34556273D01*
X13936748Y34554734D01*
X13927741Y34558465D01*
X13927739Y34558466D01*
X13927735Y34558467D01*
X13854683Y34572999D01*
X13854673Y34573000D01*
X13505325Y34573000D01*
X13505324Y34573000D01*
X13505314Y34572999D01*
X13432262Y34558467D01*
X13432260Y34558467D01*
X13432259Y34558466D01*
X13432258Y34558466D01*
X13423250Y34554734D01*
X13422415Y34556749D01*
X13376111Y34543689D01*
X13337385Y34556273D01*
X13336748Y34554734D01*
X13327741Y34558465D01*
X13327739Y34558466D01*
X13327735Y34558467D01*
X13254683Y34572999D01*
X13254673Y34573000D01*
X12905325Y34573000D01*
X12905324Y34573000D01*
X12905314Y34572999D01*
X12832262Y34558467D01*
X12832260Y34558467D01*
X12832259Y34558466D01*
X12832258Y34558466D01*
X12823250Y34554734D01*
X12822415Y34556749D01*
X12776111Y34543689D01*
X12737385Y34556273D01*
X12736748Y34554734D01*
X12727741Y34558465D01*
X12727739Y34558466D01*
X12727735Y34558467D01*
X12654683Y34572999D01*
X12654673Y34573000D01*
X12305325Y34573000D01*
X12305324Y34573000D01*
X12305314Y34572999D01*
X12232262Y34558467D01*
X12232260Y34558467D01*
X12232259Y34558466D01*
X12232258Y34558466D01*
X12223250Y34554734D01*
X12222415Y34556749D01*
X12176111Y34543689D01*
X12137385Y34556273D01*
X12136748Y34554734D01*
X12127741Y34558465D01*
X12127739Y34558466D01*
X12127735Y34558467D01*
X12054683Y34572999D01*
X12054673Y34573000D01*
X11705325Y34573000D01*
X11705324Y34573000D01*
X11705314Y34572999D01*
X11632262Y34558467D01*
X11632260Y34558467D01*
X11632259Y34558466D01*
X11632258Y34558466D01*
X11623250Y34554734D01*
X11622415Y34556749D01*
X11576111Y34543689D01*
X11537385Y34556273D01*
X11536748Y34554734D01*
X11527741Y34558465D01*
X11527739Y34558466D01*
X11527735Y34558467D01*
X11454683Y34572999D01*
X11454673Y34573000D01*
X11105325Y34573000D01*
X11105324Y34573000D01*
X11105314Y34572999D01*
X11032262Y34558467D01*
X11032260Y34558467D01*
X11032259Y34558466D01*
X11032258Y34558466D01*
X11023250Y34554734D01*
X11022415Y34556749D01*
X10976111Y34543689D01*
X10937385Y34556273D01*
X10936748Y34554734D01*
X10927741Y34558465D01*
X10927739Y34558466D01*
X10927735Y34558467D01*
X10854683Y34572999D01*
X10854673Y34573000D01*
X10505325Y34573000D01*
X10505324Y34573000D01*
X10505314Y34572999D01*
X10432262Y34558467D01*
X10432260Y34558467D01*
X10432259Y34558466D01*
X10432258Y34558466D01*
X10423250Y34554734D01*
X10422415Y34556749D01*
X10376111Y34543689D01*
X10337385Y34556273D01*
X10336748Y34554734D01*
X10327741Y34558465D01*
X10327739Y34558466D01*
X10327735Y34558467D01*
X10254683Y34572999D01*
X10254673Y34573000D01*
X9905325Y34573000D01*
X9905324Y34573000D01*
X9905314Y34572999D01*
X9832262Y34558467D01*
X9832260Y34558467D01*
X9832259Y34558466D01*
X9832258Y34558466D01*
X9823250Y34554734D01*
X9822415Y34556749D01*
X9776111Y34543689D01*
X9737385Y34556273D01*
X9736748Y34554734D01*
X9727741Y34558465D01*
X9727739Y34558466D01*
X9727735Y34558467D01*
X9654683Y34572999D01*
X9654673Y34573000D01*
X9305325Y34573000D01*
X9305324Y34573000D01*
X9305314Y34572999D01*
X9232262Y34558467D01*
X9232260Y34558467D01*
X9232259Y34558466D01*
X9232258Y34558466D01*
X9223250Y34554734D01*
X9222415Y34556749D01*
X9176111Y34543689D01*
X9137385Y34556273D01*
X9136748Y34554734D01*
X9127741Y34558465D01*
X9127739Y34558466D01*
X9127735Y34558467D01*
X9054683Y34572999D01*
X9054673Y34573000D01*
X8705325Y34573000D01*
X8705324Y34573000D01*
X8705314Y34572999D01*
X8632262Y34558467D01*
X8632260Y34558467D01*
X8632259Y34558466D01*
X8632258Y34558466D01*
X8623250Y34554734D01*
X8622415Y34556749D01*
X8576111Y34543689D01*
X8537385Y34556273D01*
X8536748Y34554734D01*
X8527741Y34558465D01*
X8527739Y34558466D01*
X8527735Y34558467D01*
X8454683Y34572999D01*
X8454673Y34573000D01*
X8105325Y34573000D01*
X8105324Y34573000D01*
X8105314Y34572999D01*
X8032262Y34558467D01*
X8032260Y34558467D01*
X8032259Y34558466D01*
X8032258Y34558466D01*
X8023250Y34554734D01*
X8022415Y34556749D01*
X7976111Y34543689D01*
X7937385Y34556273D01*
X7936748Y34554734D01*
X7927741Y34558465D01*
X7927739Y34558466D01*
X7927735Y34558467D01*
X7854683Y34572999D01*
X7854673Y34573000D01*
X7505325Y34573000D01*
X7505324Y34573000D01*
X7505314Y34572999D01*
X7432262Y34558467D01*
X7432256Y34558465D01*
X7349399Y34503103D01*
X7349396Y34503100D01*
X7294034Y34420243D01*
X7294032Y34420237D01*
X7279500Y34347185D01*
X7279499Y34347173D01*
X7279499Y33647828D01*
X7279500Y33647816D01*
X7294032Y33574764D01*
X7294034Y33574758D01*
X7315723Y33542298D01*
X7349315Y33492023D01*
X7365999Y33437023D01*
X7365999Y32841862D01*
X7347092Y32783671D01*
X7341818Y32777031D01*
X7271223Y32695561D01*
X7210956Y32563594D01*
X7210955Y32563591D01*
X7190311Y32420003D01*
X7190311Y32419998D01*
X7210955Y32276410D01*
X7210956Y32276407D01*
X7210956Y32276406D01*
X7210957Y32276404D01*
X7271222Y32144442D01*
X7366224Y32034804D01*
X7488267Y31956371D01*
X7488268Y31956371D01*
X7489959Y31955284D01*
X7528690Y31907918D01*
X7532182Y31846832D01*
X7499103Y31795360D01*
X7442086Y31773161D01*
X7436435Y31773000D01*
X7229499Y31773000D01*
X7171308Y31791907D01*
X7135344Y31841407D01*
X7130499Y31872000D01*
X7130499Y31897173D01*
X7130497Y31897185D01*
X7121700Y31941407D01*
X7115965Y31970240D01*
X7089074Y32010486D01*
X7060601Y32053100D01*
X7060598Y32053103D01*
X6977741Y32108465D01*
X6977739Y32108466D01*
X6977736Y32108467D01*
X6977735Y32108467D01*
X6904683Y32122999D01*
X6904673Y32123000D01*
X6455325Y32123000D01*
X6455324Y32123000D01*
X6455314Y32122999D01*
X6382262Y32108467D01*
X6382256Y32108465D01*
X6299399Y32053103D01*
X6299396Y32053100D01*
X6244034Y31970243D01*
X6244032Y31970237D01*
X6229500Y31897185D01*
X6229499Y31897173D01*
X6229499Y30897828D01*
X5702499Y30897828D01*
X5702499Y33366117D01*
X5721406Y33424308D01*
X5742706Y33445769D01*
X5847149Y33522850D01*
X5927792Y33632118D01*
X5972645Y33760301D01*
X5975498Y33790727D01*
X5975499Y33790727D01*
X5975499Y34449274D01*
X5975498Y34449275D01*
X5974087Y34464322D01*
X5972645Y34479699D01*
X5927792Y34607882D01*
X5879106Y34673849D01*
X5847153Y34717145D01*
X5847151Y34717147D01*
X5847149Y34717150D01*
X5847145Y34717153D01*
X5847143Y34717155D01*
X5737884Y34797792D01*
X5731323Y34801259D01*
X5732816Y34804085D01*
X5695119Y34832790D01*
X5677499Y34889166D01*
X5677499Y35422629D01*
X5696406Y35480820D01*
X5706496Y35492633D01*
X6127368Y35913504D01*
X6181884Y35941281D01*
X6197371Y35942500D01*
X21850581Y35942500D01*
X21870895Y35940394D01*
X21884183Y35937607D01*
X21920391Y35942121D01*
X21926515Y35942500D01*
X21931283Y35942500D01*
X21938369Y35943684D01*
X21953452Y35946201D01*
X21955397Y35946484D01*
X22009202Y35953190D01*
X22009206Y35953193D01*
X22016776Y35955446D01*
X22024260Y35958016D01*
X22024268Y35958017D01*
X22071965Y35983831D01*
X22073680Y35984714D01*
X22122388Y36008524D01*
X22122391Y36008528D01*
X22128831Y36013126D01*
X22135065Y36017978D01*
X22135070Y36017980D01*
X22171762Y36057840D01*
X22173175Y36059312D01*
X22696043Y36582180D01*
X22820180Y36706317D01*
X25645739Y36706317D01*
X25655754Y36521593D01*
X25705245Y36343341D01*
X25705246Y36343339D01*
X25705249Y36343333D01*
X25791898Y36179897D01*
X25791899Y36179896D01*
X25911660Y36038902D01*
X25911665Y36038897D01*
X26058931Y35926948D01*
X26058933Y35926947D01*
X26058934Y35926947D01*
X26058935Y35926946D01*
X26226832Y35849268D01*
X26407502Y35809500D01*
X26407506Y35809500D01*
X27346111Y35809500D01*
X27346112Y35809500D01*
X27483909Y35824486D01*
X27659220Y35883556D01*
X27817735Y35978930D01*
X27952040Y36106151D01*
X28055857Y36259270D01*
X28124330Y36431125D01*
X28154259Y36613683D01*
X28144244Y36798407D01*
X28094753Y36976659D01*
X28008099Y37140104D01*
X27888336Y37281100D01*
X27888332Y37281104D01*
X27741066Y37393053D01*
X27741064Y37393054D01*
X27573169Y37470731D01*
X27573167Y37470732D01*
X27537032Y37478686D01*
X27392496Y37510500D01*
X26453886Y37510500D01*
X26316089Y37495514D01*
X26257019Y37475612D01*
X26140779Y37436445D01*
X26140776Y37436444D01*
X25982265Y37341073D01*
X25982261Y37341069D01*
X25847959Y37213851D01*
X25744141Y37060733D01*
X25675668Y36888876D01*
X25675668Y36888875D01*
X25645739Y36706317D01*
X22820180Y36706317D01*
X23231995Y37118132D01*
X23247840Y37130998D01*
X23259208Y37138424D01*
X23281620Y37167221D01*
X23285669Y37171806D01*
X23289051Y37175186D01*
X23302111Y37193479D01*
X23303307Y37195084D01*
X23336591Y37237845D01*
X23336593Y37237850D01*
X23340343Y37244779D01*
X23343827Y37251907D01*
X23343831Y37251911D01*
X23359296Y37303862D01*
X23359898Y37305740D01*
X23377499Y37357006D01*
X23377499Y37357010D01*
X23378802Y37364813D01*
X23379778Y37372655D01*
X23379780Y37372660D01*
X23377540Y37426805D01*
X23377499Y37428819D01*
X23377499Y39246317D01*
X25645739Y39246317D01*
X25655754Y39061593D01*
X25705245Y38883341D01*
X25705246Y38883339D01*
X25705249Y38883333D01*
X25791898Y38719897D01*
X25791899Y38719896D01*
X25911660Y38578902D01*
X25911665Y38578897D01*
X26058931Y38466948D01*
X26058933Y38466947D01*
X26058934Y38466947D01*
X26058935Y38466946D01*
X26226832Y38389268D01*
X26407502Y38349500D01*
X26407506Y38349500D01*
X27346111Y38349500D01*
X27346112Y38349500D01*
X27483909Y38364486D01*
X27659220Y38423556D01*
X27817735Y38518930D01*
X27952040Y38646151D01*
X28055857Y38799270D01*
X28124330Y38971125D01*
X28154259Y39153683D01*
X28144244Y39338407D01*
X28094753Y39516659D01*
X28008099Y39680104D01*
X27888336Y39821100D01*
X27888332Y39821104D01*
X27741066Y39933053D01*
X27741064Y39933054D01*
X27573169Y40010731D01*
X27573167Y40010732D01*
X27537032Y40018686D01*
X27392496Y40050500D01*
X26453886Y40050500D01*
X26316089Y40035514D01*
X26257020Y40015612D01*
X26140779Y39976445D01*
X26140776Y39976444D01*
X25982265Y39881073D01*
X25982261Y39881069D01*
X25847959Y39753851D01*
X25744141Y39600733D01*
X25675668Y39428876D01*
X25675668Y39428875D01*
X25645739Y39246317D01*
X23377499Y39246317D01*
X23377499Y41786317D01*
X25645739Y41786317D01*
X25655754Y41601593D01*
X25705245Y41423341D01*
X25705246Y41423339D01*
X25705249Y41423333D01*
X25791898Y41259897D01*
X25791899Y41259896D01*
X25911660Y41118902D01*
X25911665Y41118897D01*
X26058931Y41006948D01*
X26058933Y41006947D01*
X26058934Y41006947D01*
X26058935Y41006946D01*
X26226832Y40929268D01*
X26407502Y40889500D01*
X26407506Y40889500D01*
X27346111Y40889500D01*
X27346112Y40889500D01*
X27483909Y40904486D01*
X27659220Y40963556D01*
X27817735Y41058930D01*
X27952040Y41186151D01*
X28055857Y41339270D01*
X28124330Y41511125D01*
X28154259Y41693683D01*
X28144244Y41878407D01*
X28094753Y42056659D01*
X28008099Y42220104D01*
X27888336Y42361100D01*
X27888332Y42361104D01*
X27741066Y42473053D01*
X27741064Y42473054D01*
X27573169Y42550731D01*
X27573167Y42550732D01*
X27537032Y42558686D01*
X27392496Y42590500D01*
X26453886Y42590500D01*
X26316089Y42575514D01*
X26257916Y42555913D01*
X26140779Y42516445D01*
X26140776Y42516444D01*
X25982265Y42421073D01*
X25982261Y42421069D01*
X25847959Y42293851D01*
X25744141Y42140733D01*
X25675668Y41968876D01*
X25675668Y41968875D01*
X25645739Y41786317D01*
X23377499Y41786317D01*
X23377499Y44326317D01*
X25645739Y44326317D01*
X25655754Y44141593D01*
X25685275Y44035268D01*
X25705246Y43963339D01*
X25705249Y43963333D01*
X25791898Y43799897D01*
X25791899Y43799896D01*
X25911660Y43658902D01*
X25911665Y43658897D01*
X26058931Y43546948D01*
X26058933Y43546947D01*
X26058934Y43546947D01*
X26058935Y43546946D01*
X26226832Y43469268D01*
X26407502Y43429500D01*
X26407506Y43429500D01*
X27346111Y43429500D01*
X27346112Y43429500D01*
X27483909Y43444486D01*
X27659220Y43503556D01*
X27793067Y43584088D01*
X27817732Y43598928D01*
X27817732Y43598929D01*
X27817735Y43598930D01*
X27952040Y43726151D01*
X28055857Y43879270D01*
X28124330Y44051125D01*
X28154259Y44233683D01*
X28144244Y44418407D01*
X28094753Y44596659D01*
X28008099Y44760104D01*
X27888336Y44901100D01*
X27888332Y44901104D01*
X27741066Y45013053D01*
X27741064Y45013054D01*
X27573169Y45090731D01*
X27573167Y45090732D01*
X27537032Y45098686D01*
X27392496Y45130500D01*
X26453886Y45130500D01*
X26316089Y45115514D01*
X26257020Y45095612D01*
X26140779Y45056445D01*
X26140776Y45056444D01*
X25982265Y44961073D01*
X25982261Y44961069D01*
X25847959Y44833851D01*
X25744141Y44680733D01*
X25675668Y44508876D01*
X25661098Y44420000D01*
X25645739Y44326317D01*
X23377499Y44326317D01*
X23377499Y45022627D01*
X23396406Y45080818D01*
X23406495Y45092631D01*
X24727369Y46413504D01*
X24781886Y46441281D01*
X24797373Y46442500D01*
X25550499Y46442500D01*
X25608690Y46423593D01*
X25644654Y46374093D01*
X25649499Y46343500D01*
X25649499Y46195328D01*
X25649500Y46195316D01*
X25664032Y46122264D01*
X25664034Y46122258D01*
X25719396Y46039401D01*
X25719399Y46039398D01*
X25802256Y45984036D01*
X25802259Y45984034D01*
X25857807Y45972985D01*
X25875314Y45969502D01*
X25875319Y45969502D01*
X25875325Y45969500D01*
X25875326Y45969500D01*
X27924672Y45969500D01*
X27924673Y45969500D01*
X27997739Y45984034D01*
X28080600Y46039399D01*
X28135965Y46122260D01*
X28150499Y46195326D01*
X28150499Y47444674D01*
X28135965Y47517740D01*
X28135963Y47517743D01*
X28080601Y47600600D01*
X28080598Y47600603D01*
X27997741Y47655965D01*
X27997739Y47655966D01*
X27997736Y47655967D01*
X27997735Y47655967D01*
X27924683Y47670499D01*
X27924673Y47670500D01*
X25875325Y47670500D01*
X25875324Y47670500D01*
X25875314Y47670499D01*
X25802262Y47655967D01*
X25802256Y47655965D01*
X25719399Y47600603D01*
X25719396Y47600600D01*
X25664034Y47517743D01*
X25664032Y47517737D01*
X25649500Y47444685D01*
X25649499Y47444673D01*
X25649499Y47296500D01*
X25630592Y47238309D01*
X25581092Y47202345D01*
X25550499Y47197500D01*
X24649417Y47197500D01*
X24629102Y47199607D01*
X24615815Y47202393D01*
X24579606Y47197880D01*
X24573483Y47197500D01*
X24568713Y47197500D01*
X24546591Y47193809D01*
X24544569Y47193514D01*
X24490801Y47186811D01*
X24490798Y47186811D01*
X24490796Y47186810D01*
X24490793Y47186809D01*
X24483212Y47184552D01*
X24475730Y47181983D01*
X24428098Y47156207D01*
X24426280Y47155271D01*
X24377611Y47131478D01*
X24371170Y47126879D01*
X24364928Y47122021D01*
X24328250Y47082180D01*
X24326835Y47080704D01*
X22768005Y45521874D01*
X22752152Y45509001D01*
X22740793Y45501580D01*
X22740789Y45501576D01*
X22718380Y45472787D01*
X22714321Y45468189D01*
X22710950Y45464819D01*
X22710943Y45464810D01*
X22697894Y45446535D01*
X22696673Y45444898D01*
X22663407Y45402157D01*
X22659646Y45395207D01*
X22656167Y45388090D01*
X22640711Y45336177D01*
X22640087Y45334230D01*
X22622498Y45282996D01*
X22621197Y45275195D01*
X22620218Y45267338D01*
X22622456Y45213228D01*
X22622498Y45211183D01*
X22622498Y37617375D01*
X22603591Y37559184D01*
X22593502Y37547372D01*
X21772629Y36726497D01*
X21718112Y36698719D01*
X21702625Y36697500D01*
X6049413Y36697500D01*
X6029098Y36699607D01*
X6015816Y36702392D01*
X6015815Y36702392D01*
X5979613Y36697880D01*
X5973490Y36697500D01*
X5968718Y36697500D01*
X5964157Y36696739D01*
X5946563Y36693804D01*
X5944542Y36693510D01*
X5890796Y36686810D01*
X5883216Y36684554D01*
X5875730Y36681983D01*
X5828087Y36656202D01*
X5826271Y36655267D01*
X5777610Y36631477D01*
X5771165Y36626876D01*
X5764928Y36622021D01*
X5728250Y36582180D01*
X5726835Y36580704D01*
X5068005Y35921874D01*
X5052152Y35909001D01*
X5040793Y35901580D01*
X5040789Y35901576D01*
X5018380Y35872787D01*
X5014321Y35868189D01*
X5010950Y35864819D01*
X5010943Y35864810D01*
X4997894Y35846535D01*
X4996673Y35844898D01*
X4963407Y35802157D01*
X4959646Y35795207D01*
X4956167Y35788090D01*
X4940711Y35736177D01*
X4940087Y35734230D01*
X4922498Y35682996D01*
X4921197Y35675195D01*
X4920218Y35667341D01*
X4920218Y35667340D01*
X4922457Y35613196D01*
X4922499Y35611183D01*
X4922499Y34855434D01*
X4903592Y34797243D01*
X4882288Y34775779D01*
X4802851Y34717152D01*
X4802844Y34717145D01*
X4722206Y34607884D01*
X4677354Y34479704D01*
X4677352Y34479695D01*
X4674499Y34449275D01*
X4674499Y33790726D01*
X4677352Y33760306D01*
X4677354Y33760297D01*
X4722206Y33632117D01*
X4802844Y33522856D01*
X4802846Y33522854D01*
X4802849Y33522850D01*
X4907288Y33445771D01*
X4942880Y33396005D01*
X4947499Y33366117D01*
X4947499Y32673532D01*
X4928592Y32615341D01*
X4879092Y32579377D01*
X4817906Y32579377D01*
X4778495Y32603528D01*
X4084035Y33297988D01*
X4056258Y33352505D01*
X4065829Y33412937D01*
X4095249Y33447646D01*
X4197149Y33522850D01*
X4277792Y33632118D01*
X4322645Y33760301D01*
X4325498Y33790727D01*
X4325499Y33790727D01*
X4325499Y34449274D01*
X4325498Y34449275D01*
X4324087Y34464322D01*
X4322645Y34479699D01*
X4277792Y34607882D01*
X4229106Y34673849D01*
X4197153Y34717145D01*
X4197151Y34717147D01*
X4197149Y34717150D01*
X4197145Y34717153D01*
X4197143Y34717155D01*
X4087882Y34797793D01*
X3959702Y34842645D01*
X3959693Y34842647D01*
X3929273Y34845500D01*
X3929265Y34845500D01*
X3420733Y34845500D01*
X3420724Y34845500D01*
X3390304Y34842647D01*
X3390295Y34842645D01*
X3262115Y34797793D01*
X3152854Y34717155D01*
X3152844Y34717145D01*
X3072206Y34607884D01*
X3039006Y34513002D01*
X3001941Y34464322D01*
X2945562Y34446700D01*
X2748995Y34446700D01*
X2690804Y34465607D01*
X2661530Y34499323D01*
X2608099Y34600104D01*
X2601492Y34607882D01*
X2488337Y34741099D01*
X2488332Y34741104D01*
X2341066Y34853053D01*
X2341064Y34853054D01*
X2173169Y34930731D01*
X2173167Y34930732D01*
X2137031Y34938686D01*
X1992496Y34970500D01*
X1053886Y34970500D01*
X916089Y34955514D01*
X857020Y34935612D01*
X740779Y34896445D01*
X740776Y34896444D01*
X582265Y34801073D01*
X582261Y34801069D01*
X447959Y34673851D01*
X344141Y34520733D01*
X275668Y34348876D01*
X275668Y34348875D01*
X245739Y34166317D01*
X255754Y33981593D01*
X305245Y33803341D01*
X305246Y33803339D01*
X305249Y33803333D01*
X391898Y33639897D01*
X391899Y33639896D01*
X511660Y33498902D01*
X511665Y33498897D01*
X658931Y33386948D01*
X658933Y33386947D01*
X658934Y33386947D01*
X658935Y33386946D01*
X826832Y33309268D01*
X1007502Y33269500D01*
X1007506Y33269500D01*
X1946111Y33269500D01*
X1946112Y33269500D01*
X2083909Y33284486D01*
X2259220Y33343556D01*
X2393433Y33424308D01*
X2417732Y33438928D01*
X2417732Y33438929D01*
X2417735Y33438930D01*
X2552040Y33566151D01*
X2655857Y33719270D01*
X2660508Y33730945D01*
X2699612Y33778003D01*
X2752477Y33793300D01*
X2945562Y33793300D01*
X3003753Y33774393D01*
X3039006Y33726998D01*
X3072206Y33632117D01*
X3152844Y33522856D01*
X3152846Y33522854D01*
X3152849Y33522850D01*
X3152852Y33522848D01*
X3152854Y33522846D01*
X3257285Y33445773D01*
X3262117Y33442207D01*
X3281996Y33435252D01*
X3330676Y33398187D01*
X3348299Y33341807D01*
X3348299Y33261428D01*
X3348111Y33257126D01*
X3345028Y33221886D01*
X3344521Y33216087D01*
X3355180Y33176306D01*
X3356115Y33172088D01*
X3363264Y33131539D01*
X3364047Y33130184D01*
X3373934Y33106316D01*
X3374340Y33104801D01*
X3385111Y33089419D01*
X3397962Y33071065D01*
X3400282Y33067422D01*
X3414735Y33042389D01*
X3420871Y33031762D01*
X3430580Y33023615D01*
X3452413Y33005295D01*
X3455598Y33002376D01*
X3667074Y32790901D01*
X4295998Y32161977D01*
X4323774Y32107462D01*
X4324993Y32091975D01*
X4324993Y29718905D01*
X4306086Y29660714D01*
X4256586Y29624750D01*
X4195400Y29624750D01*
X4167205Y29639250D01*
X4087882Y29697793D01*
X3959702Y29742645D01*
X3959693Y29742647D01*
X3929273Y29745500D01*
X3929265Y29745500D01*
X3420733Y29745500D01*
X3420724Y29745500D01*
X3390304Y29742647D01*
X3390295Y29742645D01*
X3262115Y29697793D01*
X3152854Y29617155D01*
X3152844Y29617145D01*
X3072206Y29507884D01*
X3046004Y29433002D01*
X3008939Y29384322D01*
X2952560Y29366700D01*
X2748995Y29366700D01*
X2690804Y29385607D01*
X2661530Y29419323D01*
X2608099Y29520104D01*
X2592801Y29538114D01*
X2488337Y29661099D01*
X2488332Y29661104D01*
X2341066Y29773053D01*
X2341064Y29773054D01*
X2173169Y29850731D01*
X2173167Y29850732D01*
X2137032Y29858686D01*
X1992496Y29890500D01*
X1053886Y29890500D01*
X916089Y29875514D01*
X857020Y29855612D01*
X740779Y29816445D01*
X740776Y29816444D01*
X582265Y29721073D01*
X582261Y29721069D01*
X447959Y29593851D01*
X344141Y29440733D01*
X275668Y29268876D01*
X257472Y29157882D01*
X245739Y29086317D01*
X255754Y28901593D01*
X305245Y28723341D01*
X305246Y28723339D01*
X305249Y28723333D01*
X391898Y28559897D01*
X391899Y28559896D01*
X511660Y28418902D01*
X511665Y28418897D01*
X658931Y28306948D01*
X658933Y28306947D01*
X658934Y28306947D01*
X658935Y28306946D01*
X826832Y28229268D01*
X1007502Y28189500D01*
X1007506Y28189500D01*
X1946111Y28189500D01*
X1946112Y28189500D01*
X2083909Y28204486D01*
X2259220Y28263556D01*
X2373171Y28332117D01*
X2417732Y28358928D01*
X2417732Y28358929D01*
X2417735Y28358930D01*
X2552040Y28486151D01*
X2655857Y28639270D01*
X2660508Y28650945D01*
X2699612Y28698003D01*
X2752477Y28713300D01*
X2938564Y28713300D01*
X2996755Y28694393D01*
X3032007Y28646999D01*
X3062486Y28559897D01*
X3072207Y28532115D01*
X3152844Y28422856D01*
X3152846Y28422854D01*
X3152849Y28422850D01*
X3152852Y28422848D01*
X3152854Y28422846D01*
X3260885Y28343116D01*
X3262117Y28342207D01*
X3281996Y28335252D01*
X3330676Y28298187D01*
X3348299Y28241807D01*
X3348299Y28161428D01*
X3348111Y28157126D01*
X3344521Y28116086D01*
X3349540Y28097356D01*
X3355180Y28076306D01*
X3356115Y28072088D01*
X3363264Y28031539D01*
X3364047Y28030184D01*
X3373934Y28006316D01*
X3374340Y28004801D01*
X3374341Y28004800D01*
X3397962Y27971065D01*
X3400282Y27967422D01*
X3420870Y27931763D01*
X3452413Y27905295D01*
X3455598Y27902376D01*
X3943471Y27414504D01*
X3971249Y27359987D01*
X3961678Y27299555D01*
X3918413Y27256290D01*
X3873468Y27245500D01*
X3417124Y27245500D01*
X3386704Y27242647D01*
X3386695Y27242645D01*
X3258515Y27197793D01*
X3149254Y27117155D01*
X3149244Y27117145D01*
X3068607Y27007886D01*
X3068606Y27007882D01*
X3028407Y26893002D01*
X2991343Y26844322D01*
X2934964Y26826700D01*
X2748995Y26826700D01*
X2690804Y26845607D01*
X2661530Y26879323D01*
X2608099Y26980104D01*
X2607568Y26980729D01*
X2488337Y27121099D01*
X2488332Y27121104D01*
X2341066Y27233053D01*
X2341064Y27233054D01*
X2173169Y27310731D01*
X2173167Y27310732D01*
X2137032Y27318686D01*
X1992496Y27350500D01*
X1053886Y27350500D01*
X916089Y27335514D01*
X857019Y27315612D01*
X740779Y27276445D01*
X740776Y27276444D01*
X582265Y27181073D01*
X582261Y27181069D01*
X447959Y27053851D01*
X344141Y26900733D01*
X275668Y26728876D01*
X246492Y26550908D01*
X245739Y26546317D01*
X4179Y26546317D01*
X4179Y30912799D01*
X23086Y30970990D01*
X72586Y31006954D01*
X133772Y31006954D01*
X183272Y30970990D01*
X183822Y30970225D01*
X264891Y30856379D01*
X264896Y30856374D01*
X416930Y30711410D01*
X593655Y30597835D01*
X593668Y30597828D01*
X788679Y30519758D01*
X788688Y30519755D01*
X994964Y30480000D01*
X1249998Y30480000D01*
X1249999Y30480002D01*
X1249999Y31264314D01*
X1261954Y31252359D01*
X1374851Y31194835D01*
X1468518Y31180000D01*
X1531480Y31180000D01*
X1625147Y31194835D01*
X1738044Y31252359D01*
X1749999Y31264314D01*
X1749999Y30480001D01*
X1750000Y30480000D01*
X1952403Y30480000D01*
X2109123Y30494966D01*
X2310691Y30554152D01*
X2497406Y30650410D01*
X2497409Y30650412D01*
X2662539Y30780271D01*
X2800109Y30939036D01*
X2905146Y31120966D01*
X2973855Y31319488D01*
X2975367Y31329999D01*
X2975366Y31330000D01*
X1815685Y31330000D01*
X1827640Y31341955D01*
X1885164Y31454852D01*
X1904985Y31580000D01*
X1885164Y31705148D01*
X1827640Y31818045D01*
X1815685Y31830000D01*
X2971257Y31830000D01*
X2944230Y31941407D01*
X2856963Y32132498D01*
X2735106Y32303622D01*
X2735101Y32303627D01*
X2583067Y32448591D01*
X2406342Y32562166D01*
X2406329Y32562173D01*
X2211318Y32640243D01*
X2211309Y32640246D01*
X2005034Y32680000D01*
X1750000Y32680000D01*
X1749999Y32679999D01*
X1749999Y31895686D01*
X1738044Y31907641D01*
X1625147Y31965165D01*
X1531480Y31980000D01*
X1468518Y31980000D01*
X1374851Y31965165D01*
X1261954Y31907641D01*
X1249999Y31895686D01*
X1249999Y32679999D01*
X1249998Y32680000D01*
X1047595Y32680000D01*
X890874Y32665035D01*
X689306Y32605849D01*
X502591Y32509591D01*
X502588Y32509589D01*
X337458Y32379730D01*
X199889Y32220965D01*
X188915Y32201958D01*
X143444Y32161018D01*
X82594Y32154624D01*
X29606Y32185217D01*
X4721Y32241113D01*
X4179Y32251460D01*
X4179Y36706317D01*
X245739Y36706317D01*
X255754Y36521593D01*
X305245Y36343341D01*
X305246Y36343339D01*
X305249Y36343333D01*
X391898Y36179897D01*
X391899Y36179896D01*
X511660Y36038902D01*
X511665Y36038897D01*
X658931Y35926948D01*
X658933Y35926947D01*
X658934Y35926947D01*
X658935Y35926946D01*
X826832Y35849268D01*
X1007502Y35809500D01*
X1007506Y35809500D01*
X1946111Y35809500D01*
X1946112Y35809500D01*
X2083909Y35824486D01*
X2259220Y35883556D01*
X2417735Y35978930D01*
X2552040Y36106151D01*
X2655857Y36259270D01*
X2724330Y36431125D01*
X2754259Y36613683D01*
X2744244Y36798407D01*
X2694753Y36976659D01*
X2608099Y37140104D01*
X2488336Y37281100D01*
X2488332Y37281104D01*
X2341066Y37393053D01*
X2341064Y37393054D01*
X2173169Y37470731D01*
X2173167Y37470732D01*
X2137032Y37478686D01*
X1992496Y37510500D01*
X1053886Y37510500D01*
X916089Y37495514D01*
X857020Y37475612D01*
X740779Y37436445D01*
X740776Y37436444D01*
X582265Y37341073D01*
X582261Y37341069D01*
X447959Y37213851D01*
X344141Y37060733D01*
X275668Y36888876D01*
X275668Y36888875D01*
X245739Y36706317D01*
X4179Y36706317D01*
X4179Y39246317D01*
X245739Y39246317D01*
X255754Y39061593D01*
X305245Y38883341D01*
X305246Y38883339D01*
X305249Y38883333D01*
X391898Y38719897D01*
X391899Y38719896D01*
X511660Y38578902D01*
X511665Y38578897D01*
X658931Y38466948D01*
X658933Y38466947D01*
X658934Y38466947D01*
X658935Y38466946D01*
X826832Y38389268D01*
X1007502Y38349500D01*
X1007506Y38349500D01*
X1946111Y38349500D01*
X1946112Y38349500D01*
X2083909Y38364486D01*
X2259220Y38423556D01*
X2417735Y38518930D01*
X2552040Y38646151D01*
X2655857Y38799270D01*
X2724330Y38971125D01*
X2754259Y39153683D01*
X2744244Y39338407D01*
X2694753Y39516659D01*
X2608099Y39680104D01*
X2488336Y39821100D01*
X2488332Y39821104D01*
X2341066Y39933053D01*
X2341064Y39933054D01*
X2173169Y40010731D01*
X2173167Y40010732D01*
X2137032Y40018686D01*
X1992496Y40050500D01*
X1053886Y40050500D01*
X916089Y40035514D01*
X857020Y40015612D01*
X740779Y39976445D01*
X740776Y39976444D01*
X582265Y39881073D01*
X582261Y39881069D01*
X447959Y39753851D01*
X344141Y39600733D01*
X275668Y39428876D01*
X275668Y39428875D01*
X245739Y39246317D01*
X4179Y39246317D01*
X4179Y41786317D01*
X245739Y41786317D01*
X255754Y41601593D01*
X305245Y41423341D01*
X305246Y41423339D01*
X305249Y41423333D01*
X391898Y41259897D01*
X391899Y41259896D01*
X511660Y41118902D01*
X511665Y41118897D01*
X658931Y41006948D01*
X658933Y41006947D01*
X658934Y41006947D01*
X658935Y41006946D01*
X826832Y40929268D01*
X1007502Y40889500D01*
X1007506Y40889500D01*
X1946111Y40889500D01*
X1946112Y40889500D01*
X2083909Y40904486D01*
X2259220Y40963556D01*
X2417735Y41058930D01*
X2552040Y41186151D01*
X2655857Y41339270D01*
X2660508Y41350945D01*
X2699612Y41398003D01*
X2752477Y41413300D01*
X3674093Y41413300D01*
X3732284Y41394393D01*
X3768248Y41344893D01*
X3768805Y41343117D01*
X3771185Y41335273D01*
X3771187Y41335268D01*
X3811474Y41259897D01*
X3864089Y41161462D01*
X3864091Y41161460D01*
X3864092Y41161458D01*
X3989111Y41009122D01*
X3989120Y41009113D01*
X4134869Y40889500D01*
X4141461Y40884090D01*
X4315272Y40791186D01*
X4503867Y40733976D01*
X4503869Y40733976D01*
X4503872Y40733975D01*
X4699996Y40714659D01*
X4699999Y40714659D01*
X4700002Y40714659D01*
X4896125Y40733975D01*
X4896126Y40733976D01*
X4896131Y40733976D01*
X5084726Y40791186D01*
X5258537Y40884090D01*
X5410882Y41009117D01*
X5535909Y41161462D01*
X5628813Y41335273D01*
X5686023Y41523868D01*
X5693679Y41601595D01*
X5705340Y41719997D01*
X5705340Y41720004D01*
X5686024Y41916127D01*
X5686023Y41916130D01*
X5686023Y41916132D01*
X5628813Y42104727D01*
X5535909Y42278538D01*
X5468152Y42361100D01*
X5410886Y42430879D01*
X5410877Y42430888D01*
X5258541Y42555907D01*
X5258539Y42555908D01*
X5258537Y42555910D01*
X5193824Y42590500D01*
X5084731Y42648812D01*
X5084729Y42648813D01*
X4896128Y42706025D01*
X4896125Y42706026D01*
X4700002Y42725341D01*
X4699996Y42725341D01*
X4503872Y42706026D01*
X4503869Y42706025D01*
X4315268Y42648813D01*
X4315266Y42648812D01*
X4141466Y42555913D01*
X4141456Y42555907D01*
X3989120Y42430888D01*
X3989111Y42430879D01*
X3864092Y42278543D01*
X3864086Y42278533D01*
X3778831Y42119032D01*
X3734725Y42076625D01*
X3691521Y42066700D01*
X2748995Y42066700D01*
X2690804Y42085607D01*
X2661530Y42119323D01*
X2608099Y42220104D01*
X2558460Y42278543D01*
X2488337Y42361099D01*
X2488332Y42361104D01*
X2341066Y42473053D01*
X2341064Y42473054D01*
X2173169Y42550731D01*
X2173167Y42550732D01*
X2137032Y42558686D01*
X1992496Y42590500D01*
X1053886Y42590500D01*
X916089Y42575514D01*
X857916Y42555913D01*
X740779Y42516445D01*
X740776Y42516444D01*
X582265Y42421073D01*
X582261Y42421069D01*
X447959Y42293851D01*
X344141Y42140733D01*
X275668Y41968876D01*
X275668Y41968875D01*
X245739Y41786317D01*
X4179Y41786317D01*
X4179Y44326317D01*
X245739Y44326317D01*
X255754Y44141593D01*
X285275Y44035268D01*
X305246Y43963339D01*
X305249Y43963333D01*
X391898Y43799897D01*
X391899Y43799896D01*
X511660Y43658902D01*
X511665Y43658897D01*
X658931Y43546948D01*
X658933Y43546947D01*
X658934Y43546947D01*
X658935Y43546946D01*
X826832Y43469268D01*
X1007502Y43429500D01*
X1007506Y43429500D01*
X1946111Y43429500D01*
X1946112Y43429500D01*
X2083909Y43444486D01*
X2259220Y43503556D01*
X2393067Y43584088D01*
X2417732Y43598928D01*
X2417732Y43598929D01*
X2417735Y43598930D01*
X2552040Y43726151D01*
X2655857Y43879270D01*
X2660508Y43890945D01*
X2699612Y43938003D01*
X2752477Y43953300D01*
X3755663Y43953300D01*
X3813854Y43934393D01*
X3842972Y43900970D01*
X3864089Y43861462D01*
X3914614Y43799897D01*
X3989111Y43709122D01*
X3989120Y43709113D01*
X4123381Y43598928D01*
X4141461Y43584090D01*
X4274352Y43513058D01*
X4292127Y43503557D01*
X4315272Y43491186D01*
X4503867Y43433976D01*
X4503869Y43433976D01*
X4503872Y43433975D01*
X4699996Y43414659D01*
X4699999Y43414659D01*
X4700002Y43414659D01*
X4896125Y43433975D01*
X4896126Y43433976D01*
X4896131Y43433976D01*
X5084726Y43491186D01*
X5258537Y43584090D01*
X5410882Y43709117D01*
X5535909Y43861462D01*
X5628813Y44035273D01*
X5686023Y44223868D01*
X5696114Y44326317D01*
X5705340Y44419997D01*
X5705340Y44420004D01*
X5686024Y44616127D01*
X5686023Y44616130D01*
X5686023Y44616132D01*
X5628813Y44804727D01*
X5535909Y44978538D01*
X5507583Y45013053D01*
X5410886Y45130879D01*
X5410877Y45130888D01*
X5258541Y45255907D01*
X5258539Y45255908D01*
X5258537Y45255910D01*
X5217617Y45277782D01*
X5084731Y45348812D01*
X5084729Y45348813D01*
X4896128Y45406025D01*
X4896125Y45406026D01*
X4700002Y45425341D01*
X4699996Y45425341D01*
X4503872Y45406026D01*
X4503869Y45406025D01*
X4315268Y45348813D01*
X4315266Y45348812D01*
X4141466Y45255913D01*
X4141456Y45255907D01*
X3989120Y45130888D01*
X3989111Y45130879D01*
X3864092Y44978543D01*
X3864086Y44978533D01*
X3771187Y44804733D01*
X3771185Y44804728D01*
X3732428Y44676962D01*
X3697443Y44626765D01*
X3639635Y44606719D01*
X3637691Y44606700D01*
X2748995Y44606700D01*
X2690804Y44625607D01*
X2661530Y44659323D01*
X2608099Y44760104D01*
X2545459Y44833849D01*
X2488337Y44901099D01*
X2488332Y44901104D01*
X2341066Y45013053D01*
X2341064Y45013054D01*
X2173169Y45090731D01*
X2173167Y45090732D01*
X2137032Y45098686D01*
X1992496Y45130500D01*
X1053886Y45130500D01*
X916089Y45115514D01*
X857020Y45095612D01*
X740779Y45056445D01*
X740776Y45056444D01*
X582265Y44961073D01*
X582261Y44961069D01*
X447959Y44833851D01*
X344141Y44680733D01*
X275668Y44508876D01*
X261098Y44420000D01*
X245739Y44326317D01*
X4179Y44326317D01*
X4179Y46152799D01*
X23086Y46210990D01*
X72586Y46246954D01*
X133772Y46246954D01*
X183272Y46210990D01*
X183822Y46210225D01*
X264891Y46096379D01*
X264896Y46096374D01*
X416930Y45951410D01*
X593655Y45837835D01*
X593668Y45837828D01*
X788679Y45759758D01*
X788688Y45759755D01*
X994964Y45720000D01*
X1249998Y45720000D01*
X1249999Y45720002D01*
X1249999Y46504314D01*
X1261954Y46492359D01*
X1374851Y46434835D01*
X1468518Y46420000D01*
X1531480Y46420000D01*
X1625147Y46434835D01*
X1738044Y46492359D01*
X1749999Y46504315D01*
X1749999Y45720002D01*
X1750000Y45720000D01*
X1952403Y45720000D01*
X2109123Y45734966D01*
X2310691Y45794152D01*
X2497406Y45890410D01*
X2497409Y45890412D01*
X2662539Y46020271D01*
X2800109Y46179036D01*
X2905146Y46360966D01*
X2973855Y46559488D01*
X2975367Y46569999D01*
X2975366Y46570000D01*
X1815685Y46570000D01*
X1827640Y46581955D01*
X1885164Y46694852D01*
X1904985Y46820000D01*
X1885164Y46945148D01*
X1827640Y47058045D01*
X1815685Y47070000D01*
X2971257Y47070000D01*
X2944230Y47181407D01*
X2856963Y47372498D01*
X2735106Y47543622D01*
X2735101Y47543627D01*
X2583067Y47688591D01*
X2534294Y47719936D01*
X2495563Y47767302D01*
X2492070Y47828388D01*
X2525150Y47879860D01*
X2582166Y47902059D01*
X2587818Y47902220D01*
X28304179Y47902220D01*
X28362370Y47883313D01*
G37*
%TD.AperFunction*%
%TD*%
M02*
