M48
; DRILL file {KiCad 7.0.5-0} date 2023 July 10, Monday 14:35:08
; FORMAT={2:4/ absolute / inch / keep zeros}
; #@! TF.CreationDate,2023-07-10T14:35:08-07:00
; #@! TF.GenerationSoftware,Kicad,Pcbnew,7.0.5-0
; #@! TF.FileFunction,Plated,1,2,PTH
FMAT,2
INCH
; #@! TA.AperFunction,Plated,PTH,ComponentDrill
T1C0.0394
%
G90
G05
T1
X003295Y010922
X003295Y009922
X004295Y010922
X004295Y009922
X005295Y010922
X005295Y009922
X006295Y010922
X006295Y009922
X007295Y010922
X007295Y009922
X008295Y010922
X008295Y009922
X009295Y010922
X009295Y009922
X010295Y010922
X010295Y009922
X011295Y010922
X011295Y009922
X012295Y010922
X012295Y009922
X013295Y010922
X013295Y009922
X014295Y010922
X014295Y009922
X015295Y010922
X015295Y009922
X016295Y010922
X016295Y009922
X017295Y010922
X017295Y009922
X018295Y010922
X018295Y009922
X019295Y010922
X019295Y009922
X020295Y010922
X020295Y009922
X021295Y010922
X021295Y009922
X022295Y010922
X022295Y009922
T0
M30
