M48
; DRILL file {KiCad 7.0.5-0} date 2023 June 28, Wednesday 16:51:34
; FORMAT={2:4/ absolute / inch / keep zeros}
; #@! TF.CreationDate,2023-06-28T16:51:34-07:00
; #@! TF.GenerationSoftware,Kicad,Pcbnew,7.0.5-0
; #@! TF.FileFunction,Plated,1,2,PTH
FMAT,2
INCH
; #@! TA.AperFunction,Plated,PTH,ComponentDrill
T1C0.0276
; #@! TA.AperFunction,Plated,PTH,ComponentDrill
T2C0.0315
%
G90
G05
T1
X001850Y017488
X001850Y016425
X002047Y003307
X002165Y004843
X002244Y006535
X009605Y009428
X009606Y010433
X009606Y008425
T2
X000591Y018433
X000591Y017433
X000591Y016433
X000591Y015433
X000591Y014433
X000591Y013433
X000591Y012433
X000591Y011433
X000591Y010433
X000591Y009433
X000591Y008433
X000591Y007433
X000591Y006433
X000591Y005433
X000591Y004433
X000591Y003433
X000591Y002433
X000592Y001434
X000592Y000434
X010591Y018433
X010591Y017433
X010591Y016433
X010591Y015433
X010591Y014433
X010591Y013433
X010591Y012433
X010591Y011433
X010591Y010433
X010591Y009433
X010591Y008433
X010591Y007433
X010591Y006433
X010591Y005433
X010591Y004433
X010591Y003433
X010591Y002433
X010591Y001433
X010591Y000433
T0
M30
