%TF.GenerationSoftware,KiCad,Pcbnew,7.0.5-0*%
%TF.CreationDate,2023-06-28T11:54:25-07:00*%
%TF.ProjectId,AAXA01,41415841-3031-42e6-9b69-6361645f7063,rev?*%
%TF.SameCoordinates,PX5f5d2a1PY5f5eba0*%
%TF.FileFunction,Soldermask,Top*%
%TF.FilePolarity,Negative*%
%FSLAX46Y46*%
G04 Gerber Fmt 4.6, Leading zero omitted, Abs format (unit mm)*
G04 Created by KiCad (PCBNEW 7.0.5-0) date 2023-06-28 11:54:25*
%MOMM*%
%LPD*%
G01*
G04 APERTURE LIST*
G04 Aperture macros list*
%AMRoundRect*
0 Rectangle with rounded corners*
0 $1 Rounding radius*
0 $2 $3 $4 $5 $6 $7 $8 $9 X,Y pos of 4 corners*
0 Add a 4 corners polygon primitive as box body*
4,1,4,$2,$3,$4,$5,$6,$7,$8,$9,$2,$3,0*
0 Add four circle primitives for the rounded corners*
1,1,$1+$1,$2,$3*
1,1,$1+$1,$4,$5*
1,1,$1+$1,$6,$7*
1,1,$1+$1,$8,$9*
0 Add four rect primitives between the rounded corners*
20,1,$1+$1,$2,$3,$4,$5,0*
20,1,$1+$1,$4,$5,$6,$7,0*
20,1,$1+$1,$6,$7,$8,$9,0*
20,1,$1+$1,$8,$9,$2,$3,0*%
G04 Aperture macros list end*
%ADD10RoundRect,0.200000X0.275000X-0.200000X0.275000X0.200000X-0.275000X0.200000X-0.275000X-0.200000X0*%
%ADD11RoundRect,0.200000X-0.200000X-0.275000X0.200000X-0.275000X0.200000X0.275000X-0.200000X0.275000X0*%
%ADD12C,1.500000*%
%ADD13RoundRect,0.237500X-0.237500X0.287500X-0.237500X-0.287500X0.237500X-0.287500X0.237500X0.287500X0*%
%ADD14RoundRect,0.150000X0.662500X0.150000X-0.662500X0.150000X-0.662500X-0.150000X0.662500X-0.150000X0*%
%ADD15O,2.000000X1.200000*%
%ADD16R,2.000000X1.200000*%
%ADD17R,0.300000X0.800000*%
%ADD18R,0.300000X0.650000*%
%ADD19R,0.400000X0.950000*%
G04 APERTURE END LIST*
D10*
%TO.C,R4*%
X17099999Y27095000D03*
X17099999Y28745000D03*
%TD*%
%TO.C,R8*%
X21899999Y28745000D03*
X21899999Y27095000D03*
%TD*%
%TO.C,R7*%
X20699999Y27095000D03*
X20699999Y28745000D03*
%TD*%
%TO.C,R6*%
X19499999Y27095000D03*
X19499999Y28745000D03*
%TD*%
%TO.C,R5*%
X18299999Y27095000D03*
X18299999Y28745000D03*
%TD*%
D11*
%TO.C,R3*%
X3674999Y34120000D03*
X5324999Y34120000D03*
%TD*%
%TO.C,R2*%
X3674999Y29020000D03*
X5324999Y29020000D03*
%TD*%
%TO.C,R1*%
X3671399Y26520000D03*
X5321399Y26520000D03*
%TD*%
D12*
%TO.C,~{LED3}*%
X7012499Y12855000D03*
%TD*%
%TO.C,~{LED2}*%
X7012499Y8955000D03*
%TD*%
%TO.C,~{LED1}*%
X6912499Y4855000D03*
%TD*%
D13*
%TO.C,D3*%
X18399999Y15530000D03*
X18399999Y13780000D03*
%TD*%
D14*
%TO.C,U2*%
X9824999Y8920000D03*
X9824999Y10190000D03*
X16199999Y10190000D03*
X16199999Y8920000D03*
%TD*%
D13*
%TO.C,D1*%
X18399999Y7730000D03*
X18399999Y5980000D03*
%TD*%
D14*
%TO.C,U3*%
X9824999Y12920000D03*
X9824999Y14190000D03*
X16199999Y14190000D03*
X16199999Y12920000D03*
%TD*%
D12*
%TO.C,~{LASER2}*%
X23696140Y23966417D03*
%TD*%
D15*
%TO.C,U4*%
X1499999Y46820000D03*
X1499999Y44280000D03*
X1499999Y41740000D03*
X1499999Y39200000D03*
X1499999Y36660000D03*
X1499999Y34120000D03*
X1499999Y31580000D03*
X1499999Y29040000D03*
X1499999Y26500000D03*
X1499999Y23960000D03*
X1499999Y21420000D03*
X1499999Y18880000D03*
X1499999Y16340000D03*
X1499999Y13800000D03*
X1499999Y11260000D03*
X1499999Y8720000D03*
X1499999Y6180000D03*
X1503679Y3642720D03*
X1503679Y1102720D03*
X26899999Y1100000D03*
X26899999Y3640000D03*
X26899999Y6180000D03*
X26899999Y8720000D03*
X26899999Y11260000D03*
X26899999Y13800000D03*
X26899999Y16340000D03*
X26899999Y18880000D03*
X26899999Y21420000D03*
X26899999Y23960000D03*
X26899999Y26500000D03*
X26899999Y29040000D03*
X26899999Y31580000D03*
X26899999Y34120000D03*
X26899999Y36660000D03*
X26899999Y39200000D03*
X26899999Y41740000D03*
X26899999Y44280000D03*
D16*
X26899999Y46820000D03*
%TD*%
D17*
%TO.C,J1*%
X7399999Y24320000D03*
D18*
X7699999Y21445000D03*
D17*
X7999999Y24320000D03*
D18*
X8299999Y21445000D03*
D17*
X8599999Y24320000D03*
D18*
X8899999Y21445000D03*
D17*
X9199999Y24320000D03*
D18*
X9499999Y21445000D03*
D17*
X9799999Y24320000D03*
D18*
X10099999Y21445000D03*
D17*
X10399999Y24320000D03*
D18*
X10699999Y21445000D03*
D17*
X10999999Y24320000D03*
D18*
X11299999Y21445000D03*
D17*
X11599999Y24320000D03*
D18*
X11899999Y21445000D03*
D17*
X12199999Y24320000D03*
D18*
X12499999Y21445000D03*
D17*
X12799999Y24320000D03*
D18*
X13099999Y21445000D03*
D17*
X13399999Y24320000D03*
D18*
X13699999Y21445000D03*
D17*
X13999999Y24320000D03*
D18*
X14299999Y21445000D03*
D17*
X14599999Y24320000D03*
D18*
X14899999Y21445000D03*
D17*
X15199999Y24320000D03*
D18*
X15499999Y21445000D03*
D17*
X15799999Y24320000D03*
D18*
X16099999Y21445000D03*
D17*
X16399999Y24320000D03*
D18*
X16699999Y21445000D03*
D17*
X16999999Y24320000D03*
D18*
X17299999Y21445000D03*
D17*
X17599999Y24320000D03*
D18*
X17899999Y21445000D03*
D17*
X18199999Y24320000D03*
D18*
X18499999Y21445000D03*
D17*
X18799999Y24320000D03*
D18*
X19099999Y21445000D03*
D17*
X19399999Y24320000D03*
D18*
X19699999Y21445000D03*
D17*
X19999999Y24320000D03*
D18*
X20299999Y21445000D03*
D17*
X20599999Y24320000D03*
D19*
X6699999Y24045000D03*
X21299999Y24045000D03*
%TD*%
%TO.C,J2*%
X6679999Y31397500D03*
X21279999Y31397500D03*
D17*
X7379999Y31122500D03*
D18*
X7679999Y33997500D03*
D17*
X7979999Y31122500D03*
D18*
X8279999Y33997500D03*
D17*
X8579999Y31122500D03*
D18*
X8879999Y33997500D03*
D17*
X9179999Y31122500D03*
D18*
X9479999Y33997500D03*
D17*
X9779999Y31122500D03*
D18*
X10079999Y33997500D03*
D17*
X10379999Y31122500D03*
D18*
X10679999Y33997500D03*
D17*
X10979999Y31122500D03*
D18*
X11279999Y33997500D03*
D17*
X11579999Y31122500D03*
D18*
X11879999Y33997500D03*
D17*
X12179999Y31122500D03*
D18*
X12479999Y33997500D03*
D17*
X12779999Y31122500D03*
D18*
X13079999Y33997500D03*
D17*
X13379999Y31122500D03*
D18*
X13679999Y33997500D03*
D17*
X13979999Y31122500D03*
D18*
X14279999Y33997500D03*
D17*
X14579999Y31122500D03*
D18*
X14879999Y33997500D03*
D17*
X15179999Y31122500D03*
D18*
X15479999Y33997500D03*
D17*
X15779999Y31122500D03*
D18*
X16079999Y33997500D03*
D17*
X16379999Y31122500D03*
D18*
X16679999Y33997500D03*
D17*
X16979999Y31122500D03*
D18*
X17279999Y33997500D03*
D17*
X17579999Y31122500D03*
D18*
X17879999Y33997500D03*
D17*
X18179999Y31122500D03*
D18*
X18479999Y33997500D03*
D17*
X18779999Y31122500D03*
D18*
X19079999Y33997500D03*
D17*
X19379999Y31122500D03*
D18*
X19679999Y33997500D03*
D17*
X19979999Y31122500D03*
D18*
X20279999Y33997500D03*
D17*
X20579999Y31122500D03*
%TD*%
D12*
%TO.C,STROBE*%
X4699999Y41720000D03*
%TD*%
%TO.C,~{LASER1}*%
X23699999Y26520000D03*
%TD*%
D13*
%TO.C,D2*%
X18399999Y11730000D03*
X18399999Y9980000D03*
%TD*%
D14*
%TO.C,U1*%
X9824999Y4920000D03*
X9824999Y6190000D03*
X16199999Y6190000D03*
X16199999Y4920000D03*
%TD*%
D12*
%TO.C,TRIGGER*%
X4699999Y44420000D03*
%TD*%
%TO.C,~{LASER3}*%
X23699999Y21420000D03*
%TD*%
M02*
