%TF.GenerationSoftware,KiCad,Pcbnew,7.0.5-0*%
%TF.CreationDate,2023-06-27T18:34:08-07:00*%
%TF.ProjectId,AAXA01,41415841-3031-42e6-9b69-6361645f7063,rev?*%
%TF.SameCoordinates,Original*%
%TF.FileFunction,Paste,Top*%
%TF.FilePolarity,Positive*%
%FSLAX46Y46*%
G04 Gerber Fmt 4.6, Leading zero omitted, Abs format (unit mm)*
G04 Created by KiCad (PCBNEW 7.0.5-0) date 2023-06-27 18:34:08*
%MOMM*%
%LPD*%
G01*
G04 APERTURE LIST*
G04 Aperture macros list*
%AMRoundRect*
0 Rectangle with rounded corners*
0 $1 Rounding radius*
0 $2 $3 $4 $5 $6 $7 $8 $9 X,Y pos of 4 corners*
0 Add a 4 corners polygon primitive as box body*
4,1,4,$2,$3,$4,$5,$6,$7,$8,$9,$2,$3,0*
0 Add four circle primitives for the rounded corners*
1,1,$1+$1,$2,$3*
1,1,$1+$1,$4,$5*
1,1,$1+$1,$6,$7*
1,1,$1+$1,$8,$9*
0 Add four rect primitives between the rounded corners*
20,1,$1+$1,$2,$3,$4,$5,0*
20,1,$1+$1,$4,$5,$6,$7,0*
20,1,$1+$1,$6,$7,$8,$9,0*
20,1,$1+$1,$8,$9,$2,$3,0*%
G04 Aperture macros list end*
%ADD10C,0.100000*%
%ADD11C,0.150000*%
%ADD12C,0.300000*%
%ADD13C,0.400000*%
%ADD14C,0.010000*%
%ADD15RoundRect,0.200000X0.275000X-0.200000X0.275000X0.200000X-0.275000X0.200000X-0.275000X-0.200000X0*%
%ADD16RoundRect,0.200000X-0.200000X-0.275000X0.200000X-0.275000X0.200000X0.275000X-0.200000X0.275000X0*%
%ADD17RoundRect,0.237500X-0.237500X0.287500X-0.237500X-0.287500X0.237500X-0.287500X0.237500X0.287500X0*%
%ADD18RoundRect,0.150000X0.662500X0.150000X-0.662500X0.150000X-0.662500X-0.150000X0.662500X-0.150000X0*%
G04 APERTURE END LIST*
D10*
D11*
X159400000Y-171900000D02*
X267400000Y-171900000D01*
X267400000Y-203900000D01*
X159400000Y-203900000D01*
X159400000Y-171900000D01*
D10*
D11*
X10000000Y-10000000D02*
X269400000Y-10000000D01*
X269400000Y-205900000D01*
X10000000Y-205900000D01*
X10000000Y-10000000D01*
D10*
D11*
X12000000Y-12000000D02*
X267400000Y-12000000D01*
X267400000Y-203900000D01*
X12000000Y-203900000D01*
X12000000Y-12000000D01*
D10*
D11*
X60000000Y-12000000D02*
X60000000Y-10000000D01*
D10*
D11*
X110000000Y-12000000D02*
X110000000Y-10000000D01*
D10*
D11*
X160000000Y-12000000D02*
X160000000Y-10000000D01*
D10*
D11*
X210000000Y-12000000D02*
X210000000Y-10000000D01*
D10*
D11*
X260000000Y-12000000D02*
X260000000Y-10000000D01*
D10*
D11*
X36089160Y-11593604D02*
X35346303Y-11593604D01*
X35717731Y-11593604D02*
X35717731Y-10293604D01*
X35717731Y-10293604D02*
X35593922Y-10479319D01*
X35593922Y-10479319D02*
X35470112Y-10603128D01*
X35470112Y-10603128D02*
X35346303Y-10665033D01*
D10*
D11*
X85346303Y-10417414D02*
X85408207Y-10355509D01*
X85408207Y-10355509D02*
X85532017Y-10293604D01*
X85532017Y-10293604D02*
X85841541Y-10293604D01*
X85841541Y-10293604D02*
X85965350Y-10355509D01*
X85965350Y-10355509D02*
X86027255Y-10417414D01*
X86027255Y-10417414D02*
X86089160Y-10541223D01*
X86089160Y-10541223D02*
X86089160Y-10665033D01*
X86089160Y-10665033D02*
X86027255Y-10850747D01*
X86027255Y-10850747D02*
X85284398Y-11593604D01*
X85284398Y-11593604D02*
X86089160Y-11593604D01*
D10*
D11*
X135284398Y-10293604D02*
X136089160Y-10293604D01*
X136089160Y-10293604D02*
X135655826Y-10788842D01*
X135655826Y-10788842D02*
X135841541Y-10788842D01*
X135841541Y-10788842D02*
X135965350Y-10850747D01*
X135965350Y-10850747D02*
X136027255Y-10912652D01*
X136027255Y-10912652D02*
X136089160Y-11036461D01*
X136089160Y-11036461D02*
X136089160Y-11345985D01*
X136089160Y-11345985D02*
X136027255Y-11469795D01*
X136027255Y-11469795D02*
X135965350Y-11531700D01*
X135965350Y-11531700D02*
X135841541Y-11593604D01*
X135841541Y-11593604D02*
X135470112Y-11593604D01*
X135470112Y-11593604D02*
X135346303Y-11531700D01*
X135346303Y-11531700D02*
X135284398Y-11469795D01*
D10*
D11*
X185965350Y-10726938D02*
X185965350Y-11593604D01*
X185655826Y-10231700D02*
X185346303Y-11160271D01*
X185346303Y-11160271D02*
X186151064Y-11160271D01*
D10*
D11*
X236027255Y-10293604D02*
X235408207Y-10293604D01*
X235408207Y-10293604D02*
X235346303Y-10912652D01*
X235346303Y-10912652D02*
X235408207Y-10850747D01*
X235408207Y-10850747D02*
X235532017Y-10788842D01*
X235532017Y-10788842D02*
X235841541Y-10788842D01*
X235841541Y-10788842D02*
X235965350Y-10850747D01*
X235965350Y-10850747D02*
X236027255Y-10912652D01*
X236027255Y-10912652D02*
X236089160Y-11036461D01*
X236089160Y-11036461D02*
X236089160Y-11345985D01*
X236089160Y-11345985D02*
X236027255Y-11469795D01*
X236027255Y-11469795D02*
X235965350Y-11531700D01*
X235965350Y-11531700D02*
X235841541Y-11593604D01*
X235841541Y-11593604D02*
X235532017Y-11593604D01*
X235532017Y-11593604D02*
X235408207Y-11531700D01*
X235408207Y-11531700D02*
X235346303Y-11469795D01*
D10*
D11*
X60000000Y-203900000D02*
X60000000Y-205900000D01*
D10*
D11*
X110000000Y-203900000D02*
X110000000Y-205900000D01*
D10*
D11*
X160000000Y-203900000D02*
X160000000Y-205900000D01*
D10*
D11*
X210000000Y-203900000D02*
X210000000Y-205900000D01*
D10*
D11*
X260000000Y-203900000D02*
X260000000Y-205900000D01*
D10*
D11*
X36089160Y-205493604D02*
X35346303Y-205493604D01*
X35717731Y-205493604D02*
X35717731Y-204193604D01*
X35717731Y-204193604D02*
X35593922Y-204379319D01*
X35593922Y-204379319D02*
X35470112Y-204503128D01*
X35470112Y-204503128D02*
X35346303Y-204565033D01*
D10*
D11*
X85346303Y-204317414D02*
X85408207Y-204255509D01*
X85408207Y-204255509D02*
X85532017Y-204193604D01*
X85532017Y-204193604D02*
X85841541Y-204193604D01*
X85841541Y-204193604D02*
X85965350Y-204255509D01*
X85965350Y-204255509D02*
X86027255Y-204317414D01*
X86027255Y-204317414D02*
X86089160Y-204441223D01*
X86089160Y-204441223D02*
X86089160Y-204565033D01*
X86089160Y-204565033D02*
X86027255Y-204750747D01*
X86027255Y-204750747D02*
X85284398Y-205493604D01*
X85284398Y-205493604D02*
X86089160Y-205493604D01*
D10*
D11*
X135284398Y-204193604D02*
X136089160Y-204193604D01*
X136089160Y-204193604D02*
X135655826Y-204688842D01*
X135655826Y-204688842D02*
X135841541Y-204688842D01*
X135841541Y-204688842D02*
X135965350Y-204750747D01*
X135965350Y-204750747D02*
X136027255Y-204812652D01*
X136027255Y-204812652D02*
X136089160Y-204936461D01*
X136089160Y-204936461D02*
X136089160Y-205245985D01*
X136089160Y-205245985D02*
X136027255Y-205369795D01*
X136027255Y-205369795D02*
X135965350Y-205431700D01*
X135965350Y-205431700D02*
X135841541Y-205493604D01*
X135841541Y-205493604D02*
X135470112Y-205493604D01*
X135470112Y-205493604D02*
X135346303Y-205431700D01*
X135346303Y-205431700D02*
X135284398Y-205369795D01*
D10*
D11*
X185965350Y-204626938D02*
X185965350Y-205493604D01*
X185655826Y-204131700D02*
X185346303Y-205060271D01*
X185346303Y-205060271D02*
X186151064Y-205060271D01*
D10*
D11*
X236027255Y-204193604D02*
X235408207Y-204193604D01*
X235408207Y-204193604D02*
X235346303Y-204812652D01*
X235346303Y-204812652D02*
X235408207Y-204750747D01*
X235408207Y-204750747D02*
X235532017Y-204688842D01*
X235532017Y-204688842D02*
X235841541Y-204688842D01*
X235841541Y-204688842D02*
X235965350Y-204750747D01*
X235965350Y-204750747D02*
X236027255Y-204812652D01*
X236027255Y-204812652D02*
X236089160Y-204936461D01*
X236089160Y-204936461D02*
X236089160Y-205245985D01*
X236089160Y-205245985D02*
X236027255Y-205369795D01*
X236027255Y-205369795D02*
X235965350Y-205431700D01*
X235965350Y-205431700D02*
X235841541Y-205493604D01*
X235841541Y-205493604D02*
X235532017Y-205493604D01*
X235532017Y-205493604D02*
X235408207Y-205431700D01*
X235408207Y-205431700D02*
X235346303Y-205369795D01*
D10*
D11*
X10000000Y-60000000D02*
X12000000Y-60000000D01*
D10*
D11*
X10000000Y-110000000D02*
X12000000Y-110000000D01*
D10*
D11*
X10000000Y-160000000D02*
X12000000Y-160000000D01*
D10*
D11*
X10690476Y-35222176D02*
X11309523Y-35222176D01*
X10566666Y-35593604D02*
X10999999Y-34293604D01*
X10999999Y-34293604D02*
X11433333Y-35593604D01*
D10*
D11*
X11092857Y-84912652D02*
X11278571Y-84974557D01*
X11278571Y-84974557D02*
X11340476Y-85036461D01*
X11340476Y-85036461D02*
X11402380Y-85160271D01*
X11402380Y-85160271D02*
X11402380Y-85345985D01*
X11402380Y-85345985D02*
X11340476Y-85469795D01*
X11340476Y-85469795D02*
X11278571Y-85531700D01*
X11278571Y-85531700D02*
X11154761Y-85593604D01*
X11154761Y-85593604D02*
X10659523Y-85593604D01*
X10659523Y-85593604D02*
X10659523Y-84293604D01*
X10659523Y-84293604D02*
X11092857Y-84293604D01*
X11092857Y-84293604D02*
X11216666Y-84355509D01*
X11216666Y-84355509D02*
X11278571Y-84417414D01*
X11278571Y-84417414D02*
X11340476Y-84541223D01*
X11340476Y-84541223D02*
X11340476Y-84665033D01*
X11340476Y-84665033D02*
X11278571Y-84788842D01*
X11278571Y-84788842D02*
X11216666Y-84850747D01*
X11216666Y-84850747D02*
X11092857Y-84912652D01*
X11092857Y-84912652D02*
X10659523Y-84912652D01*
D10*
D11*
X11402380Y-135469795D02*
X11340476Y-135531700D01*
X11340476Y-135531700D02*
X11154761Y-135593604D01*
X11154761Y-135593604D02*
X11030952Y-135593604D01*
X11030952Y-135593604D02*
X10845238Y-135531700D01*
X10845238Y-135531700D02*
X10721428Y-135407890D01*
X10721428Y-135407890D02*
X10659523Y-135284080D01*
X10659523Y-135284080D02*
X10597619Y-135036461D01*
X10597619Y-135036461D02*
X10597619Y-134850747D01*
X10597619Y-134850747D02*
X10659523Y-134603128D01*
X10659523Y-134603128D02*
X10721428Y-134479319D01*
X10721428Y-134479319D02*
X10845238Y-134355509D01*
X10845238Y-134355509D02*
X11030952Y-134293604D01*
X11030952Y-134293604D02*
X11154761Y-134293604D01*
X11154761Y-134293604D02*
X11340476Y-134355509D01*
X11340476Y-134355509D02*
X11402380Y-134417414D01*
D10*
D11*
X10659523Y-185593604D02*
X10659523Y-184293604D01*
X10659523Y-184293604D02*
X10969047Y-184293604D01*
X10969047Y-184293604D02*
X11154761Y-184355509D01*
X11154761Y-184355509D02*
X11278571Y-184479319D01*
X11278571Y-184479319D02*
X11340476Y-184603128D01*
X11340476Y-184603128D02*
X11402380Y-184850747D01*
X11402380Y-184850747D02*
X11402380Y-185036461D01*
X11402380Y-185036461D02*
X11340476Y-185284080D01*
X11340476Y-185284080D02*
X11278571Y-185407890D01*
X11278571Y-185407890D02*
X11154761Y-185531700D01*
X11154761Y-185531700D02*
X10969047Y-185593604D01*
X10969047Y-185593604D02*
X10659523Y-185593604D01*
D10*
D11*
X269400000Y-60000000D02*
X267400000Y-60000000D01*
D10*
D11*
X269400000Y-110000000D02*
X267400000Y-110000000D01*
D10*
D11*
X269400000Y-160000000D02*
X267400000Y-160000000D01*
D10*
D11*
X268090476Y-35222176D02*
X268709523Y-35222176D01*
X267966666Y-35593604D02*
X268399999Y-34293604D01*
X268399999Y-34293604D02*
X268833333Y-35593604D01*
D10*
D11*
X268492857Y-84912652D02*
X268678571Y-84974557D01*
X268678571Y-84974557D02*
X268740476Y-85036461D01*
X268740476Y-85036461D02*
X268802380Y-85160271D01*
X268802380Y-85160271D02*
X268802380Y-85345985D01*
X268802380Y-85345985D02*
X268740476Y-85469795D01*
X268740476Y-85469795D02*
X268678571Y-85531700D01*
X268678571Y-85531700D02*
X268554761Y-85593604D01*
X268554761Y-85593604D02*
X268059523Y-85593604D01*
X268059523Y-85593604D02*
X268059523Y-84293604D01*
X268059523Y-84293604D02*
X268492857Y-84293604D01*
X268492857Y-84293604D02*
X268616666Y-84355509D01*
X268616666Y-84355509D02*
X268678571Y-84417414D01*
X268678571Y-84417414D02*
X268740476Y-84541223D01*
X268740476Y-84541223D02*
X268740476Y-84665033D01*
X268740476Y-84665033D02*
X268678571Y-84788842D01*
X268678571Y-84788842D02*
X268616666Y-84850747D01*
X268616666Y-84850747D02*
X268492857Y-84912652D01*
X268492857Y-84912652D02*
X268059523Y-84912652D01*
D10*
D11*
X268802380Y-135469795D02*
X268740476Y-135531700D01*
X268740476Y-135531700D02*
X268554761Y-135593604D01*
X268554761Y-135593604D02*
X268430952Y-135593604D01*
X268430952Y-135593604D02*
X268245238Y-135531700D01*
X268245238Y-135531700D02*
X268121428Y-135407890D01*
X268121428Y-135407890D02*
X268059523Y-135284080D01*
X268059523Y-135284080D02*
X267997619Y-135036461D01*
X267997619Y-135036461D02*
X267997619Y-134850747D01*
X267997619Y-134850747D02*
X268059523Y-134603128D01*
X268059523Y-134603128D02*
X268121428Y-134479319D01*
X268121428Y-134479319D02*
X268245238Y-134355509D01*
X268245238Y-134355509D02*
X268430952Y-134293604D01*
X268430952Y-134293604D02*
X268554761Y-134293604D01*
X268554761Y-134293604D02*
X268740476Y-134355509D01*
X268740476Y-134355509D02*
X268802380Y-134417414D01*
D10*
D11*
X268059523Y-185593604D02*
X268059523Y-184293604D01*
X268059523Y-184293604D02*
X268369047Y-184293604D01*
X268369047Y-184293604D02*
X268554761Y-184355509D01*
X268554761Y-184355509D02*
X268678571Y-184479319D01*
X268678571Y-184479319D02*
X268740476Y-184603128D01*
X268740476Y-184603128D02*
X268802380Y-184850747D01*
X268802380Y-184850747D02*
X268802380Y-185036461D01*
X268802380Y-185036461D02*
X268740476Y-185284080D01*
X268740476Y-185284080D02*
X268678571Y-185407890D01*
X268678571Y-185407890D02*
X268554761Y-185531700D01*
X268554761Y-185531700D02*
X268369047Y-185593604D01*
X268369047Y-185593604D02*
X268059523Y-185593604D01*
D10*
D11*
X182855826Y-199686128D02*
X182855826Y-198186128D01*
X182855826Y-198186128D02*
X183212969Y-198186128D01*
X183212969Y-198186128D02*
X183427255Y-198257557D01*
X183427255Y-198257557D02*
X183570112Y-198400414D01*
X183570112Y-198400414D02*
X183641541Y-198543271D01*
X183641541Y-198543271D02*
X183712969Y-198828985D01*
X183712969Y-198828985D02*
X183712969Y-199043271D01*
X183712969Y-199043271D02*
X183641541Y-199328985D01*
X183641541Y-199328985D02*
X183570112Y-199471842D01*
X183570112Y-199471842D02*
X183427255Y-199614700D01*
X183427255Y-199614700D02*
X183212969Y-199686128D01*
X183212969Y-199686128D02*
X182855826Y-199686128D01*
X184998684Y-199686128D02*
X184998684Y-198900414D01*
X184998684Y-198900414D02*
X184927255Y-198757557D01*
X184927255Y-198757557D02*
X184784398Y-198686128D01*
X184784398Y-198686128D02*
X184498684Y-198686128D01*
X184498684Y-198686128D02*
X184355826Y-198757557D01*
X184998684Y-199614700D02*
X184855826Y-199686128D01*
X184855826Y-199686128D02*
X184498684Y-199686128D01*
X184498684Y-199686128D02*
X184355826Y-199614700D01*
X184355826Y-199614700D02*
X184284398Y-199471842D01*
X184284398Y-199471842D02*
X184284398Y-199328985D01*
X184284398Y-199328985D02*
X184355826Y-199186128D01*
X184355826Y-199186128D02*
X184498684Y-199114700D01*
X184498684Y-199114700D02*
X184855826Y-199114700D01*
X184855826Y-199114700D02*
X184998684Y-199043271D01*
X185498684Y-198686128D02*
X186070112Y-198686128D01*
X185712969Y-198186128D02*
X185712969Y-199471842D01*
X185712969Y-199471842D02*
X185784398Y-199614700D01*
X185784398Y-199614700D02*
X185927255Y-199686128D01*
X185927255Y-199686128D02*
X186070112Y-199686128D01*
X187141541Y-199614700D02*
X186998684Y-199686128D01*
X186998684Y-199686128D02*
X186712970Y-199686128D01*
X186712970Y-199686128D02*
X186570112Y-199614700D01*
X186570112Y-199614700D02*
X186498684Y-199471842D01*
X186498684Y-199471842D02*
X186498684Y-198900414D01*
X186498684Y-198900414D02*
X186570112Y-198757557D01*
X186570112Y-198757557D02*
X186712970Y-198686128D01*
X186712970Y-198686128D02*
X186998684Y-198686128D01*
X186998684Y-198686128D02*
X187141541Y-198757557D01*
X187141541Y-198757557D02*
X187212970Y-198900414D01*
X187212970Y-198900414D02*
X187212970Y-199043271D01*
X187212970Y-199043271D02*
X186498684Y-199186128D01*
X187855826Y-199543271D02*
X187927255Y-199614700D01*
X187927255Y-199614700D02*
X187855826Y-199686128D01*
X187855826Y-199686128D02*
X187784398Y-199614700D01*
X187784398Y-199614700D02*
X187855826Y-199543271D01*
X187855826Y-199543271D02*
X187855826Y-199686128D01*
X187855826Y-198757557D02*
X187927255Y-198828985D01*
X187927255Y-198828985D02*
X187855826Y-198900414D01*
X187855826Y-198900414D02*
X187784398Y-198828985D01*
X187784398Y-198828985D02*
X187855826Y-198757557D01*
X187855826Y-198757557D02*
X187855826Y-198900414D01*
D10*
D11*
X159400000Y-200400000D02*
X267400000Y-200400000D01*
D10*
D11*
X160855826Y-202486128D02*
X160855826Y-200986128D01*
X161712969Y-202486128D02*
X161070112Y-201628985D01*
X161712969Y-200986128D02*
X160855826Y-201843271D01*
X162355826Y-202486128D02*
X162355826Y-201486128D01*
X162355826Y-200986128D02*
X162284398Y-201057557D01*
X162284398Y-201057557D02*
X162355826Y-201128985D01*
X162355826Y-201128985D02*
X162427255Y-201057557D01*
X162427255Y-201057557D02*
X162355826Y-200986128D01*
X162355826Y-200986128D02*
X162355826Y-201128985D01*
X163927255Y-202343271D02*
X163855827Y-202414700D01*
X163855827Y-202414700D02*
X163641541Y-202486128D01*
X163641541Y-202486128D02*
X163498684Y-202486128D01*
X163498684Y-202486128D02*
X163284398Y-202414700D01*
X163284398Y-202414700D02*
X163141541Y-202271842D01*
X163141541Y-202271842D02*
X163070112Y-202128985D01*
X163070112Y-202128985D02*
X162998684Y-201843271D01*
X162998684Y-201843271D02*
X162998684Y-201628985D01*
X162998684Y-201628985D02*
X163070112Y-201343271D01*
X163070112Y-201343271D02*
X163141541Y-201200414D01*
X163141541Y-201200414D02*
X163284398Y-201057557D01*
X163284398Y-201057557D02*
X163498684Y-200986128D01*
X163498684Y-200986128D02*
X163641541Y-200986128D01*
X163641541Y-200986128D02*
X163855827Y-201057557D01*
X163855827Y-201057557D02*
X163927255Y-201128985D01*
X165212970Y-202486128D02*
X165212970Y-201700414D01*
X165212970Y-201700414D02*
X165141541Y-201557557D01*
X165141541Y-201557557D02*
X164998684Y-201486128D01*
X164998684Y-201486128D02*
X164712970Y-201486128D01*
X164712970Y-201486128D02*
X164570112Y-201557557D01*
X165212970Y-202414700D02*
X165070112Y-202486128D01*
X165070112Y-202486128D02*
X164712970Y-202486128D01*
X164712970Y-202486128D02*
X164570112Y-202414700D01*
X164570112Y-202414700D02*
X164498684Y-202271842D01*
X164498684Y-202271842D02*
X164498684Y-202128985D01*
X164498684Y-202128985D02*
X164570112Y-201986128D01*
X164570112Y-201986128D02*
X164712970Y-201914700D01*
X164712970Y-201914700D02*
X165070112Y-201914700D01*
X165070112Y-201914700D02*
X165212970Y-201843271D01*
X166570113Y-202486128D02*
X166570113Y-200986128D01*
X166570113Y-202414700D02*
X166427255Y-202486128D01*
X166427255Y-202486128D02*
X166141541Y-202486128D01*
X166141541Y-202486128D02*
X165998684Y-202414700D01*
X165998684Y-202414700D02*
X165927255Y-202343271D01*
X165927255Y-202343271D02*
X165855827Y-202200414D01*
X165855827Y-202200414D02*
X165855827Y-201771842D01*
X165855827Y-201771842D02*
X165927255Y-201628985D01*
X165927255Y-201628985D02*
X165998684Y-201557557D01*
X165998684Y-201557557D02*
X166141541Y-201486128D01*
X166141541Y-201486128D02*
X166427255Y-201486128D01*
X166427255Y-201486128D02*
X166570113Y-201557557D01*
X168427255Y-201700414D02*
X168927255Y-201700414D01*
X169141541Y-202486128D02*
X168427255Y-202486128D01*
X168427255Y-202486128D02*
X168427255Y-200986128D01*
X168427255Y-200986128D02*
X169141541Y-200986128D01*
X169784398Y-202343271D02*
X169855827Y-202414700D01*
X169855827Y-202414700D02*
X169784398Y-202486128D01*
X169784398Y-202486128D02*
X169712970Y-202414700D01*
X169712970Y-202414700D02*
X169784398Y-202343271D01*
X169784398Y-202343271D02*
X169784398Y-202486128D01*
X170498684Y-202486128D02*
X170498684Y-200986128D01*
X170498684Y-200986128D02*
X170855827Y-200986128D01*
X170855827Y-200986128D02*
X171070113Y-201057557D01*
X171070113Y-201057557D02*
X171212970Y-201200414D01*
X171212970Y-201200414D02*
X171284399Y-201343271D01*
X171284399Y-201343271D02*
X171355827Y-201628985D01*
X171355827Y-201628985D02*
X171355827Y-201843271D01*
X171355827Y-201843271D02*
X171284399Y-202128985D01*
X171284399Y-202128985D02*
X171212970Y-202271842D01*
X171212970Y-202271842D02*
X171070113Y-202414700D01*
X171070113Y-202414700D02*
X170855827Y-202486128D01*
X170855827Y-202486128D02*
X170498684Y-202486128D01*
X171998684Y-202343271D02*
X172070113Y-202414700D01*
X172070113Y-202414700D02*
X171998684Y-202486128D01*
X171998684Y-202486128D02*
X171927256Y-202414700D01*
X171927256Y-202414700D02*
X171998684Y-202343271D01*
X171998684Y-202343271D02*
X171998684Y-202486128D01*
X172641542Y-202057557D02*
X173355828Y-202057557D01*
X172498685Y-202486128D02*
X172998685Y-200986128D01*
X172998685Y-200986128D02*
X173498685Y-202486128D01*
X173998684Y-202343271D02*
X174070113Y-202414700D01*
X174070113Y-202414700D02*
X173998684Y-202486128D01*
X173998684Y-202486128D02*
X173927256Y-202414700D01*
X173927256Y-202414700D02*
X173998684Y-202343271D01*
X173998684Y-202343271D02*
X173998684Y-202486128D01*
X176998684Y-202486128D02*
X176998684Y-200986128D01*
X177141542Y-201914700D02*
X177570113Y-202486128D01*
X177570113Y-201486128D02*
X176998684Y-202057557D01*
X178212970Y-202486128D02*
X178212970Y-201486128D01*
X178212970Y-200986128D02*
X178141542Y-201057557D01*
X178141542Y-201057557D02*
X178212970Y-201128985D01*
X178212970Y-201128985D02*
X178284399Y-201057557D01*
X178284399Y-201057557D02*
X178212970Y-200986128D01*
X178212970Y-200986128D02*
X178212970Y-201128985D01*
X179570114Y-202414700D02*
X179427256Y-202486128D01*
X179427256Y-202486128D02*
X179141542Y-202486128D01*
X179141542Y-202486128D02*
X178998685Y-202414700D01*
X178998685Y-202414700D02*
X178927256Y-202343271D01*
X178927256Y-202343271D02*
X178855828Y-202200414D01*
X178855828Y-202200414D02*
X178855828Y-201771842D01*
X178855828Y-201771842D02*
X178927256Y-201628985D01*
X178927256Y-201628985D02*
X178998685Y-201557557D01*
X178998685Y-201557557D02*
X179141542Y-201486128D01*
X179141542Y-201486128D02*
X179427256Y-201486128D01*
X179427256Y-201486128D02*
X179570114Y-201557557D01*
X180855828Y-202486128D02*
X180855828Y-201700414D01*
X180855828Y-201700414D02*
X180784399Y-201557557D01*
X180784399Y-201557557D02*
X180641542Y-201486128D01*
X180641542Y-201486128D02*
X180355828Y-201486128D01*
X180355828Y-201486128D02*
X180212970Y-201557557D01*
X180855828Y-202414700D02*
X180712970Y-202486128D01*
X180712970Y-202486128D02*
X180355828Y-202486128D01*
X180355828Y-202486128D02*
X180212970Y-202414700D01*
X180212970Y-202414700D02*
X180141542Y-202271842D01*
X180141542Y-202271842D02*
X180141542Y-202128985D01*
X180141542Y-202128985D02*
X180212970Y-201986128D01*
X180212970Y-201986128D02*
X180355828Y-201914700D01*
X180355828Y-201914700D02*
X180712970Y-201914700D01*
X180712970Y-201914700D02*
X180855828Y-201843271D01*
X182212971Y-202486128D02*
X182212971Y-200986128D01*
X182212971Y-202414700D02*
X182070113Y-202486128D01*
X182070113Y-202486128D02*
X181784399Y-202486128D01*
X181784399Y-202486128D02*
X181641542Y-202414700D01*
X181641542Y-202414700D02*
X181570113Y-202343271D01*
X181570113Y-202343271D02*
X181498685Y-202200414D01*
X181498685Y-202200414D02*
X181498685Y-201771842D01*
X181498685Y-201771842D02*
X181570113Y-201628985D01*
X181570113Y-201628985D02*
X181641542Y-201557557D01*
X181641542Y-201557557D02*
X181784399Y-201486128D01*
X181784399Y-201486128D02*
X182070113Y-201486128D01*
X182070113Y-201486128D02*
X182212971Y-201557557D01*
X183927256Y-200986128D02*
X184927256Y-200986128D01*
X184927256Y-200986128D02*
X184284399Y-202486128D01*
X185498684Y-202343271D02*
X185570113Y-202414700D01*
X185570113Y-202414700D02*
X185498684Y-202486128D01*
X185498684Y-202486128D02*
X185427256Y-202414700D01*
X185427256Y-202414700D02*
X185498684Y-202343271D01*
X185498684Y-202343271D02*
X185498684Y-202486128D01*
X186498685Y-200986128D02*
X186641542Y-200986128D01*
X186641542Y-200986128D02*
X186784399Y-201057557D01*
X186784399Y-201057557D02*
X186855828Y-201128985D01*
X186855828Y-201128985D02*
X186927256Y-201271842D01*
X186927256Y-201271842D02*
X186998685Y-201557557D01*
X186998685Y-201557557D02*
X186998685Y-201914700D01*
X186998685Y-201914700D02*
X186927256Y-202200414D01*
X186927256Y-202200414D02*
X186855828Y-202343271D01*
X186855828Y-202343271D02*
X186784399Y-202414700D01*
X186784399Y-202414700D02*
X186641542Y-202486128D01*
X186641542Y-202486128D02*
X186498685Y-202486128D01*
X186498685Y-202486128D02*
X186355828Y-202414700D01*
X186355828Y-202414700D02*
X186284399Y-202343271D01*
X186284399Y-202343271D02*
X186212970Y-202200414D01*
X186212970Y-202200414D02*
X186141542Y-201914700D01*
X186141542Y-201914700D02*
X186141542Y-201557557D01*
X186141542Y-201557557D02*
X186212970Y-201271842D01*
X186212970Y-201271842D02*
X186284399Y-201128985D01*
X186284399Y-201128985D02*
X186355828Y-201057557D01*
X186355828Y-201057557D02*
X186498685Y-200986128D01*
X187641541Y-202343271D02*
X187712970Y-202414700D01*
X187712970Y-202414700D02*
X187641541Y-202486128D01*
X187641541Y-202486128D02*
X187570113Y-202414700D01*
X187570113Y-202414700D02*
X187641541Y-202343271D01*
X187641541Y-202343271D02*
X187641541Y-202486128D01*
X189070113Y-200986128D02*
X188355827Y-200986128D01*
X188355827Y-200986128D02*
X188284399Y-201700414D01*
X188284399Y-201700414D02*
X188355827Y-201628985D01*
X188355827Y-201628985D02*
X188498685Y-201557557D01*
X188498685Y-201557557D02*
X188855827Y-201557557D01*
X188855827Y-201557557D02*
X188998685Y-201628985D01*
X188998685Y-201628985D02*
X189070113Y-201700414D01*
X189070113Y-201700414D02*
X189141542Y-201843271D01*
X189141542Y-201843271D02*
X189141542Y-202200414D01*
X189141542Y-202200414D02*
X189070113Y-202343271D01*
X189070113Y-202343271D02*
X188998685Y-202414700D01*
X188998685Y-202414700D02*
X188855827Y-202486128D01*
X188855827Y-202486128D02*
X188498685Y-202486128D01*
X188498685Y-202486128D02*
X188355827Y-202414700D01*
X188355827Y-202414700D02*
X188284399Y-202343271D01*
X189784398Y-201914700D02*
X190927256Y-201914700D01*
X191927256Y-200986128D02*
X192070113Y-200986128D01*
X192070113Y-200986128D02*
X192212970Y-201057557D01*
X192212970Y-201057557D02*
X192284399Y-201128985D01*
X192284399Y-201128985D02*
X192355827Y-201271842D01*
X192355827Y-201271842D02*
X192427256Y-201557557D01*
X192427256Y-201557557D02*
X192427256Y-201914700D01*
X192427256Y-201914700D02*
X192355827Y-202200414D01*
X192355827Y-202200414D02*
X192284399Y-202343271D01*
X192284399Y-202343271D02*
X192212970Y-202414700D01*
X192212970Y-202414700D02*
X192070113Y-202486128D01*
X192070113Y-202486128D02*
X191927256Y-202486128D01*
X191927256Y-202486128D02*
X191784399Y-202414700D01*
X191784399Y-202414700D02*
X191712970Y-202343271D01*
X191712970Y-202343271D02*
X191641541Y-202200414D01*
X191641541Y-202200414D02*
X191570113Y-201914700D01*
X191570113Y-201914700D02*
X191570113Y-201557557D01*
X191570113Y-201557557D02*
X191641541Y-201271842D01*
X191641541Y-201271842D02*
X191712970Y-201128985D01*
X191712970Y-201128985D02*
X191784399Y-201057557D01*
X191784399Y-201057557D02*
X191927256Y-200986128D01*
D10*
D11*
X159400000Y-197400000D02*
X267400000Y-197400000D01*
D10*
D12*
X246811653Y-199678328D02*
X246311653Y-198964042D01*
X245954510Y-199678328D02*
X245954510Y-198178328D01*
X245954510Y-198178328D02*
X246525939Y-198178328D01*
X246525939Y-198178328D02*
X246668796Y-198249757D01*
X246668796Y-198249757D02*
X246740225Y-198321185D01*
X246740225Y-198321185D02*
X246811653Y-198464042D01*
X246811653Y-198464042D02*
X246811653Y-198678328D01*
X246811653Y-198678328D02*
X246740225Y-198821185D01*
X246740225Y-198821185D02*
X246668796Y-198892614D01*
X246668796Y-198892614D02*
X246525939Y-198964042D01*
X246525939Y-198964042D02*
X245954510Y-198964042D01*
X248025939Y-199606900D02*
X247883082Y-199678328D01*
X247883082Y-199678328D02*
X247597368Y-199678328D01*
X247597368Y-199678328D02*
X247454510Y-199606900D01*
X247454510Y-199606900D02*
X247383082Y-199464042D01*
X247383082Y-199464042D02*
X247383082Y-198892614D01*
X247383082Y-198892614D02*
X247454510Y-198749757D01*
X247454510Y-198749757D02*
X247597368Y-198678328D01*
X247597368Y-198678328D02*
X247883082Y-198678328D01*
X247883082Y-198678328D02*
X248025939Y-198749757D01*
X248025939Y-198749757D02*
X248097368Y-198892614D01*
X248097368Y-198892614D02*
X248097368Y-199035471D01*
X248097368Y-199035471D02*
X247383082Y-199178328D01*
X248597367Y-198678328D02*
X248954510Y-199678328D01*
X248954510Y-199678328D02*
X249311653Y-198678328D01*
X249883081Y-199535471D02*
X249954510Y-199606900D01*
X249954510Y-199606900D02*
X249883081Y-199678328D01*
X249883081Y-199678328D02*
X249811653Y-199606900D01*
X249811653Y-199606900D02*
X249883081Y-199535471D01*
X249883081Y-199535471D02*
X249883081Y-199678328D01*
X249883081Y-198749757D02*
X249954510Y-198821185D01*
X249954510Y-198821185D02*
X249883081Y-198892614D01*
X249883081Y-198892614D02*
X249811653Y-198821185D01*
X249811653Y-198821185D02*
X249883081Y-198749757D01*
X249883081Y-198749757D02*
X249883081Y-198892614D01*
D10*
D11*
X160784398Y-199614700D02*
X160998684Y-199686128D01*
X160998684Y-199686128D02*
X161355826Y-199686128D01*
X161355826Y-199686128D02*
X161498684Y-199614700D01*
X161498684Y-199614700D02*
X161570112Y-199543271D01*
X161570112Y-199543271D02*
X161641541Y-199400414D01*
X161641541Y-199400414D02*
X161641541Y-199257557D01*
X161641541Y-199257557D02*
X161570112Y-199114700D01*
X161570112Y-199114700D02*
X161498684Y-199043271D01*
X161498684Y-199043271D02*
X161355826Y-198971842D01*
X161355826Y-198971842D02*
X161070112Y-198900414D01*
X161070112Y-198900414D02*
X160927255Y-198828985D01*
X160927255Y-198828985D02*
X160855826Y-198757557D01*
X160855826Y-198757557D02*
X160784398Y-198614700D01*
X160784398Y-198614700D02*
X160784398Y-198471842D01*
X160784398Y-198471842D02*
X160855826Y-198328985D01*
X160855826Y-198328985D02*
X160927255Y-198257557D01*
X160927255Y-198257557D02*
X161070112Y-198186128D01*
X161070112Y-198186128D02*
X161427255Y-198186128D01*
X161427255Y-198186128D02*
X161641541Y-198257557D01*
X162284397Y-199686128D02*
X162284397Y-198686128D01*
X162284397Y-198186128D02*
X162212969Y-198257557D01*
X162212969Y-198257557D02*
X162284397Y-198328985D01*
X162284397Y-198328985D02*
X162355826Y-198257557D01*
X162355826Y-198257557D02*
X162284397Y-198186128D01*
X162284397Y-198186128D02*
X162284397Y-198328985D01*
X162855826Y-198686128D02*
X163641541Y-198686128D01*
X163641541Y-198686128D02*
X162855826Y-199686128D01*
X162855826Y-199686128D02*
X163641541Y-199686128D01*
X164784398Y-199614700D02*
X164641541Y-199686128D01*
X164641541Y-199686128D02*
X164355827Y-199686128D01*
X164355827Y-199686128D02*
X164212969Y-199614700D01*
X164212969Y-199614700D02*
X164141541Y-199471842D01*
X164141541Y-199471842D02*
X164141541Y-198900414D01*
X164141541Y-198900414D02*
X164212969Y-198757557D01*
X164212969Y-198757557D02*
X164355827Y-198686128D01*
X164355827Y-198686128D02*
X164641541Y-198686128D01*
X164641541Y-198686128D02*
X164784398Y-198757557D01*
X164784398Y-198757557D02*
X164855827Y-198900414D01*
X164855827Y-198900414D02*
X164855827Y-199043271D01*
X164855827Y-199043271D02*
X164141541Y-199186128D01*
X165498683Y-199543271D02*
X165570112Y-199614700D01*
X165570112Y-199614700D02*
X165498683Y-199686128D01*
X165498683Y-199686128D02*
X165427255Y-199614700D01*
X165427255Y-199614700D02*
X165498683Y-199543271D01*
X165498683Y-199543271D02*
X165498683Y-199686128D01*
X165498683Y-198757557D02*
X165570112Y-198828985D01*
X165570112Y-198828985D02*
X165498683Y-198900414D01*
X165498683Y-198900414D02*
X165427255Y-198828985D01*
X165427255Y-198828985D02*
X165498683Y-198757557D01*
X165498683Y-198757557D02*
X165498683Y-198900414D01*
X167355826Y-198186128D02*
X167355826Y-199400414D01*
X167355826Y-199400414D02*
X167427255Y-199543271D01*
X167427255Y-199543271D02*
X167498684Y-199614700D01*
X167498684Y-199614700D02*
X167641541Y-199686128D01*
X167641541Y-199686128D02*
X167927255Y-199686128D01*
X167927255Y-199686128D02*
X168070112Y-199614700D01*
X168070112Y-199614700D02*
X168141541Y-199543271D01*
X168141541Y-199543271D02*
X168212969Y-199400414D01*
X168212969Y-199400414D02*
X168212969Y-198186128D01*
X168855827Y-199614700D02*
X169070113Y-199686128D01*
X169070113Y-199686128D02*
X169427255Y-199686128D01*
X169427255Y-199686128D02*
X169570113Y-199614700D01*
X169570113Y-199614700D02*
X169641541Y-199543271D01*
X169641541Y-199543271D02*
X169712970Y-199400414D01*
X169712970Y-199400414D02*
X169712970Y-199257557D01*
X169712970Y-199257557D02*
X169641541Y-199114700D01*
X169641541Y-199114700D02*
X169570113Y-199043271D01*
X169570113Y-199043271D02*
X169427255Y-198971842D01*
X169427255Y-198971842D02*
X169141541Y-198900414D01*
X169141541Y-198900414D02*
X168998684Y-198828985D01*
X168998684Y-198828985D02*
X168927255Y-198757557D01*
X168927255Y-198757557D02*
X168855827Y-198614700D01*
X168855827Y-198614700D02*
X168855827Y-198471842D01*
X168855827Y-198471842D02*
X168927255Y-198328985D01*
X168927255Y-198328985D02*
X168998684Y-198257557D01*
X168998684Y-198257557D02*
X169141541Y-198186128D01*
X169141541Y-198186128D02*
X169498684Y-198186128D01*
X169498684Y-198186128D02*
X169712970Y-198257557D01*
X171070112Y-199686128D02*
X170355826Y-199686128D01*
X170355826Y-199686128D02*
X170355826Y-198186128D01*
X172141541Y-199614700D02*
X171998684Y-199686128D01*
X171998684Y-199686128D02*
X171712970Y-199686128D01*
X171712970Y-199686128D02*
X171570112Y-199614700D01*
X171570112Y-199614700D02*
X171498684Y-199471842D01*
X171498684Y-199471842D02*
X171498684Y-198900414D01*
X171498684Y-198900414D02*
X171570112Y-198757557D01*
X171570112Y-198757557D02*
X171712970Y-198686128D01*
X171712970Y-198686128D02*
X171998684Y-198686128D01*
X171998684Y-198686128D02*
X172141541Y-198757557D01*
X172141541Y-198757557D02*
X172212970Y-198900414D01*
X172212970Y-198900414D02*
X172212970Y-199043271D01*
X172212970Y-199043271D02*
X171498684Y-199186128D01*
X172641541Y-198686128D02*
X173212969Y-198686128D01*
X172855826Y-198186128D02*
X172855826Y-199471842D01*
X172855826Y-199471842D02*
X172927255Y-199614700D01*
X172927255Y-199614700D02*
X173070112Y-199686128D01*
X173070112Y-199686128D02*
X173212969Y-199686128D01*
X173498684Y-198686128D02*
X174070112Y-198686128D01*
X173712969Y-198186128D02*
X173712969Y-199471842D01*
X173712969Y-199471842D02*
X173784398Y-199614700D01*
X173784398Y-199614700D02*
X173927255Y-199686128D01*
X173927255Y-199686128D02*
X174070112Y-199686128D01*
X175141541Y-199614700D02*
X174998684Y-199686128D01*
X174998684Y-199686128D02*
X174712970Y-199686128D01*
X174712970Y-199686128D02*
X174570112Y-199614700D01*
X174570112Y-199614700D02*
X174498684Y-199471842D01*
X174498684Y-199471842D02*
X174498684Y-198900414D01*
X174498684Y-198900414D02*
X174570112Y-198757557D01*
X174570112Y-198757557D02*
X174712970Y-198686128D01*
X174712970Y-198686128D02*
X174998684Y-198686128D01*
X174998684Y-198686128D02*
X175141541Y-198757557D01*
X175141541Y-198757557D02*
X175212970Y-198900414D01*
X175212970Y-198900414D02*
X175212970Y-199043271D01*
X175212970Y-199043271D02*
X174498684Y-199186128D01*
X175855826Y-199686128D02*
X175855826Y-198686128D01*
X175855826Y-198971842D02*
X175927255Y-198828985D01*
X175927255Y-198828985D02*
X175998684Y-198757557D01*
X175998684Y-198757557D02*
X176141541Y-198686128D01*
X176141541Y-198686128D02*
X176284398Y-198686128D01*
D10*
D11*
X245855826Y-202486128D02*
X245855826Y-200986128D01*
X247212970Y-202486128D02*
X247212970Y-200986128D01*
X247212970Y-202414700D02*
X247070112Y-202486128D01*
X247070112Y-202486128D02*
X246784398Y-202486128D01*
X246784398Y-202486128D02*
X246641541Y-202414700D01*
X246641541Y-202414700D02*
X246570112Y-202343271D01*
X246570112Y-202343271D02*
X246498684Y-202200414D01*
X246498684Y-202200414D02*
X246498684Y-201771842D01*
X246498684Y-201771842D02*
X246570112Y-201628985D01*
X246570112Y-201628985D02*
X246641541Y-201557557D01*
X246641541Y-201557557D02*
X246784398Y-201486128D01*
X246784398Y-201486128D02*
X247070112Y-201486128D01*
X247070112Y-201486128D02*
X247212970Y-201557557D01*
X247927255Y-202343271D02*
X247998684Y-202414700D01*
X247998684Y-202414700D02*
X247927255Y-202486128D01*
X247927255Y-202486128D02*
X247855827Y-202414700D01*
X247855827Y-202414700D02*
X247927255Y-202343271D01*
X247927255Y-202343271D02*
X247927255Y-202486128D01*
X247927255Y-201557557D02*
X247998684Y-201628985D01*
X247998684Y-201628985D02*
X247927255Y-201700414D01*
X247927255Y-201700414D02*
X247855827Y-201628985D01*
X247855827Y-201628985D02*
X247927255Y-201557557D01*
X247927255Y-201557557D02*
X247927255Y-201700414D01*
X250570113Y-202486128D02*
X249712970Y-202486128D01*
X250141541Y-202486128D02*
X250141541Y-200986128D01*
X250141541Y-200986128D02*
X249998684Y-201200414D01*
X249998684Y-201200414D02*
X249855827Y-201343271D01*
X249855827Y-201343271D02*
X249712970Y-201414700D01*
X252284398Y-200914700D02*
X250998684Y-202843271D01*
X253570113Y-202486128D02*
X252712970Y-202486128D01*
X253141541Y-202486128D02*
X253141541Y-200986128D01*
X253141541Y-200986128D02*
X252998684Y-201200414D01*
X252998684Y-201200414D02*
X252855827Y-201343271D01*
X252855827Y-201343271D02*
X252712970Y-201414700D01*
D10*
D11*
X159400000Y-193400000D02*
X267400000Y-193400000D01*
D10*
D13*
X161091728Y-194104438D02*
X162234585Y-194104438D01*
X161413157Y-196104438D02*
X161663157Y-194104438D01*
X162651252Y-196104438D02*
X162817919Y-194771104D01*
X162901252Y-194104438D02*
X162794109Y-194199676D01*
X162794109Y-194199676D02*
X162877443Y-194294914D01*
X162877443Y-194294914D02*
X162984586Y-194199676D01*
X162984586Y-194199676D02*
X162901252Y-194104438D01*
X162901252Y-194104438D02*
X162877443Y-194294914D01*
X163484586Y-194771104D02*
X164246490Y-194771104D01*
X163853633Y-194104438D02*
X163639348Y-195818723D01*
X163639348Y-195818723D02*
X163710776Y-196009200D01*
X163710776Y-196009200D02*
X163889348Y-196104438D01*
X163889348Y-196104438D02*
X164079824Y-196104438D01*
X165032205Y-196104438D02*
X164853633Y-196009200D01*
X164853633Y-196009200D02*
X164782205Y-195818723D01*
X164782205Y-195818723D02*
X164996490Y-194104438D01*
X166567919Y-196009200D02*
X166365538Y-196104438D01*
X166365538Y-196104438D02*
X165984585Y-196104438D01*
X165984585Y-196104438D02*
X165806014Y-196009200D01*
X165806014Y-196009200D02*
X165734585Y-195818723D01*
X165734585Y-195818723D02*
X165829824Y-195056819D01*
X165829824Y-195056819D02*
X165948871Y-194866342D01*
X165948871Y-194866342D02*
X166151252Y-194771104D01*
X166151252Y-194771104D02*
X166532204Y-194771104D01*
X166532204Y-194771104D02*
X166710776Y-194866342D01*
X166710776Y-194866342D02*
X166782204Y-195056819D01*
X166782204Y-195056819D02*
X166758395Y-195247295D01*
X166758395Y-195247295D02*
X165782204Y-195437771D01*
X167532205Y-195913961D02*
X167615538Y-196009200D01*
X167615538Y-196009200D02*
X167508395Y-196104438D01*
X167508395Y-196104438D02*
X167425062Y-196009200D01*
X167425062Y-196009200D02*
X167532205Y-195913961D01*
X167532205Y-195913961D02*
X167508395Y-196104438D01*
X167663157Y-194866342D02*
X167746490Y-194961580D01*
X167746490Y-194961580D02*
X167639348Y-195056819D01*
X167639348Y-195056819D02*
X167556014Y-194961580D01*
X167556014Y-194961580D02*
X167663157Y-194866342D01*
X167663157Y-194866342D02*
X167639348Y-195056819D01*
D10*
D11*
X161355826Y-191500414D02*
X160855826Y-191500414D01*
X160855826Y-192286128D02*
X160855826Y-190786128D01*
X160855826Y-190786128D02*
X161570112Y-190786128D01*
X162141540Y-192286128D02*
X162141540Y-191286128D01*
X162141540Y-190786128D02*
X162070112Y-190857557D01*
X162070112Y-190857557D02*
X162141540Y-190928985D01*
X162141540Y-190928985D02*
X162212969Y-190857557D01*
X162212969Y-190857557D02*
X162141540Y-190786128D01*
X162141540Y-190786128D02*
X162141540Y-190928985D01*
X163070112Y-192286128D02*
X162927255Y-192214700D01*
X162927255Y-192214700D02*
X162855826Y-192071842D01*
X162855826Y-192071842D02*
X162855826Y-190786128D01*
X164212969Y-192214700D02*
X164070112Y-192286128D01*
X164070112Y-192286128D02*
X163784398Y-192286128D01*
X163784398Y-192286128D02*
X163641540Y-192214700D01*
X163641540Y-192214700D02*
X163570112Y-192071842D01*
X163570112Y-192071842D02*
X163570112Y-191500414D01*
X163570112Y-191500414D02*
X163641540Y-191357557D01*
X163641540Y-191357557D02*
X163784398Y-191286128D01*
X163784398Y-191286128D02*
X164070112Y-191286128D01*
X164070112Y-191286128D02*
X164212969Y-191357557D01*
X164212969Y-191357557D02*
X164284398Y-191500414D01*
X164284398Y-191500414D02*
X164284398Y-191643271D01*
X164284398Y-191643271D02*
X163570112Y-191786128D01*
X164927254Y-192143271D02*
X164998683Y-192214700D01*
X164998683Y-192214700D02*
X164927254Y-192286128D01*
X164927254Y-192286128D02*
X164855826Y-192214700D01*
X164855826Y-192214700D02*
X164927254Y-192143271D01*
X164927254Y-192143271D02*
X164927254Y-192286128D01*
X164927254Y-191357557D02*
X164998683Y-191428985D01*
X164998683Y-191428985D02*
X164927254Y-191500414D01*
X164927254Y-191500414D02*
X164855826Y-191428985D01*
X164855826Y-191428985D02*
X164927254Y-191357557D01*
X164927254Y-191357557D02*
X164927254Y-191500414D01*
X166712969Y-191857557D02*
X167427255Y-191857557D01*
X166570112Y-192286128D02*
X167070112Y-190786128D01*
X167070112Y-190786128D02*
X167570112Y-192286128D01*
X167998683Y-191857557D02*
X168712969Y-191857557D01*
X167855826Y-192286128D02*
X168355826Y-190786128D01*
X168355826Y-190786128D02*
X168855826Y-192286128D01*
X169212968Y-190786128D02*
X170212968Y-192286128D01*
X170212968Y-190786128D02*
X169212968Y-192286128D01*
X170712968Y-191857557D02*
X171427254Y-191857557D01*
X170570111Y-192286128D02*
X171070111Y-190786128D01*
X171070111Y-190786128D02*
X171570111Y-192286128D01*
X172355825Y-190786128D02*
X172498682Y-190786128D01*
X172498682Y-190786128D02*
X172641539Y-190857557D01*
X172641539Y-190857557D02*
X172712968Y-190928985D01*
X172712968Y-190928985D02*
X172784396Y-191071842D01*
X172784396Y-191071842D02*
X172855825Y-191357557D01*
X172855825Y-191357557D02*
X172855825Y-191714700D01*
X172855825Y-191714700D02*
X172784396Y-192000414D01*
X172784396Y-192000414D02*
X172712968Y-192143271D01*
X172712968Y-192143271D02*
X172641539Y-192214700D01*
X172641539Y-192214700D02*
X172498682Y-192286128D01*
X172498682Y-192286128D02*
X172355825Y-192286128D01*
X172355825Y-192286128D02*
X172212968Y-192214700D01*
X172212968Y-192214700D02*
X172141539Y-192143271D01*
X172141539Y-192143271D02*
X172070110Y-192000414D01*
X172070110Y-192000414D02*
X171998682Y-191714700D01*
X171998682Y-191714700D02*
X171998682Y-191357557D01*
X171998682Y-191357557D02*
X172070110Y-191071842D01*
X172070110Y-191071842D02*
X172141539Y-190928985D01*
X172141539Y-190928985D02*
X172212968Y-190857557D01*
X172212968Y-190857557D02*
X172355825Y-190786128D01*
X174284396Y-192286128D02*
X173427253Y-192286128D01*
X173855824Y-192286128D02*
X173855824Y-190786128D01*
X173855824Y-190786128D02*
X173712967Y-191000414D01*
X173712967Y-191000414D02*
X173570110Y-191143271D01*
X173570110Y-191143271D02*
X173427253Y-191214700D01*
X174927252Y-192143271D02*
X174998681Y-192214700D01*
X174998681Y-192214700D02*
X174927252Y-192286128D01*
X174927252Y-192286128D02*
X174855824Y-192214700D01*
X174855824Y-192214700D02*
X174927252Y-192143271D01*
X174927252Y-192143271D02*
X174927252Y-192286128D01*
X175641538Y-192286128D02*
X175641538Y-190786128D01*
X175784396Y-191714700D02*
X176212967Y-192286128D01*
X176212967Y-191286128D02*
X175641538Y-191857557D01*
X176855824Y-192286128D02*
X176855824Y-191286128D01*
X176855824Y-190786128D02*
X176784396Y-190857557D01*
X176784396Y-190857557D02*
X176855824Y-190928985D01*
X176855824Y-190928985D02*
X176927253Y-190857557D01*
X176927253Y-190857557D02*
X176855824Y-190786128D01*
X176855824Y-190786128D02*
X176855824Y-190928985D01*
X178212968Y-192214700D02*
X178070110Y-192286128D01*
X178070110Y-192286128D02*
X177784396Y-192286128D01*
X177784396Y-192286128D02*
X177641539Y-192214700D01*
X177641539Y-192214700D02*
X177570110Y-192143271D01*
X177570110Y-192143271D02*
X177498682Y-192000414D01*
X177498682Y-192000414D02*
X177498682Y-191571842D01*
X177498682Y-191571842D02*
X177570110Y-191428985D01*
X177570110Y-191428985D02*
X177641539Y-191357557D01*
X177641539Y-191357557D02*
X177784396Y-191286128D01*
X177784396Y-191286128D02*
X178070110Y-191286128D01*
X178070110Y-191286128D02*
X178212968Y-191357557D01*
X179498682Y-192286128D02*
X179498682Y-191500414D01*
X179498682Y-191500414D02*
X179427253Y-191357557D01*
X179427253Y-191357557D02*
X179284396Y-191286128D01*
X179284396Y-191286128D02*
X178998682Y-191286128D01*
X178998682Y-191286128D02*
X178855824Y-191357557D01*
X179498682Y-192214700D02*
X179355824Y-192286128D01*
X179355824Y-192286128D02*
X178998682Y-192286128D01*
X178998682Y-192286128D02*
X178855824Y-192214700D01*
X178855824Y-192214700D02*
X178784396Y-192071842D01*
X178784396Y-192071842D02*
X178784396Y-191928985D01*
X178784396Y-191928985D02*
X178855824Y-191786128D01*
X178855824Y-191786128D02*
X178998682Y-191714700D01*
X178998682Y-191714700D02*
X179355824Y-191714700D01*
X179355824Y-191714700D02*
X179498682Y-191643271D01*
X180855825Y-192286128D02*
X180855825Y-190786128D01*
X180855825Y-192214700D02*
X180712967Y-192286128D01*
X180712967Y-192286128D02*
X180427253Y-192286128D01*
X180427253Y-192286128D02*
X180284396Y-192214700D01*
X180284396Y-192214700D02*
X180212967Y-192143271D01*
X180212967Y-192143271D02*
X180141539Y-192000414D01*
X180141539Y-192000414D02*
X180141539Y-191571842D01*
X180141539Y-191571842D02*
X180212967Y-191428985D01*
X180212967Y-191428985D02*
X180284396Y-191357557D01*
X180284396Y-191357557D02*
X180427253Y-191286128D01*
X180427253Y-191286128D02*
X180712967Y-191286128D01*
X180712967Y-191286128D02*
X180855825Y-191357557D01*
X181212968Y-192428985D02*
X182355825Y-192428985D01*
X182712967Y-191286128D02*
X182712967Y-192786128D01*
X182712967Y-191357557D02*
X182855825Y-191286128D01*
X182855825Y-191286128D02*
X183141539Y-191286128D01*
X183141539Y-191286128D02*
X183284396Y-191357557D01*
X183284396Y-191357557D02*
X183355825Y-191428985D01*
X183355825Y-191428985D02*
X183427253Y-191571842D01*
X183427253Y-191571842D02*
X183427253Y-192000414D01*
X183427253Y-192000414D02*
X183355825Y-192143271D01*
X183355825Y-192143271D02*
X183284396Y-192214700D01*
X183284396Y-192214700D02*
X183141539Y-192286128D01*
X183141539Y-192286128D02*
X182855825Y-192286128D01*
X182855825Y-192286128D02*
X182712967Y-192214700D01*
X184712968Y-192214700D02*
X184570110Y-192286128D01*
X184570110Y-192286128D02*
X184284396Y-192286128D01*
X184284396Y-192286128D02*
X184141539Y-192214700D01*
X184141539Y-192214700D02*
X184070110Y-192143271D01*
X184070110Y-192143271D02*
X183998682Y-192000414D01*
X183998682Y-192000414D02*
X183998682Y-191571842D01*
X183998682Y-191571842D02*
X184070110Y-191428985D01*
X184070110Y-191428985D02*
X184141539Y-191357557D01*
X184141539Y-191357557D02*
X184284396Y-191286128D01*
X184284396Y-191286128D02*
X184570110Y-191286128D01*
X184570110Y-191286128D02*
X184712968Y-191357557D01*
X185355824Y-192286128D02*
X185355824Y-190786128D01*
X185355824Y-191357557D02*
X185498682Y-191286128D01*
X185498682Y-191286128D02*
X185784396Y-191286128D01*
X185784396Y-191286128D02*
X185927253Y-191357557D01*
X185927253Y-191357557D02*
X185998682Y-191428985D01*
X185998682Y-191428985D02*
X186070110Y-191571842D01*
X186070110Y-191571842D02*
X186070110Y-192000414D01*
X186070110Y-192000414D02*
X185998682Y-192143271D01*
X185998682Y-192143271D02*
X185927253Y-192214700D01*
X185927253Y-192214700D02*
X185784396Y-192286128D01*
X185784396Y-192286128D02*
X185498682Y-192286128D01*
X185498682Y-192286128D02*
X185355824Y-192214700D01*
D10*
D11*
X159400000Y-187400000D02*
X267400000Y-187400000D01*
D10*
D11*
X160784398Y-189514700D02*
X160998684Y-189586128D01*
X160998684Y-189586128D02*
X161355826Y-189586128D01*
X161355826Y-189586128D02*
X161498684Y-189514700D01*
X161498684Y-189514700D02*
X161570112Y-189443271D01*
X161570112Y-189443271D02*
X161641541Y-189300414D01*
X161641541Y-189300414D02*
X161641541Y-189157557D01*
X161641541Y-189157557D02*
X161570112Y-189014700D01*
X161570112Y-189014700D02*
X161498684Y-188943271D01*
X161498684Y-188943271D02*
X161355826Y-188871842D01*
X161355826Y-188871842D02*
X161070112Y-188800414D01*
X161070112Y-188800414D02*
X160927255Y-188728985D01*
X160927255Y-188728985D02*
X160855826Y-188657557D01*
X160855826Y-188657557D02*
X160784398Y-188514700D01*
X160784398Y-188514700D02*
X160784398Y-188371842D01*
X160784398Y-188371842D02*
X160855826Y-188228985D01*
X160855826Y-188228985D02*
X160927255Y-188157557D01*
X160927255Y-188157557D02*
X161070112Y-188086128D01*
X161070112Y-188086128D02*
X161427255Y-188086128D01*
X161427255Y-188086128D02*
X161641541Y-188157557D01*
X162284397Y-189586128D02*
X162284397Y-188086128D01*
X162927255Y-189586128D02*
X162927255Y-188800414D01*
X162927255Y-188800414D02*
X162855826Y-188657557D01*
X162855826Y-188657557D02*
X162712969Y-188586128D01*
X162712969Y-188586128D02*
X162498683Y-188586128D01*
X162498683Y-188586128D02*
X162355826Y-188657557D01*
X162355826Y-188657557D02*
X162284397Y-188728985D01*
X164212969Y-189514700D02*
X164070112Y-189586128D01*
X164070112Y-189586128D02*
X163784398Y-189586128D01*
X163784398Y-189586128D02*
X163641540Y-189514700D01*
X163641540Y-189514700D02*
X163570112Y-189371842D01*
X163570112Y-189371842D02*
X163570112Y-188800414D01*
X163570112Y-188800414D02*
X163641540Y-188657557D01*
X163641540Y-188657557D02*
X163784398Y-188586128D01*
X163784398Y-188586128D02*
X164070112Y-188586128D01*
X164070112Y-188586128D02*
X164212969Y-188657557D01*
X164212969Y-188657557D02*
X164284398Y-188800414D01*
X164284398Y-188800414D02*
X164284398Y-188943271D01*
X164284398Y-188943271D02*
X163570112Y-189086128D01*
X165498683Y-189514700D02*
X165355826Y-189586128D01*
X165355826Y-189586128D02*
X165070112Y-189586128D01*
X165070112Y-189586128D02*
X164927254Y-189514700D01*
X164927254Y-189514700D02*
X164855826Y-189371842D01*
X164855826Y-189371842D02*
X164855826Y-188800414D01*
X164855826Y-188800414D02*
X164927254Y-188657557D01*
X164927254Y-188657557D02*
X165070112Y-188586128D01*
X165070112Y-188586128D02*
X165355826Y-188586128D01*
X165355826Y-188586128D02*
X165498683Y-188657557D01*
X165498683Y-188657557D02*
X165570112Y-188800414D01*
X165570112Y-188800414D02*
X165570112Y-188943271D01*
X165570112Y-188943271D02*
X164855826Y-189086128D01*
X165998683Y-188586128D02*
X166570111Y-188586128D01*
X166212968Y-188086128D02*
X166212968Y-189371842D01*
X166212968Y-189371842D02*
X166284397Y-189514700D01*
X166284397Y-189514700D02*
X166427254Y-189586128D01*
X166427254Y-189586128D02*
X166570111Y-189586128D01*
X167070111Y-189443271D02*
X167141540Y-189514700D01*
X167141540Y-189514700D02*
X167070111Y-189586128D01*
X167070111Y-189586128D02*
X166998683Y-189514700D01*
X166998683Y-189514700D02*
X167070111Y-189443271D01*
X167070111Y-189443271D02*
X167070111Y-189586128D01*
X167070111Y-188657557D02*
X167141540Y-188728985D01*
X167141540Y-188728985D02*
X167070111Y-188800414D01*
X167070111Y-188800414D02*
X166998683Y-188728985D01*
X166998683Y-188728985D02*
X167070111Y-188657557D01*
X167070111Y-188657557D02*
X167070111Y-188800414D01*
D10*
D12*
D10*
D11*
D10*
D11*
D10*
D11*
D10*
D11*
D10*
D11*
X179400000Y-197400000D02*
X179400000Y-200400000D01*
D10*
D11*
X243400000Y-197400000D02*
X243400000Y-203900000D01*
%TO.C,J1*%
D14*
X121496320Y-76182720D02*
X121196320Y-76182720D01*
X121196320Y-75482720D01*
X121496320Y-75482720D01*
X121496320Y-76182720D01*
G36*
X121496320Y-76182720D02*
G01*
X121196320Y-76182720D01*
X121196320Y-75482720D01*
X121496320Y-75482720D01*
X121496320Y-76182720D01*
G37*
X120711320Y-75932720D02*
X120481320Y-75932720D01*
X120481320Y-75282720D01*
X120711320Y-75282720D01*
X120711320Y-75932720D01*
G36*
X120711320Y-75932720D02*
G01*
X120481320Y-75932720D01*
X120481320Y-75282720D01*
X120711320Y-75282720D01*
X120711320Y-75932720D01*
G37*
X120411320Y-78882720D02*
X120181320Y-78882720D01*
X120181320Y-78332720D01*
X120411320Y-78332720D01*
X120411320Y-78882720D01*
G36*
X120411320Y-78882720D02*
G01*
X120181320Y-78882720D01*
X120181320Y-78332720D01*
X120411320Y-78332720D01*
X120411320Y-78882720D01*
G37*
X120111320Y-75932720D02*
X119881320Y-75932720D01*
X119881320Y-75282720D01*
X120111320Y-75282720D01*
X120111320Y-75932720D01*
G36*
X120111320Y-75932720D02*
G01*
X119881320Y-75932720D01*
X119881320Y-75282720D01*
X120111320Y-75282720D01*
X120111320Y-75932720D01*
G37*
X119811320Y-78882720D02*
X119581320Y-78882720D01*
X119581320Y-78332720D01*
X119811320Y-78332720D01*
X119811320Y-78882720D01*
G36*
X119811320Y-78882720D02*
G01*
X119581320Y-78882720D01*
X119581320Y-78332720D01*
X119811320Y-78332720D01*
X119811320Y-78882720D01*
G37*
X119511320Y-75932720D02*
X119281320Y-75932720D01*
X119281320Y-75282720D01*
X119511320Y-75282720D01*
X119511320Y-75932720D01*
G36*
X119511320Y-75932720D02*
G01*
X119281320Y-75932720D01*
X119281320Y-75282720D01*
X119511320Y-75282720D01*
X119511320Y-75932720D01*
G37*
X119211320Y-78882720D02*
X118981320Y-78882720D01*
X118981320Y-78332720D01*
X119211320Y-78332720D01*
X119211320Y-78882720D01*
G36*
X119211320Y-78882720D02*
G01*
X118981320Y-78882720D01*
X118981320Y-78332720D01*
X119211320Y-78332720D01*
X119211320Y-78882720D01*
G37*
X118911320Y-75932720D02*
X118681320Y-75932720D01*
X118681320Y-75282720D01*
X118911320Y-75282720D01*
X118911320Y-75932720D01*
G36*
X118911320Y-75932720D02*
G01*
X118681320Y-75932720D01*
X118681320Y-75282720D01*
X118911320Y-75282720D01*
X118911320Y-75932720D01*
G37*
X118611320Y-78882720D02*
X118381320Y-78882720D01*
X118381320Y-78332720D01*
X118611320Y-78332720D01*
X118611320Y-78882720D01*
G36*
X118611320Y-78882720D02*
G01*
X118381320Y-78882720D01*
X118381320Y-78332720D01*
X118611320Y-78332720D01*
X118611320Y-78882720D01*
G37*
X118311320Y-75932720D02*
X118081320Y-75932720D01*
X118081320Y-75282720D01*
X118311320Y-75282720D01*
X118311320Y-75932720D01*
G36*
X118311320Y-75932720D02*
G01*
X118081320Y-75932720D01*
X118081320Y-75282720D01*
X118311320Y-75282720D01*
X118311320Y-75932720D01*
G37*
X118011320Y-78882720D02*
X117781320Y-78882720D01*
X117781320Y-78332720D01*
X118011320Y-78332720D01*
X118011320Y-78882720D01*
G36*
X118011320Y-78882720D02*
G01*
X117781320Y-78882720D01*
X117781320Y-78332720D01*
X118011320Y-78332720D01*
X118011320Y-78882720D01*
G37*
X117711320Y-75932720D02*
X117481320Y-75932720D01*
X117481320Y-75282720D01*
X117711320Y-75282720D01*
X117711320Y-75932720D01*
G36*
X117711320Y-75932720D02*
G01*
X117481320Y-75932720D01*
X117481320Y-75282720D01*
X117711320Y-75282720D01*
X117711320Y-75932720D01*
G37*
X117411320Y-78882720D02*
X117181320Y-78882720D01*
X117181320Y-78332720D01*
X117411320Y-78332720D01*
X117411320Y-78882720D01*
G36*
X117411320Y-78882720D02*
G01*
X117181320Y-78882720D01*
X117181320Y-78332720D01*
X117411320Y-78332720D01*
X117411320Y-78882720D01*
G37*
X117111320Y-75932720D02*
X116881320Y-75932720D01*
X116881320Y-75282720D01*
X117111320Y-75282720D01*
X117111320Y-75932720D01*
G36*
X117111320Y-75932720D02*
G01*
X116881320Y-75932720D01*
X116881320Y-75282720D01*
X117111320Y-75282720D01*
X117111320Y-75932720D01*
G37*
X116811320Y-78882720D02*
X116581320Y-78882720D01*
X116581320Y-78332720D01*
X116811320Y-78332720D01*
X116811320Y-78882720D01*
G36*
X116811320Y-78882720D02*
G01*
X116581320Y-78882720D01*
X116581320Y-78332720D01*
X116811320Y-78332720D01*
X116811320Y-78882720D01*
G37*
X116511320Y-75932720D02*
X116281320Y-75932720D01*
X116281320Y-75282720D01*
X116511320Y-75282720D01*
X116511320Y-75932720D01*
G36*
X116511320Y-75932720D02*
G01*
X116281320Y-75932720D01*
X116281320Y-75282720D01*
X116511320Y-75282720D01*
X116511320Y-75932720D01*
G37*
X116211320Y-78882720D02*
X115981320Y-78882720D01*
X115981320Y-78332720D01*
X116211320Y-78332720D01*
X116211320Y-78882720D01*
G36*
X116211320Y-78882720D02*
G01*
X115981320Y-78882720D01*
X115981320Y-78332720D01*
X116211320Y-78332720D01*
X116211320Y-78882720D01*
G37*
X115911320Y-75932720D02*
X115681320Y-75932720D01*
X115681320Y-75282720D01*
X115911320Y-75282720D01*
X115911320Y-75932720D01*
G36*
X115911320Y-75932720D02*
G01*
X115681320Y-75932720D01*
X115681320Y-75282720D01*
X115911320Y-75282720D01*
X115911320Y-75932720D01*
G37*
X115611320Y-78882720D02*
X115381320Y-78882720D01*
X115381320Y-78332720D01*
X115611320Y-78332720D01*
X115611320Y-78882720D01*
G36*
X115611320Y-78882720D02*
G01*
X115381320Y-78882720D01*
X115381320Y-78332720D01*
X115611320Y-78332720D01*
X115611320Y-78882720D01*
G37*
X115311320Y-75932720D02*
X115081320Y-75932720D01*
X115081320Y-75282720D01*
X115311320Y-75282720D01*
X115311320Y-75932720D01*
G36*
X115311320Y-75932720D02*
G01*
X115081320Y-75932720D01*
X115081320Y-75282720D01*
X115311320Y-75282720D01*
X115311320Y-75932720D01*
G37*
X115011320Y-78882720D02*
X114781320Y-78882720D01*
X114781320Y-78332720D01*
X115011320Y-78332720D01*
X115011320Y-78882720D01*
G36*
X115011320Y-78882720D02*
G01*
X114781320Y-78882720D01*
X114781320Y-78332720D01*
X115011320Y-78332720D01*
X115011320Y-78882720D01*
G37*
X114711320Y-75932720D02*
X114481320Y-75932720D01*
X114481320Y-75282720D01*
X114711320Y-75282720D01*
X114711320Y-75932720D01*
G36*
X114711320Y-75932720D02*
G01*
X114481320Y-75932720D01*
X114481320Y-75282720D01*
X114711320Y-75282720D01*
X114711320Y-75932720D01*
G37*
X114411320Y-78882720D02*
X114181320Y-78882720D01*
X114181320Y-78332720D01*
X114411320Y-78332720D01*
X114411320Y-78882720D01*
G36*
X114411320Y-78882720D02*
G01*
X114181320Y-78882720D01*
X114181320Y-78332720D01*
X114411320Y-78332720D01*
X114411320Y-78882720D01*
G37*
X114111320Y-75932720D02*
X113881320Y-75932720D01*
X113881320Y-75282720D01*
X114111320Y-75282720D01*
X114111320Y-75932720D01*
G36*
X114111320Y-75932720D02*
G01*
X113881320Y-75932720D01*
X113881320Y-75282720D01*
X114111320Y-75282720D01*
X114111320Y-75932720D01*
G37*
X113811320Y-78882720D02*
X113581320Y-78882720D01*
X113581320Y-78332720D01*
X113811320Y-78332720D01*
X113811320Y-78882720D01*
G36*
X113811320Y-78882720D02*
G01*
X113581320Y-78882720D01*
X113581320Y-78332720D01*
X113811320Y-78332720D01*
X113811320Y-78882720D01*
G37*
X113511320Y-75932720D02*
X113281320Y-75932720D01*
X113281320Y-75282720D01*
X113511320Y-75282720D01*
X113511320Y-75932720D01*
G36*
X113511320Y-75932720D02*
G01*
X113281320Y-75932720D01*
X113281320Y-75282720D01*
X113511320Y-75282720D01*
X113511320Y-75932720D01*
G37*
X113211320Y-78882720D02*
X112981320Y-78882720D01*
X112981320Y-78332720D01*
X113211320Y-78332720D01*
X113211320Y-78882720D01*
G36*
X113211320Y-78882720D02*
G01*
X112981320Y-78882720D01*
X112981320Y-78332720D01*
X113211320Y-78332720D01*
X113211320Y-78882720D01*
G37*
X112911320Y-75932720D02*
X112681320Y-75932720D01*
X112681320Y-75282720D01*
X112911320Y-75282720D01*
X112911320Y-75932720D01*
G36*
X112911320Y-75932720D02*
G01*
X112681320Y-75932720D01*
X112681320Y-75282720D01*
X112911320Y-75282720D01*
X112911320Y-75932720D01*
G37*
X112611320Y-78882720D02*
X112381320Y-78882720D01*
X112381320Y-78332720D01*
X112611320Y-78332720D01*
X112611320Y-78882720D01*
G36*
X112611320Y-78882720D02*
G01*
X112381320Y-78882720D01*
X112381320Y-78332720D01*
X112611320Y-78332720D01*
X112611320Y-78882720D01*
G37*
X112311320Y-75932720D02*
X112081320Y-75932720D01*
X112081320Y-75282720D01*
X112311320Y-75282720D01*
X112311320Y-75932720D01*
G36*
X112311320Y-75932720D02*
G01*
X112081320Y-75932720D01*
X112081320Y-75282720D01*
X112311320Y-75282720D01*
X112311320Y-75932720D01*
G37*
X112011320Y-78882720D02*
X111781320Y-78882720D01*
X111781320Y-78332720D01*
X112011320Y-78332720D01*
X112011320Y-78882720D01*
G36*
X112011320Y-78882720D02*
G01*
X111781320Y-78882720D01*
X111781320Y-78332720D01*
X112011320Y-78332720D01*
X112011320Y-78882720D01*
G37*
X111711320Y-75932720D02*
X111481320Y-75932720D01*
X111481320Y-75282720D01*
X111711320Y-75282720D01*
X111711320Y-75932720D01*
G36*
X111711320Y-75932720D02*
G01*
X111481320Y-75932720D01*
X111481320Y-75282720D01*
X111711320Y-75282720D01*
X111711320Y-75932720D01*
G37*
X111411320Y-78882720D02*
X111181320Y-78882720D01*
X111181320Y-78332720D01*
X111411320Y-78332720D01*
X111411320Y-78882720D01*
G36*
X111411320Y-78882720D02*
G01*
X111181320Y-78882720D01*
X111181320Y-78332720D01*
X111411320Y-78332720D01*
X111411320Y-78882720D01*
G37*
X111111320Y-75932720D02*
X110881320Y-75932720D01*
X110881320Y-75282720D01*
X111111320Y-75282720D01*
X111111320Y-75932720D01*
G36*
X111111320Y-75932720D02*
G01*
X110881320Y-75932720D01*
X110881320Y-75282720D01*
X111111320Y-75282720D01*
X111111320Y-75932720D01*
G37*
X110811320Y-78882720D02*
X110581320Y-78882720D01*
X110581320Y-78332720D01*
X110811320Y-78332720D01*
X110811320Y-78882720D01*
G36*
X110811320Y-78882720D02*
G01*
X110581320Y-78882720D01*
X110581320Y-78332720D01*
X110811320Y-78332720D01*
X110811320Y-78882720D01*
G37*
X110511320Y-75932720D02*
X110281320Y-75932720D01*
X110281320Y-75282720D01*
X110511320Y-75282720D01*
X110511320Y-75932720D01*
G36*
X110511320Y-75932720D02*
G01*
X110281320Y-75932720D01*
X110281320Y-75282720D01*
X110511320Y-75282720D01*
X110511320Y-75932720D01*
G37*
X110211320Y-78882720D02*
X109981320Y-78882720D01*
X109981320Y-78332720D01*
X110211320Y-78332720D01*
X110211320Y-78882720D01*
G36*
X110211320Y-78882720D02*
G01*
X109981320Y-78882720D01*
X109981320Y-78332720D01*
X110211320Y-78332720D01*
X110211320Y-78882720D01*
G37*
X109911320Y-75932720D02*
X109681320Y-75932720D01*
X109681320Y-75282720D01*
X109911320Y-75282720D01*
X109911320Y-75932720D01*
G36*
X109911320Y-75932720D02*
G01*
X109681320Y-75932720D01*
X109681320Y-75282720D01*
X109911320Y-75282720D01*
X109911320Y-75932720D01*
G37*
X109611320Y-78882720D02*
X109381320Y-78882720D01*
X109381320Y-78332720D01*
X109611320Y-78332720D01*
X109611320Y-78882720D01*
G36*
X109611320Y-78882720D02*
G01*
X109381320Y-78882720D01*
X109381320Y-78332720D01*
X109611320Y-78332720D01*
X109611320Y-78882720D01*
G37*
X109311320Y-75932720D02*
X109081320Y-75932720D01*
X109081320Y-75282720D01*
X109311320Y-75282720D01*
X109311320Y-75932720D01*
G36*
X109311320Y-75932720D02*
G01*
X109081320Y-75932720D01*
X109081320Y-75282720D01*
X109311320Y-75282720D01*
X109311320Y-75932720D01*
G37*
X109011320Y-78882720D02*
X108781320Y-78882720D01*
X108781320Y-78332720D01*
X109011320Y-78332720D01*
X109011320Y-78882720D01*
G36*
X109011320Y-78882720D02*
G01*
X108781320Y-78882720D01*
X108781320Y-78332720D01*
X109011320Y-78332720D01*
X109011320Y-78882720D01*
G37*
X108711320Y-75932720D02*
X108481320Y-75932720D01*
X108481320Y-75282720D01*
X108711320Y-75282720D01*
X108711320Y-75932720D01*
G36*
X108711320Y-75932720D02*
G01*
X108481320Y-75932720D01*
X108481320Y-75282720D01*
X108711320Y-75282720D01*
X108711320Y-75932720D01*
G37*
X108411320Y-78882720D02*
X108181320Y-78882720D01*
X108181320Y-78332720D01*
X108411320Y-78332720D01*
X108411320Y-78882720D01*
G36*
X108411320Y-78882720D02*
G01*
X108181320Y-78882720D01*
X108181320Y-78332720D01*
X108411320Y-78332720D01*
X108411320Y-78882720D01*
G37*
X108111320Y-75932720D02*
X107881320Y-75932720D01*
X107881320Y-75282720D01*
X108111320Y-75282720D01*
X108111320Y-75932720D01*
G36*
X108111320Y-75932720D02*
G01*
X107881320Y-75932720D01*
X107881320Y-75282720D01*
X108111320Y-75282720D01*
X108111320Y-75932720D01*
G37*
X107811320Y-78882720D02*
X107581320Y-78882720D01*
X107581320Y-78332720D01*
X107811320Y-78332720D01*
X107811320Y-78882720D01*
G36*
X107811320Y-78882720D02*
G01*
X107581320Y-78882720D01*
X107581320Y-78332720D01*
X107811320Y-78332720D01*
X107811320Y-78882720D01*
G37*
X107511320Y-75932720D02*
X107281320Y-75932720D01*
X107281320Y-75282720D01*
X107511320Y-75282720D01*
X107511320Y-75932720D01*
G36*
X107511320Y-75932720D02*
G01*
X107281320Y-75932720D01*
X107281320Y-75282720D01*
X107511320Y-75282720D01*
X107511320Y-75932720D01*
G37*
X106796320Y-76182720D02*
X106496320Y-76182720D01*
X106496320Y-75482720D01*
X106796320Y-75482720D01*
X106796320Y-76182720D01*
G36*
X106796320Y-76182720D02*
G01*
X106496320Y-76182720D01*
X106496320Y-75482720D01*
X106796320Y-75482720D01*
X106796320Y-76182720D01*
G37*
%TO.C,J2*%
X121476320Y-69080220D02*
X121176320Y-69080220D01*
X121176320Y-68380220D01*
X121476320Y-68380220D01*
X121476320Y-69080220D01*
G36*
X121476320Y-69080220D02*
G01*
X121176320Y-69080220D01*
X121176320Y-68380220D01*
X121476320Y-68380220D01*
X121476320Y-69080220D01*
G37*
X120691320Y-69280220D02*
X120461320Y-69280220D01*
X120461320Y-68630220D01*
X120691320Y-68630220D01*
X120691320Y-69280220D01*
G36*
X120691320Y-69280220D02*
G01*
X120461320Y-69280220D01*
X120461320Y-68630220D01*
X120691320Y-68630220D01*
X120691320Y-69280220D01*
G37*
X120391320Y-66230220D02*
X120161320Y-66230220D01*
X120161320Y-65680220D01*
X120391320Y-65680220D01*
X120391320Y-66230220D01*
G36*
X120391320Y-66230220D02*
G01*
X120161320Y-66230220D01*
X120161320Y-65680220D01*
X120391320Y-65680220D01*
X120391320Y-66230220D01*
G37*
X120091320Y-69280220D02*
X119861320Y-69280220D01*
X119861320Y-68630220D01*
X120091320Y-68630220D01*
X120091320Y-69280220D01*
G36*
X120091320Y-69280220D02*
G01*
X119861320Y-69280220D01*
X119861320Y-68630220D01*
X120091320Y-68630220D01*
X120091320Y-69280220D01*
G37*
X119791320Y-66230220D02*
X119561320Y-66230220D01*
X119561320Y-65680220D01*
X119791320Y-65680220D01*
X119791320Y-66230220D01*
G36*
X119791320Y-66230220D02*
G01*
X119561320Y-66230220D01*
X119561320Y-65680220D01*
X119791320Y-65680220D01*
X119791320Y-66230220D01*
G37*
X119491320Y-69280220D02*
X119261320Y-69280220D01*
X119261320Y-68630220D01*
X119491320Y-68630220D01*
X119491320Y-69280220D01*
G36*
X119491320Y-69280220D02*
G01*
X119261320Y-69280220D01*
X119261320Y-68630220D01*
X119491320Y-68630220D01*
X119491320Y-69280220D01*
G37*
X119191320Y-66230220D02*
X118961320Y-66230220D01*
X118961320Y-65680220D01*
X119191320Y-65680220D01*
X119191320Y-66230220D01*
G36*
X119191320Y-66230220D02*
G01*
X118961320Y-66230220D01*
X118961320Y-65680220D01*
X119191320Y-65680220D01*
X119191320Y-66230220D01*
G37*
X118891320Y-69280220D02*
X118661320Y-69280220D01*
X118661320Y-68630220D01*
X118891320Y-68630220D01*
X118891320Y-69280220D01*
G36*
X118891320Y-69280220D02*
G01*
X118661320Y-69280220D01*
X118661320Y-68630220D01*
X118891320Y-68630220D01*
X118891320Y-69280220D01*
G37*
X118591320Y-66230220D02*
X118361320Y-66230220D01*
X118361320Y-65680220D01*
X118591320Y-65680220D01*
X118591320Y-66230220D01*
G36*
X118591320Y-66230220D02*
G01*
X118361320Y-66230220D01*
X118361320Y-65680220D01*
X118591320Y-65680220D01*
X118591320Y-66230220D01*
G37*
X118291320Y-69280220D02*
X118061320Y-69280220D01*
X118061320Y-68630220D01*
X118291320Y-68630220D01*
X118291320Y-69280220D01*
G36*
X118291320Y-69280220D02*
G01*
X118061320Y-69280220D01*
X118061320Y-68630220D01*
X118291320Y-68630220D01*
X118291320Y-69280220D01*
G37*
X117991320Y-66230220D02*
X117761320Y-66230220D01*
X117761320Y-65680220D01*
X117991320Y-65680220D01*
X117991320Y-66230220D01*
G36*
X117991320Y-66230220D02*
G01*
X117761320Y-66230220D01*
X117761320Y-65680220D01*
X117991320Y-65680220D01*
X117991320Y-66230220D01*
G37*
X117691320Y-69280220D02*
X117461320Y-69280220D01*
X117461320Y-68630220D01*
X117691320Y-68630220D01*
X117691320Y-69280220D01*
G36*
X117691320Y-69280220D02*
G01*
X117461320Y-69280220D01*
X117461320Y-68630220D01*
X117691320Y-68630220D01*
X117691320Y-69280220D01*
G37*
X117391320Y-66230220D02*
X117161320Y-66230220D01*
X117161320Y-65680220D01*
X117391320Y-65680220D01*
X117391320Y-66230220D01*
G36*
X117391320Y-66230220D02*
G01*
X117161320Y-66230220D01*
X117161320Y-65680220D01*
X117391320Y-65680220D01*
X117391320Y-66230220D01*
G37*
X117091320Y-69280220D02*
X116861320Y-69280220D01*
X116861320Y-68630220D01*
X117091320Y-68630220D01*
X117091320Y-69280220D01*
G36*
X117091320Y-69280220D02*
G01*
X116861320Y-69280220D01*
X116861320Y-68630220D01*
X117091320Y-68630220D01*
X117091320Y-69280220D01*
G37*
X116791320Y-66230220D02*
X116561320Y-66230220D01*
X116561320Y-65680220D01*
X116791320Y-65680220D01*
X116791320Y-66230220D01*
G36*
X116791320Y-66230220D02*
G01*
X116561320Y-66230220D01*
X116561320Y-65680220D01*
X116791320Y-65680220D01*
X116791320Y-66230220D01*
G37*
X116491320Y-69280220D02*
X116261320Y-69280220D01*
X116261320Y-68630220D01*
X116491320Y-68630220D01*
X116491320Y-69280220D01*
G36*
X116491320Y-69280220D02*
G01*
X116261320Y-69280220D01*
X116261320Y-68630220D01*
X116491320Y-68630220D01*
X116491320Y-69280220D01*
G37*
X116191320Y-66230220D02*
X115961320Y-66230220D01*
X115961320Y-65680220D01*
X116191320Y-65680220D01*
X116191320Y-66230220D01*
G36*
X116191320Y-66230220D02*
G01*
X115961320Y-66230220D01*
X115961320Y-65680220D01*
X116191320Y-65680220D01*
X116191320Y-66230220D01*
G37*
X115891320Y-69280220D02*
X115661320Y-69280220D01*
X115661320Y-68630220D01*
X115891320Y-68630220D01*
X115891320Y-69280220D01*
G36*
X115891320Y-69280220D02*
G01*
X115661320Y-69280220D01*
X115661320Y-68630220D01*
X115891320Y-68630220D01*
X115891320Y-69280220D01*
G37*
X115591320Y-66230220D02*
X115361320Y-66230220D01*
X115361320Y-65680220D01*
X115591320Y-65680220D01*
X115591320Y-66230220D01*
G36*
X115591320Y-66230220D02*
G01*
X115361320Y-66230220D01*
X115361320Y-65680220D01*
X115591320Y-65680220D01*
X115591320Y-66230220D01*
G37*
X115291320Y-69280220D02*
X115061320Y-69280220D01*
X115061320Y-68630220D01*
X115291320Y-68630220D01*
X115291320Y-69280220D01*
G36*
X115291320Y-69280220D02*
G01*
X115061320Y-69280220D01*
X115061320Y-68630220D01*
X115291320Y-68630220D01*
X115291320Y-69280220D01*
G37*
X114991320Y-66230220D02*
X114761320Y-66230220D01*
X114761320Y-65680220D01*
X114991320Y-65680220D01*
X114991320Y-66230220D01*
G36*
X114991320Y-66230220D02*
G01*
X114761320Y-66230220D01*
X114761320Y-65680220D01*
X114991320Y-65680220D01*
X114991320Y-66230220D01*
G37*
X114691320Y-69280220D02*
X114461320Y-69280220D01*
X114461320Y-68630220D01*
X114691320Y-68630220D01*
X114691320Y-69280220D01*
G36*
X114691320Y-69280220D02*
G01*
X114461320Y-69280220D01*
X114461320Y-68630220D01*
X114691320Y-68630220D01*
X114691320Y-69280220D01*
G37*
X114391320Y-66230220D02*
X114161320Y-66230220D01*
X114161320Y-65680220D01*
X114391320Y-65680220D01*
X114391320Y-66230220D01*
G36*
X114391320Y-66230220D02*
G01*
X114161320Y-66230220D01*
X114161320Y-65680220D01*
X114391320Y-65680220D01*
X114391320Y-66230220D01*
G37*
X114091320Y-69280220D02*
X113861320Y-69280220D01*
X113861320Y-68630220D01*
X114091320Y-68630220D01*
X114091320Y-69280220D01*
G36*
X114091320Y-69280220D02*
G01*
X113861320Y-69280220D01*
X113861320Y-68630220D01*
X114091320Y-68630220D01*
X114091320Y-69280220D01*
G37*
X113791320Y-66230220D02*
X113561320Y-66230220D01*
X113561320Y-65680220D01*
X113791320Y-65680220D01*
X113791320Y-66230220D01*
G36*
X113791320Y-66230220D02*
G01*
X113561320Y-66230220D01*
X113561320Y-65680220D01*
X113791320Y-65680220D01*
X113791320Y-66230220D01*
G37*
X113491320Y-69280220D02*
X113261320Y-69280220D01*
X113261320Y-68630220D01*
X113491320Y-68630220D01*
X113491320Y-69280220D01*
G36*
X113491320Y-69280220D02*
G01*
X113261320Y-69280220D01*
X113261320Y-68630220D01*
X113491320Y-68630220D01*
X113491320Y-69280220D01*
G37*
X113191320Y-66230220D02*
X112961320Y-66230220D01*
X112961320Y-65680220D01*
X113191320Y-65680220D01*
X113191320Y-66230220D01*
G36*
X113191320Y-66230220D02*
G01*
X112961320Y-66230220D01*
X112961320Y-65680220D01*
X113191320Y-65680220D01*
X113191320Y-66230220D01*
G37*
X112891320Y-69280220D02*
X112661320Y-69280220D01*
X112661320Y-68630220D01*
X112891320Y-68630220D01*
X112891320Y-69280220D01*
G36*
X112891320Y-69280220D02*
G01*
X112661320Y-69280220D01*
X112661320Y-68630220D01*
X112891320Y-68630220D01*
X112891320Y-69280220D01*
G37*
X112591320Y-66230220D02*
X112361320Y-66230220D01*
X112361320Y-65680220D01*
X112591320Y-65680220D01*
X112591320Y-66230220D01*
G36*
X112591320Y-66230220D02*
G01*
X112361320Y-66230220D01*
X112361320Y-65680220D01*
X112591320Y-65680220D01*
X112591320Y-66230220D01*
G37*
X112291320Y-69280220D02*
X112061320Y-69280220D01*
X112061320Y-68630220D01*
X112291320Y-68630220D01*
X112291320Y-69280220D01*
G36*
X112291320Y-69280220D02*
G01*
X112061320Y-69280220D01*
X112061320Y-68630220D01*
X112291320Y-68630220D01*
X112291320Y-69280220D01*
G37*
X111991320Y-66230220D02*
X111761320Y-66230220D01*
X111761320Y-65680220D01*
X111991320Y-65680220D01*
X111991320Y-66230220D01*
G36*
X111991320Y-66230220D02*
G01*
X111761320Y-66230220D01*
X111761320Y-65680220D01*
X111991320Y-65680220D01*
X111991320Y-66230220D01*
G37*
X111691320Y-69280220D02*
X111461320Y-69280220D01*
X111461320Y-68630220D01*
X111691320Y-68630220D01*
X111691320Y-69280220D01*
G36*
X111691320Y-69280220D02*
G01*
X111461320Y-69280220D01*
X111461320Y-68630220D01*
X111691320Y-68630220D01*
X111691320Y-69280220D01*
G37*
X111391320Y-66230220D02*
X111161320Y-66230220D01*
X111161320Y-65680220D01*
X111391320Y-65680220D01*
X111391320Y-66230220D01*
G36*
X111391320Y-66230220D02*
G01*
X111161320Y-66230220D01*
X111161320Y-65680220D01*
X111391320Y-65680220D01*
X111391320Y-66230220D01*
G37*
X111091320Y-69280220D02*
X110861320Y-69280220D01*
X110861320Y-68630220D01*
X111091320Y-68630220D01*
X111091320Y-69280220D01*
G36*
X111091320Y-69280220D02*
G01*
X110861320Y-69280220D01*
X110861320Y-68630220D01*
X111091320Y-68630220D01*
X111091320Y-69280220D01*
G37*
X110791320Y-66230220D02*
X110561320Y-66230220D01*
X110561320Y-65680220D01*
X110791320Y-65680220D01*
X110791320Y-66230220D01*
G36*
X110791320Y-66230220D02*
G01*
X110561320Y-66230220D01*
X110561320Y-65680220D01*
X110791320Y-65680220D01*
X110791320Y-66230220D01*
G37*
X110491320Y-69280220D02*
X110261320Y-69280220D01*
X110261320Y-68630220D01*
X110491320Y-68630220D01*
X110491320Y-69280220D01*
G36*
X110491320Y-69280220D02*
G01*
X110261320Y-69280220D01*
X110261320Y-68630220D01*
X110491320Y-68630220D01*
X110491320Y-69280220D01*
G37*
X110191320Y-66230220D02*
X109961320Y-66230220D01*
X109961320Y-65680220D01*
X110191320Y-65680220D01*
X110191320Y-66230220D01*
G36*
X110191320Y-66230220D02*
G01*
X109961320Y-66230220D01*
X109961320Y-65680220D01*
X110191320Y-65680220D01*
X110191320Y-66230220D01*
G37*
X109891320Y-69280220D02*
X109661320Y-69280220D01*
X109661320Y-68630220D01*
X109891320Y-68630220D01*
X109891320Y-69280220D01*
G36*
X109891320Y-69280220D02*
G01*
X109661320Y-69280220D01*
X109661320Y-68630220D01*
X109891320Y-68630220D01*
X109891320Y-69280220D01*
G37*
X109591320Y-66230220D02*
X109361320Y-66230220D01*
X109361320Y-65680220D01*
X109591320Y-65680220D01*
X109591320Y-66230220D01*
G36*
X109591320Y-66230220D02*
G01*
X109361320Y-66230220D01*
X109361320Y-65680220D01*
X109591320Y-65680220D01*
X109591320Y-66230220D01*
G37*
X109291320Y-69280220D02*
X109061320Y-69280220D01*
X109061320Y-68630220D01*
X109291320Y-68630220D01*
X109291320Y-69280220D01*
G36*
X109291320Y-69280220D02*
G01*
X109061320Y-69280220D01*
X109061320Y-68630220D01*
X109291320Y-68630220D01*
X109291320Y-69280220D01*
G37*
X108991320Y-66230220D02*
X108761320Y-66230220D01*
X108761320Y-65680220D01*
X108991320Y-65680220D01*
X108991320Y-66230220D01*
G36*
X108991320Y-66230220D02*
G01*
X108761320Y-66230220D01*
X108761320Y-65680220D01*
X108991320Y-65680220D01*
X108991320Y-66230220D01*
G37*
X108691320Y-69280220D02*
X108461320Y-69280220D01*
X108461320Y-68630220D01*
X108691320Y-68630220D01*
X108691320Y-69280220D01*
G36*
X108691320Y-69280220D02*
G01*
X108461320Y-69280220D01*
X108461320Y-68630220D01*
X108691320Y-68630220D01*
X108691320Y-69280220D01*
G37*
X108391320Y-66230220D02*
X108161320Y-66230220D01*
X108161320Y-65680220D01*
X108391320Y-65680220D01*
X108391320Y-66230220D01*
G36*
X108391320Y-66230220D02*
G01*
X108161320Y-66230220D01*
X108161320Y-65680220D01*
X108391320Y-65680220D01*
X108391320Y-66230220D01*
G37*
X108091320Y-69280220D02*
X107861320Y-69280220D01*
X107861320Y-68630220D01*
X108091320Y-68630220D01*
X108091320Y-69280220D01*
G36*
X108091320Y-69280220D02*
G01*
X107861320Y-69280220D01*
X107861320Y-68630220D01*
X108091320Y-68630220D01*
X108091320Y-69280220D01*
G37*
X107791320Y-66230220D02*
X107561320Y-66230220D01*
X107561320Y-65680220D01*
X107791320Y-65680220D01*
X107791320Y-66230220D01*
G36*
X107791320Y-66230220D02*
G01*
X107561320Y-66230220D01*
X107561320Y-65680220D01*
X107791320Y-65680220D01*
X107791320Y-66230220D01*
G37*
X107491320Y-69280220D02*
X107261320Y-69280220D01*
X107261320Y-68630220D01*
X107491320Y-68630220D01*
X107491320Y-69280220D01*
G36*
X107491320Y-69280220D02*
G01*
X107261320Y-69280220D01*
X107261320Y-68630220D01*
X107491320Y-68630220D01*
X107491320Y-69280220D01*
G37*
X106776320Y-69080220D02*
X106476320Y-69080220D01*
X106476320Y-68380220D01*
X106776320Y-68380220D01*
X106776320Y-69080220D01*
G36*
X106776320Y-69080220D02*
G01*
X106476320Y-69080220D01*
X106476320Y-68380220D01*
X106776320Y-68380220D01*
X106776320Y-69080220D01*
G37*
%TD*%
D15*
%TO.C,R4*%
X117096320Y-72907720D03*
X117096320Y-71257720D03*
%TD*%
%TO.C,R8*%
X121896320Y-71257720D03*
X121896320Y-72907720D03*
%TD*%
%TO.C,R7*%
X120696320Y-72907720D03*
X120696320Y-71257720D03*
%TD*%
%TO.C,R6*%
X119496320Y-72907720D03*
X119496320Y-71257720D03*
%TD*%
%TO.C,R5*%
X118296320Y-72907720D03*
X118296320Y-71257720D03*
%TD*%
D16*
%TO.C,R3*%
X103671320Y-65882720D03*
X105321320Y-65882720D03*
%TD*%
%TO.C,R2*%
X103671320Y-70982720D03*
X105321320Y-70982720D03*
%TD*%
%TO.C,R1*%
X103667720Y-73482720D03*
X105317720Y-73482720D03*
%TD*%
D17*
%TO.C,D3*%
X118396320Y-84472720D03*
X118396320Y-86222720D03*
%TD*%
D18*
%TO.C,U2*%
X109821320Y-91082720D03*
X109821320Y-89812720D03*
X116196320Y-89812720D03*
X116196320Y-91082720D03*
%TD*%
D17*
%TO.C,D1*%
X118396320Y-92272720D03*
X118396320Y-94022720D03*
%TD*%
D18*
%TO.C,U3*%
X109821320Y-87082720D03*
X109821320Y-85812720D03*
X116196320Y-85812720D03*
X116196320Y-87082720D03*
%TD*%
D17*
%TO.C,D2*%
X118396320Y-88272720D03*
X118396320Y-90022720D03*
%TD*%
D18*
%TO.C,U1*%
X109821320Y-95082720D03*
X109821320Y-93812720D03*
X116196320Y-93812720D03*
X116196320Y-95082720D03*
%TD*%
M02*
