%TF.GenerationSoftware,KiCad,Pcbnew,7.0.5-0*%
%TF.CreationDate,2023-06-28T16:40:04-07:00*%
%TF.ProjectId,SLM-VERA,534c4d2d-5645-4524-912e-6b696361645f,rev?*%
%TF.SameCoordinates,PX5f5d2a1PY5f5eba0*%
%TF.FileFunction,Soldermask,Top*%
%TF.FilePolarity,Negative*%
%FSLAX46Y46*%
G04 Gerber Fmt 4.6, Leading zero omitted, Abs format (unit mm)*
G04 Created by KiCad (PCBNEW 7.0.5-0) date 2023-06-28 16:40:04*
%MOMM*%
%LPD*%
G01*
G04 APERTURE LIST*
G04 Aperture macros list*
%AMRoundRect*
0 Rectangle with rounded corners*
0 $1 Rounding radius*
0 $2 $3 $4 $5 $6 $7 $8 $9 X,Y pos of 4 corners*
0 Add a 4 corners polygon primitive as box body*
4,1,4,$2,$3,$4,$5,$6,$7,$8,$9,$2,$3,0*
0 Add four circle primitives for the rounded corners*
1,1,$1+$1,$2,$3*
1,1,$1+$1,$4,$5*
1,1,$1+$1,$6,$7*
1,1,$1+$1,$8,$9*
0 Add four rect primitives between the rounded corners*
20,1,$1+$1,$2,$3,$4,$5,0*
20,1,$1+$1,$4,$5,$6,$7,0*
20,1,$1+$1,$6,$7,$8,$9,0*
20,1,$1+$1,$8,$9,$2,$3,0*%
G04 Aperture macros list end*
%ADD10RoundRect,0.200000X-0.200000X-0.275000X0.200000X-0.275000X0.200000X0.275000X-0.200000X0.275000X0*%
%ADD11RoundRect,0.200000X0.275000X-0.200000X0.275000X0.200000X-0.275000X0.200000X-0.275000X-0.200000X0*%
%ADD12RoundRect,0.237500X-0.287500X-0.237500X0.287500X-0.237500X0.287500X0.237500X-0.287500X0.237500X0*%
%ADD13RoundRect,0.150000X-0.150000X0.662500X-0.150000X-0.662500X0.150000X-0.662500X0.150000X0.662500X0*%
%ADD14C,1.500000*%
%ADD15R,0.300000X0.800000*%
%ADD16R,0.300000X0.650000*%
%ADD17R,0.400000X0.950000*%
%ADD18R,2.000000X1.200000*%
%ADD19O,2.000000X1.200000*%
G04 APERTURE END LIST*
D10*
%TO.C,R1*%
X3671399Y26520000D03*
X5321399Y26520000D03*
%TD*%
D11*
%TO.C,R4*%
X11800000Y27875000D03*
X11800000Y29525000D03*
%TD*%
D12*
%TO.C,D3*%
X18775000Y14387500D03*
X17025000Y14387500D03*
%TD*%
D13*
%TO.C,U2*%
X15835000Y5812500D03*
X14565000Y5812500D03*
X14565000Y12187500D03*
X15835000Y12187500D03*
%TD*%
D12*
%TO.C,D1*%
X10775000Y14387500D03*
X9025000Y14387500D03*
%TD*%
D11*
%TO.C,R6*%
X9400000Y27875000D03*
X9400000Y29525000D03*
%TD*%
D13*
%TO.C,U3*%
X19635000Y5812500D03*
X18365000Y5812500D03*
X18365000Y12187500D03*
X19635000Y12187500D03*
%TD*%
D14*
%TO.C,~{LED3}*%
X5700000Y16600000D03*
%TD*%
D10*
%TO.C,R2*%
X3674999Y29020000D03*
X5324999Y29020000D03*
%TD*%
D14*
%TO.C,~{LASER2}*%
X24396141Y23946417D03*
%TD*%
D15*
%TO.C,J1*%
X21000000Y20025000D03*
D16*
X20700000Y22900000D03*
D15*
X20400000Y20025000D03*
D16*
X20100000Y22900000D03*
D15*
X19800000Y20025000D03*
D16*
X19500000Y22900000D03*
D15*
X19200000Y20025000D03*
D16*
X18900000Y22900000D03*
D15*
X18600000Y20025000D03*
D16*
X18300000Y22900000D03*
D15*
X18000000Y20025000D03*
D16*
X17700000Y22900000D03*
D15*
X17400000Y20025000D03*
D16*
X17100000Y22900000D03*
D15*
X16800000Y20025000D03*
D16*
X16500000Y22900000D03*
D15*
X16200000Y20025000D03*
D16*
X15900000Y22900000D03*
D15*
X15600000Y20025000D03*
D16*
X15300000Y22900000D03*
D15*
X15000000Y20025000D03*
D16*
X14700000Y22900000D03*
D15*
X14400000Y20025000D03*
D16*
X14100000Y22900000D03*
D15*
X13800000Y20025000D03*
D16*
X13500000Y22900000D03*
D15*
X13200000Y20025000D03*
D16*
X12900000Y22900000D03*
D15*
X12600000Y20025000D03*
D16*
X12300000Y22900000D03*
D15*
X12000000Y20025000D03*
D16*
X11700000Y22900000D03*
D15*
X11400000Y20025000D03*
D16*
X11100000Y22900000D03*
D15*
X10800000Y20025000D03*
D16*
X10500000Y22900000D03*
D15*
X10200000Y20025000D03*
D16*
X9900000Y22900000D03*
D15*
X9600000Y20025000D03*
D16*
X9300000Y22900000D03*
D15*
X9000000Y20025000D03*
D16*
X8700000Y22900000D03*
D15*
X8400000Y20025000D03*
D16*
X8100000Y22900000D03*
D15*
X7800000Y20025000D03*
D17*
X21700000Y20300000D03*
X7100000Y20300000D03*
%TD*%
D11*
%TO.C,R8*%
X7000000Y27875000D03*
X7000000Y29525000D03*
%TD*%
D15*
%TO.C,J2*%
X7800000Y36800000D03*
D16*
X8100000Y33925000D03*
D15*
X8400000Y36800000D03*
D16*
X8700000Y33925000D03*
D15*
X9000000Y36800000D03*
D16*
X9300000Y33925000D03*
D15*
X9600000Y36800000D03*
D16*
X9900000Y33925000D03*
D15*
X10200000Y36800000D03*
D16*
X10500000Y33925000D03*
D15*
X10800000Y36800000D03*
D16*
X11100000Y33925000D03*
D15*
X11400000Y36800000D03*
D16*
X11700000Y33925000D03*
D15*
X12000000Y36800000D03*
D16*
X12300000Y33925000D03*
D15*
X12600000Y36800000D03*
D16*
X12900000Y33925000D03*
D15*
X13200000Y36800000D03*
D16*
X13500000Y33925000D03*
D15*
X13800000Y36800000D03*
D16*
X14100000Y33925000D03*
D15*
X14400000Y36800000D03*
D16*
X14700000Y33925000D03*
D15*
X15000000Y36800000D03*
D16*
X15300000Y33925000D03*
D15*
X15600000Y36800000D03*
D16*
X15900000Y33925000D03*
D15*
X16200000Y36800000D03*
D16*
X16500000Y33925000D03*
D15*
X16800000Y36800000D03*
D16*
X17100000Y33925000D03*
D15*
X17400000Y36800000D03*
D16*
X17700000Y33925000D03*
D15*
X18000000Y36800000D03*
D16*
X18300000Y33925000D03*
D15*
X18600000Y36800000D03*
D16*
X18900000Y33925000D03*
D15*
X19200000Y36800000D03*
D16*
X19500000Y33925000D03*
D15*
X19800000Y36800000D03*
D16*
X20100000Y33925000D03*
D15*
X20400000Y36800000D03*
D16*
X20700000Y33925000D03*
D15*
X21000000Y36800000D03*
D17*
X7100000Y36525000D03*
X21700000Y36525000D03*
%TD*%
D14*
%TO.C,STROBE*%
X4699999Y41720000D03*
%TD*%
D11*
%TO.C,R7*%
X8200000Y27875000D03*
X8200000Y29525000D03*
%TD*%
D14*
%TO.C,~{LASER1}*%
X24400000Y26500000D03*
%TD*%
D12*
%TO.C,D2*%
X13025000Y14387500D03*
X14775000Y14387500D03*
%TD*%
D14*
%TO.C,~{LED1}*%
X5200000Y8400000D03*
%TD*%
D13*
%TO.C,U1*%
X11835000Y5812500D03*
X10565000Y5812500D03*
X10565000Y12187500D03*
X11835000Y12187500D03*
%TD*%
D11*
%TO.C,R5*%
X10600000Y27875000D03*
X10600000Y29525000D03*
%TD*%
D14*
%TO.C,TRIGGER*%
X4699999Y44420000D03*
%TD*%
%TO.C,~{LASER3}*%
X24400000Y21400000D03*
%TD*%
%TO.C,~{LED2}*%
X5500000Y12300000D03*
%TD*%
D10*
%TO.C,R3*%
X3674999Y34120000D03*
X5324999Y34120000D03*
%TD*%
D18*
%TO.C,U4*%
X26899999Y46820000D03*
D19*
X26899999Y44280000D03*
X26899999Y41740000D03*
X26899999Y39200000D03*
X26899999Y36660000D03*
X26899999Y34120000D03*
X26899999Y31580000D03*
X26899999Y29040000D03*
X26899999Y26500000D03*
X26899999Y23960000D03*
X26899999Y21420000D03*
X26899999Y18880000D03*
X26899999Y16340000D03*
X26899999Y13800000D03*
X26899999Y11260000D03*
X26899999Y8720000D03*
X26899999Y6180000D03*
X26899999Y3640000D03*
X26899999Y1100000D03*
X1503679Y1102720D03*
X1503679Y3642720D03*
X1499999Y6180000D03*
X1499999Y8720000D03*
X1499999Y11260000D03*
X1499999Y13800000D03*
X1499999Y16340000D03*
X1499999Y18880000D03*
X1499999Y21420000D03*
X1499999Y23960000D03*
X1499999Y26500000D03*
X1499999Y29040000D03*
X1499999Y31580000D03*
X1499999Y34120000D03*
X1499999Y36660000D03*
X1499999Y39200000D03*
X1499999Y41740000D03*
X1499999Y44280000D03*
X1499999Y46820000D03*
%TD*%
M02*
